<svg xmlns="http://www.w3.org/2000/svg" viewBox="0 0 252 180"><defs><style>.cls-1{fill:#020000;}.cls-2{fill:#fff800;}.cls-3{fill:#b96e2b;}.cls-4{fill:#f8f8f8;}.cls-5{fill:#3f3504;}.cls-6{fill:#f4e09c;}.cls-7{fill:#4f3e08;}.cls-8{fill:#fffac2;}.cls-9{fill:#cda349;}.cls-10{fill:#fbcc34;}.cls-11{fill:#c08329;}.cls-12{fill:#ffe89b;}.cls-13{fill:#3a3803;}.cls-14{fill:#c3922e;}.cls-15{fill:#fbc926;}.cls-16{fill:#544e14;}.cls-17{fill:#e2c675;}</style></defs><g id="Layer_2" data-name="Layer 2"><rect class="cls-1" x="-274" y="-210" width="798.17" height="600"/></g><g id="Layer_1" data-name="Layer 1"><path class="cls-2" d="M48.86,148.52a.64.64,0,0,1-.83.4.65.65,0,0,1-.4-.83.66.66,0,0,1,.84-.4A.65.65,0,0,1,48.86,148.52Z"/><path class="cls-3" d="M200.73,100.35a.43.43,0,0,1,.52.68.44.44,0,0,1-.6-.08A.43.43,0,0,1,200.73,100.35Z"/><path class="cls-4" d="M70.4,151.37A1.54,1.54,0,0,1,73,153.1a1.54,1.54,0,1,1-2.56-1.73Z"/><path class="cls-5" d="M194.54,99.89a1.11,1.11,0,1,1,1.51.43A1.11,1.11,0,0,1,194.54,99.89Z"/><path class="cls-6" d="M198.9,90.36a.62.62,0,0,1-1.1.58.62.62,0,0,1,1.1-.58Z"/><path class="cls-7" d="M3.31,64.93a.52.52,0,0,1-.68-.27.52.52,0,1,1,.68.27Z"/><path class="cls-5" d="M64.14,125.23a.69.69,0,1,1-.25-1.35.69.69,0,1,1,.25,1.35Z"/><path class="cls-8" d="M61,125.86a1,1,0,1,1-1.64-1.29,1,1,0,0,1,1.47-.17A1,1,0,0,1,61,125.86Z"/><path class="cls-9" d="M67,171.35a1.11,1.11,0,1,1,.26-1.55A1.11,1.11,0,0,1,67,171.35Z"/><path class="cls-7" d="M27,123.53a.45.45,0,0,1,.23.59.45.45,0,0,1-.6.23.45.45,0,0,1,.37-.82Z"/><path class="cls-10" d="M192.11,88.5a1.24,1.24,0,0,1-1.7-.34,1.22,1.22,0,0,1,2-1.36A1.22,1.22,0,0,1,192.11,88.5Z"/><path class="cls-11" d="M208,81.91a1.35,1.35,0,1,1-1.9-.16A1.35,1.35,0,0,1,208,81.91Z"/><path class="cls-8" d="M66.17,122.39a1.52,1.52,0,1,1,.78-2A1.53,1.53,0,0,1,66.17,122.39Z"/><path class="cls-12" d="M12.33,43.65a1.22,1.22,0,1,1,1.72,0A1.21,1.21,0,0,1,12.33,43.65Z"/><path class="cls-6" d="M195.45,24.12a1.15,1.15,0,1,1,.59,1.51A1.14,1.14,0,0,1,195.45,24.12Z"/><path class="cls-13" d="M81.48,149.64a1.25,1.25,0,1,1,1.26-2.17,1.25,1.25,0,0,1-1.26,2.17Z"/><path class="cls-14" d="M64.89,107.7a1,1,0,0,1,1.09-.86,1,1,0,0,1-.22,2A1,1,0,0,1,64.89,107.7Z"/><path class="cls-2" d="M65.39,64.83a.89.89,0,1,1,1-.73A.89.89,0,0,1,65.39,64.83Z"/><path class="cls-8" d="M17.46,36.48a1.4,1.4,0,1,1-.18,2A1.4,1.4,0,0,1,17.46,36.48Z"/><circle class="cls-15" cx="85.95" cy="140.56" r="0.98" transform="translate(-7.07 4.58) rotate(-2.93)"/><path class="cls-16" d="M145.43,68.16a.72.72,0,0,1,.62-1.3.72.72,0,0,1-.62,1.3Z"/><path class="cls-13" d="M237,105.15a.65.65,0,0,1-.89.18.66.66,0,0,1-.18-.9.65.65,0,0,1,.89-.18A.65.65,0,0,1,237,105.15Z"/><path class="cls-10" d="M42.16,117.5a.52.52,0,1,1,.37-.64A.53.53,0,0,1,42.16,117.5Z"/><path class="cls-10" d="M169.67,65.74a1.16,1.16,0,1,1-1.51.62A1.16,1.16,0,0,1,169.67,65.74Z"/><path class="cls-12" d="M30.25,130.93a.54.54,0,1,1-.28-1,.54.54,0,1,1,.28,1Z"/><path class="cls-8" d="M143,43.66a1.17,1.17,0,1,1-1.64.25A1.16,1.16,0,0,1,143,43.66Z"/><path class="cls-3" d="M81,81.46a.75.75,0,0,1-.5.94A.76.76,0,0,1,80.05,81,.75.75,0,0,1,81,81.46Z"/><path class="cls-15" d="M246.05,79a.84.84,0,0,1,.71.94.83.83,0,0,1-.94.71.83.83,0,1,1,.23-1.65Z"/><path class="cls-7" d="M171.63,1.76A1,1,0,0,1,172.56,0,1,1,0,0,1,173,1.36,1,1,0,0,1,171.63,1.76Z"/><path class="cls-15" d="M178.05,53.37a1.45,1.45,0,1,1-1.81,1A1.45,1.45,0,0,1,178.05,53.37Z"/><path class="cls-11" d="M188.14,30.66a1.24,1.24,0,1,1-1.74-.16A1.24,1.24,0,0,1,188.14,30.66Z"/><path class="cls-4" d="M45.42,38.63a.51.51,0,0,1,.57.43.52.52,0,0,1-.43.57.51.51,0,0,1-.57-.44A.49.49,0,0,1,45.42,38.63Z"/><path class="cls-12" d="M85.85,176a.57.57,0,0,1-.55.58.57.57,0,0,1-.58-.55.57.57,0,0,1,1.13,0Z"/><path class="cls-11" d="M95.71,166.61a1.14,1.14,0,1,1-1.07,1.2A1.14,1.14,0,0,1,95.71,166.61Z"/><path class="cls-15" d="M234.75,158.81a.41.41,0,1,1,.38.44A.41.41,0,0,1,234.75,158.81Z"/><path class="cls-15" d="M138.71,50.24A1.52,1.52,0,1,1,140,52,1.53,1.53,0,0,1,138.71,50.24Z"/><path class="cls-8" d="M66.76,34.38a1.12,1.12,0,1,1-1.57-.2A1.12,1.12,0,0,1,66.76,34.38Z"/><path class="cls-4" d="M125.57,93.05a.44.44,0,0,1,.52-.35.44.44,0,1,1-.17.87A.44.44,0,0,1,125.57,93.05Z"/><path class="cls-3" d="M148.18,57.44a.5.5,0,0,1-.51.46.48.48,0,0,1-.46-.51.48.48,0,0,1,.51-.46A.49.49,0,0,1,148.18,57.44Z"/><path class="cls-8" d="M7.86,31.7a.55.55,0,0,1,.66.4.54.54,0,0,1-1,.26A.55.55,0,0,1,7.86,31.7Z"/><path class="cls-12" d="M226.08,107.93a.85.85,0,1,1,.95,1.41.85.85,0,0,1-.95-1.41Z"/><path class="cls-15" d="M21.72,35.61a.71.71,0,1,1,.08,1A.71.71,0,0,1,21.72,35.61Z"/><path class="cls-17" d="M135.79,12.15a1.44,1.44,0,1,1,2-.24A1.43,1.43,0,0,1,135.79,12.15Z"/><path class="cls-5" d="M127.6,88.21a.49.49,0,0,1,.67.2.49.49,0,0,1-.86.47A.49.49,0,0,1,127.6,88.21Z"/><path class="cls-14" d="M80.79,139.15a.47.47,0,0,1-.9.27.47.47,0,0,1,.31-.59A.48.48,0,0,1,80.79,139.15Z"/><path class="cls-17" d="M33.67,159.49a1.5,1.5,0,1,1-.14-2.12A1.51,1.51,0,0,1,33.67,159.49Z"/><path class="cls-15" d="M116.15,58.73a.62.62,0,1,1,.88,0A.63.63,0,0,1,116.15,58.73Z"/><path class="cls-12" d="M29.08,79.42a.5.5,0,1,1-.14.7A.51.51,0,0,1,29.08,79.42Z"/><path class="cls-17" d="M70.4,102.8a.64.64,0,0,1-.58-1.15.64.64,0,1,1,.58,1.15Z"/><path class="cls-15" d="M207.55,88a.45.45,0,0,1-.33-.55.46.46,0,0,1,.56-.33.46.46,0,0,1,.32.56A.44.44,0,0,1,207.55,88Z"/><path class="cls-10" d="M144.85,139.18a.44.44,0,0,1-.18-.59.43.43,0,1,1,.76.42A.43.43,0,0,1,144.85,139.18Z"/><path class="cls-17" d="M26.2,5.46a1.35,1.35,0,1,1-1.89.24A1.35,1.35,0,0,1,26.2,5.46Z"/><path class="cls-3" d="M199.58,5.09a.53.53,0,1,1,.35-.65A.52.52,0,0,1,199.58,5.09Z"/><path class="cls-9" d="M60.56,11.54a1.63,1.63,0,1,1,.11-2.31A1.64,1.64,0,0,1,60.56,11.54Z"/><path class="cls-13" d="M253.07,76.14a1.15,1.15,0,1,1-1.5.63A1.16,1.16,0,0,1,253.07,76.14Z"/><path class="cls-13" d="M39.31,163.63a.9.9,0,1,1,1.76.42.9.9,0,1,1-1.76-.42Z"/><path class="cls-15" d="M206.54,93.21a1.13,1.13,0,1,1,1.26,1A1.14,1.14,0,0,1,206.54,93.21Z"/><path class="cls-8" d="M210.25,71.4a.66.66,0,1,1,.78.5A.65.65,0,0,1,210.25,71.4Z"/><path class="cls-5" d="M81.38,102.21a.65.65,0,0,1-.6.68.64.64,0,0,1-.69-.6.65.65,0,0,1,1.29-.08Z"/><path class="cls-15" d="M184.13,44.93a.9.9,0,0,1-.38,1.2.89.89,0,0,1-1.2-.37.89.89,0,1,1,1.58-.83Z"/><path class="cls-5" d="M199.67,0a.75.75,0,0,1,1.07,0,.76.76,0,0,1,0,1.07.77.77,0,0,1-1.07,0A.76.76,0,0,1,199.67,0Z"/><path class="cls-8" d="M163.82,124.16a1.14,1.14,0,1,1,1-1.24A1.14,1.14,0,0,1,163.82,124.16Z"/><path class="cls-17" d="M248.54,116.64a1.28,1.28,0,1,1,1.21,1.34A1.27,1.27,0,0,1,248.54,116.64Z"/><path class="cls-3" d="M171.28,62.81a1.22,1.22,0,0,1-.67-2.34,1.2,1.2,0,0,1,1.5.83A1.22,1.22,0,0,1,171.28,62.81Z"/><path class="cls-7" d="M193.5,175.08a.49.49,0,1,1-.68-.11A.48.48,0,0,1,193.5,175.08Z"/><path class="cls-2" d="M137.55,24.17a.59.59,0,1,1,1.11-.42.6.6,0,0,1-.35.77A.6.6,0,0,1,137.55,24.17Z"/><path class="cls-14" d="M69.59,175.47a.85.85,0,1,1-.55-1.08A.85.85,0,0,1,69.59,175.47Z"/><path class="cls-13" d="M92.61,175.93a.43.43,0,0,1,.32.53.44.44,0,0,1-.53.33.45.45,0,0,1-.33-.54A.44.44,0,0,1,92.61,175.93Z"/><path class="cls-14" d="M71.42,43.11a1.46,1.46,0,1,1-2,.53A1.47,1.47,0,0,1,71.42,43.11Z"/><path class="cls-4" d="M116,83.48a.9.9,0,0,1-.5,1.73.91.91,0,0,1-.62-1.12A.9.9,0,0,1,116,83.48Z"/><path class="cls-15" d="M69.59,33.59a.89.89,0,0,1,.42,1.2.91.91,0,0,1-1.2.43A.92.92,0,0,1,68.38,34,.9.9,0,0,1,69.59,33.59Z"/><path class="cls-5" d="M176.35,59.32a.82.82,0,0,1,1.09-1.22.82.82,0,0,1-1.09,1.22Z"/><path class="cls-9" d="M8.81,46a.67.67,0,1,1-.46-.83A.66.66,0,0,1,8.81,46Z"/><path class="cls-4" d="M239.79,44.63a.52.52,0,0,1,.05-.73.52.52,0,1,1,.68.79A.52.52,0,0,1,239.79,44.63Z"/><path class="cls-5" d="M166.36.52a1.07,1.07,0,1,1,.86,1.25A1.08,1.08,0,0,1,166.36.52Z"/><path class="cls-8" d="M31.67,112.53a.87.87,0,0,1,.61,1.07.88.88,0,0,1-1.07.62.89.89,0,0,1-.62-1.08A.88.88,0,0,1,31.67,112.53Z"/><path class="cls-17" d="M8.41,59.76a1.41,1.41,0,0,1,1.05,1.7,1.43,1.43,0,0,1-1.71,1,1.41,1.41,0,0,1,.66-2.75Z"/><path class="cls-14" d="M117.5,31.73a.73.73,0,0,1,0-1,.74.74,0,0,1,1,0,.73.73,0,0,1,0,1A.74.74,0,0,1,117.5,31.73Z"/><path class="cls-8" d="M203.58,37.07a.91.91,0,1,1-1.15-.57A.92.92,0,0,1,203.58,37.07Z"/><path class="cls-4" d="M62,140.61a.42.42,0,0,1,.58.19.43.43,0,0,1-.18.58.43.43,0,1,1-.4-.77Z"/><path class="cls-15" d="M87.2,12.22a.91.91,0,1,1-1.82,0,.91.91,0,1,1,1.82,0Z"/><path class="cls-12" d="M5.37,50.47a.58.58,0,1,1,.7-.42A.58.58,0,0,1,5.37,50.47Z"/><path class="cls-10" d="M158.74,56.9a1.14,1.14,0,1,1-1.57.35A1.14,1.14,0,0,1,158.74,56.9Z"/><path class="cls-9" d="M147.61,125.65a.76.76,0,1,1-.92.56A.75.75,0,0,1,147.61,125.65Z"/><path class="cls-17" d="M177.83,40.74a1.52,1.52,0,1,1-.81-2A1.52,1.52,0,0,1,177.83,40.74Z"/><path class="cls-10" d="M50.18,36.89a.6.6,0,1,1,1.11.45.6.6,0,1,1-1.11-.45Z"/><path class="cls-15" d="M173.6,86.75a.67.67,0,0,1-.84.42.67.67,0,1,1,.43-1.26A.67.67,0,0,1,173.6,86.75Z"/><path class="cls-16" d="M133.69,43.89a.58.58,0,1,1,.1-.82A.58.58,0,0,1,133.69,43.89Z"/><path class="cls-4" d="M136.65,120.45a1,1,0,1,1-1.34-.3A1,1,0,0,1,136.65,120.45Z"/><path class="cls-15" d="M18.72,16.81a.63.63,0,1,1,.21,1.25.63.63,0,0,1-.21-1.25Z"/><path class="cls-9" d="M238.75,30.1a.42.42,0,0,1,.09.83.42.42,0,0,1-.09-.83Z"/><path class="cls-17" d="M70.71,137.73a1.39,1.39,0,1,1-.84,1.78A1.39,1.39,0,0,1,70.71,137.73Z"/><path class="cls-5" d="M142.58,54.81a1.16,1.16,0,1,1,.6-1.52A1.17,1.17,0,0,1,142.58,54.81Z"/><path class="cls-16" d="M175.2,35.62a.52.52,0,1,1-.54.49A.51.51,0,0,1,175.2,35.62Z"/><path class="cls-13" d="M110.35,27.47a.44.44,0,0,1,.22-.58.43.43,0,0,1,.36.79A.44.44,0,0,1,110.35,27.47Z"/><path class="cls-11" d="M234.1,51.32a.57.57,0,0,1-.79-.1.56.56,0,0,1,.11-.79.55.55,0,0,1,.78.11A.56.56,0,0,1,234.1,51.32Z"/><path class="cls-12" d="M38.06,48a1,1,0,1,1-1-.91A.94.94,0,0,1,38.06,48Z"/><path class="cls-9" d="M54.85,29.29a1.6,1.6,0,1,1,1.69,1.49A1.6,1.6,0,0,1,54.85,29.29Z"/><path class="cls-11" d="M68.8,11.23a1.46,1.46,0,1,1-1.4-1.51A1.45,1.45,0,0,1,68.8,11.23Z"/><path class="cls-15" d="M81.53,156.28a1.44,1.44,0,1,1,2,.1A1.44,1.44,0,0,1,81.53,156.28Z"/><path class="cls-14" d="M36.87,122.09a1.2,1.2,0,1,1,1.78,1.6,1.18,1.18,0,0,1-1.69.09A1.2,1.2,0,0,1,36.87,122.09Z"/><path class="cls-8" d="M55.66,124.82a1.37,1.37,0,1,1-1.26,1.48A1.38,1.38,0,0,1,55.66,124.82Z"/><path class="cls-6" d="M167.2,130.93a1.3,1.3,0,0,1,1.39-2.2,1.3,1.3,0,0,1-1.39,2.2Z"/><path class="cls-9" d="M84.69,64.43a1.61,1.61,0,1,1,.89,2.1A1.61,1.61,0,0,1,84.69,64.43Z"/><path class="cls-9" d="M245.61,52.93a.77.77,0,1,1,.29-1A.77.77,0,0,1,245.61,52.93Z"/><path class="cls-17" d="M168.57,141.49a.67.67,0,0,1,.88-.38.68.68,0,1,1-.51,1.26A.67.67,0,0,1,168.57,141.49Z"/><path class="cls-11" d="M5.13,27.8A.56.56,0,0,1,5,27a.55.55,0,0,1,.88.66A.55.55,0,0,1,5.13,27.8Z"/><path class="cls-11" d="M206.61,10.61a1,1,0,0,1,.4,1.29,1,1,0,1,1-.4-1.29Z"/><path class="cls-7" d="M93.37,68.93a.6.6,0,0,1-.8.9.61.61,0,0,1,0-.85A.6.6,0,0,1,93.37,68.93Z"/><path class="cls-13" d="M37.52,61.87a.42.42,0,0,1,.56.21.43.43,0,0,1-.21.56.42.42,0,0,1-.56-.21A.42.42,0,0,1,37.52,61.87Z"/><path class="cls-6" d="M65.49,102.6a.94.94,0,1,1,1.33-.11A.95.95,0,0,1,65.49,102.6Z"/><path class="cls-3" d="M72.06,30.36a1.41,1.41,0,1,1-1.91-.58A1.41,1.41,0,0,1,72.06,30.36Z"/><path class="cls-4" d="M216.05,118.29a.92.92,0,1,1-1.29-.14A.92.92,0,0,1,216.05,118.29Z"/><path class="cls-15" d="M239,58.7a.54.54,0,1,1,.83.7.54.54,0,0,1-.83-.7Z"/><path class="cls-16" d="M76.16,7.75a1.46,1.46,0,1,1-1.6-1.31A1.46,1.46,0,0,1,76.16,7.75Z"/><path class="cls-14" d="M39.53,158.52a.44.44,0,0,1,.46.74.44.44,0,1,1-.46-.74Z"/><path class="cls-13" d="M249.62,122.32a1.59,1.59,0,0,1-.71,2.13,1.59,1.59,0,1,1-1.42-2.84A1.59,1.59,0,0,1,249.62,122.32Z"/><circle class="cls-15" cx="181.67" cy="92.87" r="1.36"/><path class="cls-9" d="M235.77,38.47a.71.71,0,0,1,.14,1,.72.72,0,0,1-1,.14.73.73,0,0,1-.13-1A.72.72,0,0,1,235.77,38.47Z"/><path class="cls-2" d="M202.29,61.64a.64.64,0,0,1-.36-.82.66.66,0,0,1,.83-.36.64.64,0,0,1,.35.83A.63.63,0,0,1,202.29,61.64Z"/><path class="cls-2" d="M190.63,69a1.25,1.25,0,1,1-1.75-.28A1.25,1.25,0,0,1,190.63,69Z"/><path class="cls-16" d="M156.64,122.81a1.29,1.29,0,1,1,.11-1.82A1.29,1.29,0,0,1,156.64,122.81Z"/><path class="cls-15" d="M214.82,47.84a.84.84,0,0,1-1.68,0,.84.84,0,0,1,1.68,0Z"/><path class="cls-14" d="M249.65,161.94a1,1,0,1,1,1.06-.93A1,1,0,0,1,249.65,161.94Z"/><path class="cls-5" d="M64.92,177.86a1.07,1.07,0,1,1,1.86,1.06,1.07,1.07,0,0,1-1.86-1.06Z"/><path class="cls-15" d="M118.54,129.74a1.37,1.37,0,1,1-1.07-1.62A1.38,1.38,0,0,1,118.54,129.74Z"/><path class="cls-3" d="M109,32a1.36,1.36,0,1,1,1.89.33A1.36,1.36,0,0,1,109,32Z"/><path class="cls-2" d="M43.14,13.65a1.56,1.56,0,1,1,2.15-.52A1.56,1.56,0,0,1,43.14,13.65Z"/><path class="cls-8" d="M41.44,55.85a.55.55,0,1,1,1,.33.54.54,0,0,1-.68.36A.55.55,0,0,1,41.44,55.85Z"/><path class="cls-2" d="M97.49,43a.64.64,0,1,1,0,.91A.65.65,0,0,1,97.49,43Z"/><path class="cls-13" d="M236.53,28.7a.46.46,0,0,1,.48.44.46.46,0,0,1-.92,0A.46.46,0,0,1,236.53,28.7Z"/><path class="cls-17" d="M178.18,98.62a.45.45,0,1,1-.38.81.45.45,0,0,1,.38-.81Z"/><path class="cls-13" d="M199.69,14.88a1.07,1.07,0,0,1-1.37.64,1.09,1.09,0,0,1-.64-1.38,1.07,1.07,0,0,1,1.38-.63A1.06,1.06,0,0,1,199.69,14.88Z"/><path class="cls-11" d="M72.68,21a1.45,1.45,0,1,1,1.88.81A1.46,1.46,0,0,1,72.68,21Z"/><path class="cls-6" d="M193.93,115.24a.57.57,0,0,1,.44,1.05.57.57,0,1,1-.44-1.05Z"/><path class="cls-7" d="M195.28,62.07a1,1,0,0,1,.2-1.39,1,1,0,0,1,1.18,1.6A1,1,0,0,1,195.28,62.07Z"/><path class="cls-7" d="M28.23,128.14a1.49,1.49,0,1,1,2.05.48A1.49,1.49,0,0,1,28.23,128.14Z"/><path class="cls-13" d="M76.79,141.2a.75.75,0,0,1,.49.93.74.74,0,1,1-.49-.93Z"/><path class="cls-6" d="M90.21,50.39a.44.44,0,0,1-.63,0,.45.45,0,1,1,.63,0Z"/><path class="cls-17" d="M72.14,158.31a.62.62,0,0,1-.52-.7.63.63,0,0,1,.71-.52.62.62,0,1,1-.19,1.22Z"/><path class="cls-2" d="M229.93,38.1a.53.53,0,1,1,.1.73A.53.53,0,0,1,229.93,38.1Z"/><path class="cls-7" d="M12.24,32.16a.66.66,0,1,1-.7-.62A.66.66,0,0,1,12.24,32.16Z"/><path class="cls-5" d="M188,5.35a1.11,1.11,0,0,1,.38-2.19,1.12,1.12,0,0,1,.9,1.29A1.1,1.1,0,0,1,188,5.35Z"/><path class="cls-14" d="M208.79,49.44a.53.53,0,0,1-.68.34.54.54,0,1,1,.34-1A.53.53,0,0,1,208.79,49.44Z"/><path class="cls-2" d="M112,151.51a1,1,0,1,1-.51,1.31A1,1,0,0,1,112,151.51Z"/><path class="cls-12" d="M213,.38a1,1,0,0,1-1.27.72A1,1,0,0,1,211-.17a1,1,0,0,1,1.27-.72A1,1,0,0,1,213,.38Z"/><path class="cls-12" d="M54.58,5.12a.67.67,0,1,1,.92-.23A.67.67,0,0,1,54.58,5.12Z"/><path class="cls-16" d="M51.88,76.36a.81.81,0,0,1,.4-1.06.81.81,0,1,1,.66,1.47A.8.8,0,0,1,51.88,76.36Z"/><path class="cls-6" d="M168.18,7.14a1.36,1.36,0,1,1,1.08-1.6A1.36,1.36,0,0,1,168.18,7.14Z"/><path class="cls-17" d="M144.91,26.31a1.52,1.52,0,1,1-2,.69A1.51,1.51,0,0,1,144.91,26.31Z"/><path class="cls-10" d="M233.59,103.12a.82.82,0,0,1-1.41.84.83.83,0,0,1,.29-1.13A.82.82,0,0,1,233.59,103.12Z"/><path class="cls-15" d="M69.47,2A1.33,1.33,0,0,1,68.76.25a1.33,1.33,0,1,1,2.45,1A1.33,1.33,0,0,1,69.47,2Z"/><path class="cls-2" d="M86,173a1.15,1.15,0,0,1-.6-1.49,1.14,1.14,0,1,1,2.09.89A1.15,1.15,0,0,1,86,173Z"/><path class="cls-8" d="M191.1,75.46a1.64,1.64,0,1,1,.11-2.31A1.64,1.64,0,0,1,191.1,75.46Z"/><path class="cls-5" d="M47.86,55.14a.52.52,0,0,1-.14-.72.53.53,0,0,1,.72-.13.51.51,0,0,1,.14.71A.52.52,0,0,1,47.86,55.14Z"/><path class="cls-4" d="M110.59,127.18a1.17,1.17,0,1,1-1.66-.1A1.17,1.17,0,0,1,110.59,127.18Z"/><path class="cls-14" d="M145.49,22.63a.52.52,0,1,1,.09-.73A.53.53,0,0,1,145.49,22.63Z"/><path class="cls-4" d="M127.19,3.42a1.29,1.29,0,1,1-.79,1.64A1.29,1.29,0,0,1,127.19,3.42Z"/><path class="cls-11" d="M25.34,94.4a.43.43,0,0,1,.86,0,.43.43,0,1,1-.86,0Z"/><path class="cls-16" d="M177.69,67.92a.54.54,0,0,1,.47-.59.54.54,0,0,1,.59.47.53.53,0,1,1-1.06.12Z"/><path class="cls-4" d="M30.76,136.39a.46.46,0,0,1-.54-.37.45.45,0,0,1,.38-.54.46.46,0,0,1,.54.37A.47.47,0,0,1,30.76,136.39Z"/><path class="cls-17" d="M190.14,161.78a1.41,1.41,0,1,1-1.15-1.63A1.4,1.4,0,0,1,190.14,161.78Z"/><path class="cls-3" d="M186.88,23.93a.46.46,0,0,1,.55-.35.46.46,0,1,1-.19.89A.46.46,0,0,1,186.88,23.93Z"/><path class="cls-9" d="M50.92,8.88a.66.66,0,0,1-.55,1.21.66.66,0,1,1,.55-1.21Z"/><path class="cls-9" d="M74.65,84.72a1.28,1.28,0,1,1-1.81.07A1.27,1.27,0,0,1,74.65,84.72Z"/><path class="cls-2" d="M48.92,113.77a1.31,1.31,0,1,1-1.84,0A1.31,1.31,0,0,1,48.92,113.77Z"/><path class="cls-11" d="M111.38,124.23a.76.76,0,1,1-.94-.5A.74.74,0,0,1,111.38,124.23Z"/><path class="cls-17" d="M201.3,134.1a.8.8,0,0,1-.17,1.11.8.8,0,0,1-.95-1.28A.8.8,0,0,1,201.3,134.1Z"/><path class="cls-15" d="M114.05,54.41a.59.59,0,0,1-.11.84.6.6,0,1,1-.73-1A.59.59,0,0,1,114.05,54.41Z"/><path class="cls-8" d="M124.33,163a1,1,0,1,1-.77,1.85,1,1,0,0,1-.54-1.31A1,1,0,0,1,124.33,163Z"/><path class="cls-8" d="M175.17,81.72a1.56,1.56,0,1,1,1.91-1.09A1.55,1.55,0,0,1,175.17,81.72Z"/><path class="cls-9" d="M63.15,48.93a1.45,1.45,0,1,1-.75,1.91A1.45,1.45,0,0,1,63.15,48.93Z"/><path class="cls-16" d="M204.94,77.9a.56.56,0,1,1,.79,0A.56.56,0,0,1,204.94,77.9Z"/><path class="cls-11" d="M71.4,25.74a.52.52,0,1,1,0-.73A.52.52,0,0,1,71.4,25.74Z"/><path class="cls-12" d="M107.64,142.17a.86.86,0,0,1-.88.84.86.86,0,1,1,.88-.84Z"/><path class="cls-2" d="M195.41,27.93a.46.46,0,1,1,.36.55A.46.46,0,0,1,195.41,27.93Z"/><path class="cls-3" d="M83.24,145a.84.84,0,0,1-.06-1.18.82.82,0,0,1,1.17-.06.83.83,0,0,1,.07,1.17A.85.85,0,0,1,83.24,145Z"/><path class="cls-17" d="M162.7,98.86a1.57,1.57,0,1,1-1.9-2.49,1.57,1.57,0,0,1,1.9,2.49Z"/><path class="cls-17" d="M154.2,50.59a.43.43,0,0,1-.79-.35A.44.44,0,0,1,154,50,.43.43,0,0,1,154.2,50.59Z"/><path class="cls-17" d="M249.7,165.06a1.15,1.15,0,1,1,.25,1.61A1.15,1.15,0,0,1,249.7,165.06Z"/><path class="cls-12" d="M29.24,1.91a1.07,1.07,0,1,1,1.49.26A1.07,1.07,0,0,1,29.24,1.91Z"/><path class="cls-12" d="M245.46,138.22a.49.49,0,0,1,.67-.1.48.48,0,0,1-.57.76A.48.48,0,0,1,245.46,138.22Z"/><path class="cls-17" d="M169.54,147.1a1,1,0,1,1-.46,1.35A1,1,0,0,1,169.54,147.1Z"/><path class="cls-14" d="M165.49,69.21a.88.88,0,1,1-1.16.44A.88.88,0,0,1,165.49,69.21Z"/><path class="cls-13" d="M151.64,3.8a.46.46,0,1,1-.08-.65A.45.45,0,0,1,151.64,3.8Z"/><path class="cls-8" d="M204,139.93a1.18,1.18,0,0,1-1.5-1.83,1.19,1.19,0,0,1,1.67.17A1.18,1.18,0,0,1,204,139.93Z"/><path class="cls-10" d="M50.83,60.19a.42.42,0,0,1-.44-.4.41.41,0,0,1,.39-.45.43.43,0,0,1,.45.4A.44.44,0,0,1,50.83,60.19Z"/><path class="cls-5" d="M199,141.31a1.6,1.6,0,1,1,1.65-1.55A1.6,1.6,0,0,1,199,141.31Z"/><path class="cls-9" d="M137.59,67.6a1,1,0,0,1,1.1,1,1,1,0,1,1-1.1-1Z"/><path class="cls-9" d="M138.48,139.92a.76.76,0,0,1,1.5-.21.76.76,0,1,1-1.5.21Z"/><path class="cls-15" d="M127,121.36a.62.62,0,0,1,.17-.86.62.62,0,0,1,.69,1A.62.62,0,0,1,127,121.36Z"/><path class="cls-4" d="M119.59,62.22a1.29,1.29,0,0,1-1-1.52,1.29,1.29,0,0,1,2.53.5A1.3,1.3,0,0,1,119.59,62.22Z"/><path class="cls-2" d="M41.33,36.25a.77.77,0,1,1-1-.48A.77.77,0,0,1,41.33,36.25Z"/><path class="cls-16" d="M190.45,167.43a.46.46,0,1,1-.31.56A.45.45,0,0,1,190.45,167.43Z"/><path class="cls-6" d="M85.84,122.43a.76.76,0,0,1,.65.86.76.76,0,1,1-1.51-.22A.76.76,0,0,1,85.84,122.43Z"/><path class="cls-8" d="M127.71,9.6a.62.62,0,0,1-.86.23.63.63,0,1,1,.86-.23Z"/><path class="cls-6" d="M234.53,79.19a1.14,1.14,0,1,1,.89,1.35A1.14,1.14,0,0,1,234.53,79.19Z"/><path class="cls-14" d="M192.32,101.26a1.57,1.57,0,1,1-2.09.79A1.58,1.58,0,0,1,192.32,101.26Z"/><path class="cls-4" d="M130.12,117.15a1.15,1.15,0,1,1,2.26.37,1.15,1.15,0,0,1-2.26-.37Z"/><path class="cls-11" d="M43.82,5.06a1.07,1.07,0,0,1-2.13-.16,1.07,1.07,0,0,1,2.13.16Z"/><path class="cls-10" d="M89.7,16.58a1.21,1.21,0,1,1-1.59.61A1.22,1.22,0,0,1,89.7,16.58Z"/><path class="cls-11" d="M251.18,111.12a1.43,1.43,0,1,1-.15,2A1.43,1.43,0,0,1,251.18,111.12Z"/><path class="cls-9" d="M53.81,144.41a.55.55,0,0,1,.39-.65.54.54,0,1,1,.26,1A.54.54,0,0,1,53.81,144.41Z"/><path class="cls-13" d="M55.48,55.85a.42.42,0,1,1,.82-.18.42.42,0,0,1-.82.18Z"/><path class="cls-5" d="M211.68,26.39a1.4,1.4,0,0,1,.12,2.79,1.4,1.4,0,1,1-.12-2.79Z"/><path class="cls-13" d="M131.55,28.75a1.32,1.32,0,1,1,1.72.75A1.32,1.32,0,0,1,131.55,28.75Z"/><path class="cls-7" d="M199.49,67.4a.48.48,0,1,1,0,.68A.48.48,0,0,1,199.49,67.4Z"/><path class="cls-13" d="M19,42.6a.49.49,0,0,1-.44-.54.48.48,0,0,1,.53-.44.51.51,0,0,1,.45.54A.49.49,0,0,1,19,42.6Z"/><path class="cls-12" d="M67.39,6.66a1,1,0,1,1,1.45-.14A1,1,0,0,1,67.39,6.66Z"/><path class="cls-14" d="M74.09,68.7a1.55,1.55,0,1,1,1.84-1.19A1.56,1.56,0,0,1,74.09,68.7Z"/><path class="cls-14" d="M140.36,4.45a.44.44,0,0,1-.51.71.44.44,0,0,1,.51-.71Z"/><path class="cls-3" d="M171.63,168.63a.85.85,0,1,1,.8.88A.84.84,0,0,1,171.63,168.63Z"/><path class="cls-9" d="M66.89,42.57a.52.52,0,1,1-1,0,.52.52,0,1,1,1,0Z"/><path class="cls-5" d="M116.28,123.46a.94.94,0,0,1,.79-1.06.93.93,0,0,1,1.05.79.91.91,0,0,1-.78,1A.93.93,0,0,1,116.28,123.46Z"/><path class="cls-7" d="M53.87,50.24a1.47,1.47,0,1,1,1.83,1A1.47,1.47,0,0,1,53.87,50.24Z"/><path class="cls-15" d="M66.92,154.62a1,1,0,1,1-1.31-.6A1,1,0,0,1,66.92,154.62Z"/><path class="cls-17" d="M189.55,43.36a1.1,1.1,0,0,1-.93,2,1.11,1.11,0,0,1-.53-1.47A1.09,1.09,0,0,1,189.55,43.36Z"/><path class="cls-7" d="M143.83,179.56a.66.66,0,1,1-.06-.92A.65.65,0,0,1,143.83,179.56Z"/><path class="cls-14" d="M110.3,65.57a1.18,1.18,0,1,1,1.68,0A1.2,1.2,0,0,1,110.3,65.57Z"/><path class="cls-15" d="M48.1,2.14a1,1,0,0,1-1.35-.43A1,1,0,0,1,48.53.78,1,1,0,0,1,48.1,2.14Z"/><path class="cls-4" d="M98.48,145.48a1.36,1.36,0,1,1-1.89-.41A1.37,1.37,0,0,1,98.48,145.48Z"/><path class="cls-2" d="M28.85,14.82a.77.77,0,1,1,0-1.53.77.77,0,0,1,.78.75A.76.76,0,0,1,28.85,14.82Z"/><path class="cls-14" d="M84.14,63a.87.87,0,1,1,.19-1.22A.87.87,0,0,1,84.14,63Z"/><path class="cls-15" d="M239.38.18a.41.41,0,0,1-.82-.1.41.41,0,1,1,.82.1Z"/><path class="cls-9" d="M94.85,53.38a.65.65,0,1,1-.79.49A.65.65,0,0,1,94.85,53.38Z"/><path class="cls-3" d="M216.86,54.57a.58.58,0,0,1-.37-.74.57.57,0,0,1,.73-.37.58.58,0,1,1-.36,1.11Z"/><path class="cls-8" d="M205.81,34.32a1.07,1.07,0,1,1-.13-2.13,1.07,1.07,0,0,1,.13,2.13Z"/><path class="cls-8" d="M31,108a.42.42,0,0,1,.59,0,.41.41,0,0,1,.05.59.41.41,0,0,1-.59,0A.41.41,0,0,1,31,108Z"/><path class="cls-5" d="M129.06,124.16a.58.58,0,1,1,1.09.42.58.58,0,0,1-.76.34A.59.59,0,0,1,129.06,124.16Z"/><path class="cls-6" d="M132,135.15a1.36,1.36,0,1,1-.69,1.8A1.36,1.36,0,0,1,132,135.15Z"/><path class="cls-6" d="M13.61,50.84a.43.43,0,1,1-.33.51A.43.43,0,0,1,13.61,50.84Z"/><path class="cls-15" d="M47.58,5.17a.49.49,0,1,1,.68-.1A.48.48,0,0,1,47.58,5.17Z"/><path class="cls-12" d="M64,151a.75.75,0,0,1-.08,1.06A.75.75,0,1,1,64,151Z"/><path class="cls-7" d="M166.72,53a.72.72,0,1,1-.28-1A.72.72,0,0,1,166.72,53Z"/><path class="cls-14" d="M194.65,54.27a1.17,1.17,0,1,1,.9-1.39A1.17,1.17,0,0,1,194.65,54.27Z"/><path class="cls-6" d="M120.46,84.2a.49.49,0,1,1,.46-.51A.5.5,0,0,1,120.46,84.2Z"/><path class="cls-3" d="M114.24,43.66a.52.52,0,0,1-.41.61.53.53,0,0,1-.61-.42.52.52,0,0,1,.42-.6A.51.51,0,0,1,114.24,43.66Z"/><path class="cls-10" d="M247.44,153.79a.44.44,0,0,1,.87.1.44.44,0,1,1-.87-.1Z"/><path class="cls-14" d="M233.56,68a.58.58,0,1,1-.18.8A.59.59,0,0,1,233.56,68Z"/><path class="cls-15" d="M190.62,15.26a.59.59,0,0,1-.49.69.6.6,0,0,1-.7-.49.62.62,0,0,1,.49-.7A.61.61,0,0,1,190.62,15.26Z"/><path class="cls-6" d="M82.91,106.55a1.51,1.51,0,1,1-1.77,1.19A1.5,1.5,0,0,1,82.91,106.55Z"/><circle class="cls-3" cx="37.42" cy="78.91" r="0.85" transform="translate(-20.65 13.68) rotate(-16.31)"/><path class="cls-14" d="M88.87,127.51a.82.82,0,0,1-1.14-.26.83.83,0,1,1,1.14.26Z"/><path class="cls-2" d="M80.65,165.8a1.07,1.07,0,0,1,2.11.32,1.06,1.06,0,0,1-1.21.9A1.07,1.07,0,0,1,80.65,165.8Z"/><path class="cls-12" d="M166.64,134.22a1.41,1.41,0,1,1-1.92-.5A1.41,1.41,0,0,1,166.64,134.22Z"/><path class="cls-2" d="M229.17,75.72a1.4,1.4,0,1,1,.54-1.91A1.42,1.42,0,0,1,229.17,75.72Z"/><path class="cls-10" d="M198.58,76.2a.61.61,0,0,1,.7-.52.62.62,0,1,1-.19,1.22A.61.61,0,0,1,198.58,76.2Z"/><path class="cls-8" d="M69.13,147.86a.45.45,0,0,1-.42-.8.45.45,0,0,1,.42.8Z"/><path class="cls-4" d="M105.39,38.2a.6.6,0,1,1,1-.73.6.6,0,0,1-1,.73Z"/><path class="cls-3" d="M45.6,34.09a.57.57,0,0,1-.53-.61.58.58,0,0,1,.61-.53.58.58,0,0,1,.53.61A.57.57,0,0,1,45.6,34.09Z"/><path class="cls-2" d="M68.29,91a.52.52,0,0,1,.12.73.53.53,0,0,1-.73.12.52.52,0,0,1-.11-.73A.51.51,0,0,1,68.29,91Z"/><path class="cls-2" d="M29.26,155.54a.59.59,0,0,1-1.17-.11.59.59,0,0,1,1.17.11Z"/><circle class="cls-15" cx="92.86" cy="116" r="1.32" transform="translate(-18.98 18.17) rotate(-10.15)"/><path class="cls-5" d="M116.63,76.37a.63.63,0,1,1,.79.4A.62.62,0,0,1,116.63,76.37Z"/><path class="cls-12" d="M45.77,121.66a.51.51,0,0,1-.07.72.5.5,0,0,1-.71-.07.51.51,0,0,1,.07-.72A.5.5,0,0,1,45.77,121.66Z"/><path class="cls-8" d="M125.4,144.27a.87.87,0,1,1-.6-1.07A.87.87,0,0,1,125.4,144.27Z"/><path class="cls-5" d="M58.33,1.71a.6.6,0,0,1,.23,1.17.6.6,0,1,1-.23-1.17Z"/><path class="cls-11" d="M115.55,40.65a.47.47,0,0,1-.52.42.47.47,0,0,1-.41-.52.47.47,0,0,1,.93.1Z"/><path class="cls-15" d="M194.17,71.55a.47.47,0,0,1,.61.26.47.47,0,0,1-.26.61.47.47,0,0,1-.35-.87Z"/><path class="cls-4" d="M91.94,105.2a1.16,1.16,0,0,1-.56-2.26,1.18,1.18,0,0,1,1.41.85A1.16,1.16,0,0,1,91.94,105.2Z"/><path class="cls-9" d="M131,112.66a.49.49,0,0,1,.61.3.48.48,0,0,1-.91.31A.49.49,0,0,1,131,112.66Z"/><path class="cls-7" d="M56.31,136.16a1.19,1.19,0,1,1-1.5.77A1.18,1.18,0,0,1,56.31,136.16Z"/><path class="cls-5" d="M36.51,162.81A1.57,1.57,0,1,1,35.24,161,1.57,1.57,0,0,1,36.51,162.81Z"/><path class="cls-7" d="M116,35.46a.49.49,0,0,1,.71,0,.5.5,0,1,1-.68.74A.5.5,0,0,1,116,35.46Z"/><path class="cls-12" d="M55.88,105.28a.55.55,0,0,1-1.05-.3.55.55,0,0,1,1.05.3Z"/><path class="cls-7" d="M231.35,82.58a.5.5,0,1,1,0-1,.5.5,0,1,1,0,1Z"/><path class="cls-15" d="M225.27,46.76a.77.77,0,0,1-1.06-.16.76.76,0,1,1,1.06.16Z"/><path class="cls-14" d="M174.11,102A1.39,1.39,0,1,1,173,100.4,1.38,1.38,0,0,1,174.11,102Z"/><path class="cls-15" d="M144.44,100.9a.56.56,0,1,1-.43.66A.56.56,0,0,1,144.44,100.9Z"/><path class="cls-8" d="M168.41,155.08a.54.54,0,0,1-.08-.75.53.53,0,0,1,.83.66A.54.54,0,0,1,168.41,155.08Z"/><path class="cls-6" d="M196.18,138.26a1.26,1.26,0,1,1,1.12-1.37A1.26,1.26,0,0,1,196.18,138.26Z"/><path class="cls-7" d="M76.05,27.82a.42.42,0,1,1-.55.22A.42.42,0,0,1,76.05,27.82Z"/><path class="cls-8" d="M66.17,67.83a.46.46,0,1,1-.56-.32A.45.45,0,0,1,66.17,67.83Z"/><path class="cls-4" d="M42,89.21a.51.51,0,1,1,.36.62A.51.51,0,0,1,42,89.21Z"/><path class="cls-12" d="M36.66,85.49a.49.49,0,0,1-.61.33.48.48,0,0,1-.34-.61.5.5,0,0,1,.62-.33A.49.49,0,0,1,36.66,85.49Z"/><path class="cls-17" d="M120.57,151.79a.55.55,0,1,1,.38-1,.55.55,0,0,1-.38,1Z"/><path class="cls-13" d="M205.83,67.7a.44.44,0,1,1-.69.53.44.44,0,0,1,.69-.53Z"/><path class="cls-9" d="M48.49,16.78a1,1,0,1,1-.8-1.16A1,1,0,0,1,48.49,16.78Z"/><path class="cls-14" d="M210.58,41.83a1.27,1.27,0,1,1,1.26-1.29A1.27,1.27,0,0,1,210.58,41.83Z"/><path class="cls-15" d="M142.86,36.16a.53.53,0,1,1-1.05.19.53.53,0,0,1,.43-.62A.53.53,0,0,1,142.86,36.16Z"/><path class="cls-11" d="M212.25,122.71a.91.91,0,1,1-1.29-.06A.92.92,0,0,1,212.25,122.71Z"/><path class="cls-9" d="M239.56,8.57a1.24,1.24,0,1,1-.56,1.67A1.24,1.24,0,0,1,239.56,8.57Z"/><path class="cls-14" d="M181.51,40.26a.74.74,0,0,1-.94.49.75.75,0,1,1,.46-1.43A.74.74,0,0,1,181.51,40.26Z"/><path class="cls-14" d="M44.49,9.89a1.53,1.53,0,1,1,1.94.95A1.53,1.53,0,0,1,44.49,9.89Z"/><path class="cls-9" d="M10.27,22.64a.81.81,0,0,1,1.13-.11.8.8,0,1,1-1,1.24A.81.81,0,0,1,10.27,22.64Z"/><path class="cls-14" d="M37.07,113.53a1,1,0,1,1,1,1A1,1,0,0,1,37.07,113.53Z"/><path class="cls-3" d="M15.5,21.88a1,1,0,1,1,2,.41,1,1,0,1,1-2-.41Z"/><path class="cls-16" d="M172.77,92.33a.78.78,0,1,1-.7-.85A.78.78,0,0,1,172.77,92.33Z"/><path class="cls-14" d="M129.7-.37a1.3,1.3,0,0,1,.63,1.73,1.3,1.3,0,1,1-.63-1.73Z"/><path class="cls-17" d="M218.82,85a.64.64,0,0,1-.61.68.65.65,0,0,1-.69-.61.66.66,0,0,1,.62-.69A.65.65,0,0,1,218.82,85Z"/><path class="cls-15" d="M79.4,35.23a1.31,1.31,0,1,1-1.86,0A1.32,1.32,0,0,1,79.4,35.23Z"/><path class="cls-16" d="M107,169.92a.69.69,0,0,1,1-.14.68.68,0,0,1-.81,1.1A.69.69,0,0,1,107,169.92Z"/><path class="cls-2" d="M91.48,150.84a1.61,1.61,0,1,1,1.59-1.63A1.61,1.61,0,0,1,91.48,150.84Z"/><circle class="cls-9" cx="117.55" cy="95.08" r="1.05" transform="translate(3.86 194.75) rotate(-80.21)"/><path class="cls-13" d="M173.75,107.88a.55.55,0,0,1-.32-.68.54.54,0,0,1,.68-.32.53.53,0,0,1-.36,1Z"/><path class="cls-4" d="M55,72.9a.46.46,0,0,1-.39.51.45.45,0,0,1-.12-.9A.46.46,0,0,1,55,72.9Z"/><path class="cls-14" d="M86.89,154.9a1.28,1.28,0,1,1-1.23,1.33A1.28,1.28,0,0,1,86.89,154.9Z"/><path class="cls-11" d="M116.74,100.34a.62.62,0,0,1,.87.2.61.61,0,0,1-.2.86.63.63,0,1,1-.67-1.06Z"/><path class="cls-14" d="M248,94.71a.67.67,0,1,1,.63,1.18.67.67,0,0,1-.63-1.18Z"/><path class="cls-9" d="M235.62,88.51a.42.42,0,0,1-.61,0,.43.43,0,0,1,0-.61.44.44,0,0,1,.62,0A.43.43,0,0,1,235.62,88.51Z"/><path class="cls-2" d="M252.58,43.15a.64.64,0,1,1-.28-.86A.63.63,0,0,1,252.58,43.15Z"/><path class="cls-15" d="M119,163.22a.7.7,0,1,1,.11-1A.71.71,0,0,1,119,163.22Z"/><path class="cls-9" d="M49.28,46.44a.5.5,0,0,1,.46.55.51.51,0,1,1-1-.08A.5.5,0,0,1,49.28,46.44Z"/><path class="cls-2" d="M194.77,4.74a.44.44,0,1,1-.58-.21A.43.43,0,0,1,194.77,4.74Z"/><path class="cls-14" d="M220.2,21.2a.74.74,0,1,1,.79-.68A.74.74,0,0,1,220.2,21.2Z"/><path class="cls-13" d="M6.06,5a1.52,1.52,0,0,1,3-.63,1.52,1.52,0,1,1-3,.63Z"/><path class="cls-3" d="M61.69,55a.56.56,0,1,1-.55-.56A.55.55,0,0,1,61.69,55Z"/><path class="cls-13" d="M67.81,38a1.05,1.05,0,1,1,0,1.49A1,1,0,0,1,67.81,38Z"/><path class="cls-10" d="M40.85,150.83a1.4,1.4,0,1,1,.58-1.9A1.41,1.41,0,0,1,40.85,150.83Z"/><path class="cls-16" d="M92.11,134.25a1.5,1.5,0,1,1,1.08,1.82A1.49,1.49,0,0,1,92.11,134.25Z"/><path class="cls-13" d="M182.38,67.18a.9.9,0,0,1,.15-1.28.91.91,0,0,1,1.29.15.93.93,0,0,1-.15,1.29A.92.92,0,0,1,182.38,67.18Z"/><path class="cls-12" d="M84.47,104.62a.44.44,0,0,1,.31.53.43.43,0,0,1-.52.31.44.44,0,0,1-.31-.53A.43.43,0,0,1,84.47,104.62Z"/><path class="cls-8" d="M187.71,134.2a1.08,1.08,0,1,1,1.2.94A1.08,1.08,0,0,1,187.71,134.2Z"/><path class="cls-17" d="M249.19,38.62a1,1,0,0,1,1.25-.59,1,1,0,0,1,.58,1.25,1,1,0,0,1-1.83-.66Z"/><path class="cls-3" d="M251.23,106.18a1.16,1.16,0,1,1,.69-1.49A1.16,1.16,0,0,1,251.23,106.18Z"/><path class="cls-16" d="M177.34,20.13a.47.47,0,0,1,.67-.08.48.48,0,0,1,.09.67.47.47,0,0,1-.67.08A.48.48,0,0,1,177.34,20.13Z"/><path class="cls-17" d="M239.51,71a.58.58,0,1,1-.81.16A.57.57,0,0,1,239.51,71Z"/><path class="cls-12" d="M232.71,5.36a1.39,1.39,0,1,1,1.44,1.33A1.39,1.39,0,0,1,232.71,5.36Z"/><path class="cls-17" d="M135.67,58.64a1,1,0,1,1-.52-1.32A1,1,0,0,1,135.67,58.64Z"/><path class="cls-17" d="M71.67,82.43a1.31,1.31,0,1,1,1.79.49A1.31,1.31,0,0,1,71.67,82.43Z"/><path class="cls-3" d="M59.38,35.6a.41.41,0,1,1-.66-.5.41.41,0,1,1,.66.5Z"/><path class="cls-8" d="M127.81,83.3a.52.52,0,1,1,.94-.46.52.52,0,0,1-.94.46Z"/><path class="cls-13" d="M116,88.43a.45.45,0,0,1,.64,0,.46.46,0,1,1-.64,0Z"/><path class="cls-14" d="M38.34,106.53a.56.56,0,1,1-.57-.54A.55.55,0,0,1,38.34,106.53Z"/><path class="cls-2" d="M73.19,131.62a.85.85,0,0,1,0,1.22.86.86,0,0,1-1.24-1.2A.85.85,0,0,1,73.19,131.62Z"/><path class="cls-5" d="M198.19,147.5a.46.46,0,0,1-.53.37.47.47,0,0,1-.37-.54.46.46,0,0,1,.54-.36A.44.44,0,0,1,198.19,147.5Z"/><path class="cls-16" d="M138.4,152.13a.88.88,0,0,1-.21,1.23.89.89,0,0,1-1.24-.21.88.88,0,0,1,.22-1.23A.87.87,0,0,1,138.4,152.13Z"/><path class="cls-9" d="M173.37,127.93a1,1,0,0,1,1.38-.3,1,1,0,0,1-1.07,1.68A1,1,0,0,1,173.37,127.93Z"/><path class="cls-16" d="M143.79,156.87a.44.44,0,0,1-.44.45.45.45,0,0,1-.45-.44.46.46,0,0,1,.44-.45A.45.45,0,0,1,143.79,156.87Z"/><path class="cls-12" d="M234.54,135.61a.74.74,0,1,1,.56-.87A.73.73,0,0,1,234.54,135.61Z"/><path class="cls-16" d="M107.65,5.23a.77.77,0,0,1-.8-.73.76.76,0,0,1,.72-.8.78.78,0,0,1,.81.72A.78.78,0,0,1,107.65,5.23Z"/><path class="cls-12" d="M56.18,69.43a1.54,1.54,0,1,1,1.69-1.37A1.54,1.54,0,0,1,56.18,69.43Z"/><path class="cls-8" d="M126,54.88a.43.43,0,1,1,.51.34A.43.43,0,0,1,126,54.88Z"/><path class="cls-10" d="M123.58,44.44a1.47,1.47,0,1,1-.88,1.88A1.47,1.47,0,0,1,123.58,44.44Z"/><path class="cls-11" d="M190.33,130.73a.47.47,0,0,1-.55-.39.48.48,0,0,1,.95-.16A.48.48,0,0,1,190.33,130.73Z"/><path class="cls-2" d="M95.17,142a1.28,1.28,0,1,1-1.9-1.72,1.28,1.28,0,0,1,1.9,1.72Z"/><path class="cls-5" d="M85.86,82.43a.56.56,0,1,1-.79-.05A.57.57,0,0,1,85.86,82.43Z"/><path class="cls-3" d="M109.62,121.2a.55.55,0,1,1,.76.18A.55.55,0,0,1,109.62,121.2Z"/><path class="cls-6" d="M185,11.55a.47.47,0,1,1-.62.24A.48.48,0,0,1,185,11.55Z"/><path class="cls-12" d="M19.6,54.78a.83.83,0,1,1,0-1.18A.82.82,0,0,1,19.6,54.78Z"/><path class="cls-17" d="M41.88,123.68a1.27,1.27,0,1,1,1.47,2.06,1.27,1.27,0,0,1-1.47-2.06Z"/><path class="cls-4" d="M138.18,161.46a.43.43,0,0,1-.39.46.42.42,0,0,1-.46-.38.42.42,0,0,1,.39-.46A.43.43,0,0,1,138.18,161.46Z"/><path class="cls-4" d="M184,59.09a1.44,1.44,0,1,1-2.48,1.47A1.44,1.44,0,0,1,184,59.09Z"/><path class="cls-17" d="M244.89,11.12a1.17,1.17,0,1,1,1.29,1A1.16,1.16,0,0,1,244.89,11.12Z"/><path class="cls-2" d="M235.56,178.64a1.54,1.54,0,1,1-1.49,1.57A1.54,1.54,0,0,1,235.56,178.64Z"/><path class="cls-17" d="M230.24,14.17a1,1,0,1,1,1.37-.49A1,1,0,0,1,230.24,14.17Z"/><path class="cls-7" d="M142.26,175.84a.49.49,0,1,1,.22-.65A.48.48,0,0,1,142.26,175.84Z"/><path class="cls-10" d="M87.51,102.53a.62.62,0,0,1,.28-1.21.62.62,0,1,1-.28,1.21Z"/><path class="cls-8" d="M34.75,128.7A1.47,1.47,0,1,1,33.12,130,1.47,1.47,0,0,1,34.75,128.7Z"/><path class="cls-16" d="M197.62,158.28a.65.65,0,0,1,.74.51.64.64,0,0,1-.51.74.62.62,0,0,1-.74-.51A.63.63,0,0,1,197.62,158.28Z"/><path class="cls-17" d="M79.56,95a.75.75,0,0,1-.2-1,.76.76,0,1,1,.2,1Z"/><path class="cls-7" d="M213.36,9.53a.68.68,0,0,1,.85.46.68.68,0,0,1-1.31.4A.69.69,0,0,1,213.36,9.53Z"/><path class="cls-9" d="M63.5,74.31A.44.44,0,0,1,64,74a.45.45,0,0,1,.33.53.44.44,0,0,1-.53.33A.44.44,0,0,1,63.5,74.31Z"/><path class="cls-14" d="M156.28,99.39a.77.77,0,1,1-.55-.93A.77.77,0,0,1,156.28,99.39Z"/><path class="cls-13" d="M120.44,90.49a.44.44,0,0,1,.14-.61.45.45,0,1,1,.47.76A.44.44,0,0,1,120.44,90.49Z"/><path class="cls-6" d="M248.33,131a.57.57,0,0,1,.76-.21.56.56,0,1,1-.76.21Z"/><path class="cls-3" d="M86.79,93.75a.6.6,0,0,1-.1.84.58.58,0,0,1-.83-.09.59.59,0,0,1,.09-.84A.61.61,0,0,1,86.79,93.75Z"/><path class="cls-4" d="M185.89,113.73a.68.68,0,0,1,1.1-.81.68.68,0,1,1-1.1.81Z"/><path class="cls-8" d="M58.09,162.59a.74.74,0,0,1,.85-.62.75.75,0,0,1,.61.86.74.74,0,1,1-1.46-.24Z"/><path class="cls-15" d="M194.88,37.41a1.23,1.23,0,1,1-1.15-1.3A1.23,1.23,0,0,1,194.88,37.41Z"/><path class="cls-6" d="M170,117.46a.47.47,0,0,1-.23.63.49.49,0,0,1-.64-.23.48.48,0,0,1,.24-.63A.46.46,0,0,1,170,117.46Z"/><path class="cls-16" d="M197.85,176.59a1.54,1.54,0,1,1-2.16.1A1.54,1.54,0,0,1,197.85,176.59Z"/><path class="cls-8" d="M74.68,110.17a.52.52,0,0,1-.26-.7.53.53,0,1,1,1,.44A.53.53,0,0,1,74.68,110.17Z"/><path class="cls-3" d="M191,97.21a1.16,1.16,0,1,1,1.63.13A1.16,1.16,0,0,1,191,97.21Z"/><path class="cls-6" d="M129.18,42.84a.65.65,0,1,1,.69.6A.64.64,0,0,1,129.18,42.84Z"/><path class="cls-8" d="M121.15,65.77a.67.67,0,1,1-1.32.17.67.67,0,0,1,1.32-.17Z"/><path class="cls-3" d="M107.59,50.54a.57.57,0,0,1,1.11.24.57.57,0,0,1-.67.43A.56.56,0,0,1,107.59,50.54Z"/><path class="cls-9" d="M28.62,117.64a.9.9,0,1,1-1.78-.3.9.9,0,0,1,1.78.3Z"/><path class="cls-3" d="M50.7,31.93A.57.57,0,1,1,50.31,33a.57.57,0,0,1-.34-.73A.58.58,0,0,1,50.7,31.93Z"/><path class="cls-10" d="M55.31,8.67a1.3,1.3,0,0,1,.6-1.75,1.31,1.31,0,1,1-.6,1.75Z"/><path class="cls-12" d="M213.39,100.47a1.36,1.36,0,1,1,1.86.51A1.37,1.37,0,0,1,213.39,100.47Z"/><path class="cls-15" d="M89.34,95.6a1.15,1.15,0,0,1,1.1,1.18,1.14,1.14,0,0,1-2.28-.07A1.15,1.15,0,0,1,89.34,95.6Z"/><path class="cls-6" d="M173,53.8a1.37,1.37,0,1,1,1.87-.51A1.36,1.36,0,0,1,173,53.8Z"/><path class="cls-3" d="M150.45,95.32a1.09,1.09,0,1,1-.36,1.5A1.08,1.08,0,0,1,150.45,95.32Z"/><path class="cls-8" d="M169.72,104.87a.73.73,0,1,1-.89.5A.72.72,0,0,1,169.72,104.87Z"/><path class="cls-12" d="M49.3,91.77a.51.51,0,0,1-.1.72.51.51,0,1,1-.61-.82A.5.5,0,0,1,49.3,91.77Z"/><path class="cls-11" d="M34.18,12.54A1.27,1.27,0,1,1,33,11.19,1.28,1.28,0,0,1,34.18,12.54Z"/><path class="cls-10" d="M25.55,17.79a.59.59,0,0,1-.08.83.59.59,0,1,1-.74-.91A.58.58,0,0,1,25.55,17.79Z"/><path class="cls-9" d="M183.06,120.31a.44.44,0,0,1-.52-.31.43.43,0,0,1,.32-.51.42.42,0,0,1,.51.31A.44.44,0,0,1,183.06,120.31Z"/><path class="cls-17" d="M196.54,166.38a.6.6,0,0,1,.07-.83.58.58,0,0,1,.82.08.58.58,0,0,1-.07.82A.58.58,0,0,1,196.54,166.38Z"/><path class="cls-4" d="M213,78a.53.53,0,0,1,.15-.72.52.52,0,1,1,.57.87A.53.53,0,0,1,213,78Z"/><path class="cls-8" d="M135.19,33.78a1.06,1.06,0,1,1-1.4.53A1.06,1.06,0,0,1,135.19,33.78Z"/><circle class="cls-3" cx="204.72" cy="179.02" r="1.45"/><path class="cls-10" d="M56.9,16.75a1.21,1.21,0,1,1-1.15-1.27A1.21,1.21,0,0,1,56.9,16.75Z"/><path class="cls-7" d="M27.55,144.55a1.19,1.19,0,1,1,1.49-.76A1.18,1.18,0,0,1,27.55,144.55Z"/><path class="cls-16" d="M190.84,6.47a.42.42,0,0,1,.59-.18.43.43,0,0,1,.19.59.45.45,0,0,1-.6.18A.44.44,0,0,1,190.84,6.47Z"/><path class="cls-17" d="M53.66,150.37a1.34,1.34,0,1,1,.6,1.8A1.34,1.34,0,0,1,53.66,150.37Z"/><path class="cls-15" d="M134.6,85.27a.44.44,0,0,1-.4.47.42.42,0,0,1-.47-.39.43.43,0,0,1,.39-.48A.45.45,0,0,1,134.6,85.27Z"/><path class="cls-2" d="M29.58,67.22a1.14,1.14,0,1,1,.88,1.36A1.14,1.14,0,0,1,29.58,67.22Z"/><path class="cls-15" d="M52.8,107.28a.6.6,0,1,1-.49,1.1.6.6,0,0,1-.3-.8A.59.59,0,0,1,52.8,107.28Z"/><path class="cls-8" d="M89.13,136.38a.7.7,0,1,1-.87-.48A.7.7,0,0,1,89.13,136.38Z"/><path class="cls-8" d="M65,98.17a.49.49,0,0,1-.12-.69.48.48,0,0,1,.68-.11.49.49,0,0,1-.56.8Z"/><path class="cls-2" d="M66.44,116.61a1.63,1.63,0,1,1,1.08,2A1.63,1.63,0,0,1,66.44,116.61Z"/><path class="cls-3" d="M21.56,77.82a1.26,1.26,0,1,1-1.29-1.22A1.26,1.26,0,0,1,21.56,77.82Z"/><path class="cls-6" d="M170.75,40.89a1.34,1.34,0,0,1,.54,1.8,1.33,1.33,0,1,1-.54-1.8Z"/><path class="cls-4" d="M70,145.45a1.55,1.55,0,1,1,2.1-.59A1.56,1.56,0,0,1,70,145.45Z"/><path class="cls-11" d="M64.52,17.23a.89.89,0,0,1,1.21-.34.9.9,0,0,1,.33,1.21.89.89,0,0,1-1.21.34A.9.9,0,0,1,64.52,17.23Z"/><path class="cls-17" d="M165,9.75a1.42,1.42,0,1,1-1.35,1.49A1.42,1.42,0,0,1,165,9.75Z"/><path class="cls-14" d="M159,41.73a.45.45,0,0,1-.19-.61.45.45,0,1,1,.8.43A.45.45,0,0,1,159,41.73Z"/><path class="cls-7" d="M78.5,121.27a.61.61,0,1,1,1.08-.57.6.6,0,0,1-.25.82A.61.61,0,0,1,78.5,121.27Z"/><path class="cls-8" d="M113.38,169.06a.42.42,0,0,1,.47.7.42.42,0,1,1-.47-.7Z"/><path class="cls-15" d="M43.73,85.66a1.46,1.46,0,1,1,2-.31A1.46,1.46,0,0,1,43.73,85.66Z"/><path class="cls-3" d="M204.55,126.29a.55.55,0,1,1-.63.91.55.55,0,0,1-.14-.77A.56.56,0,0,1,204.55,126.29Z"/><path class="cls-4" d="M70.07,83.57a.55.55,0,0,1,.6.51.56.56,0,0,1-.51.6.56.56,0,1,1-.09-1.11Z"/><path class="cls-2" d="M122.21,9.88a1.35,1.35,0,0,1-2.66-.45,1.35,1.35,0,1,1,2.66.45Z"/><path class="cls-6" d="M27.51,132.25a1.43,1.43,0,1,1-.14-2A1.43,1.43,0,0,1,27.51,132.25Z"/><path class="cls-8" d="M60.79,102.42a.43.43,0,1,1,.43-.43A.43.43,0,0,1,60.79,102.42Z"/><path class="cls-7" d="M168.1,20.71a1.1,1.1,0,1,1-.47,1.48A1.1,1.1,0,0,1,168.1,20.71Z"/><path class="cls-8" d="M88.42,151.47a1.38,1.38,0,1,1-.28-1.92A1.38,1.38,0,0,1,88.42,151.47Z"/><path class="cls-16" d="M181.94,27.93a.59.59,0,0,1,.72.43.6.6,0,0,1-.43.72.59.59,0,1,1-.29-1.15Z"/><path class="cls-15" d="M172.83,179.54a1.23,1.23,0,0,1-2.34-.77,1.23,1.23,0,0,1,2.34.77Z"/><path class="cls-13" d="M245.45,22.82a.45.45,0,0,1-.29.57.44.44,0,0,1-.56-.29.45.45,0,0,1,.28-.57A.46.46,0,0,1,245.45,22.82Z"/><path class="cls-15" d="M138.81,31.51a.66.66,0,0,1,.92-.13.66.66,0,0,1-.79,1.05A.66.66,0,0,1,138.81,31.51Z"/><path class="cls-15" d="M132.07,126.15a1.49,1.49,0,0,1,.89-1.89,1.48,1.48,0,0,1,1,2.78A1.49,1.49,0,0,1,132.07,126.15Z"/><path class="cls-17" d="M42.34,169.05a.42.42,0,0,1-.81.22.42.42,0,0,1,.3-.52A.43.43,0,0,1,42.34,169.05Z"/><path class="cls-16" d="M108.85,178.23a1,1,0,0,1,1.86-.74,1,1,0,0,1-1.86.74Z"/><path class="cls-16" d="M49.61,137.59a.42.42,0,1,1-.57.17A.43.43,0,0,1,49.61,137.59Z"/><path class="cls-12" d="M251.41,17.35a1.53,1.53,0,1,1,2.14.28A1.52,1.52,0,0,1,251.41,17.35Z"/><path class="cls-13" d="M56.29,45a.41.41,0,0,1,.55-.21.42.42,0,0,1-.34.76A.41.41,0,0,1,56.29,45Z"/><path class="cls-11" d="M79.79,112.26a.48.48,0,0,1,.11-.66.47.47,0,0,1,.67.11.48.48,0,0,1-.11.66A.49.49,0,0,1,79.79,112.26Z"/><path class="cls-17" d="M34.15,75.82a.82.82,0,0,1,0-1.17.83.83,0,1,1,1.15,1.19A.82.82,0,0,1,34.15,75.82Z"/><path class="cls-14" d="M208.09,25.43a.62.62,0,0,1,.24-.83.6.6,0,0,1,.82.25.59.59,0,0,1-.24.82A.61.61,0,0,1,208.09,25.43Z"/><path class="cls-16" d="M122.63,129.45a.48.48,0,0,1,.26.61.46.46,0,0,1-.86-.35A.47.47,0,0,1,122.63,129.45Z"/><path class="cls-5" d="M156.37,28.1a.44.44,0,1,1,.46-.41A.44.44,0,0,1,156.37,28.1Z"/><path class="cls-10" d="M63.48,82.46a.41.41,0,0,1-.12.58.42.42,0,0,1-.59-.12.43.43,0,0,1,.12-.59A.42.42,0,0,1,63.48,82.46Z"/><path class="cls-8" d="M70.65,21.19A1.1,1.1,0,1,1,69.12,21,1.1,1.1,0,0,1,70.65,21.19Z"/><path class="cls-7" d="M43.83,143.33a.66.66,0,1,1,1,.85.66.66,0,1,1-1-.85Z"/><path class="cls-14" d="M215.92,60.54a1.12,1.12,0,1,1,.62,1.46A1.12,1.12,0,0,1,215.92,60.54Z"/><path class="cls-17" d="M203,25.12a1.15,1.15,0,0,1,.53,1.52,1.14,1.14,0,0,1-1.51.53,1.14,1.14,0,0,1,1-2.05Z"/><path class="cls-4" d="M40.54,12.8a.76.76,0,1,1-.57-.91A.76.76,0,0,1,40.54,12.8Z"/><path class="cls-6" d="M60.16,174.91a.59.59,0,0,1-.83.06.59.59,0,1,1,.77-.89A.59.59,0,0,1,60.16,174.91Z"/><path class="cls-14" d="M174.85,2.57a.84.84,0,1,1,.82.86A.84.84,0,0,1,174.85,2.57Z"/><path class="cls-2" d="M190.26,66.11a.59.59,0,0,1-1.11-.4.6.6,0,0,1,.76-.35A.59.59,0,0,1,190.26,66.11Z"/><path class="cls-8" d="M193.25,121.62a1.16,1.16,0,1,1,1.07,1.26A1.18,1.18,0,0,1,193.25,121.62Z"/><path class="cls-13" d="M30.93,140.4a1,1,0,1,1-1,.94A1,1,0,0,1,30.93,140.4Z"/><path class="cls-6" d="M15.33,6.26a1.22,1.22,0,1,1-1.72.07A1.22,1.22,0,0,1,15.33,6.26Z"/><path class="cls-16" d="M133.2,55.84a1.11,1.11,0,0,1-1.92-1.12,1.13,1.13,0,0,1,1.53-.4A1.11,1.11,0,0,1,133.2,55.84Z"/><path class="cls-12" d="M178.87,62.82a.56.56,0,0,1-.35.71.57.57,0,0,1-.71-.36.56.56,0,0,1,.36-.7A.55.55,0,0,1,178.87,62.82Z"/><path class="cls-4" d="M32.78,19.81a.6.6,0,1,1-.47-.71A.6.6,0,0,1,32.78,19.81Z"/><path class="cls-16" d="M230.27,28.91a1,1,0,1,1,1.39-.08A1,1,0,0,1,230.27,28.91Z"/><path class="cls-16" d="M132.57,49.14a.56.56,0,0,1-.14-.79.57.57,0,0,1,.78-.14.57.57,0,0,1,.14.79A.55.55,0,0,1,132.57,49.14Z"/><path class="cls-14" d="M3.14,35.17a.9.9,0,0,1-1.26-.05.88.88,0,0,1,.05-1.25.88.88,0,0,1,1.25,0A.89.89,0,0,1,3.14,35.17Z"/><path class="cls-4" d="M33.27,103.6A1.23,1.23,0,1,1,32,102.45,1.24,1.24,0,0,1,33.27,103.6Z"/><path class="cls-12" d="M15.76-.43a.45.45,0,0,1,.61-.16.44.44,0,0,1,.17.61.44.44,0,0,1-.61.16A.44.44,0,0,1,15.76-.43Z"/><path class="cls-13" d="M101.87,22.43a.65.65,0,1,1-.79-.47A.65.65,0,0,1,101.87,22.43Z"/><path class="cls-4" d="M244.33,4.66a.41.41,0,0,1-.56.17.41.41,0,0,1-.18-.56.42.42,0,1,1,.74.39Z"/><circle class="cls-9" cx="217" cy="71.31" r="1.38" transform="translate(100.87 268) rotate(-77.63)"/><path class="cls-10" d="M7.55,40.58a.64.64,0,1,1-.8.44A.65.65,0,0,1,7.55,40.58Z"/><path class="cls-3" d="M68.65,50.41a1.13,1.13,0,1,1,.88,1.32A1.11,1.11,0,0,1,68.65,50.41Z"/><path class="cls-14" d="M122.88,30.63a1.61,1.61,0,1,1,.17,2.27A1.62,1.62,0,0,1,122.88,30.63Z"/><path class="cls-15" d="M96.23,63.76a.42.42,0,0,1-.1-.6.44.44,0,0,1,.61-.1.45.45,0,0,1,.1.61A.43.43,0,0,1,96.23,63.76Z"/><path class="cls-7" d="M110.87,74.47a1.64,1.64,0,1,1,1.14-2A1.64,1.64,0,0,1,110.87,74.47Z"/><path class="cls-2" d="M53.37,99.31a1.08,1.08,0,1,1,0,1.53A1.08,1.08,0,0,1,53.37,99.31Z"/><path class="cls-17" d="M80.5,180.36a1,1,0,1,1,1.47.19A1,1,0,0,1,80.5,180.36Z"/><path class="cls-14" d="M23.61,49.73a.87.87,0,1,1,1.21.22A.88.88,0,0,1,23.61,49.73Z"/><path class="cls-9" d="M233.92,60.51a.52.52,0,0,1,.69-.28.53.53,0,0,1,.28.68.52.52,0,0,1-1-.4Z"/><path class="cls-6" d="M-.75,26.62A1.33,1.33,0,0,1-1,24.74a1.33,1.33,0,0,1,1.88-.27,1.33,1.33,0,0,1,.27,1.88A1.33,1.33,0,0,1-.75,26.62Z"/><path class="cls-13" d="M85.1,51a1.3,1.3,0,0,1-1.78-1.89A1.3,1.3,0,1,1,85.1,51Z"/><path class="cls-14" d="M39.72,154.41a.48.48,0,0,1-.35-.58.47.47,0,0,1,.58-.34.46.46,0,0,1,.34.57A.47.47,0,0,1,39.72,154.41Z"/><path class="cls-14" d="M10.16,54.84a.71.71,0,1,1,.45,1.34.71.71,0,1,1-.45-1.34Z"/><path class="cls-4" d="M71.28,3.07a1.39,1.39,0,1,1,1.29,1.48A1.39,1.39,0,0,1,71.28,3.07Z"/><path class="cls-12" d="M64.68,145.79a.59.59,0,1,1,.78.32A.59.59,0,0,1,64.68,145.79Z"/><path class="cls-14" d="M208.16,38.24a1,1,0,0,1-.28-1.44,1,1,0,1,1,.28,1.44Z"/><path class="cls-4" d="M96.6,120.39a1.57,1.57,0,1,1-2.07.8A1.57,1.57,0,0,1,96.6,120.39Z"/><path class="cls-9" d="M34,115.7a.56.56,0,1,1,1-.4.56.56,0,0,1-.32.72A.55.55,0,0,1,34,115.7Z"/><path class="cls-16" d="M196.38,157.39a1.59,1.59,0,1,1,.38-2.22A1.59,1.59,0,0,1,196.38,157.39Z"/><path class="cls-16" d="M173.52,68.61a.78.78,0,1,1,.79-1.35.78.78,0,0,1-.79,1.35Z"/><path class="cls-10" d="M92.31,82.1a1.56,1.56,0,1,1-1.21-1.84A1.56,1.56,0,0,1,92.31,82.1Z"/><path class="cls-3" d="M86.51,166a1.08,1.08,0,0,1-1.67,1.38A1.08,1.08,0,1,1,86.51,166Z"/><path class="cls-4" d="M176.85,29.32a.56.56,0,0,1,.24.75.55.55,0,1,1-.24-.75Z"/><path class="cls-5" d="M228.89,5a.66.66,0,0,1,.92-.16.65.65,0,0,1-.75,1.07A.66.66,0,0,1,228.89,5Z"/><path class="cls-13" d="M207.16,129.51a.89.89,0,1,1-1.52.93.88.88,0,0,1,.29-1.22A.89.89,0,0,1,207.16,129.51Z"/><path class="cls-9" d="M79.24,69.52a1.18,1.18,0,1,1-1.3,1A1.17,1.17,0,0,1,79.24,69.52Z"/><path class="cls-5" d="M60.73,107.23a.5.5,0,0,1,.13.7.51.51,0,0,1-.7.12.5.5,0,0,1-.12-.69A.49.49,0,0,1,60.73,107.23Z"/><path class="cls-7" d="M234,76.83a.47.47,0,1,1,.62.28A.48.48,0,0,1,234,76.83Z"/><path class="cls-14" d="M185.81,39.29a1.29,1.29,0,1,1-.07,1.82A1.28,1.28,0,0,1,185.81,39.29Z"/><path class="cls-16" d="M34,57.16a1.39,1.39,0,1,1-1.24,1.52A1.39,1.39,0,0,1,34,57.16Z"/><path class="cls-4" d="M82.28.51a1.47,1.47,0,1,1-2-.59A1.47,1.47,0,0,1,82.28.51Z"/><path class="cls-12" d="M137.49,47.18a.48.48,0,0,1,0-.68.48.48,0,0,1,.63.72A.47.47,0,0,1,137.49,47.18Z"/><circle class="cls-14" cx="133.13" cy="7.27" r="1.27" transform="translate(9.19 56.42) rotate(-24.76)"/><path class="cls-3" d="M129.9,167.67a.47.47,0,0,1-.23.63.48.48,0,0,1-.63-.22.47.47,0,0,1,.23-.63A.48.48,0,0,1,129.9,167.67Z"/><path class="cls-15" d="M110.82,68.19a1.28,1.28,0,1,1-1.8-.11A1.27,1.27,0,0,1,110.82,68.19Z"/><path class="cls-9" d="M216.28,35a1.06,1.06,0,1,1-.76,2,1,1,0,0,1-.6-1.36A1.06,1.06,0,0,1,216.28,35Z"/><path class="cls-16" d="M215,81.74a.52.52,0,0,1,.7.23.52.52,0,0,1-.93.47A.52.52,0,0,1,215,81.74Z"/><path class="cls-5" d="M235.71,34.94a.58.58,0,0,1,.26-1.13.58.58,0,0,1,.44.69A.6.6,0,0,1,235.71,34.94Z"/><path class="cls-13" d="M79.73,17a.42.42,0,0,1-.83,0,.42.42,0,0,1,.83,0Z"/><path class="cls-2" d="M89,111.2a.69.69,0,0,1,.61.76.69.69,0,1,1-.61-.76Z"/><path class="cls-8" d="M30.39,5.51a.94.94,0,1,1,1.86.24.93.93,0,0,1-1.05.81A.94.94,0,0,1,30.39,5.51Z"/><path class="cls-2" d="M188.32,144.3a1.63,1.63,0,1,1,1.92-1.27A1.63,1.63,0,0,1,188.32,144.3Z"/><path class="cls-5" d="M5.17,55.06A1.62,1.62,0,1,1,2.88,55,1.62,1.62,0,0,1,5.17,55.06Z"/><path class="cls-16" d="M187.86,55.32a1,1,0,1,1-1.39-.45A1,1,0,0,1,187.86,55.32Z"/><path class="cls-8" d="M85.63,134.35a1.34,1.34,0,1,1,1.87-.25A1.33,1.33,0,0,1,85.63,134.35Z"/><path class="cls-11" d="M33.72,180.22a.76.76,0,0,1-1-.31A.75.75,0,0,1,34,179.2.76.76,0,0,1,33.72,180.22Z"/><path class="cls-3" d="M249.77,1.78a.7.7,0,0,1,.95.26.69.69,0,1,1-.95-.26Z"/><path class="cls-3" d="M100.68,59a1.6,1.6,0,1,1,.55,2.19A1.59,1.59,0,0,1,100.68,59Z"/><path class="cls-6" d="M174.56,118.14a1.32,1.32,0,1,1-.92-1.62A1.31,1.31,0,0,1,174.56,118.14Z"/><path class="cls-3" d="M181.36,20a1.52,1.52,0,1,1,0,2.16A1.53,1.53,0,0,1,181.36,20Z"/><path class="cls-5" d="M119.09,26.59a.7.7,0,0,1,.72-.69.7.7,0,0,1,0,1.4A.71.71,0,0,1,119.09,26.59Z"/><path class="cls-15" d="M118.25,140.15a1.63,1.63,0,1,1-1.87,1.35A1.63,1.63,0,0,1,118.25,140.15Z"/><path class="cls-16" d="M154.83,69.77a1.09,1.09,0,1,1,.56,1.43A1.09,1.09,0,0,1,154.83,69.77Z"/><path class="cls-4" d="M62.88,163.64a.8.8,0,0,1,1,1.23.8.8,0,0,1-1-1.23Z"/><path class="cls-14" d="M79.8,131.47a1,1,0,0,1,.27-1.31.94.94,0,1,1-.27,1.31Z"/><path class="cls-3" d="M53.49,88.77a.49.49,0,0,1-.37-.6.5.5,0,1,1,1,.23A.5.5,0,0,1,53.49,88.77Z"/><path class="cls-9" d="M245.71,16.29a1.56,1.56,0,1,1,1.87,1.17A1.56,1.56,0,0,1,245.71,16.29Z"/><path class="cls-17" d="M72.15,15.38a1.49,1.49,0,1,1,.17-2.09A1.49,1.49,0,0,1,72.15,15.38Z"/><path class="cls-15" d="M101.12,100.32a.69.69,0,1,1,.93.3A.69.69,0,0,1,101.12,100.32Z"/><path class="cls-7" d="M29.33,75.08a.45.45,0,0,1-.55-.3.45.45,0,0,1,.3-.56.45.45,0,0,1,.25.86Z"/><path class="cls-8" d="M152.65,20.19a.94.94,0,0,1-.73-1.12,1,1,0,1,1,.73,1.12Z"/><path class="cls-5" d="M31.71,51.87a.48.48,0,1,1,.72.62.49.49,0,0,1-.68,0A.47.47,0,0,1,31.71,51.87Z"/><path class="cls-6" d="M190.18,34.26a.56.56,0,0,1,.8,0,.57.57,0,0,1,0,.8.58.58,0,0,1-.81,0A.57.57,0,0,1,190.18,34.26Z"/><path class="cls-5" d="M140.79,78.46a.66.66,0,0,1-1,.84.66.66,0,0,1,1-.84Z"/><path class="cls-7" d="M170.83,131.9a1.22,1.22,0,1,1-1.06,1.37A1.22,1.22,0,0,1,170.83,131.9Z"/><path class="cls-12" d="M82.65,135.11a.44.44,0,0,1-.54-.32.44.44,0,0,1,.31-.54.44.44,0,0,1,.54.32A.45.45,0,0,1,82.65,135.11Z"/><path class="cls-10" d="M201.89,163.27a.85.85,0,1,1-.49-1.1A.85.85,0,0,1,201.89,163.27Z"/><path class="cls-16" d="M216.77,106.69a1.62,1.62,0,1,1,.1-2.29A1.62,1.62,0,0,1,216.77,106.69Z"/><path class="cls-3" d="M-1,138.69A.59.59,0,0,1-.53,138a.59.59,0,0,1,.66.49.58.58,0,0,1-.49.66A.58.58,0,0,1-1,138.69Z"/><path class="cls-14" d="M66.91,173.83a.53.53,0,0,1-.28.7.53.53,0,0,1-.69-.28.53.53,0,0,1,.28-.7A.53.53,0,0,1,66.91,173.83Z"/><path class="cls-3" d="M31.53,28.08a.82.82,0,1,1-1.16,0A.83.83,0,0,1,31.53,28.08Z"/><path class="cls-12" d="M48,119.73a1,1,0,1,1-.27-1.4A1,1,0,0,1,48,119.73Z"/><path class="cls-7" d="M117.13,15.47a1.49,1.49,0,1,1-.89,1.91A1.49,1.49,0,0,1,117.13,15.47Z"/><path class="cls-3" d="M82.4,128.27a1.58,1.58,0,1,1,2.09.78A1.58,1.58,0,0,1,82.4,128.27Z"/><path class="cls-6" d="M127.43,99.45a.76.76,0,0,1,0-1.07.76.76,0,0,1,1.08,1.06A.76.76,0,0,1,127.43,99.45Z"/><path class="cls-10" d="M129.28,16.13a.76.76,0,1,1,.17,1.06A.75.75,0,0,1,129.28,16.13Z"/><path class="cls-13" d="M43.38,128.37a.5.5,0,0,1,.94.33.5.5,0,0,1-.63.31A.51.51,0,0,1,43.38,128.37Z"/><path class="cls-11" d="M140,60.38a.77.77,0,0,1,1-.36.78.78,0,0,1,.36,1,.77.77,0,0,1-1.38-.67Z"/><path class="cls-15" d="M119.46,171a.54.54,0,1,1-.32-.7A.55.55,0,0,1,119.46,171Z"/><path class="cls-13" d="M99.5,162.05a1.13,1.13,0,0,1-1.25-1,1.12,1.12,0,1,1,1.25,1Z"/><path class="cls-9" d="M98,174.41a1.35,1.35,0,0,1,1.88-.45,1.37,1.37,0,1,1-1.88.45Z"/><path class="cls-15" d="M150.87,37.47a.79.79,0,1,1,1,1.21.79.79,0,0,1-1-1.21Z"/><path class="cls-9" d="M96.65,153.09A.49.49,0,0,1,96,153a.5.5,0,1,1,.69.09Z"/><path class="cls-7" d="M130.63,71.38a.53.53,0,0,1,.36-.67.53.53,0,0,1,.67.36.54.54,0,1,1-1,.31Z"/><path class="cls-11" d="M196.28,17.29a.46.46,0,0,1,.08.64.47.47,0,0,1-.65.08.46.46,0,0,1-.07-.65A.45.45,0,0,1,196.28,17.29Z"/><path class="cls-6" d="M121.24,177.13a1,1,0,0,1-1.25,1.68,1,1,0,1,1,1.25-1.68Z"/><path class="cls-5" d="M232.66,100.69a1.54,1.54,0,1,1-.45-2.13A1.54,1.54,0,0,1,232.66,100.69Z"/><path class="cls-2" d="M205.08,174.36a.42.42,0,0,1-.44.4.42.42,0,0,1-.4-.44.42.42,0,1,1,.84,0Z"/><path class="cls-12" d="M151.35,144.21a1.18,1.18,0,1,1-.36,1.63A1.18,1.18,0,0,1,151.35,144.21Z"/><path class="cls-3" d="M236.23,128.48a.56.56,0,0,1-1.08.26.55.55,0,0,1,.41-.67A.55.55,0,0,1,236.23,128.48Z"/><path class="cls-12" d="M209.48,56.34a1.05,1.05,0,1,1-.14,1.48A1,1,0,0,1,209.48,56.34Z"/><path class="cls-13" d="M102.18,14.8a.64.64,0,1,1-.75-1,.64.64,0,1,1,.75,1Z"/><path class="cls-6" d="M73,102.15a1.62,1.62,0,0,1,1.25,3,1.62,1.62,0,0,1-1.25-3Z"/><path class="cls-12" d="M120.36,5.2a.75.75,0,0,1,.1-1.08.77.77,0,0,1,1.09.1.78.78,0,0,1-.11,1.09A.76.76,0,0,1,120.36,5.2Z"/><path class="cls-15" d="M93.88,25.42a1.27,1.27,0,1,1,.56-1.7A1.26,1.26,0,0,1,93.88,25.42Z"/><path class="cls-16" d="M80.31,22.24a.48.48,0,0,1,.53.43.49.49,0,0,1-.43.54.5.5,0,0,1-.54-.44A.48.48,0,0,1,80.31,22.24Z"/><path class="cls-5" d="M235.23,142.35a.42.42,0,0,1,.54-.24.42.42,0,1,1-.54.24Z"/><circle class="cls-10" cx="167.7" cy="81.63" r="0.96"/><path class="cls-17" d="M169,25.86a.92.92,0,0,1-1-.83.91.91,0,0,1,.83-1,.92.92,0,0,1,1,.83A.93.93,0,0,1,169,25.86Z"/><path class="cls-7" d="M84,115.94A.84.84,0,1,1,83.5,117,.83.83,0,0,1,84,115.94Z"/><path class="cls-10" d="M134,2a1.34,1.34,0,1,1-1.85-.38A1.35,1.35,0,0,1,134,2Z"/><path class="cls-3" d="M122.53,135.47a.54.54,0,0,1,.37.67.55.55,0,0,1-1.05-.3A.55.55,0,0,1,122.53,135.47Z"/><path class="cls-8" d="M131.26,36.42a.54.54,0,0,1-.34.68.53.53,0,0,1-.68-.33.54.54,0,0,1,.34-.68A.53.53,0,0,1,131.26,36.42Z"/><path class="cls-2" d="M239.09,120.06a.53.53,0,1,1,1.06-.11.53.53,0,1,1-1.06.11Z"/><path class="cls-13" d="M189.82,49.19a.95.95,0,1,1-1.11.74A.94.94,0,0,1,189.82,49.19Z"/><path class="cls-9" d="M187.64,106.29a1.22,1.22,0,1,1,.05-1.72A1.22,1.22,0,0,1,187.64,106.29Z"/><path class="cls-5" d="M35.62,7.1a.9.9,0,0,1-.91.85A.88.88,0,0,1,33.86,7a.87.87,0,0,1,.9-.85A.88.88,0,0,1,35.62,7.1Z"/><path class="cls-5" d="M115.52,49.91a.52.52,0,0,1-1-.32.5.5,0,0,1,.64-.33A.53.53,0,0,1,115.52,49.91Z"/><path class="cls-8" d="M57.11,82.2a.51.51,0,0,1,.17.71.52.52,0,1,1-.17-.71Z"/><path class="cls-11" d="M189.13,82.54a1.4,1.4,0,0,1,1.64-1.09,1.39,1.39,0,1,1-1.64,1.09Z"/><path class="cls-11" d="M173.89,142.3a.76.76,0,1,1,1,.31A.76.76,0,0,1,173.89,142.3Z"/><path class="cls-11" d="M18.78,28.68a1.27,1.27,0,1,1,.9-1.55A1.27,1.27,0,0,1,18.78,28.68Z"/><path class="cls-2" d="M142.86,117.07a.6.6,0,1,1-.18-.83A.6.6,0,0,1,142.86,117.07Z"/><path class="cls-8" d="M71.94,71.48a1,1,0,1,1,.26,1.43A1,1,0,0,1,71.94,71.48Z"/><path class="cls-17" d="M64.32,3.25a1.46,1.46,0,1,1,2.75-1,1.46,1.46,0,0,1-2.75,1Z"/><path class="cls-16" d="M171.89,97.39a.45.45,0,0,1,.74.51.45.45,0,1,1-.74-.51Z"/><path class="cls-5" d="M55.14,39.24a1.45,1.45,0,1,1-1.9.8A1.45,1.45,0,0,1,55.14,39.24Z"/><path class="cls-9" d="M132.86,130.6a1.28,1.28,0,1,1-.38,1.77A1.28,1.28,0,0,1,132.86,130.6Z"/><path class="cls-16" d="M62,94.32a1.36,1.36,0,0,1,1.69-.9A1.35,1.35,0,0,1,62.93,96,1.36,1.36,0,0,1,62,94.32Z"/><path class="cls-8" d="M114.74,112.57a.94.94,0,1,1-.4,1.27A.94.94,0,0,1,114.74,112.57Z"/><path class="cls-16" d="M114.22,116.57a1.1,1.1,0,1,1-.45,1.49A1.1,1.1,0,0,1,114.22,116.57Z"/><path class="cls-2" d="M198.58,44.68a.71.71,0,0,1,1,0,.72.72,0,0,1,0,1,.73.73,0,0,1-1,0A.72.72,0,0,1,198.58,44.68Z"/><path class="cls-14" d="M44.83,165a1.64,1.64,0,1,1-1.1,2A1.64,1.64,0,0,1,44.83,165Z"/><path class="cls-2" d="M239.09,158.29a1.58,1.58,0,0,1,1-1.95,1.57,1.57,0,1,1,.9,3A1.58,1.58,0,0,1,239.09,158.29Z"/><path class="cls-15" d="M140.44,72.58a1.21,1.21,0,1,1,1,1.4A1.2,1.2,0,0,1,140.44,72.58Z"/><path class="cls-2" d="M32,91.43A.89.89,0,0,1,31.12,93a.9.9,0,0,1-.34-1.21A.88.88,0,0,1,32,91.43Z"/><path class="cls-2" d="M35.19,19.63a1,1,0,0,1,1.29-.5,1,1,0,0,1,.49,1.3,1,1,0,0,1-1.29.49A1,1,0,0,1,35.19,19.63Z"/><path class="cls-14" d="M207.64,138.94a.49.49,0,0,1,0,.69.49.49,0,0,1-.69-.69A.49.49,0,0,1,207.64,138.94Z"/><path class="cls-2" d="M82.66,159.44a.58.58,0,0,1,.44.69.59.59,0,0,1-.7.43.57.57,0,0,1-.43-.69A.57.57,0,0,1,82.66,159.44Z"/><path class="cls-13" d="M230.49.71a.49.49,0,1,1-.31-.61A.48.48,0,0,1,230.49.71Z"/><path class="cls-16" d="M69.62,66.12A1.58,1.58,0,1,1,70.88,68,1.59,1.59,0,0,1,69.62,66.12Z"/><path class="cls-12" d="M178.05,10.8a1.19,1.19,0,1,1,2.18.93,1.19,1.19,0,1,1-2.18-.93Z"/><path class="cls-14" d="M93.63,34.49a1.12,1.12,0,1,1-1,1.24A1.13,1.13,0,0,1,93.63,34.49Z"/><path class="cls-17" d="M89.07,4.88a.74.74,0,0,1-.29,1,.75.75,0,0,1-1-.29.74.74,0,0,1,.29-1A.76.76,0,0,1,89.07,4.88Z"/><path class="cls-15" d="M158.3,6.13a1.28,1.28,0,1,1,1.37-1.19A1.28,1.28,0,0,1,158.3,6.13Z"/><path class="cls-17" d="M83.88,99.07a.49.49,0,0,1,.88.43.5.5,0,0,1-.66.22A.48.48,0,0,1,83.88,99.07Z"/><path class="cls-13" d="M167.2,59a1.5,1.5,0,1,1,2.09-.3A1.5,1.5,0,0,1,167.2,59Z"/><path class="cls-17" d="M40.91,42.51a.54.54,0,0,1-.08,1.08.55.55,0,0,1-.5-.58A.54.54,0,0,1,40.91,42.51Z"/><path class="cls-3" d="M111.15,58.58a.65.65,0,0,1,0-.91.65.65,0,1,1,.92.91A.65.65,0,0,1,111.15,58.58Z"/><path class="cls-8" d="M87.33,32.94a1.15,1.15,0,1,1,.91-1.36A1.16,1.16,0,0,1,87.33,32.94Z"/><circle class="cls-5" cx="169.36" cy="51.13" r="0.74"/><path class="cls-7" d="M51,120.44a1.07,1.07,0,0,1,1.5.14,1.07,1.07,0,0,1-1.64,1.36A1.07,1.07,0,0,1,51,120.44Z"/><path class="cls-12" d="M25.63,90.24A1.1,1.1,0,1,1,27,89.55,1.09,1.09,0,0,1,25.63,90.24Z"/><path class="cls-11" d="M43.87,176.12a.45.45,0,1,1-.36.53A.44.44,0,0,1,43.87,176.12Z"/><path class="cls-17" d="M129.24,31.49a.87.87,0,1,1,1.21-.21A.88.88,0,0,1,129.24,31.49Z"/><path class="cls-4" d="M42.77,17a.59.59,0,0,1-.05.84.6.6,0,0,1-.84,0,.59.59,0,0,1,0-.84A.6.6,0,0,1,42.77,17Z"/><path class="cls-13" d="M235.23,11a.46.46,0,0,1-.56-.32.45.45,0,0,1,.31-.56.46.46,0,0,1,.56.32A.45.45,0,0,1,235.23,11Z"/><path class="cls-14" d="M119.38,43.65a.51.51,0,0,1-.4.61.52.52,0,0,1-.62-.4.51.51,0,0,1,.4-.61A.52.52,0,0,1,119.38,43.65Z"/><path class="cls-13" d="M212,15.7a.81.81,0,0,1,1.61,0,.81.81,0,0,1-.82.8A.8.8,0,0,1,212,15.7Z"/><path class="cls-3" d="M136.66,110a1.26,1.26,0,1,1,1.41,1.08A1.26,1.26,0,0,1,136.66,110Z"/><path class="cls-2" d="M210.93,5.8a.6.6,0,0,1,.83.06.58.58,0,0,1-.06.82.58.58,0,0,1-.82-.06A.58.58,0,0,1,210.93,5.8Z"/><path class="cls-9" d="M67.72,70.3a.57.57,0,0,1,.77-.21.56.56,0,0,1,.21.77.56.56,0,1,1-1-.56Z"/><path class="cls-6" d="M95.81,158.69a.44.44,0,0,1-.5.37.45.45,0,0,1-.37-.51.44.44,0,0,1,.51-.36A.43.43,0,0,1,95.81,158.69Z"/><path class="cls-6" d="M150.49,82a1.08,1.08,0,1,1-1,1.13A1.07,1.07,0,0,1,150.49,82Z"/><path class="cls-4" d="M172.84,137.81a.59.59,0,1,1,.41-1.11.59.59,0,0,1-.41,1.11Z"/><path class="cls-10" d="M91.48,59.15a.49.49,0,0,1,.48-.5.49.49,0,0,1,0,1A.5.5,0,0,1,91.48,59.15Z"/><path class="cls-14" d="M11.24,9.72A1,1,0,0,1,12.47,9,1,1,0,1,1,11.94,11,1,1,0,0,1,11.24,9.72Z"/><path class="cls-13" d="M188.8,17.91a1.6,1.6,0,0,1-2.88,1.41,1.6,1.6,0,1,1,2.88-1.41Z"/><path class="cls-2" d="M16.45,46.76a.55.55,0,0,1-.67-.36.53.53,0,0,1,.36-.67.53.53,0,0,1,.67.36A.55.55,0,0,1,16.45,46.76Z"/><path class="cls-17" d="M109.36,88.94a1.2,1.2,0,0,1,.27-2.39,1.2,1.2,0,1,1-.27,2.39Z"/><path class="cls-15" d="M98.57,103.51a1.62,1.62,0,1,1-1,2A1.61,1.61,0,0,1,98.57,103.51Z"/><path class="cls-13" d="M158.63,112.79a.65.65,0,0,1-.9-.09.64.64,0,0,1,.1-.9.65.65,0,0,1,.9.09A.64.64,0,0,1,158.63,112.79Z"/><path class="cls-17" d="M59.35,89.22a1.1,1.1,0,0,1,1.43-.57,1.09,1.09,0,0,1,.56,1.43,1.07,1.07,0,0,1-1.42.56A1.09,1.09,0,0,1,59.35,89.22Z"/><path class="cls-2" d="M6.34,17.25a.6.6,0,0,1,0,.83.59.59,0,0,1-.83,0,.58.58,0,0,1,0-.83A.59.59,0,0,1,6.34,17.25Z"/><path class="cls-14" d="M37.21,29.16a.5.5,0,1,1-.92.41.5.5,0,0,1,.92-.41Z"/><path class="cls-3" d="M89.6,122.57a1.06,1.06,0,0,1,2.05.56,1.05,1.05,0,0,1-1.3.74A1.06,1.06,0,0,1,89.6,122.57Z"/><path class="cls-14" d="M135,76a.68.68,0,0,1-.15,1,.68.68,0,1,1-.8-1.09A.68.68,0,0,1,135,76Z"/><path class="cls-7" d="M195.87,8.88a.47.47,0,1,1,0,.66A.48.48,0,0,1,195.87,8.88Z"/><path class="cls-14" d="M69.35,163.37a1.48,1.48,0,1,1,1.85.95A1.46,1.46,0,0,1,69.35,163.37Z"/><path class="cls-16" d="M112.41,5.74a.79.79,0,0,1,1,.45.78.78,0,0,1-.45,1,.76.76,0,0,1-1-.44A.78.78,0,0,1,112.41,5.74Z"/><path class="cls-9" d="M237.49,175.52a1.64,1.64,0,1,1,2.09,1A1.64,1.64,0,0,1,237.49,175.52Z"/><path class="cls-13" d="M54.6,133.1a.61.61,0,1,1-.13-.85A.61.61,0,0,1,54.6,133.1Z"/><path class="cls-17" d="M242.44,104.48a1,1,0,1,1,1.07-1A1,1,0,0,1,242.44,104.48Z"/><path class="cls-17" d="M39.93,95.18a1.13,1.13,0,0,1-.56-1.48,1.11,1.11,0,0,1,1.47-.56,1.13,1.13,0,0,1,.56,1.48A1.11,1.11,0,0,1,39.93,95.18Z"/><path class="cls-17" d="M193,12.52a1.32,1.32,0,1,1,1.3,1.33A1.33,1.33,0,0,1,193,12.52Z"/><path class="cls-15" d="M44,22.43a.43.43,0,0,1-.48.36.42.42,0,1,1,.48-.36Z"/><path class="cls-13" d="M199.34,83.39a.57.57,0,1,1-.28.75A.57.57,0,0,1,199.34,83.39Z"/><path class="cls-13" d="M72.41,96.32A1.16,1.16,0,1,1,73,97.84,1.16,1.16,0,0,1,72.41,96.32Z"/><path class="cls-6" d="M62.06,4.74a1.09,1.09,0,0,1-.24-1.53,1.1,1.1,0,1,1,1.77,1.3A1.09,1.09,0,0,1,62.06,4.74Z"/><path class="cls-8" d="M121.2,55.72a.48.48,0,0,1-.65.16.49.49,0,0,1-.16-.66.47.47,0,0,1,.65-.15A.46.46,0,0,1,121.2,55.72Z"/><path class="cls-5" d="M28.82,179.89a1.1,1.1,0,1,1,1.36.74A1.1,1.1,0,0,1,28.82,179.89Z"/><path class="cls-7" d="M45.37,70.12a1.34,1.34,0,1,1,1.24,1.44A1.34,1.34,0,0,1,45.37,70.12Z"/><path class="cls-10" d="M252.56,142.76a.43.43,0,0,1-.75-.41.43.43,0,0,1,.75.41Z"/><path class="cls-11" d="M122.66,37A1.63,1.63,0,1,1,121,39.78,1.63,1.63,0,0,1,122.66,37Z"/><path class="cls-4" d="M232.27,43.37a.5.5,0,1,1-.41.56A.49.49,0,0,1,232.27,43.37Z"/><path class="cls-6" d="M37.54,141a.53.53,0,1,1-.71.26A.53.53,0,0,1,37.54,141Z"/><path class="cls-4" d="M76,174.31a1.33,1.33,0,1,1,1.84-.35A1.32,1.32,0,0,1,76,174.31Z"/><path class="cls-8" d="M28,97.33a1.09,1.09,0,1,1-.9,1.25A1.09,1.09,0,0,1,28,97.33Z"/><path class="cls-8" d="M173.25,12.75a1,1,0,0,1-1.37.25,1,1,0,0,1-.25-1.37,1,1,0,0,1,1.62,1.12Z"/><path class="cls-3" d="M113.57,132.4a1.07,1.07,0,1,1,.72,2,1.07,1.07,0,1,1-.72-2Z"/><path class="cls-5" d="M68.39,18.33a.58.58,0,0,1-.76.27.57.57,0,0,1-.26-.76.56.56,0,0,1,.75-.27A.57.57,0,0,1,68.39,18.33Z"/><path class="cls-12" d="M32,23.92a.42.42,0,0,1,.11-.58.43.43,0,0,1,.58.12.4.4,0,0,1-.11.57A.42.42,0,0,1,32,23.92Z"/><path class="cls-4" d="M116.75,138.19a.53.53,0,0,1,.76.05.54.54,0,0,1-.81.71A.53.53,0,0,1,116.75,138.19Z"/><path class="cls-11" d="M174.68,27.56a1.31,1.31,0,1,1-1.39-1.22A1.3,1.3,0,0,1,174.68,27.56Z"/><path class="cls-4" d="M89.59,44.8a.68.68,0,0,1-1,.07.67.67,0,1,1,1-.07Z"/><path class="cls-3" d="M223,5.33a1.45,1.45,0,1,1,.86-1.86A1.45,1.45,0,0,1,223,5.33Z"/><path class="cls-11" d="M98.51,96a1.58,1.58,0,0,1-.19-3.16A1.6,1.6,0,0,1,100,94.34,1.58,1.58,0,0,1,98.51,96Z"/><path class="cls-15" d="M206.46,154.33a1.51,1.51,0,1,1-.11-2.14A1.51,1.51,0,0,1,206.46,154.33Z"/><path class="cls-3" d="M210.68,64.42a.47.47,0,0,1-.55.36.47.47,0,0,1-.35-.55.45.45,0,0,1,.55-.35A.44.44,0,0,1,210.68,64.42Z"/><path class="cls-13" d="M76,49.94a.42.42,0,0,1-.58-.13.41.41,0,0,1,.12-.58.42.42,0,0,1,.46.71Z"/><path class="cls-8" d="M242.86,95.34a.88.88,0,0,1-1.2.29.87.87,0,1,1,1.2-.29Z"/><path class="cls-5" d="M144.07,168.05a.69.69,0,1,1-.57.8A.7.7,0,0,1,144.07,168.05Z"/><path class="cls-3" d="M136.49.25a.51.51,0,0,1-.7.1.52.52,0,0,1-.1-.71.51.51,0,0,1,.71-.09A.49.49,0,0,1,136.49.25Z"/><path class="cls-11" d="M129.38,48.91a1.31,1.31,0,1,1-1.21-1.39A1.3,1.3,0,0,1,129.38,48.91Z"/><path class="cls-2" d="M91.51,88.73a1.07,1.07,0,1,1,1.46.39A1.07,1.07,0,0,1,91.51,88.73Z"/><path class="cls-11" d="M232.69,55.91a1.53,1.53,0,1,1-.23-2.14A1.53,1.53,0,0,1,232.69,55.91Z"/><path class="cls-8" d="M112.25,93.19a.5.5,0,1,1,1,0,.5.5,0,1,1-1,0Z"/><path class="cls-9" d="M114.26,106.15a.44.44,0,0,1,.47.42.44.44,0,1,1-.88.05A.43.43,0,0,1,114.26,106.15Z"/><path class="cls-16" d="M242,18.34a1.21,1.21,0,1,1,1.69.24A1.21,1.21,0,0,1,242,18.34Z"/><path class="cls-13" d="M156.7,35.14a.51.51,0,0,1,.36.62.51.51,0,0,1-1-.26A.51.51,0,0,1,156.7,35.14Z"/><path class="cls-9" d="M37.13,54.91a1.11,1.11,0,1,1,1.24-1.83,1.11,1.11,0,0,1-1.24,1.83Z"/><path class="cls-15" d="M241.69,115.06a1.63,1.63,0,1,1,2-1.11A1.63,1.63,0,0,1,241.69,115.06Z"/><path class="cls-2" d="M46,61.24a.43.43,0,1,1-.37-.48A.43.43,0,0,1,46,61.24Z"/><path class="cls-8" d="M249.16,26.45a.66.66,0,1,1,.19-.92A.66.66,0,0,1,249.16,26.45Z"/><path class="cls-7" d="M204.83,109.16a.44.44,0,1,1-.15-.6A.43.43,0,0,1,204.83,109.16Z"/><path class="cls-6" d="M168.72,93.13a.74.74,0,0,1-.93.5.75.75,0,1,1,.93-.5Z"/><path class="cls-15" d="M26.76,150.63a.44.44,0,0,1-.6,0,.43.43,0,1,1,.6,0Z"/><path class="cls-12" d="M167.57,165.12a.44.44,0,0,1-.6-.14.45.45,0,0,1,.14-.6.43.43,0,0,1,.6.14A.43.43,0,0,1,167.57,165.12Z"/><path class="cls-7" d="M173.21,74.24a.6.6,0,0,1,.43.73.59.59,0,0,1-.72.43.6.6,0,0,1-.44-.72A.61.61,0,0,1,173.21,74.24Z"/><path class="cls-6" d="M211.09,114.1a1.17,1.17,0,0,1,1.8,1.48,1.15,1.15,0,0,1-1.63.16A1.16,1.16,0,0,1,211.09,114.1Z"/><path class="cls-3" d="M57.18,179.09a.45.45,0,0,1-.39.49.44.44,0,1,1,.39-.49Z"/><path class="cls-6" d="M14.81,38.7a1.06,1.06,0,1,1,.11-1.49A1.05,1.05,0,0,1,14.81,38.7Z"/><path class="cls-3" d="M134.29,96.15a1.47,1.47,0,1,1,2,.64A1.47,1.47,0,0,1,134.29,96.15Z"/><path class="cls-2" d="M193,149.45a.53.53,0,1,1,.72-.2A.54.54,0,0,1,193,149.45Z"/><path class="cls-12" d="M29.56,169.21a.51.51,0,0,1-.62-.34.5.5,0,0,1,1-.28A.51.51,0,0,1,29.56,169.21Z"/><path class="cls-9" d="M97.91,127.54a1.1,1.1,0,0,1,1.55.15,1.11,1.11,0,0,1-.16,1.55,1.1,1.1,0,0,1-1.39-1.7Z"/><path class="cls-12" d="M129.36,101.65a1.25,1.25,0,1,1,2.32-1,1.25,1.25,0,0,1-2.32,1Z"/><path class="cls-2" d="M31.91,174.27a.52.52,0,1,1-.56.47A.53.53,0,0,1,31.91,174.27Z"/><path class="cls-9" d="M201.85,53.27a.44.44,0,0,1,.22.58.44.44,0,1,1-.8-.37A.44.44,0,0,1,201.85,53.27Z"/><path class="cls-13" d="M64.22,132.37a.88.88,0,0,1,1.74.27.88.88,0,1,1-1.74-.27Z"/><path class="cls-14" d="M126,159.4a.7.7,0,1,1,.73-1.19.7.7,0,1,1-.73,1.19Z"/><path class="cls-12" d="M167.21,32.63a.52.52,0,1,1-.64.37A.52.52,0,0,1,167.21,32.63Z"/><path class="cls-5" d="M143.31,149.37a1.29,1.29,0,1,1,1.75-.5A1.29,1.29,0,0,1,143.31,149.37Z"/><path class="cls-15" d="M71,128.16a1.37,1.37,0,0,1-.94-1.68,1.36,1.36,0,1,1,.94,1.68Z"/><path class="cls-12" d="M191.63,137.44a.54.54,0,1,1,.54-.54A.54.54,0,0,1,191.63,137.44Z"/><path class="cls-7" d="M34,42.59a.53.53,0,0,1,.09.74.52.52,0,0,1-.73.09.53.53,0,0,1-.09-.74A.52.52,0,0,1,34,42.59Z"/><path class="cls-14" d="M27,161.53a.57.57,0,0,1,.76.22.56.56,0,0,1-.22.75.56.56,0,0,1-.54-1Z"/><path class="cls-13" d="M238.71,82.62a1,1,0,1,1-1.61,1.14,1,1,0,0,1,.23-1.37A1,1,0,0,1,238.71,82.62Z"/><path class="cls-7" d="M16.23,60.26a.64.64,0,0,1-.86-.27.63.63,0,0,1,.26-.86.64.64,0,0,1,.6,1.13Z"/><path class="cls-11" d="M62.29,42.79a1,1,0,1,1,.46-1.32A1,1,0,0,1,62.29,42.79Z"/><path class="cls-9" d="M86.4,24.15a1.08,1.08,0,1,1-1.33-.75A1.07,1.07,0,0,1,86.4,24.15Z"/><path class="cls-7" d="M67.24,128.47a.44.44,0,0,1,.61.05.43.43,0,0,1,0,.62.44.44,0,0,1-.61,0A.43.43,0,0,1,67.24,128.47Z"/><path class="cls-6" d="M170.91,36.33a.47.47,0,1,1-.46.48A.46.46,0,0,1,170.91,36.33Z"/><path class="cls-5" d="M119,1.15a.44.44,0,0,1-.52-.34.45.45,0,0,1,.35-.52.45.45,0,0,1,.51.35A.43.43,0,0,1,119,1.15Z"/><path class="cls-5" d="M37.58.29a.65.65,0,0,1,.91.2.66.66,0,0,1-.2.92.68.68,0,0,1-.92-.21A.67.67,0,0,1,37.58.29Z"/><path class="cls-7" d="M43.4,50.19a1.44,1.44,0,1,1,1.28-1.58A1.43,1.43,0,0,1,43.4,50.19Z"/><path class="cls-10" d="M46.31,73.85a.88.88,0,0,1,1.22.22.88.88,0,1,1-1.22-.22Z"/><path class="cls-10" d="M.16,123.67a.62.62,0,0,1,.54,1.11.62.62,0,1,1-.54-1.11Z"/><path class="cls-11" d="M73.6,41.26a.82.82,0,1,1,1.15-.06A.82.82,0,0,1,73.6,41.26Z"/><path class="cls-17" d="M242.18,88.66a.63.63,0,0,1-.19.87.64.64,0,0,1-.87-.2.63.63,0,0,1,.2-.86A.62.62,0,0,1,242.18,88.66Z"/><path class="cls-11" d="M4.31,76.8a.59.59,0,1,1,1,.66.61.61,0,0,1-.83.17A.59.59,0,0,1,4.31,76.8Z"/><path class="cls-14" d="M55.32,168.9a.45.45,0,0,1-.58-.7.45.45,0,1,1,.58.7Z"/><path class="cls-2" d="M171,161.69a1.4,1.4,0,1,1,.18,2A1.4,1.4,0,0,1,171,161.69Z"/><path class="cls-9" d="M57.5,130.82a1.6,1.6,0,1,1,1.28,1.86A1.6,1.6,0,0,1,57.5,130.82Z"/><path class="cls-2" d="M157.83,104.65a1.63,1.63,0,1,1-1.91,1.28A1.64,1.64,0,0,1,157.83,104.65Z"/><path class="cls-17" d="M160.1,143.82a.81.81,0,1,1-1.07.39A.82.82,0,0,1,160.1,143.82Z"/><path class="cls-6" d="M64.67,58.32a.49.49,0,1,1-.6-.36A.49.49,0,0,1,64.67,58.32Z"/><path class="cls-12" d="M58.29,117.68a.75.75,0,0,1-.15,1,.74.74,0,0,1-1-.15.75.75,0,1,1,1.19-.9Z"/><path class="cls-16" d="M86.75,35.72a1,1,0,1,1-1.35.22A1,1,0,0,1,86.75,35.72Z"/><path class="cls-11" d="M202.06,10.31a.42.42,0,1,1,.82-.21.42.42,0,1,1-.82.21Z"/><path class="cls-15" d="M1.26,42.91a1.11,1.11,0,1,1,.15,1.56A1.11,1.11,0,0,1,1.26,42.91Z"/><path class="cls-15" d="M127.36,21.35a.55.55,0,1,1-.65-.44A.56.56,0,0,1,127.36,21.35Z"/><path class="cls-9" d="M116.28,48.69a1.57,1.57,0,1,1-.14-2.22A1.57,1.57,0,0,1,116.28,48.69Z"/><path class="cls-4" d="M60.32,65.31a1.15,1.15,0,1,1-.55-1.54A1.15,1.15,0,0,1,60.32,65.31Z"/><path class="cls-10" d="M185.13,128.39a1.52,1.52,0,0,1,.61,2.08,1.54,1.54,0,1,1-.61-2.08Z"/><path class="cls-16" d="M124.86,114.68a.55.55,0,0,1-.91-.62.56.56,0,0,1,.77-.14A.55.55,0,0,1,124.86,114.68Z"/><circle class="cls-13" cx="196.4" cy="104.46" r="1.25"/><path class="cls-10" d="M12.63,28.54a.46.46,0,1,1,.53-.38A.46.46,0,0,1,12.63,28.54Z"/><path class="cls-16" d="M55.61,114.39a.51.51,0,0,1,0,.72.53.53,0,0,1-.73,0,.52.52,0,0,1,.06-.73A.51.51,0,0,1,55.61,114.39Z"/><path class="cls-13" d="M28,107.22a1,1,0,1,1,1.44-.32A1,1,0,0,1,28,107.22Z"/><path class="cls-7" d="M31.66,146.83a.58.58,0,0,1-.68.94.58.58,0,1,1,.68-.94Z"/><path class="cls-12" d="M205.73,6.57a1.58,1.58,0,1,1,.62-2.14A1.58,1.58,0,0,1,205.73,6.57Z"/><path class="cls-3" d="M174.11,4.81a.65.65,0,1,1-.69-.6A.65.65,0,0,1,174.11,4.81Z"/><path class="cls-13" d="M28.74,103a1.2,1.2,0,1,1,0-1.69A1.2,1.2,0,0,1,28.74,103Z"/><path class="cls-16" d="M114.07.46a.42.42,0,0,1-.53-.28.41.41,0,0,1,.28-.52.41.41,0,0,1,.52.27A.42.42,0,0,1,114.07.46Z"/><path class="cls-7" d="M148.36,132.37a.44.44,0,1,1-.47-.4A.44.44,0,0,1,148.36,132.37Z"/><path class="cls-12" d="M45.72,102.74a.43.43,0,1,1,0,.61A.44.44,0,0,1,45.72,102.74Z"/><path class="cls-8" d="M195.47,49.38a1.31,1.31,0,1,1-1.85-.09A1.3,1.3,0,0,1,195.47,49.38Z"/><path class="cls-8" d="M32.78,37.47a.43.43,0,0,1,.59-.08.41.41,0,0,1,.07.58.41.41,0,0,1-.58.08A.41.41,0,0,1,32.78,37.47Z"/><path class="cls-11" d="M231.83,61.18a1.24,1.24,0,1,1-1.67-.55A1.24,1.24,0,0,1,231.83,61.18Z"/><path class="cls-15" d="M193.74,109.18a.6.6,0,1,1,.59-.61A.6.6,0,0,1,193.74,109.18Z"/><path class="cls-2" d="M203.78,43.69a.42.42,0,1,1,.58-.06A.4.4,0,0,1,203.78,43.69Z"/><path class="cls-2" d="M72.74,36.08a.46.46,0,1,1,.59.27A.46.46,0,0,1,72.74,36.08Z"/><path class="cls-8" d="M45.16,155.21a.56.56,0,0,1,.29-.73.54.54,0,0,1,.72.28.55.55,0,0,1-.28.73A.57.57,0,0,1,45.16,155.21Z"/><path class="cls-11" d="M160.27,79.53a.48.48,0,1,1,.66.18A.49.49,0,0,1,160.27,79.53Z"/><path class="cls-17" d="M82,153.32a.78.78,0,0,1-.31-1.08.79.79,0,0,1,1.39.77A.78.78,0,0,1,82,153.32Z"/><path class="cls-14" d="M46.82,107.69a.59.59,0,0,1,.55-.64.61.61,0,0,1,.64.56.59.59,0,0,1-.56.63A.59.59,0,0,1,46.82,107.69Z"/><path class="cls-5" d="M77.45,59.19a1.32,1.32,0,0,1,1-1.62,1.33,1.33,0,0,1,1.63,1,1.35,1.35,0,0,1-1,1.63A1.33,1.33,0,0,1,77.45,59.19Z"/><path class="cls-17" d="M191.83,20.66a.79.79,0,0,1-.41-1,.77.77,0,0,1,1-.41.78.78,0,0,1,.41,1A.79.79,0,0,1,191.83,20.66Z"/><path class="cls-3" d="M54.17,95.15a.73.73,0,1,1-.37,1A.74.74,0,0,1,54.17,95.15Z"/><path class="cls-5" d="M112,103.24a.71.71,0,1,1-.87-.51A.71.71,0,0,1,112,103.24Z"/><path class="cls-6" d="M194.82,78.57a.94.94,0,0,1,.44,1.26.94.94,0,1,1-.44-1.26Z"/><path class="cls-8" d="M87.63,77.22a1.63,1.63,0,1,1,1.5-1.75A1.64,1.64,0,0,1,87.63,77.22Z"/><path class="cls-10" d="M70,109.52a.55.55,0,1,1,.74.23A.55.55,0,0,1,70,109.52Z"/><path class="cls-14" d="M131.68,64.06a.49.49,0,0,1,0-.7.5.5,0,0,1,.7,0,.5.5,0,0,1-.67.74Z"/><path class="cls-13" d="M238.4,14.92a.43.43,0,0,1-.6-.09.43.43,0,0,1,.69-.51A.43.43,0,0,1,238.4,14.92Z"/><path class="cls-14" d="M167.3,17.69a.72.72,0,1,1-.48.9A.73.73,0,0,1,167.3,17.69Z"/><circle class="cls-3" cx="175.28" cy="152.72" r="1.6" transform="translate(-7.21 8.69) rotate(-2.78)"/><path class="cls-10" d="M243.28,32.45a.43.43,0,0,1-.39.46.43.43,0,0,1-.06-.85A.42.42,0,0,1,243.28,32.45Z"/><path class="cls-6" d="M64.27,5.74a1.39,1.39,0,0,1,.19,1.94,1.38,1.38,0,1,1-.19-1.94Z"/><path class="cls-14" d="M99.45,48.68a1.33,1.33,0,1,1,2-1.68,1.33,1.33,0,0,1-2,1.68Z"/><path class="cls-16" d="M170.46,28.85a1.44,1.44,0,1,1-1.73,1.08A1.45,1.45,0,0,1,170.46,28.85Z"/><path class="cls-2" d="M94.53,77.58a.65.65,0,0,1,.63-.67.66.66,0,0,1,.67.62.65.65,0,0,1-1.3,0Z"/><path class="cls-2" d="M199.37,173.57a.8.8,0,1,1,1.1-.26A.8.8,0,0,1,199.37,173.57Z"/><path class="cls-12" d="M185.7,61.26a1.42,1.42,0,1,1-.76,1.86A1.42,1.42,0,0,1,185.7,61.26Z"/><path class="cls-16" d="M124.84,78.06a.54.54,0,0,1,.68.33.53.53,0,1,1-.68-.33Z"/><path class="cls-10" d="M152.42,31.38a.68.68,0,0,1-.59.75.67.67,0,0,1-.74-.6.66.66,0,0,1,.59-.74A.67.67,0,0,1,152.42,31.38Z"/><path class="cls-6" d="M201.33,144.93a.5.5,0,0,1-.12.72.51.51,0,0,1-.72-.11.52.52,0,1,1,.84-.61Z"/><path class="cls-11" d="M192.1,125.74a.51.51,0,1,1,.59.84.51.51,0,0,1-.59-.84Z"/><path class="cls-12" d="M53.24,22.69a1.23,1.23,0,1,1,1.06,1.38A1.23,1.23,0,0,1,53.24,22.69Z"/><path class="cls-15" d="M190,12.64a.56.56,0,1,1,.74.3A.56.56,0,0,1,190,12.64Z"/><path class="cls-10" d="M178.66,6.23a1.21,1.21,0,1,1,1.69-.29A1.21,1.21,0,0,1,178.66,6.23Z"/><path class="cls-16" d="M234.4,121.23a.61.61,0,1,1-.85.11A.6.6,0,0,1,234.4,121.23Z"/><path class="cls-7" d="M171.94,46.88a.5.5,0,0,1,.64-.3.52.52,0,0,1,.3.65.5.5,0,0,1-.65.29A.49.49,0,0,1,171.94,46.88Z"/><path class="cls-9" d="M246.91,65.29a1.21,1.21,0,1,1,2.16-1.11,1.21,1.21,0,0,1-2.16,1.11Z"/><path class="cls-16" d="M87.33,55.45a.46.46,0,0,1,.58.71.45.45,0,0,1-.64-.07A.46.46,0,0,1,87.33,55.45Z"/><path class="cls-14" d="M111.17,140.83a1.19,1.19,0,0,1,2.21.9,1.19,1.19,0,1,1-2.21-.9Z"/><path class="cls-8" d="M67.27,166.76a1.31,1.31,0,1,1,.26,1.83A1.3,1.3,0,0,1,67.27,166.76Z"/><path class="cls-14" d="M232.26,18.25a.41.41,0,1,1,.53-.26A.41.41,0,0,1,232.26,18.25Z"/><path class="cls-10" d="M197.23,128.6a1.16,1.16,0,0,1,1,1.28,1.16,1.16,0,1,1-1-1.28Z"/><path class="cls-15" d="M17.15,15a1.25,1.25,0,1,1,.71-1.62A1.24,1.24,0,0,1,17.15,15Z"/><path class="cls-4" d="M170.31,124.6a1.4,1.4,0,1,1-1.82-.81A1.4,1.4,0,0,1,170.31,124.6Z"/><path class="cls-4" d="M114.42,145.15a.59.59,0,0,1-.52-.64.58.58,0,0,1,1.16.11A.59.59,0,0,1,114.42,145.15Z"/><path class="cls-3" d="M174.43,173a.92.92,0,1,1-1.3-.12A.93.93,0,0,1,174.43,173Z"/><path class="cls-17" d="M15.38,67a.66.66,0,0,1,.81-.47.66.66,0,1,1-.81.47Z"/><circle class="cls-16" cx="148.6" cy="13.62" r="0.92" transform="translate(132.93 162.01) rotate(-89.21)"/><path class="cls-3" d="M193.17,93.11a.48.48,0,0,1-.46-.49.47.47,0,0,1,.49-.46.47.47,0,0,1,.46.49A.48.48,0,0,1,193.17,93.11Z"/><path class="cls-9" d="M70.53,80.33a.72.72,0,0,1-1,.2.71.71,0,0,1-.2-1,.69.69,0,0,1,1-.2A.7.7,0,0,1,70.53,80.33Z"/><path class="cls-4" d="M65.62,112.73a1.21,1.21,0,0,1,.65,1.58,1.23,1.23,0,0,1-1.59.66,1.21,1.21,0,1,1,.94-2.24Z"/><path class="cls-15" d="M67.18,137.38a.63.63,0,0,1-1.19-.44.63.63,0,1,1,1.19.44Z"/><path class="cls-13" d="M46.31,66.9a.72.72,0,1,1,.71.72A.71.71,0,0,1,46.31,66.9Z"/><circle class="cls-4" cx="177.16" cy="33.02" r="0.75"/><path class="cls-8" d="M94.61,20.88a.87.87,0,1,1,1,.67A.87.87,0,0,1,94.61,20.88Z"/><path class="cls-15" d="M194.94,31.88a.44.44,0,1,1-.6-.18A.45.45,0,0,1,194.94,31.88Z"/><path class="cls-14" d="M71.44,117.29a1.32,1.32,0,1,1,1.63.92A1.33,1.33,0,0,1,71.44,117.29Z"/><path class="cls-12" d="M169.35,109.83a.61.61,0,0,1,.63-.62.62.62,0,0,1,.62.62.61.61,0,0,1-.63.62A.62.62,0,0,1,169.35,109.83Z"/><path class="cls-13" d="M123.24,15.13a.85.85,0,1,1,.14,1.19A.84.84,0,0,1,123.24,15.13Z"/><path class="cls-15" d="M46.27,132.55a.49.49,0,0,1-.66.18.48.48,0,0,1-.17-.66.49.49,0,0,1,.66-.18A.48.48,0,0,1,46.27,132.55Z"/><path class="cls-2" d="M238.05,18.32a.86.86,0,0,1,0,1.22.88.88,0,0,1-1.22,0,.87.87,0,0,1,.05-1.22A.85.85,0,0,1,238.05,18.32Z"/><path class="cls-12" d="M46.25,162.12a1,1,0,1,1,1.43-.22A1,1,0,0,1,46.25,162.12Z"/><path class="cls-13" d="M64.49,13.56a.85.85,0,1,1-1.08.54A.85.85,0,0,1,64.49,13.56Z"/><path class="cls-5" d="M66.7,160.67a1,1,0,1,1,1.36-.57A1,1,0,0,1,66.7,160.67Z"/><path class="cls-11" d="M193.42,66.43a.8.8,0,1,1-.52-1A.8.8,0,0,1,193.42,66.43Z"/><path class="cls-17" d="M156.16,72.24A1.43,1.43,0,1,1,155,73.86,1.43,1.43,0,0,1,156.16,72.24Z"/><path class="cls-6" d="M192.69,171.78A.87.87,0,1,1,193,173,.87.87,0,0,1,192.69,171.78Z"/><path class="cls-12" d="M111,146.78a.52.52,0,1,1-.31-.67A.52.52,0,0,1,111,146.78Z"/><path class="cls-6" d="M129.12,75.94a.67.67,0,0,1,.34.88.67.67,0,1,1-.34-.88Z"/><path class="cls-15" d="M73.47,75.43a1.51,1.51,0,1,1-1.72,1.26A1.51,1.51,0,0,1,73.47,75.43Z"/><path class="cls-10" d="M238,147.9a1.38,1.38,0,1,1,.45-1.91A1.38,1.38,0,0,1,238,147.9Z"/><path class="cls-16" d="M34.41,96.66a1.57,1.57,0,1,1,.16,3.13,1.57,1.57,0,0,1-.16-3.13Z"/><path class="cls-4" d="M20.89,9.94a.9.9,0,1,1-1.27,0A.9.9,0,0,1,20.89,9.94Z"/><path class="cls-17" d="M250.5,179.05a.63.63,0,1,1,1.25.21.63.63,0,0,1-1.25-.21Z"/><path class="cls-6" d="M128.52,28.66a1.56,1.56,0,1,1,1.63-1.48A1.57,1.57,0,0,1,128.52,28.66Z"/><path class="cls-12" d="M203.86,168.93a1.39,1.39,0,1,1,1.88.57A1.39,1.39,0,0,1,203.86,168.93Z"/><path class="cls-14" d="M199,123.79a.49.49,0,1,1,.54-.43A.49.49,0,0,1,199,123.79Z"/><circle class="cls-6" cx="72.03" cy="56.48" r="1.15"/><path class="cls-3" d="M199.46,72.33a.5.5,0,0,1,.71,0,.51.51,0,1,1-.75.68A.5.5,0,0,1,199.46,72.33Z"/><path class="cls-7" d="M76,80.63a.69.69,0,0,1-1-.06.7.7,0,0,1,.06-1,.7.7,0,0,1,1,.07A.68.68,0,0,1,76,80.63Z"/><path class="cls-16" d="M51.21,66.56a1,1,0,0,1,1.39.17A1,1,0,0,1,51.05,68,1,1,0,0,1,51.21,66.56Z"/><path class="cls-15" d="M191.65,151.79a.41.41,0,0,1-.35.48.42.42,0,0,1-.49-.35.44.44,0,0,1,.36-.49A.43.43,0,0,1,191.65,151.79Z"/><path class="cls-17" d="M207,18.8A1.28,1.28,0,1,1,208,20.27,1.28,1.28,0,0,1,207,18.8Z"/><path class="cls-9" d="M231.2,91.21a.51.51,0,1,1,.47-.55A.51.51,0,0,1,231.2,91.21Z"/><path class="cls-8" d="M31.27,33.17a1.19,1.19,0,1,1,2.16,1,1.19,1.19,0,1,1-2.16-1Z"/><path class="cls-2" d="M196.11,84.13a.92.92,0,0,1-1.21.47.92.92,0,0,1,.73-1.68A.92.92,0,0,1,196.11,84.13Z"/><path class="cls-12" d="M12.9,16.6a.95.95,0,0,1-1.83.51.95.95,0,0,1,1.83-.51Z"/><path class="cls-14" d="M44.71,96.44a1.27,1.27,0,0,1,1.64.74,1.27,1.27,0,1,1-2.38.89A1.27,1.27,0,0,1,44.71,96.44Z"/><path class="cls-5" d="M80.09,88.76a.48.48,0,1,1,.54.41A.48.48,0,0,1,80.09,88.76Z"/><path class="cls-4" d="M44.69,112.35a1.54,1.54,0,1,1-1.81,1.23A1.54,1.54,0,0,1,44.69,112.35Z"/><path class="cls-11" d="M112.18,76.47a1.37,1.37,0,1,1-.79,1.76A1.37,1.37,0,0,1,112.18,76.47Z"/><path class="cls-3" d="M110.5,111.4a1.61,1.61,0,1,1,.65,2.17A1.61,1.61,0,0,1,110.5,111.4Z"/><path class="cls-4" d="M101.28,29.6a.73.73,0,0,1,.26,1,.72.72,0,1,1-.26-1Z"/><path class="cls-10" d="M26.83,22.26a.56.56,0,1,1,.64.92.56.56,0,1,1-.64-.92Z"/><path class="cls-14" d="M170.7,158.69a.42.42,0,0,1-.09.58.4.4,0,0,1-.57-.09.4.4,0,0,1,.08-.57A.41.41,0,0,1,170.7,158.69Z"/><path class="cls-3" d="M29.34,46a.41.41,0,0,1,.44-.39.42.42,0,0,1,.39.44.42.42,0,0,1-.44.39A.41.41,0,0,1,29.34,46Z"/><path class="cls-8" d="M93.72,3A1.17,1.17,0,1,1,94.9,1.88,1.17,1.17,0,0,1,93.72,3Z"/><path class="cls-15" d="M183.83,75.63a.42.42,0,0,1-.5-.33.42.42,0,0,1,.33-.51.43.43,0,1,1,.17.84Z"/><path class="cls-10" d="M128.63,139.22a.57.57,0,0,1-.66.45.56.56,0,0,1-.45-.66.56.56,0,0,1,1.11.21Z"/><path class="cls-6" d="M230,170.92a1.52,1.52,0,1,1,.54,2.08A1.52,1.52,0,0,1,230,170.92Z"/><path class="cls-8" d="M66.46,124.22a1.32,1.32,0,1,1,1.66.86A1.32,1.32,0,0,1,66.46,124.22Z"/><path class="cls-12" d="M49.13,28.89a.5.5,0,1,1,.76-.65.5.5,0,0,1-.76.65Z"/><path class="cls-3" d="M103.31,154.54a1,1,0,1,1-.73,1.21A1,1,0,0,1,103.31,154.54Z"/><path class="cls-11" d="M189.72,78.07a1.15,1.15,0,1,1-.33,1.59A1.16,1.16,0,0,1,189.72,78.07Z"/><path class="cls-13" d="M32.69,150.24a1.37,1.37,0,1,1-1.79-.74A1.36,1.36,0,0,1,32.69,150.24Z"/><path class="cls-7" d="M78.13,44A1.54,1.54,0,1,1,81,42.83,1.54,1.54,0,0,1,78.13,44Z"/><path class="cls-10" d="M128.92,153.55a.93.93,0,1,1-1.18-.57A.93.93,0,0,1,128.92,153.55Z"/><path class="cls-8" d="M141.86,95.48a1.2,1.2,0,1,1-1.39,2,1.2,1.2,0,1,1,1.39-2Z"/><path class="cls-9" d="M234.57,164.25a1.52,1.52,0,1,1,2,.81A1.52,1.52,0,0,1,234.57,164.25Z"/><path class="cls-3" d="M132.34,108.49a.43.43,0,0,1,.39.77.42.42,0,0,1-.58-.19A.42.42,0,0,1,132.34,108.49Z"/><path class="cls-9" d="M175.89,114.6a.49.49,0,1,1,.27.64A.49.49,0,0,1,175.89,114.6Z"/><path class="cls-4" d="M126,39.39a1.39,1.39,0,1,1,.7,1.84A1.39,1.39,0,0,1,126,39.39Z"/><path class="cls-12" d="M45,77.83a.55.55,0,0,1-.67-.39.56.56,0,0,1,.39-.67A.55.55,0,0,1,45,77.83Z"/><path class="cls-6" d="M185.72,96.74a1.63,1.63,0,1,1,.7,2.19A1.63,1.63,0,0,1,185.72,96.74Z"/><path class="cls-15" d="M231.81,94.36a1.57,1.57,0,0,1,3-1,1.57,1.57,0,1,1-3,1Z"/><path class="cls-14" d="M83,54.38a1.25,1.25,0,1,1,1.6-.76A1.25,1.25,0,0,1,83,54.38Z"/><path class="cls-6" d="M72.43,90.34a1.29,1.29,0,1,1,.08,1.82A1.29,1.29,0,0,1,72.43,90.34Z"/><path class="cls-12" d="M103.8,94.34a.76.76,0,1,1,.64.86A.76.76,0,0,1,103.8,94.34Z"/><path class="cls-12" d="M193.9,179.55a.43.43,0,1,1,.11-.6A.42.42,0,0,1,193.9,179.55Z"/><path class="cls-11" d="M116.73,20.89a1.47,1.47,0,1,1,2.08,0A1.47,1.47,0,0,1,116.73,20.89Z"/><path class="cls-14" d="M30.29,82.74a1.28,1.28,0,1,1-1.73.52A1.28,1.28,0,0,1,30.29,82.74Z"/><path class="cls-16" d="M131.23,79.6a.67.67,0,0,1,.48-.83.68.68,0,0,1,.35,1.31A.67.67,0,0,1,131.23,79.6Z"/><path class="cls-3" d="M9.13,14.07a.58.58,0,1,1,.62.53A.57.57,0,0,1,9.13,14.07Z"/><path class="cls-5" d="M29.75,88a.8.8,0,1,1-.48,1A.8.8,0,0,1,29.75,88Z"/><path class="cls-11" d="M48.76,21.39a.48.48,0,0,1-.66-.15.47.47,0,1,1,.66.15Z"/><path class="cls-6" d="M111.15,136.75a1.38,1.38,0,1,1-1.79-.79A1.38,1.38,0,0,1,111.15,136.75Z"/><path class="cls-6" d="M42.61,66.51a.54.54,0,0,1,.69.83.54.54,0,0,1-.69-.83Z"/><path class="cls-3" d="M140.76,104.08a1.27,1.27,0,1,1-1.38,1.15A1.27,1.27,0,0,1,140.76,104.08Z"/><path class="cls-13" d="M82.57,72.88a.57.57,0,1,1,.2,1.13.59.59,0,0,1-.67-.47A.58.58,0,0,1,82.57,72.88Z"/><path class="cls-11" d="M156.28,135.48a.43.43,0,0,1-.53.3A.43.43,0,1,1,156,135,.43.43,0,0,1,156.28,135.48Z"/><path class="cls-2" d="M117.58,116.06a1.42,1.42,0,0,1,2.73-.75,1.42,1.42,0,0,1-2.73.75Z"/><path class="cls-4" d="M111.34,98.11a.73.73,0,0,1,.15,1,.74.74,0,0,1-1.18-.88A.73.73,0,0,1,111.34,98.11Z"/><path class="cls-4" d="M63.94,47.82A1.25,1.25,0,1,1,65,46.43,1.25,1.25,0,0,1,63.94,47.82Z"/><path class="cls-11" d="M41.38,69.25a1.41,1.41,0,1,1-2,.06A1.4,1.4,0,0,1,41.38,69.25Z"/><path class="cls-13" d="M93.7,31.35a.54.54,0,0,1-.25-.72.53.53,0,0,1,.71-.25.54.54,0,1,1-.46,1Z"/><path class="cls-15" d="M8.66,1.94a.5.5,0,0,1,.43-.56.5.5,0,1,1-.43.56Z"/><path class="cls-4" d="M190.75,24a.57.57,0,0,1-.76-.21.56.56,0,1,1,1-.55A.57.57,0,0,1,190.75,24Z"/><path class="cls-14" d="M236.19,66.5a1.31,1.31,0,1,1,1.85-.17A1.31,1.31,0,0,1,236.19,66.5Z"/><path class="cls-17" d="M67.18,85a1,1,0,0,1,1.64-1.1A1,1,0,1,1,67.18,85Z"/><path class="cls-9" d="M165.55,90a1.39,1.39,0,1,1-.16-2A1.38,1.38,0,0,1,165.55,90Z"/><path class="cls-5" d="M98,74.33A.82.82,0,1,1,99.15,74,.82.82,0,0,1,98,74.33Z"/><path class="cls-6" d="M170.21,10.08a1.23,1.23,0,1,1,.65-1.62A1.25,1.25,0,0,1,170.21,10.08Z"/><path class="cls-3" d="M68.68,27.72a.49.49,0,0,1,.45-.51.48.48,0,1,1-.45.51Z"/><path class="cls-16" d="M144,1.5a.92.92,0,1,1-1.79-.41A.92.92,0,0,1,144,1.5Z"/><path class="cls-6" d="M26.88,59.08a.49.49,0,0,1,.77-.59.49.49,0,1,1-.77.59Z"/><path class="cls-16" d="M106.51,81.25a1,1,0,1,1,.73-1.14A1,1,0,0,1,106.51,81.25Z"/><path class="cls-12" d="M172,122a1.24,1.24,0,1,1,.75,1.58A1.24,1.24,0,0,1,172,122Z"/><path class="cls-7" d="M107.83,115.1a.43.43,0,0,1,.13-.61.44.44,0,0,1,.62.13.46.46,0,0,1-.13.62A.45.45,0,0,1,107.83,115.1Z"/><path class="cls-7" d="M158.22,7.51a1.42,1.42,0,1,1-1.56,1.26A1.42,1.42,0,0,1,158.22,7.51Z"/><path class="cls-3" d="M26.44,171a1.23,1.23,0,1,1-1.22,1.23A1.23,1.23,0,0,1,26.44,171Z"/><path class="cls-15" d="M83.93,90.31A.89.89,0,0,1,85,91a.87.87,0,0,1-.65,1,.89.89,0,0,1-1-.66A.87.87,0,0,1,83.93,90.31Z"/><path class="cls-9" d="M220.85,27.91a1.63,1.63,0,1,1-1.67,1.6A1.63,1.63,0,0,1,220.85,27.91Z"/><path class="cls-14" d="M136,90.55a.81.81,0,1,1-.42,1.07A.81.81,0,0,1,136,90.55Z"/><path class="cls-9" d="M130.7,11.74A1.57,1.57,0,1,1,132,13.57,1.57,1.57,0,0,1,130.7,11.74Z"/><path class="cls-9" d="M84.46,77.16a.53.53,0,0,1-.32.66.51.51,0,0,1-.65-.32.5.5,0,0,1,.31-.65A.51.51,0,0,1,84.46,77.16Z"/><path class="cls-2" d="M26.64,32.42a1.25,1.25,0,1,1-1.26-1.23A1.24,1.24,0,0,1,26.64,32.42Z"/><path class="cls-17" d="M81.24,11.65a.47.47,0,1,1,.63-.7.48.48,0,0,1,0,.67A.47.47,0,0,1,81.24,11.65Z"/><path class="cls-4" d="M197.08,40a1.13,1.13,0,0,1,.32,1.56,1.12,1.12,0,0,1-1.55.32A1.12,1.12,0,0,1,197.08,40Z"/><path class="cls-13" d="M186.79,175.06a.78.78,0,1,1-.26,1.07A.77.77,0,0,1,186.79,175.06Z"/><path class="cls-11" d="M90,66.07A1.58,1.58,0,1,1,90.72,64,1.57,1.57,0,0,1,90,66.07Z"/><path class="cls-5" d="M97,109.38a.86.86,0,1,1-1.09-.54A.85.85,0,0,1,97,109.38Z"/><path class="cls-11" d="M152.69,117.22a.61.61,0,0,1,.84-.12.6.6,0,0,1,.12.83.6.6,0,0,1-1-.71Z"/><path class="cls-6" d="M167.26,99.22a1.55,1.55,0,1,1,2.17.31A1.54,1.54,0,0,1,167.26,99.22Z"/><path class="cls-15" d="M101.05,118.22a.75.75,0,0,1,1-.32.74.74,0,1,1-.68,1.32A.75.75,0,0,1,101.05,118.22Z"/><path class="cls-2" d="M95.28,39.35a.55.55,0,0,1,.55-.54.54.54,0,0,1,.54.54.55.55,0,0,1-.54.55A.56.56,0,0,1,95.28,39.35Z"/><path class="cls-2" d="M41,78.23a.81.81,0,0,1,1.51-.58.81.81,0,1,1-1.51.58Z"/><path class="cls-12" d="M115.81,157.89a.52.52,0,1,1,.52.52A.52.52,0,0,1,115.81,157.89Z"/><path class="cls-4" d="M174.55,95.32a.53.53,0,1,1,1,.42.54.54,0,0,1-.7.28A.53.53,0,0,1,174.55,95.32Z"/><path class="cls-12" d="M194.72,46.24a.62.62,0,0,1,1.23,0,.62.62,0,0,1-1.23,0Z"/><path class="cls-2" d="M95.94,93.14a1.37,1.37,0,1,1,1-1.66A1.38,1.38,0,0,1,95.94,93.14Z"/><path class="cls-7" d="M187.07,86.46a.49.49,0,0,1,.93.33.5.5,0,0,1-.63.3A.49.49,0,0,1,187.07,86.46Z"/><path class="cls-5" d="M144.57,122.34a1.29,1.29,0,1,1-1.66-.75A1.29,1.29,0,0,1,144.57,122.34Z"/><path class="cls-12" d="M242.45,169.72a.46.46,0,0,1,.91-.15.46.46,0,1,1-.91.15Z"/><path class="cls-7" d="M125.93,106.37a.79.79,0,0,1-1.11,0,.78.78,0,0,1,1.07-1.14A.79.79,0,0,1,125.93,106.37Z"/><path class="cls-10" d="M187.55,118.23a1.22,1.22,0,1,1,.26,1.71A1.23,1.23,0,0,1,187.55,118.23Z"/><path class="cls-6" d="M194.53,145.67a1.38,1.38,0,1,1-.95-1.72A1.39,1.39,0,0,1,194.53,145.67Z"/><path class="cls-5" d="M108.42,109.15a.62.62,0,1,1,.4-.78A.63.63,0,0,1,108.42,109.15Z"/><path class="cls-8" d="M38.9,175.62a.51.51,0,0,1-.55.48.52.52,0,0,1-.48-.55.53.53,0,0,1,.55-.48A.52.52,0,0,1,38.9,175.62Z"/><circle class="cls-3" cx="109.27" cy="-0.4" r="0.5"/><path class="cls-14" d="M197.81,56.62a.69.69,0,1,1-.82.54A.69.69,0,0,1,197.81,56.62Z"/><path class="cls-15" d="M177.57,1.53A1.63,1.63,0,0,1,175.63.26a1.65,1.65,0,0,1,1.27-1.94A1.64,1.64,0,0,1,178.84-.4,1.64,1.64,0,0,1,177.57,1.53Z"/><path class="cls-14" d="M19.35,5.8a.58.58,0,0,1-.89-.75.58.58,0,1,1,.89.75Z"/><path class="cls-9" d="M176.1,159.92a1.59,1.59,0,1,1-1.66-1.52A1.59,1.59,0,0,1,176.1,159.92Z"/><path class="cls-13" d="M198.56,152.45a.51.51,0,0,1-.55.45.5.5,0,1,1,.55-.45Z"/><path class="cls-8" d="M191.69,59.61a.65.65,0,0,1,.36-.86.67.67,0,0,1,.86.37.66.66,0,1,1-1.22.49Z"/><path class="cls-2" d="M142.58,85.67a.54.54,0,1,1-.55.52A.53.53,0,0,1,142.58,85.67Z"/><circle class="cls-8" cx="134.01" cy="20.46" r="1.03" transform="translate(103.51 152.54) rotate(-85.68)"/><path class="cls-9" d="M113.84,24.29A.87.87,0,0,1,115,23a.87.87,0,0,1,0,1.23A.86.86,0,0,1,113.84,24.29Z"/><path class="cls-7" d="M116.36,61.86a1.5,1.5,0,1,1-1.72-1.25A1.5,1.5,0,0,1,116.36,61.86Z"/><path class="cls-4" d="M65.72,27.86a.62.62,0,1,1-.7-.52A.61.61,0,0,1,65.72,27.86Z"/><path class="cls-2" d="M154.41,63.5a.47.47,0,1,1-.9-.24.46.46,0,0,1,.57-.33A.47.47,0,0,1,154.41,63.5Z"/><path class="cls-14" d="M201.41,119.62a.47.47,0,0,1,0,.65.46.46,0,0,1-.66-.63A.46.46,0,0,1,201.41,119.62Z"/><path class="cls-5" d="M205.63,97.74a.45.45,0,0,1-.26-.86.45.45,0,0,1,.56.3A.45.45,0,0,1,205.63,97.74Z"/><path class="cls-11" d="M190.66,113.68a1.39,1.39,0,0,1-.09-2,1.4,1.4,0,0,1,2.07,1.89A1.39,1.39,0,0,1,190.66,113.68Z"/><path class="cls-2" d="M192.16,156.63a.42.42,0,1,1-.57-.17A.43.43,0,0,1,192.16,156.63Z"/><path class="cls-17" d="M97.47,135.76a.48.48,0,0,1,.16-.66.48.48,0,1,1,.5.82A.48.48,0,0,1,97.47,135.76Z"/><path class="cls-5" d="M50.27,128.4a.42.42,0,1,1-.52.3A.42.42,0,0,1,50.27,128.4Z"/><path class="cls-5" d="M116.17,3.32a1.1,1.1,0,1,1-1.42.65A1.1,1.1,0,0,1,116.17,3.32Z"/><path class="cls-2" d="M117.37,104.82a.56.56,0,0,1-.54.6.57.57,0,0,1-.61-.54.59.59,0,0,1,.55-.61A.57.57,0,0,1,117.37,104.82Z"/><path class="cls-17" d="M38.08,136.5a1.24,1.24,0,0,1,1.18-2.19,1.24,1.24,0,1,1-1.18,2.19Z"/><path class="cls-15" d="M130.18,94.25a.76.76,0,1,1,1.15-1,.76.76,0,1,1-1.15,1Z"/><path class="cls-6" d="M139,65.05a.79.79,0,1,1-.58-1A.79.79,0,0,1,139,65.05Z"/><path class="cls-11" d="M179.51,51.74a1.16,1.16,0,1,1,1.6.33A1.15,1.15,0,0,1,179.51,51.74Z"/><path class="cls-11" d="M84.84,38.85a.45.45,0,0,1-.32.56.46.46,0,0,1-.57-.32.46.46,0,1,1,.89-.24Z"/><path class="cls-15" d="M203.77,114.11a.91.91,0,1,1,1.09.69A.91.91,0,0,1,203.77,114.11Z"/><path class="cls-2" d="M39.4,99.17a1.63,1.63,0,1,1-.26,2.29A1.62,1.62,0,0,1,39.4,99.17Z"/><path class="cls-17" d="M12.08,20.67a.85.85,0,0,1,.54-1.07.85.85,0,0,1,.53,1.61A.85.85,0,0,1,12.08,20.67Z"/><path class="cls-2" d="M235,97.05a.53.53,0,0,1-.72-.79.53.53,0,1,1,.72.79Z"/><path class="cls-2" d="M109.53,45a.52.52,0,0,1,.55-.88.52.52,0,1,1-.55.88Z"/><path class="cls-4" d="M240,4.19a1.31,1.31,0,1,1-1.69-.78A1.32,1.32,0,0,1,240,4.19Z"/><path class="cls-12" d="M238,99.75a1.14,1.14,0,1,1-1.61-.11A1.14,1.14,0,0,1,238,99.75Z"/><path class="cls-5" d="M198.46,31.37a.54.54,0,1,1-.23.73A.54.54,0,0,1,198.46,31.37Z"/><path class="cls-3" d="M211.88,98.93a.93.93,0,1,1-.59-1.18A.94.94,0,0,1,211.88,98.93Z"/><path class="cls-11" d="M58.36,77.35A1.44,1.44,0,1,1,56.84,76,1.45,1.45,0,0,1,58.36,77.35Z"/><path class="cls-15" d="M29.7,55.93a.49.49,0,0,1,.57-.39.5.5,0,0,1,.38.58.49.49,0,0,1-.57.38A.48.48,0,0,1,29.7,55.93Z"/><path class="cls-8" d="M238.94,132.49a1,1,0,0,1,.89,1.1,1,1,0,1,1-2-.2A1,1,0,0,1,238.94,132.49Z"/><path class="cls-11" d="M5.41-1.1a.77.77,0,0,1,.83.72.77.77,0,0,1-.72.83.77.77,0,0,1-.83-.72A.77.77,0,0,1,5.41-1.1Z"/><path class="cls-11" d="M141.79,90.08a1.34,1.34,0,1,1-.53,1.81A1.34,1.34,0,0,1,141.79,90.08Z"/><path class="cls-11" d="M89,161.68a.5.5,0,0,1,.4-.58.51.51,0,0,1,.58.4.5.5,0,0,1-1,.18Z"/><path class="cls-2" d="M8.76,10.81a1.51,1.51,0,1,1,.75,2A1.51,1.51,0,0,1,8.76,10.81Z"/><path class="cls-3" d="M117.91,145.21a.46.46,0,1,1,.07.65A.46.46,0,0,1,117.91,145.21Z"/><path class="cls-13" d="M24.65,66.57a.43.43,0,0,1-.62.59.44.44,0,0,1,0-.61A.43.43,0,0,1,24.65,66.57Z"/><path class="cls-17" d="M117,81.48a.51.51,0,0,1,.13.71.51.51,0,1,1-.13-.71Z"/><path class="cls-9" d="M57.26,155.62a1.11,1.11,0,0,1,1.33-.81,1.1,1.1,0,0,1-.51,2.14A1.11,1.11,0,0,1,57.26,155.62Z"/><path class="cls-9" d="M214.26,20.65a1.27,1.27,0,1,1-.86,1.58A1.27,1.27,0,0,1,214.26,20.65Z"/><path class="cls-8" d="M114.27,12.71a1.41,1.41,0,1,1-2.8.32,1.41,1.41,0,0,1,2.8-.32Z"/><path class="cls-13" d="M157.65,47.39A1,1,0,0,1,156,46.22a1,1,0,1,1,1.61,1.17Z"/><path class="cls-13" d="M121.77,101.16a.74.74,0,1,1-1,0A.74.74,0,0,1,121.77,101.16Z"/><path class="cls-4" d="M82.46,17.28a1,1,0,1,1,1.85-.51,1,1,0,1,1-1.85.51Z"/><path class="cls-5" d="M32.15,69.51a1.57,1.57,0,0,1,0,2.21,1.56,1.56,0,1,1-2.23-2.19A1.57,1.57,0,0,1,32.15,69.51Z"/><path class="cls-9" d="M91.45,9.49a1.57,1.57,0,0,1,2,1,1.56,1.56,0,1,1-2-1Z"/><path class="cls-14" d="M82.74,6.53a.78.78,0,1,1,1,.44A.79.79,0,0,1,82.74,6.53Z"/><path class="cls-16" d="M187,37.26a.6.6,0,0,1,.33-.77.6.6,0,0,1,.43,1.11A.58.58,0,0,1,187,37.26Z"/><path class="cls-6" d="M206.75,147a.48.48,0,0,1,.62-.23.46.46,0,0,1,.23.62.47.47,0,0,1-.62.24A.48.48,0,0,1,206.75,147Z"/><path class="cls-14" d="M83,56.93a.68.68,0,0,1,.93-.3.69.69,0,1,1-.93.3Z"/><path class="cls-5" d="M103.85,70.3a.41.41,0,0,1-.4.42.41.41,0,1,1,0-.82A.4.4,0,0,1,103.85,70.3Z"/><path class="cls-5" d="M14.81,3A.58.58,0,0,1,15,2.2a.56.56,0,0,1,.76.21.55.55,0,0,1-.2.76A.57.57,0,0,1,14.81,3Z"/><path class="cls-17" d="M77.22,53.7a.41.41,0,0,1,.51-.3.41.41,0,0,1,.3.51.42.42,0,1,1-.81-.21Z"/><path class="cls-4" d="M138.22,133.6a1.57,1.57,0,1,1,3.08-.63,1.57,1.57,0,1,1-3.08.63Z"/><path class="cls-11" d="M235.48,23.55a.52.52,0,0,1-.39.63.51.51,0,0,1-.62-.39.52.52,0,0,1,.39-.63A.52.52,0,0,1,235.48,23.55Z"/><path class="cls-6" d="M5.63,23.62a.81.81,0,0,1,.13-1.14.82.82,0,0,1,1.15.13.83.83,0,0,1-.14,1.15A.8.8,0,0,1,5.63,23.62Z"/><path class="cls-14" d="M238.34,51.37a.66.66,0,0,1-1.25-.42.66.66,0,1,1,1.25.42Z"/><path class="cls-8" d="M117.35,109.48a1.18,1.18,0,1,1,1.64.32A1.19,1.19,0,0,1,117.35,109.48Z"/><path class="cls-14" d="M206.61,160.38a.93.93,0,1,1-1.86-.17.93.93,0,1,1,1.86.17Z"/><path class="cls-12" d="M27.79,35.32a.48.48,0,0,1,.35.57.47.47,0,0,1-.56.36.48.48,0,0,1,.21-.93Z"/><path class="cls-8" d="M99.34,6.33A.56.56,0,1,1,98.61,6,.57.57,0,0,1,99.34,6.33Z"/><path class="cls-16" d="M236.42,56.16a.87.87,0,1,1-1.08-.59A.87.87,0,0,1,236.42,56.16Z"/><path class="cls-6" d="M7.87,39A1.34,1.34,0,1,1,9.28,37.7,1.34,1.34,0,0,1,7.87,39Z"/><path class="cls-12" d="M31.44,62.46a.62.62,0,1,1-.84.27A.62.62,0,0,1,31.44,62.46Z"/><path class="cls-6" d="M115.05,72.71a1.49,1.49,0,1,1,2-.61A1.5,1.5,0,0,1,115.05,72.71Z"/><path class="cls-7" d="M210,10.38a.45.45,0,1,1-.14.62A.45.45,0,0,1,210,10.38Z"/><path class="cls-7" d="M136.37,114a.5.5,0,0,1,.46.55.51.51,0,1,1-1-.08A.51.51,0,0,1,136.37,114Z"/><path class="cls-11" d="M178.74,45.07a.72.72,0,0,1-.49.89.71.71,0,0,1-.89-.48.73.73,0,0,1,.49-.9A.72.72,0,0,1,178.74,45.07Z"/><path class="cls-6" d="M6.84,7.21a1.41,1.41,0,1,1-2-.06A1.41,1.41,0,0,1,6.84,7.21Z"/><path class="cls-13" d="M129.4,68.38a.47.47,0,1,1,.93,0,.47.47,0,1,1-.93,0Z"/><path class="cls-17" d="M143.51,77.71a.62.62,0,0,1,1.15-.48.63.63,0,0,1-.34.82A.62.62,0,0,1,143.51,77.71Z"/><path class="cls-7" d="M68.58,75.9a1.34,1.34,0,1,1,1.84.44A1.34,1.34,0,0,1,68.58,75.9Z"/><path class="cls-3" d="M96.18,97.82a.44.44,0,1,1-.6.18A.44.44,0,0,1,96.18,97.82Z"/><path class="cls-8" d="M190.54,1a.65.65,0,0,1,.8-.49A.66.66,0,1,1,191,1.83.65.65,0,0,1,190.54,1Z"/><path class="cls-15" d="M19.42,113.13a.43.43,0,0,1,.5-.35.44.44,0,0,1,.35.51.42.42,0,0,1-.5.34A.43.43,0,0,1,19.42,113.13Z"/><path class="cls-9" d="M139.09,167.06a.45.45,0,0,1-.56-.32.46.46,0,0,1,.89-.24A.46.46,0,0,1,139.09,167.06Z"/><path class="cls-16" d="M120.43,72.91a.54.54,0,0,1,.24-.75.56.56,0,1,1-.24.75Z"/><path class="cls-15" d="M174.45,25.22a1.41,1.41,0,1,1,1.78-.9A1.41,1.41,0,0,1,174.45,25.22Z"/><path class="cls-5" d="M62.56,22.36a1.17,1.17,0,1,1,.32-1.63A1.17,1.17,0,0,1,62.56,22.36Z"/><path class="cls-8" d="M153.58,128.32a1.52,1.52,0,1,1,2.07-.58A1.52,1.52,0,0,1,153.58,128.32Z"/><path class="cls-15" d="M111.64,19.45a.5.5,0,1,1-.69-.72.5.5,0,0,1,.69.72Z"/><path class="cls-15" d="M111,23.51a.54.54,0,0,1-.26.72A.53.53,0,0,1,110,24a.54.54,0,0,1,.26-.72A.53.53,0,0,1,111,23.51Z"/><path class="cls-16" d="M169.7,159.22a1.15,1.15,0,1,1-1.45-.73A1.15,1.15,0,0,1,169.7,159.22Z"/><path class="cls-3" d="M10.38,72.45a1,1,0,1,1,.69,1.16A1,1,0,0,1,10.38,72.45Z"/><path class="cls-14" d="M79.3,66.07a.87.87,0,0,1,.12-1.2.86.86,0,1,1-.12,1.2Z"/><path class="cls-14" d="M192.72,30.79a1.29,1.29,0,1,1,.4-1.79A1.29,1.29,0,0,1,192.72,30.79Z"/><path class="cls-4" d="M88.17,148.09a1,1,0,0,1-.38-1.41,1,1,0,1,1,.38,1.41Z"/><path class="cls-3" d="M126.1,65.46a1.23,1.23,0,1,1,1.72-.17A1.23,1.23,0,0,1,126.1,65.46Z"/><path class="cls-14" d="M68.64,63.47A1.65,1.65,0,1,1,70,65.34,1.65,1.65,0,0,1,68.64,63.47Z"/><path class="cls-8" d="M248.36,89a.72.72,0,0,1,.79.62.71.71,0,0,1-.62.79.7.7,0,0,1-.78-.62A.71.71,0,0,1,248.36,89Z"/><path class="cls-11" d="M16.47,30.6a.9.9,0,0,1,1.27.17.92.92,0,0,1-.18,1.28.91.91,0,1,1-1.09-1.45Z"/><path class="cls-11" d="M7,69.7a.55.55,0,0,1,.07-1.09A.55.55,0,1,1,7,69.7Z"/><path class="cls-11" d="M129.21,130.86a1.13,1.13,0,1,1-1,1.22A1.13,1.13,0,0,1,129.21,130.86Z"/><path class="cls-7" d="M31.8,119.86a.73.73,0,0,1-1-.09.74.74,0,0,1,.1-1,.73.73,0,0,1,1,.1A.72.72,0,0,1,31.8,119.86Z"/><path class="cls-13" d="M154.64,91.78a1.22,1.22,0,1,1,1.7.28A1.22,1.22,0,0,1,154.64,91.78Z"/><path class="cls-12" d="M218.79,99.38a.51.51,0,0,1-.45-.56.52.52,0,0,1,.57-.45.51.51,0,0,1,.45.56A.52.52,0,0,1,218.79,99.38Z"/><path class="cls-13" d="M118.5,121a1.32,1.32,0,1,1,1.86-.12A1.31,1.31,0,0,1,118.5,121Z"/><path class="cls-9" d="M107.79,163.81a1,1,0,1,1,1.25.71A1,1,0,0,1,107.79,163.81Z"/><path class="cls-17" d="M39.69,26.47a1.43,1.43,0,0,1,2.53,1.33,1.43,1.43,0,1,1-2.53-1.33Z"/><path class="cls-15" d="M170.31,113.72a.9.9,0,1,1,1.2-.42A.91.91,0,0,1,170.31,113.72Z"/><path class="cls-8" d="M140.79,16.86a1.15,1.15,0,0,1,0,1.62,1.14,1.14,0,0,1-1.63-1.6A1.15,1.15,0,0,1,140.79,16.86Z"/><path class="cls-15" d="M.14,10.31A1.5,1.5,0,0,1-.72,8.38,1.48,1.48,0,0,1,1.2,7.53a1.48,1.48,0,0,1,.86,1.92A1.49,1.49,0,0,1,.14,10.31Z"/><path class="cls-17" d="M173.68,147.09a.75.75,0,0,1,1-.09.74.74,0,0,1,.08,1.05.74.74,0,0,1-1.05.09A.74.74,0,0,1,173.68,147.09Z"/><path class="cls-10" d="M70.43,58.68a1,1,0,0,1,1.36,1.59,1,1,0,1,1-1.36-1.59Z"/><path class="cls-11" d="M237.28,151.66a.44.44,0,0,1-.59.09.42.42,0,0,1-.09-.58.42.42,0,0,1,.58-.1A.43.43,0,0,1,237.28,151.66Z"/><path class="cls-5" d="M46,52.62A1,1,0,1,1,44.62,51,1,1,0,0,1,46,52.62Z"/><path class="cls-13" d="M216.08,111a.79.79,0,1,1-.88-.67A.78.78,0,0,1,216.08,111Z"/><circle class="cls-13" cx="43.76" cy="28.26" r="1.39"/><path class="cls-11" d="M190.23,56a1.43,1.43,0,1,1,1.88-.76A1.44,1.44,0,0,1,190.23,56Z"/><path class="cls-15" d="M84.47,68.73a.42.42,0,0,1,.45.37.42.42,0,1,1-.45-.37Z"/><path class="cls-16" d="M54.94,158.38a.55.55,0,0,1-.27.73.56.56,0,0,1-.74-.27.57.57,0,0,1,.27-.73A.56.56,0,0,1,54.94,158.38Z"/><path class="cls-6" d="M34.09,167.48a1.39,1.39,0,1,1-.83,1.79A1.39,1.39,0,0,1,34.09,167.48Z"/><path class="cls-7" d="M133.41,103.89a.47.47,0,0,1,.37.56.47.47,0,1,1-.93-.19A.48.48,0,0,1,133.41,103.89Z"/><path class="cls-13" d="M42.88,136.93a.87.87,0,0,1,1.21-.26.87.87,0,0,1,.27,1.21.88.88,0,1,1-1.48-.95Z"/><path class="cls-10" d="M187.25,123.25a1.3,1.3,0,1,1-.54,1.75A1.3,1.3,0,0,1,187.25,123.25Z"/><path class="cls-9" d="M248.89,148.2a.79.79,0,0,1-.73-1.39.8.8,0,0,1,1.06.33A.79.79,0,0,1,248.89,148.2Z"/><path class="cls-17" d="M237.15,110.83a.93.93,0,0,1,.57,1.19.93.93,0,1,1-1.76-.63A.93.93,0,0,1,237.15,110.83Z"/><path class="cls-13" d="M117.28,22.2a.95.95,0,1,1,1.76.71.94.94,0,0,1-1.23.53A1,1,0,0,1,117.28,22.2Z"/><path class="cls-3" d="M172.37,17.51a.54.54,0,1,1,0,1.08.54.54,0,0,1-.53-.55A.53.53,0,0,1,172.37,17.51Z"/></g></svg>