<svg xmlns="http://www.w3.org/2000/svg" viewBox="0 0 252 180"><g id="Layer_3" data-name="Layer 3"><path d="M1.22,178.88H250.78V1.12H1.22Zm72-54.41-1.28.06c-1-.58-1.93-1.11-2.85-1.69A12.82,12.82,0,0,1,68,122l-1.86-1.48-.78-.91-.11.07c-.13-.34-.27-.68-.39-1-.33-1-.72-2-1.15-3a16.83,16.83,0,0,1-1.08-3.21c-.22-1-.64-2-.94-3s-.48-1.73-.71-2.6l-.3-1c-.31-.95-.67-1.88-.9-2.84a5.16,5.16,0,0,1-.09-2.65l.63-.06c.25.41.45.8.71,1.15.88,1.23,1.75,2.46,2.69,3.64a10.23,10.23,0,0,0,1.45,1.27,4.24,4.24,0,0,0,1.36,1.29c.71.52,1.48.95,2.17,1.49a5.23,5.23,0,0,1,.8,1c.29,1.53.56,2.87.8,4.21a9,9,0,0,0,.35,1.7c0,.06,0,.15,0,.2a9.17,9.17,0,0,1,.79,2.66c.29,1.11.66,2.21,1,3.31a2.32,2.32,0,0,0,.45.7,2.17,2.17,0,0,1,.35,1.11A1.84,1.84,0,0,1,73.24,124.47Zm.37-13.9c-.68-.31-1.37-.58-2-.91a3.48,3.48,0,0,1-1.2-.93,2.64,2.64,0,0,1-.49-2,6.73,6.73,0,0,0,.1-.89,5.88,5.88,0,0,1-.09-1.17,2,2,0,0,0,0-1.15.38.38,0,0,1,0-.21,8.7,8.7,0,0,0,.14-2.22c0-.58.1-1.15.17-1.73,0-.3.1-.59.15-.88l.07-.06.37-2.24c0-.22-.05-.51-.08-.78a11.08,11.08,0,0,0,1.17-2.93,3.32,3.32,0,0,1,.81-1.4h.72c.27.42.55.88.85,1.3.44.6.91,1.18,1.36,1.77.56.76,1.12,1.53,1.69,2.29a.92.92,0,0,0,.17.22c.78.59,1.38,1.37,2.15,2a12.52,12.52,0,0,1,2.15,1.76,4.61,4.61,0,0,0,.89.67,3.53,3.53,0,0,1,.29,2.51,3.27,3.27,0,0,0,0,.83c0,.3-.05.6-.09,1a4,4,0,0,1-.19,2.2c.07.28.15.57.22.86a.92.92,0,0,1,0,.28c-.24,1.15.16,2.31,0,3.46-.08.45-.08.91-.12,1.37a2.61,2.61,0,0,1-1.8.09,5,5,0,0,1-1.09-.43c-.18-.07-.34-.16-.51-.22-.7-.26-1.4-.5-2.08-.78-.84-.34-1.67-.69-2.49-1.06C74.37,111,74,110.76,73.61,110.57Zm20.22,43.75a2.63,2.63,0,0,0-.47-.1,4.73,4.73,0,0,1-2.87-1.35,1.47,1.47,0,0,1-1-.53.55.55,0,0,0-.17-.13,16.5,16.5,0,0,1-2.4-1.77,22,22,0,0,1-2.59-2.34,2.32,2.32,0,0,1-1.39-.81,10.12,10.12,0,0,1-1.4-1.45c-.06-.09-.16-.17-.22-.27a6.52,6.52,0,0,0-1.65-1.86c-.29-.23-.3-.28-.33-.79a1.75,1.75,0,0,1,1.66-.47c.7.15,1.41.23,2.1.43s1.48.55,2.22.79a2.34,2.34,0,0,1,1.14.87c.58.72,1.21,1.41,1.85,2.09A13.94,13.94,0,0,0,90,148.27a23.92,23.92,0,0,1,2.35,2.26,2.57,2.57,0,0,0,.46.42,4.62,4.62,0,0,1,1.3,1.15,1.57,1.57,0,0,0,.51.36,4.75,4.75,0,0,1,1.29,1.24A2,2,0,0,1,93.83,154.32Zm5.69-11.43a4.55,4.55,0,0,1-2.13.78,31.18,31.18,0,0,1-4.32.13c-.3,0-.6-.05-.9-.09s-.83-.1-1.24-.15a1.86,1.86,0,0,1-.42-.05,9.24,9.24,0,0,0-2.37-.53,5.52,5.52,0,0,1-3-1.54,10,10,0,0,1-1.4-2,7.38,7.38,0,0,0-1.06-1.37,15.05,15.05,0,0,1-1-1.21c-.86-1.09-1.57-2.29-2.32-3.46-.5-.78-1-1.56-1.44-2.37a11.67,11.67,0,0,1-.9-1.48c-.13-.36-.3-.71-.45-1l.23-.47a1,1,0,0,1,.83,0l1.21.54c.11,0,.21.1.32.13,1.22.34,2.32.94,3.5,1.36a14.84,14.84,0,0,0,2.62.68,1,1,0,0,1,.4.1,5.07,5.07,0,0,0,2.95.6h.21a2.49,2.49,0,0,1,2.43,1.16,5.8,5.8,0,0,1,1,1.49.83.83,0,0,0,.21.28,20.9,20.9,0,0,1,1.9,2.3,3.89,3.89,0,0,0,.34.36,25.64,25.64,0,0,1,2.62,3.17,6.44,6.44,0,0,0,2,2,.86.86,0,0,1,.2.18ZM98.67,74a6.76,6.76,0,0,1,.8,1,7.81,7.81,0,0,0,1.15,1.29,17.37,17.37,0,0,1,1.51,1.89,1.73,1.73,0,0,1,.17.44c-.37.31-.72.62-1.08.91s-1,.71-1.5,1.11a8.07,8.07,0,0,0-2.08,2,1.75,1.75,0,0,1-.45.45,4,4,0,0,0-.77.87c-.51.69-1.1,1.31-1.68,2-.24.27-.47.55-.7.84a18.39,18.39,0,0,1-1.82,1.82.7.7,0,0,1-.85.07,4.87,4.87,0,0,1-1.32-.89c-.42-.43-.9-.79-1.33-1.2a12.27,12.27,0,0,1-1.93-2.38,4.91,4.91,0,0,0-.63-.75,4.63,4.63,0,0,1-.4-.48c-.66-1.12-1.32-2.23-2-3.36-.22-.38-.38-.8-.6-1.28V77.15l.72-.73c.37-.37.71-.78,1-1.19a17.34,17.34,0,0,1,1.64-1.56,6.2,6.2,0,0,0,.46-.42A30.43,30.43,0,0,1,89.19,71a8.81,8.81,0,0,0,.66-.71c.44-.57,1.15-.78,1.67-1.24.29-.26.54-.56.84-.81A4.84,4.84,0,0,1,94.54,67a10.49,10.49,0,0,1,1.6,2.5c.18.35.38.7.57,1a1.81,1.81,0,0,1,.34,1.22A11.37,11.37,0,0,0,98.67,74Zm71.29,18-.78,1.3a4.19,4.19,0,0,1-.74,1.63,2.09,2.09,0,0,0-.48,1.07.48.48,0,0,1-.08.18c-.39.82-.77,1.65-1.16,2.46a4.8,4.8,0,0,1-.32.54,21.46,21.46,0,0,0-1.64,2.73,3,3,0,0,1-1.29,1.62h-.66c-.59-.32-1.13-.68-1.72-.94a7.25,7.25,0,0,1-1.91-1.37,3.15,3.15,0,0,0-1-.6c-.76-.29-1.5-.64-2.24-1-.48-.22-1-.49-1.44-.69a3.6,3.6,0,0,0-1.27-.32,13.56,13.56,0,0,1-1.78-.32l-.76-.1a.91.91,0,0,1-.87-.9A34.27,34.27,0,0,0,154,90.1l.89-.74.88-.1.89-.11c.95-.1,1.9-.21,2.85-.28a7.72,7.72,0,0,1,1.17.11c.12,0,.23.09.34.08a12.76,12.76,0,0,1,3.79.42,34.3,34.3,0,0,1,4.2,1.25c.3.11.61.19.93.29C169.92,91.34,169.94,91.62,170,91.92Zm-1.49-29.61a7,7,0,0,0-1-.09,2.8,2.8,0,0,1-1.54-.53c-.18-.55-.37-1.19-.59-1.82a6,6,0,0,0-.39-.81c-.67-1.27-1.11-2.64-1.84-3.89a9.14,9.14,0,0,0-.86-1.3,9,9,0,0,1-.89-1.53,10.29,10.29,0,0,1-1.54-2.51.63.63,0,0,1,.71-.49,6.26,6.26,0,0,0,1.23-.06,12.78,12.78,0,0,1,1.95.13c.68.13,1.39,0,2.08.18a12.4,12.4,0,0,0,1.38.22l2,.22a1,1,0,0,1,.35,0,11.51,11.51,0,0,0,2.08.52c.2.07.42.06.62.11a4.27,4.27,0,0,1,.87.22c.74.34,1.45.75,2.19,1.08a4.72,4.72,0,0,1,1.61,1.5,10.64,10.64,0,0,1,1.06,2.33c.08.14.1.33.21.44a2.71,2.71,0,0,1,.6,1.39,25.91,25.91,0,0,0,1.06,2.87,11.39,11.39,0,0,1,.88,2.56,1.34,1.34,0,0,0,.09.26c.26.72.53,1.43.78,2.16a1.47,1.47,0,0,1,0,.47,1.09,1.09,0,0,1-1.08.14,11.17,11.17,0,0,1-1.7-.63,29.78,29.78,0,0,0-3.43-1.35,4.6,4.6,0,0,1-.52-.19,9,9,0,0,0-3.13-.9,3.85,3.85,0,0,1-.85-.29ZM135.25,99.93a1.6,1.6,0,0,1,1.46-.59,19.65,19.65,0,0,0,2.28-.26c.32,0,.64,0,1-.06l2.66-.32a6.34,6.34,0,0,0,2.57.35,1,1,0,0,1,1,.34,1.9,1.9,0,0,1-.54,1.06c-.55.57-1.06,1.17-1.63,1.71s-.93.76-1.38,1.13l-1,.13a14.38,14.38,0,0,1-3.15-.91c-.3-.12-.63-.16-.94-.28-.63-.23-1.26-.46-1.86-.75a2.6,2.6,0,0,1-.61-.54C135.13,100.58,135.19,100.26,135.25,99.93ZM135,89.17a.86.86,0,0,1,.11-.79c.72-1.27,1.42-2.55,2.14-3.82.28-.5.62-1,.88-1.49a10.65,10.65,0,0,0,.42-1.18l.67-.27a2.1,2.1,0,0,1,.3.53,6.11,6.11,0,0,1,.19,1.71,10.44,10.44,0,0,0,.2,1.74c-.09.42-.19,1-.31,1.53-.52.27-1.11.52-1.65.86a9,9,0,0,0-1.06.9l-.74.63C135.46,89.55,135.46,89.55,135,89.17Zm5.06,17.44a3.53,3.53,0,0,0,1.4-.89,1.31,1.31,0,0,0,.33-.12,2.57,2.57,0,0,1,2.15-.16,12.29,12.29,0,0,1,4.35,2c.65.45,1.33.85,2,1.28a1.86,1.86,0,0,1,.42.37,22.62,22.62,0,0,1,2.24,2.35c.16.25.44.41.62.65a8.26,8.26,0,0,1,.52.81,1.25,1.25,0,0,1-.44,1.32c-.29.24-.45.65-.74.92a8.93,8.93,0,0,1-2.83,2,5.71,5.71,0,0,0-1.58,1,8.61,8.61,0,0,1-1.4.91,1.67,1.67,0,0,1-1.26.08c-.13-.21-.32-.47-.48-.75s-.38-.73-.59-1.09c-.64-1.07-1.28-2.14-1.95-3.19-.44-.68-.94-1.32-1.4-2a11.26,11.26,0,0,1-.63-1,3.09,3.09,0,0,0-1.17-1,19.12,19.12,0,0,1-1.8-1.3,2.54,2.54,0,0,1-.41-.63A15.62,15.62,0,0,1,140.05,106.61Zm13.32-18.3a3.14,3.14,0,0,1-.55.29c-.47.12-.95.19-1.43.3-.31.08-.61.21-.93.27a24.33,24.33,0,0,0-2.7.54,11.53,11.53,0,0,0-3.35,1.34,29.26,29.26,0,0,1-2.86,1.57c-.55.31-1.08.64-1.68,1h-.74a.68.68,0,0,1,0-.74c.41-1.06.79-2.12,1.2-3.18a9.2,9.2,0,0,1,.78-2c.94-.52,1.79-1,2.65-1.46a12.08,12.08,0,0,1,1.31-.62,5.11,5.11,0,0,0,1.51-.85,1.1,1.1,0,0,1,.28-.2c.65-.36,1.29-.74,2-1.06.44-.21.92-.32,1.37-.49.73-.29,1.45-.6,2.24-.93l.47.39A16.17,16.17,0,0,1,153.37,88.31Zm-5.26-18.79a7.68,7.68,0,0,1-.58.54c-.34.24-.71.44-1.05.67a7.53,7.53,0,0,1-.84.59A5.89,5.89,0,0,0,144,72.81a39.9,39.9,0,0,0-3.39,3.49c-.57.75-1.07,1.56-1.68,2.45a1.08,1.08,0,0,1-1.07-.22c-.51-.56-1-1.14-1.53-1.7-.76-.84-1.54-1.66-2.32-2.5a1.76,1.76,0,0,0-.4-.37c-.79-.46-.89-1.15-.64-2.07a19.13,19.13,0,0,1,.85-2.12c.19-.47.35-1,.54-1.42s.31-.71.48-1.07.43-.92.67-1.36.36-.6.55-.88c.58-.83,1.21-1.64,1.74-2.5a14.86,14.86,0,0,1,1.11-1.83c.35-.42.69-.86,1-1.29l.71-.05c1,1.06,2.38,1.76,3,3.21a3.45,3.45,0,0,1,1.29,1.28c.82,1.21,1.69,2.39,2.52,3.6.31.45.57,1,.8,1.35C148.14,69.1,148.13,69.28,148.11,69.52Zm-15.18,36.31c.21.18.41.37.64.58V107a24.93,24.93,0,0,1-5-.25c-.09-.14-.2-.33-.27-.46.21-.68.88-.68,1.23-1.1s1-.31,1.54-.51l1.07.56Zm-2.29-30.34a2,2,0,0,0-.12,1.48c-.18.59-.36,1.17-.52,1.75a3.37,3.37,0,0,0-.14.89,6.72,6.72,0,0,1-.26,1.78c-.12.49-.17,1-.27,1.58l-.77,0a6.87,6.87,0,0,1-2.09-3.49,13.49,13.49,0,0,1-.23-1.57c-.06-.6-.08-1.2-.15-1.8a5.14,5.14,0,0,0-.21-.86c-.15-.58-.35-1.15-.46-1.74a2.27,2.27,0,0,1,.14-.76c1.26-.48,3.89.07,5.21,1A3.47,3.47,0,0,1,130.64,75.49ZM127.06,109a6.15,6.15,0,0,0,1.26.84,3.7,3.7,0,0,1,1.4,1.09,21.35,21.35,0,0,1,1.41,1.71,1.92,1.92,0,0,1,.23.35c.53,1.48,1.35,2.85,1.77,4.38a13.85,13.85,0,0,1,.35,1.7c.07.39,0,.48-.39.92a5.51,5.51,0,0,1-2-.11c-.47-.24-.9-.48-1.35-.68a8.78,8.78,0,0,1-2.15-1.41,14.51,14.51,0,0,0-1.4-.9c-.44-.3-.85-.62-1.28-.94l0-.13a9,9,0,0,1-.1-1c0-.64.09-1.28.13-1.93,0-.36,0-.73,0-1.09,0-.09-.07-.19-.05-.27.21-.94-.29-1.8-.33-2.75l.45-.73A7.14,7.14,0,0,1,127.06,109Zm-2.67-52.21a7.46,7.46,0,0,0-.11,1c-.1,1-.47,1.93-.65,2.91a2.68,2.68,0,0,0-.07.27c0,.67-.12,1.34-.15,2s0,1.2,0,1.8a9.08,9.08,0,0,1-.22,2.08,2.56,2.56,0,0,0,0,1.23,1.92,1.92,0,0,1-.09,1.22,7.22,7.22,0,0,0-.3,1.75.75.75,0,0,1-.79.37,14.16,14.16,0,0,0-3.95.36,1.34,1.34,0,0,1-.35,0,8.42,8.42,0,0,0-2.34.32,5.27,5.27,0,0,1-.68.11,1.59,1.59,0,0,1-.79-1c-.25-.73-.19-1.51-.4-2.24a2.13,2.13,0,0,0-.07-.27,15.82,15.82,0,0,1-.78-2.87c-.09-.43-.22-.85-.33-1.27a1.61,1.61,0,0,1-.08-.48,5.1,5.1,0,0,0-.2-1.29,10.29,10.29,0,0,1-.14-1.57c0-.25-.08-.5-.08-.74,0-1.24,0-2.48,0-3.77.22-.15.44-.32.67-.45.39-.22.81-.37,1.19-.6a9.28,9.28,0,0,1,2.11-.68c.57-.19,1.15-.36,1.74-.5a4.51,4.51,0,0,1,.9-.1,7.91,7.91,0,0,0,2.35-.5,2.61,2.61,0,0,0,1.64-.19,6.69,6.69,0,0,1,2-.14c.34,0,.41.08.64.44C124.8,54.91,124.58,55.83,124.39,56.76ZM117.84,113a3.28,3.28,0,0,1,.63-.86h.8a7.21,7.21,0,0,1,2,2.35,3.59,3.59,0,0,0,.68.86,3.29,3.29,0,0,1,1.16,2.44,5.75,5.75,0,0,1-.46,3.21,3.15,3.15,0,0,0-.25.86c-.13.41-.25.83-.4,1.24-.32.86-.64,1.73-1,2.58a12.12,12.12,0,0,1-.71,1.27,17,17,0,0,0-1.51,3,1.83,1.83,0,0,1-.18.3,6.14,6.14,0,0,0-1,2,1.24,1.24,0,0,1-.16.29l-.81.19c-1.29-1.12-2.56-2.24-3.85-3.34a46.66,46.66,0,0,0-3.73-3.39v-.75a5.49,5.49,0,0,1,.57-.7,5.43,5.43,0,0,0,1.07-1.27.51.51,0,0,1,.13-.16c1.08-.87,1.6-2.19,2.53-3.18a5.71,5.71,0,0,0,.43-.72c.6-.82,1.23-1.62,1.81-2.46A16.26,16.26,0,0,0,117.84,113Zm-1.09-9.29c.3-.69,1.2-.78,1.56-1.39a1.32,1.32,0,0,1,1.64.31,13.3,13.3,0,0,1-.57,4.56c-.08.13-.19.34-.33.53a.7.7,0,0,1-1.22,0,1.14,1.14,0,0,1-.15-.23A5.68,5.68,0,0,1,116.75,103.68Zm5.6-18.36a4.91,4.91,0,0,1-1.23-1c-.05,0,0-.21,0-.31,1.36-.14,2.54,0,3.22,1a.41.41,0,0,1-.45.42A4.59,4.59,0,0,1,122.35,85.32ZM113.92,74.8c.12.26.25.5.35.75.18.5.34,1,.51,1.52a10.63,10.63,0,0,0,.42,1.24,13.56,13.56,0,0,0,1.68,2.3c.28.35.58.67.88,1v.89a19.45,19.45,0,0,1-2.33,1.16c-.76.4-1.53.76-2.33,1.15a5.16,5.16,0,0,1-2.39-.57,14,14,0,0,1-2.5-1.88,4.16,4.16,0,0,1-.54-.64,10.92,10.92,0,0,0-2.44-2.26.34.34,0,0,0-.06-.06.51.51,0,0,1,.18-.66,12.83,12.83,0,0,1,3.27-2.09,19.34,19.34,0,0,0,2.16-1.13A7,7,0,0,1,113.92,74.8Zm-8,17.34c.49-.57,1-1.07,1.54-1.62.26-.29.46-.64.7-1a1.8,1.8,0,0,1,.42-.45c.83-.55,1.67-1.09,2.53-1.6.45-.27,1-.45,1.4-.66a4.71,4.71,0,0,1,.53.2,17.67,17.67,0,0,0,2.19,1.06,11.65,11.65,0,0,0,1.76.81q.7.19,1.38.45c.35.13.68.28.93.39.31.68-.11,1-.42,1.46l-1,.37a2.48,2.48,0,0,0-.84.46,11,11,0,0,1-1.3.94.91.91,0,0,1-.45.18,12.7,12.7,0,0,0-2,.39c-.67.09-1.32.29-2,.33a17.6,17.6,0,0,1-3.25.25c-1-.12-2-.08-2.9-.11-.09-.07-.11-.07-.12-.09s-.1-.26-.18-.45C105.27,93.06,105.59,92.57,106,92.14Zm.84,11.35c.44,0,.87-.16,1.31-.18a5.15,5.15,0,0,0,1.85-.55l2.5-1a1.82,1.82,0,0,0,.36-.2,1.78,1.78,0,0,1,1.51-.32c.12.66.26,1.29.36,1.93a.83.83,0,0,1-.4,1,1.64,1.64,0,0,0-.42.45c-.33.43-.62.89-1,1.29a6.09,6.09,0,0,1-.82.66,5.09,5.09,0,0,1-1.44,1.15l-2.25,1.52c-.51.33-1,.61-1.54,1-.77.52-1.5,1.1-2.27,1.6-.45.29-1,.49-1.42.74s-.83.4-1.23.63a1.5,1.5,0,0,1-1.19.3c0-.13-.13-.29-.17-.46-.1-.47-.19-1-.28-1.43a5.19,5.19,0,0,1-.18-.94,8.76,8.76,0,0,0-.07-1,2.57,2.57,0,0,1,.15-1.23,6.56,6.56,0,0,0,.24-2.2c0-.46.07-.92.11-1.29a2.84,2.84,0,0,1,1.89-.84c.35-.06.69-.1,1-.13l1.17-.11Zm-4.24-8.16a9.12,9.12,0,0,1-1.09,1.75,5.19,5.19,0,0,0-1,2.57c-.17,1-.23,2.12-.34,3.21a1.45,1.45,0,0,1-1.23.46,7.83,7.83,0,0,0-1.37.11c-.68.12-1.38.16-2.07.22a2.62,2.62,0,0,1-.56,0c-.86-.09-1.71-.16-2.57-.28a10.65,10.65,0,0,1-1.36-.3q-.9-.22-1.8-.48a2.35,2.35,0,0,1-.47-.15,24.61,24.61,0,0,0-2.86-1.07,9.88,9.88,0,0,1-1.09-.53A3,3,0,0,1,85,99.13a11.33,11.33,0,0,1,1.26-2.22,10.08,10.08,0,0,0,.84-1.58c.84-1,1.52-1.69,2.13-2.47s1.13-1.59,1.72-2.45l1-.26c.59.47,1.12.91,1.67,1.33a11.56,11.56,0,0,0,2.37,1.29c.61.27,1.24.52,1.83.84a3.3,3.3,0,0,0,1.47.37,13.11,13.11,0,0,1,3.2.5A.63.63,0,0,1,102.56,95.33Zm-1.89,33.18a29.18,29.18,0,0,1-2.93.58,2.84,2.84,0,0,0-.42,0,6.45,6.45,0,0,1-2.14.26,4.39,4.39,0,0,0-1.24.15,2.36,2.36,0,0,1-.75,0c-.75,0-1.5,0-2.22,0a1.69,1.69,0,0,1-1-1,13.89,13.89,0,0,0-.86-1.43c-.31-.51-.6-1-.9-1.57a4.37,4.37,0,0,0-.4-.65,8.74,8.74,0,0,1-1-2,6.19,6.19,0,0,0-.38-1,6.52,6.52,0,0,1-.79-2.13c-.14-.73-.39-1.43-.58-2.14-.09-.36-.14-.73-.22-1.14l.23-.62a2.15,2.15,0,0,1,.68-.1c.44.06.86.23,1.29.29.66.09,1.34.13,2,.18.25,0,.51,0,.76,0a11.75,11.75,0,0,0,3.19,0,10.85,10.85,0,0,1,2.14-.16A7.8,7.8,0,0,0,97,116c1-.15,1.92-.32,2.87-.5a.81.81,0,0,1,.75.25,4,4,0,0,1,.88,1.66,23.16,23.16,0,0,0,1.48,3.15,1.15,1.15,0,0,0,.22.35,12.45,12.45,0,0,1,1.47,1.93,19.23,19.23,0,0,0,1.67,2.12,2.84,2.84,0,0,1,.39.54.94.94,0,0,1-.61.75c-.62.27-1.23.54-1.86.78a4.79,4.79,0,0,1-.85.16A8,8,0,0,1,100.67,128.51ZM104,144.07a1.25,1.25,0,0,1-.24-.4,1,1,0,0,1,.77-.6,15.07,15.07,0,0,0,2.82-1.16,19.6,19.6,0,0,0,2.45-1.16l.46-.31c.42-.25.84-.49,1.24-.74l1.44-.94c.22-.13.44-.25.65-.39a8.6,8.6,0,0,0,1.26-.88,19.64,19.64,0,0,0,1.64-1.77,2.16,2.16,0,0,1,1.43-1c.4.27.86.58,1.33.88a7.16,7.16,0,0,0,.66.39l1.53.82c.33.16.67.34,1,.47.83.32,1.65.63,2.49.91s1.44.38,2.14.62a12.24,12.24,0,0,1,1.54.65,6.9,6.9,0,0,0,2.33.78l.49.32a1.39,1.39,0,0,1-.45,1.21c-1,1.27-2.08,2.48-3,3.81a10.25,10.25,0,0,1-1,1.06c-.69.49-1.29.92-1.9,1.34-.87.59-1.74,1.15-2.6,1.74-.44.3-.85.64-1.29,1a2.25,2.25,0,0,1-.47.28l-.92.32a11.06,11.06,0,0,1-2.47-.43c-1-.29-2-.61-3-1-.8-.3-1.55-.73-2.36-1a13.52,13.52,0,0,1-1.64-.75,32.7,32.7,0,0,1-4.17-2.23C105.48,145.31,104.77,144.67,104,144.07Zm31.08,11.5a23.1,23.1,0,0,1-2.08,1.87,34.75,34.75,0,0,1-3.46,2.07,15.11,15.11,0,0,1-2.21.86c-.06,0-.15,0-.2,0a12,12,0,0,1-2.53,1l-.52.2a5.26,5.26,0,0,1-3.06.32c-.46-.08-.92-.09-1.38-.16a6.93,6.93,0,0,1-1.59-.48,19,19,0,0,0-2.46-.77,18.14,18.14,0,0,1-3.7-1.39,27.78,27.78,0,0,1-2.41-1.52l-.77-.51,0-.32c.07-.06.12-.13.17-.14a4,4,0,0,1,.77-.06,5.69,5.69,0,0,0,1.92-.28c.66-.19,1.36-.28,2-.45.47-.11.93-.28,1.4-.44l1.77-.59c1-.31,2-.6,3-.9a.59.59,0,0,0,.2-.07c.87-.65,1.74-.19,2.6,0,.2.05.38.15.59.2,1,.26,2.07.52,3.11.76.4.09.82.12,1.24.19l2,.31c.49,0,.91,0,1.32-.08.66-.09,1.32-.23,2-.33a4.49,4.49,0,0,1,2.36.1A.42.42,0,0,1,135.12,155.57Zm12.54-4.39c-.84.3-1.77.38-2.65.61a7.28,7.28,0,0,1-2.28.17,4.7,4.7,0,0,1-.84-.18l-.23-.38c.19-.26.38-.52.58-.77.34-.42.7-.81,1-1.23a3.91,3.91,0,0,0,.36-.67l1.17-2.52c.15-.34.32-.66.46-1a21,21,0,0,0,1.34-4.06,1.7,1.7,0,0,1,.13-.4,3.43,3.43,0,0,0,.21-2.35l-.41-.3c-.74.14-1.43.25-2.11.41a12.93,12.93,0,0,0-1.33.44,4,4,0,0,1-.92.28c-.67.05-1.28.37-2,.39-.85,0-1.71.16-2.56.25h-.07c-.86,0-1.71,0-2.57-.07a2.43,2.43,0,0,1-1.56-.36,2.06,2.06,0,0,1,.05-1.07c.2-.6.26-1.23.5-1.81a9.39,9.39,0,0,0,.49-1.28c.2-.78.39-1.57.6-2.35.16-.58.36-1.15.53-1.73a7.07,7.07,0,0,0,.31-2,18.5,18.5,0,0,1,.25-3.15,19.22,19.22,0,0,0,.16-2c0-.27,0-.55,0-.87.31-.07.55-.14.79-.18.79-.11,1.56-.27,2.33-.41s1.3-.4,2-.49c1.06-.16,2-.67,3.08-.8.73-.08,1,.08,1.22.8.11.37.29.73.42,1.1.35,1,.69,1.92,1.07,3-.21.49.21,1,.23,1.59,0,.13.09.27.09.4.06,1.3.12,2.61.14,3.91a6.46,6.46,0,0,1-.17,1.45c-.17.82-.15,1.65-.34,2.48a3,3,0,0,0,.29,1.71.87.87,0,0,0,.95.21,9.59,9.59,0,0,0,1.16-.45c.6-.26,1.18-.56,1.78-.82a5.71,5.71,0,0,0,2.1-1.32,5.42,5.42,0,0,1,1.88-1,4.6,4.6,0,0,0,1.77-1.2,3.07,3.07,0,0,0,1.3-.79,17.82,17.82,0,0,1,1.46-1.28.94.94,0,0,1,.93-.14,1,1,0,0,1,.35.94,7.08,7.08,0,0,0,0,1,8.14,8.14,0,0,1-.31,2.34,6.5,6.5,0,0,0-.22,1.65,5.6,5.6,0,0,1-.38,1.76,4.33,4.33,0,0,0-.19.95,8.5,8.5,0,0,1-.75,2.53c-.61,1.35-1.28,2.68-1.91,4a11.43,11.43,0,0,1-1.4,2,2,2,0,0,1-1,.67c-.44.16-.81.48-1.29.62s-1.22.42-1.84.62C150.47,150.39,149,150.69,147.66,151.18ZM169.71,144c-.26.61-.55,1.22-.83,1.83a3.57,3.57,0,0,0-.19.45,2.3,2.3,0,0,1-.75,1.15,15.63,15.63,0,0,1-1.78,1.45c-.56.35-1.08.77-1.65,1.11-.84.5-1.67,1-2.49,1.51-.32.2-.59.47-.92.64-1,.53-1.92,1.27-3,1.73a8.47,8.47,0,0,0-2,1.26,3,3,0,0,1-2.47.7,5,5,0,0,1-.59-.19,2.39,2.39,0,0,1,.61-1.13,6.53,6.53,0,0,0,1.29-1.63.57.57,0,0,1,.1-.19,10.64,10.64,0,0,0,1.24-2.14,3.11,3.11,0,0,1,.88-1,11.86,11.86,0,0,1,1.54-.81,4.48,4.48,0,0,0,.62-.31,2.43,2.43,0,0,1,1.23-.5l1.25-.66c.31-.17.61-.34.9-.53.54-.36,1.05-.77,1.6-1.11a9.26,9.26,0,0,1,1-.47c.5-.24,1-.48,1.52-.68l.45-.42c.8-.27,1.5-.87,2.51-.7A1.94,1.94,0,0,1,169.71,144Zm16-22.87c-.12.94-.32,1.87-.37,2.82a4.19,4.19,0,0,1-.56,1.56,17.4,17.4,0,0,1-2.54,3.32,3.86,3.86,0,0,0-.44.62,9.13,9.13,0,0,1-1.56,2c-.27.28-.44.63-.74.9-1,.93-2,1.92-3,2.89a4.72,4.72,0,0,0-.35.52l-1.14.82-.84-.17c-.26-.55.07-1,.13-1.55s.16-1,.26-1.65a4.62,4.62,0,0,1,0-1.49,4.65,4.65,0,0,0,.12-2.07c-.1-.32.06-.74,0-1.14-.12-.92-.13-1.84-.23-2.76a7,7,0,0,0-.26-.86,10.89,10.89,0,0,1-.25-1.48,11.73,11.73,0,0,0-.47-2c-.16-.72-.36-1.43-.51-2.16a1.5,1.5,0,0,0-.42-.78c-.24-.25-.45-.53-.71-.83a6.4,6.4,0,0,0-.74.91c-.53.76-1,1.54-1.6,2.27a9,9,0,0,0-.89,1.14,6.43,6.43,0,0,1-1.38,1.47,3.38,3.38,0,0,0-.71.76,3.53,3.53,0,0,1-1.06,1.08c-.44.34-.88.68-1.33,1-.23.17-.47.29-.7.45a1.45,1.45,0,0,1-1.68-.08,4.77,4.77,0,0,1-.29-1.1,16.13,16.13,0,0,0-1.23-4.47c-.36-1-.8-2.06-1.23-3.08a5.19,5.19,0,0,0-.53-.87,15.86,15.86,0,0,1-1.81-2.79,3.68,3.68,0,0,0-.39-.58c-.15-.51.23-.91.52-1.31a2.85,2.85,0,0,1,.51-.47c.41-.34.92-.55,1.2-1a1.09,1.09,0,0,1,.33-.26,15.38,15.38,0,0,0,2-1.57c.45-.42.93-.83,1.4-1.23a4.94,4.94,0,0,0,1.26-1.83l.79-.15a5.88,5.88,0,0,1,1.34,1.29,3.63,3.63,0,0,0,.82.71l1.33,1.52a6.31,6.31,0,0,1,1.13,1.48,12.45,12.45,0,0,0,.85,1.1c.51.83,1,1.69,1.45,2.54a5.9,5.9,0,0,1,.73,2,1.14,1.14,0,0,0,.78.9.44.44,0,0,0,.15,0,7.93,7.93,0,0,0,2.79-1.38c.38-.34.8-.62,1.17-1a2.69,2.69,0,0,0,.54-.63,2.14,2.14,0,0,1,.87-.89l.56-.79a11.48,11.48,0,0,0,1.38-2.07,1.65,1.65,0,0,1,.39-.58,7.53,7.53,0,0,0,1.36-2c.28-.46.49-1,.77-1.4a7,7,0,0,1,.62-.78l.68,0a15.51,15.51,0,0,1,.8,2.86c.11.43.17.87.3,1.29.34,1,.22,2.17.56,3.22a.84.84,0,0,1,0,.47,9.06,9.06,0,0,1,0,1.16c-.08.91.05,1.8,0,2.7,0,.28,0,.55,0,.82A20.79,20.79,0,0,1,185.72,121.16ZM184.87,70c.92.55,1.82,1.09,2.7,1.64a3.07,3.07,0,0,1,.47.41,3.76,3.76,0,0,0,.5.48,1.34,1.34,0,0,1,.69.85A16.44,16.44,0,0,1,191,74.82a8.32,8.32,0,0,1,1.86,2.23,3.9,3.9,0,0,1,.26.64,18.8,18.8,0,0,0,1.4,3.41,6.91,6.91,0,0,1,.52,2.08,6.35,6.35,0,0,0,.13.76c.13.58.28,1.16.39,1.6a7.76,7.76,0,0,0-.1,1.25c0,.72,0,1.44,0,2.16,0,.32-.08.64-.1,1a2.1,2.1,0,0,0,0,.56,1.41,1.41,0,0,1-.09,1,.48.48,0,0,0-.07.2c-.15,1-.29,2-.44,3-.05.36-.09.73-.16,1.1s-.36.72-1,.75a4.18,4.18,0,0,1-.35-.77c-.14-.53-.36-1-.54-1.56a21,21,0,0,0-2.64-4.63,25.42,25.42,0,0,0-1.76-2.15,2.79,2.79,0,0,0-.54-.42l-1.27-.88c.05-.26.11-.48.14-.7a8.55,8.55,0,0,0-.14-2.81,4.11,4.11,0,0,0-.15-.46,1.29,1.29,0,0,1-.11-.46,3.8,3.8,0,0,0-.22-2,.41.41,0,0,1-.06-.2,8.1,8.1,0,0,0-.29-2.13,24.84,24.84,0,0,0-.87-3.7,4.81,4.81,0,0,1-.13-.68c-.15-.65-.31-1.29-.45-2-.06-.3-.07-.62-.12-1Zm-2,13.81c.1.1.17.24.29.3.53.24.82.74,1.26,1.08.63.5,1.31.94,2.05,1.48,0,0,0-.07,0,0h0a3.13,3.13,0,0,0,.13,1.71,3.52,3.52,0,0,1,0,1.11,11,11,0,0,1,0,3,1.26,1.26,0,0,0,0,.27,10.61,10.61,0,0,1-.38,2.75c-.17,1.06-.29,2.12-.48,3.17a9.06,9.06,0,0,1-.78,3.15c-.18.32-.38.63-.54.91-.79.34-1,.27-1.46-.35-.26-.37-.6-.7-.84-1.1a19,19,0,0,0-1.85-2.43,1.36,1.36,0,0,1-.13-.24,3.25,3.25,0,0,0-1.13-1.2c-.64-.49-1.26-1-1.87-1.54a8.1,8.1,0,0,1-.61-.73A54.92,54.92,0,0,0,170.93,92a3,3,0,0,1-.5-.35v-.59s0-.09.07-.12a1.61,1.61,0,0,0,.48-1.27,5.69,5.69,0,0,1,.08-.82l.33-2.55c0-.18.07-.36.09-.55a1.8,1.8,0,0,0,0-.69,8.35,8.35,0,0,1-.12-1.73c-.08-.83-.19-1.65-.3-2.47s-.27-1.86-.39-2.79a4.52,4.52,0,0,1,0-.53.72.72,0,0,1,.88,0c.2.12.42.2.63.3.94.45,1.87.91,2.82,1.35.29.14.61.22.9.36.45.24.88.51,1.33.75.1.06.21.09.31.14a18,18,0,0,1,3.16,1.75c.52.42,1.09.78,1.63,1.19A4.43,4.43,0,0,1,182.87,83.83ZM158.3,34v.07c.27,0,.53,0,.8,0a6,6,0,0,1,.61.09c.33,0,.66,0,1,0a3.73,3.73,0,0,1,.88.19c.7.24,1.38.56,2.09.76a4.83,4.83,0,0,1,2,1,7.64,7.64,0,0,0,1.18.59,7.45,7.45,0,0,1,1.77,1.17,2.52,2.52,0,0,0,.56.41c.58.34,1.18.66,1.74,1a3.49,3.49,0,0,1,.49.58c.17.18.32.44.53.53a4.59,4.59,0,0,1,1.47,1.26c.23.23.38.53.61.76a22.65,22.65,0,0,1,2,2.64,9.17,9.17,0,0,0,1.15,1.48,3.37,3.37,0,0,1,.48.83,8.46,8.46,0,0,1,.6.67c.63.86,1.28,1.7,1.83,2.61.35.57.79,1.08,1.14,1.65a1.31,1.31,0,0,1,.29,1.22c-.12,0-.27,0-.37,0-.72-.42-1.43-.86-2.09-1.27a7.7,7.7,0,0,1-5-3.35c-.55-.63-.93-1.07-1.33-1.5s-.74-.75-1.11-1.13c-.19-.2-.37-.41-.56-.6-.53-.52-1.06-1-1.6-1.55s-1.21-1.15-1.82-1.71c-.17-.16-.35-.3-.52-.45l-.84-.72c-.14-.13-.25-.31-.41-.38a5.2,5.2,0,0,1-1.43-1.21c-.51-.46-1.05-.9-1.57-1.35-.23-.2-.44-.41-.68-.59-.61-.47-1.23-.93-1.85-1.38-.38-.27-.77-.51-1.16-.76a8,8,0,0,0-.84-.49,1.85,1.85,0,0,1-.89-.82Zm.28,31.48c1.12-.38,2.24-.78,3.35-1.19a7.22,7.22,0,0,1,3.66-.52,2,2,0,0,1,.61.95c.35,1.06.74,2.1,1.09,3.16s.67,2.12,1,3.18c.14.46.19.94.3,1.41a4.73,4.73,0,0,0,.32,1.13,2.75,2.75,0,0,1,.2,1.56,1.45,1.45,0,0,1-1.27.65c-1.06,0-2.13.08-3.19.23a8.89,8.89,0,0,0-1.89.42,8.79,8.79,0,0,1-1.69.46,6.43,6.43,0,0,0-1.05.34c-.32.12-.66.2-1,.32l-2.13.83c-.69.27-1.37.55-2.08.78a7.35,7.35,0,0,1-1.11.18,9.53,9.53,0,0,1-.42-.86c-.25-.65-.44-1.32-.7-2a6.54,6.54,0,0,0-.57-.94c-.17-.3-.36-.6-.5-.91-.45-1-.87-2-1.32-3a7.58,7.58,0,0,0-.38-.67v-.55c0-.06.07-.13.11-.18a5.77,5.77,0,0,1,2-1.16,4.18,4.18,0,0,0,1.61-1.12l.82-.45a13.13,13.13,0,0,0,2-1A7.79,7.79,0,0,1,158.58,65.48Zm-2.51-18.07a2.77,2.77,0,0,1,.14.38c-.58.27-1.12.52-1.67.75a.9.9,0,0,1-.47.11,5.27,5.27,0,0,0-2.11.43c-.38.11-.76.19-1.14.28a.71.71,0,0,0-.27.08c-.47.44-1.12.43-1.68.64-.77.3-1.6.46-2.36.76-.35.22-.69.45-1,.65-.68.4-1.39.75-2.06,1.17A6.9,6.9,0,0,0,141.12,55a4.58,4.58,0,0,1-1.41,1.63,2,2,0,0,1-1.45-.29c-.93-.51-1.88-1-2.8-1.53a15.91,15.91,0,0,0-2.37-1.19c-.16-.06-.3-.21-.46-.27-.35-.13-.71-.23-1-.38a7,7,0,0,0-2.06-.59,1.68,1.68,0,0,1-1.24-.46.85.85,0,0,1,.12-.89c.21-.41.49-.79.73-1.18s.4-.67.61-1a5.72,5.72,0,0,1,.58-.87c1-1,1.87-2.22,2.79-3.34.45-.55,1-1,1.5-1.52.14-.15.27-.31.4-.47a6.34,6.34,0,0,1,2.51-2,4.17,4.17,0,0,0,.66-.49c.19-.13.38-.33.58-.34a3,3,0,0,1,1.67.12l2.43.19,2.54,1.13,0,0,2.1,1.08c1,.5,2,1,3,1.58s2.29,1.22,3.43,1.86A4.56,4.56,0,0,1,156.07,47.41ZM128,26.6a6,6,0,0,1,1.92-.28,3.45,3.45,0,0,1,1,.06,10.08,10.08,0,0,0,1.46.05,2.09,2.09,0,0,1,.62,0,9.07,9.07,0,0,0,2.84.25,5.84,5.84,0,0,1,1.1.16c.87.23,1.74.5,2.61.74a2,2,0,0,0,.55,0,11.12,11.12,0,0,1,1.88.69,24.17,24.17,0,0,0,3.15,1.23c.75.3,1.54.46,2.28.77a22.1,22.1,0,0,1,2.15,1c.63.34,1.23.75,1.84,1.13a.42.42,0,0,1,.18.58,5.57,5.57,0,0,1-1.64.06,3,3,0,0,1-1.23.4,32.63,32.63,0,0,0-5.13,1.2,20.48,20.48,0,0,0-3.32,1.73,9.4,9.4,0,0,0-1,.6c-.41.32-.78.7-1.36,1.24a1.61,1.61,0,0,1-1.26,0,11.47,11.47,0,0,0-2.6-.42c-.27,0-.54-.1-.8-.15h-.07l-.94-.1c-.39,0-.77-.09-1.16-.09l-3.07.09c-.43,0-.87.08-1.31.09a10.81,10.81,0,0,1-1.8,0,3.74,3.74,0,0,0-1.41.05,2.07,2.07,0,0,0-1.19-.13c-.5.07-1-.09-1.52,0-.82.15-1.65.24-2.47.4-.61.12-1.21.32-1.82.48a1.37,1.37,0,0,1-1.07-.09,1,1,0,0,1,.08-.43,12.11,12.11,0,0,1,1.66-2s.11-.1.15-.15a30.23,30.23,0,0,1,2.5-2.81c.79-.88,1.66-1.69,2.5-2.51.17-.16.4-.25.58-.4.39-.35.76-.73,1.16-1.07.56-.49,1.11-1,1.69-1.44a3.28,3.28,0,0,1,2-.89A.84.84,0,0,0,128,26.6Zm-26.78,5c.19-.1.3-.36.46-.53a2.94,2.94,0,0,1,.64-.63c1-.51,1.66-1.41,2.64-1.9a3.69,3.69,0,0,0,.79-.57,8.32,8.32,0,0,1,3-1.36,5,5,0,0,0,.75-.33,3.81,3.81,0,0,1,1.66-.67l.14,0a15.1,15.1,0,0,1,3.37-.83,9.3,9.3,0,0,1,1.19-.06l1.07-.09a1.84,1.84,0,0,0,1-.06,8.84,8.84,0,0,1,2.8-.41.88.88,0,0,0,.28,0,14.58,14.58,0,0,1,4-.05c.55,0,1.1,0,1.77,0,0,.09.15.28.23.45a.94.94,0,0,1-.81.46,11.91,11.91,0,0,0-2.69.67,5.79,5.79,0,0,1-1.36.29,11.61,11.61,0,0,0-2.33.41c-.82.24-1.68.32-2.52.5a5.84,5.84,0,0,0-2.2.8,4.23,4.23,0,0,1-1,.39l-3.32,1.25a2.2,2.2,0,0,1-.31.15,22.05,22.05,0,0,0-3,1,9,9,0,0,1-1.93.58,4.33,4.33,0,0,0-1,.38l-2.49.88a5.79,5.79,0,0,0-.75.37c-.21.11-.42.22-.67,0C100.7,32.22,100.7,31.79,101.19,31.56ZM99.42,45.75a1,1,0,0,0,.43-.22,14.66,14.66,0,0,1,2.82-1.36,5.82,5.82,0,0,0,1.3-.64c.84-.56,1.82-.81,2.68-1.32a1.12,1.12,0,0,1,.4-.14,4.39,4.39,0,0,0,1.49-.55,7,7,0,0,1,2.3-.77,2.14,2.14,0,0,0,1.11-.38c.09-.07.29,0,.51,0a3,3,0,0,1-.08.43c-.15.41-.29.83-.47,1.23a11.94,11.94,0,0,1-.67,1.21,5.11,5.11,0,0,0-.56,1.56c-.19.78-.29,1.59-.46,2.38-.1.46-.3.89-.39,1.34a14.49,14.49,0,0,0-.28,1.85c-.12,1.27-.19,2.54-.29,3.81,0,.44-.08.88-.16,1.31a1.09,1.09,0,0,1-.86.83c-.65.24-1.32.43-2,.71-.82.36-1.63.77-2.43,1.19s-1.88,1-2.78,1.59c-1.33.84-2.74,1.55-4,2.52l-.75.62a1.5,1.5,0,0,1-1,.32,4.33,4.33,0,0,0-.37-.27,16.16,16.16,0,0,1-.59-6.85,1.7,1.7,0,0,1,0-.87,15.89,15.89,0,0,0,.16-2.07,5.2,5.2,0,0,1,0-.89,3.74,3.74,0,0,0,0-1.79,4,4,0,0,1,0-1.25,1.49,1.49,0,0,1,.65-1.11c.9-.58,1.76-1.23,2.7-1.73A3.85,3.85,0,0,1,99.42,45.75ZM85,42.82c.76-.61,1.5-1.24,2.29-1.8S89.1,39.81,90,39.23c.71-.45,1.45-.85,2.15-1.3.53-.34,1-.72,1.54-1.08.23-.16.44-.34.67-.49l2.5-1.6a1.06,1.06,0,0,1,.89.18c-.07.18-.08.43-.21.54a2.46,2.46,0,0,0-.62,1.45A31.75,31.75,0,0,1,96.06,40a8.45,8.45,0,0,0-.58,2.49,5.43,5.43,0,0,1-.23,1A16.49,16.49,0,0,0,95,45.35a4.88,4.88,0,0,1-.52,1.55c-.47.3-.8.51-1.12.73-.9.62-1.81,1.23-2.69,1.87-.35.25-.64.59-1,.88s-.93.77-1.38,1.17c-.84.73-1.62,1.54-2.52,2.2A11.72,11.72,0,0,0,84,55.49a12,12,0,0,1-1,.86,7.32,7.32,0,0,0-1.12,1,3.83,3.83,0,0,1-1.11.91c-.33-.21-.33-.21-.51-.78.3-1.24.66-2.48.89-3.75a19,19,0,0,1,1-3.65.88.88,0,0,0,.14-.39,6.38,6.38,0,0,1,.46-2c.09-.36.21-.71.3-1.07a4.32,4.32,0,0,1,.45-1.44.56.56,0,0,0,.06-.34,1.7,1.7,0,0,1,.63-1.34C84.47,43.27,84.73,43,85,42.82ZM68.23,54.49a6.28,6.28,0,0,1,.64-1.3c.39-.6.86-1.14,1.3-1.72a1.16,1.16,0,0,0,.21-.35,2.58,2.58,0,0,1,.88-1.38c.68-.69,1.33-1.41,2-2.11A1.45,1.45,0,0,1,74.32,47a3.54,3.54,0,0,0,.37-.43,4.45,4.45,0,0,1,1.43-1.4,2,2,0,0,0,.48-.39,1.57,1.57,0,0,1,1.18-.73,8.15,8.15,0,0,1,1.77-1.5c.67-.4,1.27-.93,1.93-1.37a3.27,3.27,0,0,1,1.68-.64,3.83,3.83,0,0,1,.47,0A1.78,1.78,0,0,1,83.45,42a6.82,6.82,0,0,1-2.24,2.44c-.47.38-.93.77-1.4,1.14-.3.25-.62.48-.94.71-.62.44-1.28.85-1.87,1.34s-1,1-1.55,1.48-1.08.88-1.61,1.34a7.28,7.28,0,0,0-.69.67c-.17.16-.32.34-.5.49-.49.42-1,.82-1.5,1.25a1,1,0,0,0-.29.38c-.23.84-1,1.18-1.55,1.74-.21.23-.62.26-.92.37A.69.69,0,0,1,68.23,54.49Zm-.3,22.69a12.82,12.82,0,0,0,2.14-3.27,4.73,4.73,0,0,1,.71-1,21.58,21.58,0,0,0,1.68-2.55A14.78,14.78,0,0,1,73.4,69c.39-.54.75-1.1,1.14-1.65.65-.93,1.32-1.85,2-2.79a2.77,2.77,0,0,1,.73-.91.83.83,0,0,1,.84-.12,1.56,1.56,0,0,1,.05.57,7.76,7.76,0,0,0,.19,2.76,15.81,15.81,0,0,0,.38,1.76c.15.75.23,1.52.44,2.25s.27,1.26.49,1.87a23.2,23.2,0,0,0,1,2.23c.34.73.59,1.5.85,2.18a2.66,2.66,0,0,1-.78,1.19,9.9,9.9,0,0,0-.87,1,11,11,0,0,0-1.17,1.82,1.58,1.58,0,0,1-.29.39,22.85,22.85,0,0,0-2.4,2.61c-.44.52-.9,1-1.34,1.57s-1,1.19-1.46,1.82a.9.9,0,0,1-1-.35,17.51,17.51,0,0,1-2-2.9c-.24-.44-.48-.89-.68-1.35a5.84,5.84,0,0,1-.28-1.13,5.59,5.59,0,0,0-.21-1,9.43,9.43,0,0,1-.51-1.72,3.36,3.36,0,0,0-.35-.91A1.29,1.29,0,0,1,67.93,77.18Zm-8.92,6a15.88,15.88,0,0,0,.46-2.44,19.22,19.22,0,0,1,.37-2.51c.16-.91.57-1.76.65-2.69,0-.15.14-.28.25-.47V74l.41-.46a2.37,2.37,0,0,0,0-.65,1.38,1.38,0,0,1,.23-1.19,2.6,2.6,0,0,0,.48-1.9l.34-.44c.13-.62.26-1.16.36-1.7a1.83,1.83,0,0,1,.47-1,1.91,1.91,0,0,0,.24-.42l1-2.07a1.26,1.26,0,0,1,.61-.78l.29.08c0,.09.08.15.08.21a7.83,7.83,0,0,1-.08,2.16,2.06,2.06,0,0,0,0,.56c0,.81,0,1.63,0,2.43s.23,1.84.33,2.76a25,25,0,0,1,.39,2.62,5,5,0,0,0,.4,1.53,11.59,11.59,0,0,1,.42,1.78c-.36.6-.66,1.11-1,1.6a7.77,7.77,0,0,1-1,1.49,10.33,10.33,0,0,0-1.82,2.79c-.69,1.4-1.36,2.8-2,4.22-.3.65-.52,1.34-.79,2-.18.45-.38.88-.59,1.36-.63-.18-.66-.21-.69-.64-.05-.63-.1-1.25-.14-1.88A9,9,0,0,1,59,85.55,5.76,5.76,0,0,1,59,83.21Z"/></g></svg>