<svg xmlns="http://www.w3.org/2000/svg" viewBox="0 0 252 180"><g id="Layer_3" data-name="Layer 3"><path d="M1.23,1.12V178.88H250.77V1.12ZM196.47,86.54c-2.81-3-19.21-21.29-22.08-47.93A70.79,70.79,0,0,1,196.47,86.54Zm-1,.34-17.39.7C161.73,78.4,162,54,162,51.72l11.46-12.4C176.43,65,191.77,83,195.43,86.88ZM163.25,124l-14.57-13.45c-3-12.5,8.5-20.42,9.7-21.2l18.74-.75C173.36,92.44,159.73,107.66,163.25,124ZM74.63,43.58,86.75,54.77l.35.32c5.05,18-12.38,35.15-14,36.69l-16.68.67C60.78,88,78.86,67.86,74.63,43.58Zm13.8,12.74L103,69.77c3,12.5-8.5,20.42-9.7,21.2l-18.73.75C78.33,87.9,92,72.69,88.43,56.32ZM97,91.83l17.24-.69,10.45-.42-20,21.7C105.15,108.37,105.5,98,97,91.83Zm28.43-.43.61,15.67.57,13.83c-2.5-3.23-9.61-10.84-20-9.14Zm.71-7.06-1-24.9c2.25,2.91,8.25,9.39,17,9.39a18,18,0,0,0,3-.25l-8.92,9.67-9.88,10.69ZM125,57.63l-.75-18.74c3.4,3.34,15.75,14.45,29.94,14.45a25.93,25.93,0,0,0,5.48-.58L146.25,67.33C133.74,70.32,125.82,58.82,125,57.63Zm10.35,22.95,11.67-12.66c-.52,4-.87,14.47,7.67,20.59l-12.49.5L127,89.62Zm12.9-14L161,52.81c0,5.37,1.17,25.76,15.24,34.84l-19.82.8C145.46,81.72,148,68,148.28,66.59Zm12.65-15.16c-18,5-35.16-12.39-36.7-14l-.66-16.67C128,25.11,148.15,43.18,172.43,39ZM125.29,89,103.6,69a27.6,27.6,0,0,0,3.58.23c5,0,12.27-1.28,17-7.88Zm-21-18.06,20.37,18.8-2.66.11L95.12,90.9C98.34,88.4,106,81.29,104.25,70.92ZM73.65,92.76c16.31,9.18,16.09,33.61,16,35.86l-3.48,3.77-7.84,8.49c-.07-6.25-1.52-33.26-21.68-47.44Zm1.81-.07,19.8-.79c11,6.72,8.44,20.45,8.15,21.84L90.68,127.53C90.64,122.16,89.51,101.77,75.46,92.69Zm30,20.32c12.53-3,20.44,8.51,21.22,9.7l.75,18.74c-3.82-3.76-19-17.39-35.4-13.87Zm21-21.65,21.7,20c-4.06-.51-14.46-.87-20.59,7.67Zm21,18.06L128.07,91.54l-1-.92,29.51-1.18C153.35,91.94,145.73,99.05,147.43,109.42ZM123.5,19.18l2.14,0a70.67,70.67,0,0,1,47.81,18.59C147,43.12,125.27,21.11,123.5,19.26Zm.62,40.41c-6.72,11-20.46,8.43-21.86,8.14L88.49,55c5.35,0,25.76-1.15,34.84-15.22ZM123.25,38C114.08,54.29,89.64,54.06,87.4,54L75.14,42.69c6.25-.06,33.25-1.52,47.44-21.69Zm-.75-18.75v.1C107.66,41.92,76.62,41.74,74,41.68l-.11-.1A70.76,70.76,0,0,1,122.5,19.22ZM54.72,90.07A70.67,70.67,0,0,1,73.25,42.32l.13.11c5.5,26.48-16.6,48.31-18.45,50.08h-.18C54.73,91.71,54.72,90.89,54.72,90.07ZM77.36,142A70.8,70.8,0,0,1,54.79,93.52H55C77.6,108.35,77.42,139.41,77.36,142Zm48.28,19a70.66,70.66,0,0,1-47.52-18.32c2.77.05,28.27.91,49.85,18.28C127.2,161,126.42,161,125.64,161ZM79,141.7l11.79-12.79c18-5,35.16,12.39,36.7,14l.68,16.87C107.87,143.74,84.33,141.9,79,141.7Zm48.6-20.95c6.72-11,20.45-8.43,21.85-8.14l13.78,12.72c-5.37,0-25.77,1.17-34.83,15.23Zm1.2,30.05-.34-8.43c9.19-16.31,33.6-16.09,35.85-16l12.42,11.45c-25.7,3-43.63,18.32-47.57,22Zm.63,10.09c2.71-2.61,21-19.18,47.78-22.14A70.75,70.75,0,0,1,129.4,160.89Zm35.19-35.64c-5.06-18,12.38-35.14,14-36.69l16.86-.68c-16.06,20.27-17.89,43.81-18.1,49.17Zm13.77,12.2c.13-4.39,1.6-28.62,18.17-49.29,0,.64,0,1.27,0,1.91A70.61,70.61,0,0,1,178.36,137.45Z"/></g></svg>