<svg xmlns="http://www.w3.org/2000/svg" viewBox="0 0 252 180"><g id="Layer_3" data-name="Layer 3"><path d="M80.88,40.79A66.35,66.35,0,0,1,126,23.22a67.05,67.05,0,0,1,66.47,60.46,13.77,13.77,0,0,1,3,.25A69.77,69.77,0,0,0,77,40.34l.18.19H78A23.72,23.72,0,0,1,80.88,40.79Z"/><path d="M59,109.59h0a6.43,6.43,0,0,1,2.47-2.23,66.85,66.85,0,0,1,7.41-52A31.37,31.37,0,0,1,65.64,55,69.93,69.93,0,0,0,59,109.59Z"/><path d="M126,156.78a66.72,66.72,0,0,1-60.49-38.46,12.57,12.57,0,0,1-3.4-1l-.3.12a69.79,69.79,0,0,0,133.24-17.36l-3.05.09A67,67,0,0,1,126,156.78Z"/><path d="M69,55.19l-.08.13c1,.06,2,.09,3,.09,2.2,0,4.31-.11,6-.2.92-.05,1.69-.09,2.25-.1a22.46,22.46,0,0,0,7.57-1c2.37-.88,3.86-2.53,4-4.42a5.18,5.18,0,0,0-.81-3c-1.8-3.14-5.42-5.23-10.13-5.93-.61.55-1.21,1.11-1.8,1.69l-1.92-1.95a35.12,35.12,0,0,0-14.25,3,10.26,10.26,0,0,0-3.42,2.2A4.91,4.91,0,0,0,58.08,50c.6,3,3.74,4.39,7.56,5l.8-1.36Zm-9-5.61a3,3,0,0,1,.9-2.49,8.52,8.52,0,0,1,2.78-1.75A32.91,32.91,0,0,1,77,42.52H78c2.55.08,8.77.73,11.33,5.18a3.3,3.3,0,0,1,.55,1.85c-.09,1.27-1.45,2.22-2.7,2.69a20.61,20.61,0,0,1-6.9.86c-.57,0-1.37,0-2.33.1C72.83,53.48,61,54.1,60,49.58Z"/><path d="M80.88,40.79A23.72,23.72,0,0,0,78,40.53h-.85l1.92,1.95C79.67,41.9,80.27,41.34,80.88,40.79Z"/><path d="M69,55.19l-2.56-1.57L65.64,55a31.37,31.37,0,0,0,3.28.34Z"/><path d="M88.45,67.05A27.74,27.74,0,0,0,100,69.39c.86,0,1.73,0,2.59-.1A13.5,13.5,0,0,0,107.92,68a6.83,6.83,0,0,0,3.62-4.5c.66-3.26-1.79-6.27-4.43-7.44s-5.76-1-8.41-.7a24.87,24.87,0,0,0-7.83,2c-2,1-5.27,3.31-5.25,6.09C85.63,64.48,86.12,66,88.45,67.05Zm3.3-7.9a22.44,22.44,0,0,1,7.19-1.84,25.67,25.67,0,0,1,3.15-.23,10.47,10.47,0,0,1,4.21.77c2,.87,3.72,3,3.28,5.21A4.82,4.82,0,0,1,107,66.19a11.59,11.59,0,0,1-4.52,1.1A26.93,26.93,0,0,1,89.3,65.24c-1.11-.52-1.68-1.13-1.68-1.81C87.61,62,89.71,60.14,91.75,59.15Z"/><path d="M215.22,74.06c.38,0,.68,0,.87,0,3.63-.21,6.19-1.31,7.61-3.28a6.28,6.28,0,0,0-.7-8c-2-1.91-4.79-2.19-7.53-2.22h0c-5.11,0-16.95.54-17.16,6.77a3.81,3.81,0,0,0,1.28,3C202.9,73.53,212,74.06,215.22,74.06ZM215,62.57h.43c2.33,0,4.69.24,6.16,1.66a4.27,4.27,0,0,1,.47,5.36C221,71.05,219,71.87,216,72.05s-12.29-.54-15-3.19a1.9,1.9,0,0,1-.67-1.45C200.43,63.83,208.2,62.57,215,62.57Z"/><path d="M228.2,64a20.8,20.8,0,0,0,7.42,1.13c1.11,0,2.21,0,3.26-.09a11.07,11.07,0,0,0,3.57-.54,4.5,4.5,0,0,0,2.88-2.92c.58-2.15-1-4.24-2.82-5a9.78,9.78,0,0,0-5.34-.31c-.11,0-10.73,2.14-11.07,5.36C226,62.58,226.7,63.38,228.2,64Zm9.28-5.77h0a7.9,7.9,0,0,1,4.25.17A2.56,2.56,0,0,1,243.4,61a2.61,2.61,0,0,1-1.65,1.56,9.79,9.79,0,0,1-2.95.41c-3.18.13-6.79.28-9.89-.91a2.7,2.7,0,0,1-.76-.39C229,60.5,235.25,58.53,237.48,58.18Z"/><path d="M192.58,84.79c0-.37-.08-.74-.11-1.11h0c-4.9.24-10.26,3.61-13.86,6.13a5.81,5.81,0,0,0-1.91,1.88c-1.21,2.12,0,4.77,1.79,6.19,2.48,2,5.61,2.37,8.94,2.37.64,0,1.28,0,1.94,0l2.67-.08c.05-.36.12-.72.17-1.08l3,.4c0,.2-.06.39-.09.59l5.46-.16c2.11-.07,4.73-.15,6.91-1.41s3.9-4.3,2.68-6.88a7.33,7.33,0,0,0-3.41-3c-3.16-1.7-7.23-3.9-11.18-4.62,0,.21,0,.41.06.63Zm15.71,7.67c.71,1.5-.4,3.43-1.88,4.29-1.74,1-4,1.08-6,1.14l-11.18.33c-3.66.12-7.14,0-9.57-1.89-1.14-.92-1.94-2.53-1.3-3.64a4,4,0,0,1,1.31-1.23c2-1.37,7.93-5.53,12.82-5.78H193c4.16,0,9.1,2.67,12.75,4.64A5.64,5.64,0,0,1,208.29,92.46Z"/><path d="M192.47,83.68c0,.37.08.74.11,1.11l3-.23c0-.22,0-.42-.06-.63A13.77,13.77,0,0,0,192.47,83.68Z"/><path d="M192.17,99.06c0,.36-.12.72-.17,1.08l3.05-.09c0-.2.07-.39.09-.59Z"/><path d="M231.51,121.66c-7-2-19.58-1.9-24.48,4.73a4.16,4.16,0,0,0-.89,3.58,4.75,4.75,0,0,0,2.16,2.53,19.28,19.28,0,0,0,5.43,2.5,23.9,23.9,0,0,0,6.52.83,58,58,0,0,0,8.6-.81,16.38,16.38,0,0,0,5.58-1.56,6.28,6.28,0,0,0,3.47-5.17C238,124.77,234.5,122.51,231.51,121.66Zm2,10.05a14.21,14.21,0,0,1-4.9,1.34c-5,.73-9.8,1.29-14.29,0a17.48,17.48,0,0,1-4.87-2.23,3.1,3.1,0,0,1-1.33-1.41,2.45,2.45,0,0,1,.56-1.85c2.71-3.66,8.54-5.07,14.13-5.07a30.44,30.44,0,0,1,8.19,1.07h0c2.5.71,5,2.44,5,4.67A4.35,4.35,0,0,1,233.46,131.71Z"/><path d="M199.17,135.07c-5-2.17-10.8,0-15.91,1.9-1.53.57-3,1.1-4.31,1.5a6.72,6.72,0,0,0-2.73,1.31,2.94,2.94,0,0,0-.72,3.59,3.59,3.59,0,0,0,1.32,1.21A27.24,27.24,0,0,0,191,148.51a26.42,26.42,0,0,0,7.3-1,9,9,0,0,0,4.1-2.19,5.68,5.68,0,0,0,1.55-3.81C204,138.46,201.57,136.08,199.17,135.07Zm1.77,8.87a7.1,7.1,0,0,1-3.2,1.64,25.3,25.3,0,0,1-19.88-2.71,2.06,2.06,0,0,1-.64-.52,1,1,0,0,1,.35-1.09,5.05,5.05,0,0,1,2-.87c1.41-.42,2.88-1,4.44-1.55,3.41-1.28,7.15-2.67,10.57-2.67a9.47,9.47,0,0,1,3.85.74h0c1.73.73,3.57,2.47,3.55,4.56A3.67,3.67,0,0,1,200.94,143.94Z"/><path d="M131.81,118.18a17.54,17.54,0,0,0,4.1.43,45.58,45.58,0,0,0,9.35-1.22,2,2,0,0,0,1.74-1.86c.16-1,.49-3-.87-4.31a4.12,4.12,0,0,0-1.6-.86c-4.59-1.52-9.63-.45-13.68.41-2.56.55-2.85,2.25-2.86,3A5.07,5.07,0,0,0,131.81,118.18Zm-.54-5.45c4-.85,8.55-1.82,12.63-.47a2.23,2.23,0,0,1,.86.42c.51.48.42,1.55.26,2.54a.61.61,0,0,1,0,.17l-.16,0c-3.56.79-8.74,1.72-12.55.81a3.11,3.11,0,0,1-2.29-2.49C130,113.56,130,113,131.27,112.73Z"/><path d="M110.23,120.41a8,8,0,0,0-2.82,1.94,3.48,3.48,0,0,0-.49,4,4.64,4.64,0,0,0,3,1.79c5.28,1.36,10.74,2.77,16.36,2.77h.54a10.86,10.86,0,0,0,5.76-1.39,4.15,4.15,0,0,0,2.08-3.75,4.88,4.88,0,0,0-1.88-3c-2.95-2.64-6.44-5.4-9.87-5.89-4.16-.59-8.64,1.58-12.25,3.33Zm1.3,1.59c3-1.46,6.67-3.23,9.94-3.23a8.65,8.65,0,0,1,1.15.08c3.3.47,7,3.8,8.83,5.4a3.21,3.21,0,0,1,1.22,1.7,2.21,2.21,0,0,1-1.18,1.84,8.93,8.93,0,0,1-4.7,1.07c-5.53.1-11-1.33-16.37-2.7a3,3,0,0,1-1.8-.89,1.55,1.55,0,0,1,.33-1.64,6.14,6.14,0,0,1,2.15-1.42Z"/><path d="M109.15,107.4c-.15,0-12.16.44-13.61,3.9a2.41,2.41,0,0,0,.75,2.72c1.53,1.54,4.94,2.1,8.29,2.53l.78.11a35.64,35.64,0,0,0,4.83.33,32.79,32.79,0,0,0,4-.23,7.39,7.39,0,0,0,3.35-1,3.54,3.54,0,0,0,1.65-3.67,4.77,4.77,0,0,0-2.65-2.81,15.06,15.06,0,0,0-2.71-1.3,14.55,14.55,0,0,0-4.65-.56Zm6.38,3.61c.77.43,1.54.91,1.68,1.53a1.63,1.63,0,0,1-.8,1.54,5.74,5.74,0,0,1-2.48.7,32.88,32.88,0,0,1-8.29-.1l-.8-.11c-2.08-.27-6-.77-7.13-2-.23-.23-.36-.45-.32-.54.62-1.5,8.68-2.67,11.71-2.67h0a13.48,13.48,0,0,1,4,.45A13.54,13.54,0,0,1,115.53,111Z"/><path d="M65.51,118.32a13,13,0,0,0,1.38.17c2,.16,4,.25,5.78.25A41.4,41.4,0,0,0,85.25,117a3.93,3.93,0,0,0,2.59-1.87,4.13,4.13,0,0,0,.1-2.56,6.46,6.46,0,0,0-1.77-3.85,5.85,5.85,0,0,0-1.72-1A33.11,33.11,0,0,0,67,105.62a17,17,0,0,0-5.5,1.73c.12.46.24.93.38,1.4l-2.85.83a4.5,4.5,0,0,0-.63,2.09c-.13,2.75,1.47,4.55,3.7,5.62l2.46-1.06C64.87,116.94,65.19,117.63,65.51,118.32Zm-5.1-6.56c.14-2.93,5.31-3.93,6.89-4.16a31,31,0,0,1,16.38,2,4.38,4.38,0,0,1,1.18.63A4.84,4.84,0,0,1,86,113a2.49,2.49,0,0,1,0,1.32c-.18.39-.83.64-1.37.81-4.83,1.52-10.42,2-17.6,1.4C65.44,116.37,60.22,115.66,60.41,111.76Z"/><path d="M61.51,107.35A6.43,6.43,0,0,0,59,109.58l2.85-.83C61.75,108.28,61.63,107.81,61.51,107.35Z"/><path d="M64.57,116.23l-2.46,1.06a12.57,12.57,0,0,0,3.4,1C65.19,117.63,64.87,116.94,64.57,116.23Z"/><path d="M51.21,138a2.82,2.82,0,0,0-.74-.93,10.56,10.56,0,0,0-1,.68c-2.53,2-3.31,4.5-2.19,7.16a7.57,7.57,0,0,0,.85-.67l1.35,1.48a8.69,8.69,0,0,1-1.08.84,9.6,9.6,0,0,0,3.44,2.07A25.85,25.85,0,0,0,61,150.27a26.23,26.23,0,0,0,4.83-.45C69,149.23,71,148,72,146.12a7.35,7.35,0,0,0,.68-4.27,8.57,8.57,0,0,0-2.94-6.12h0c-3.27-2.55-11.8-2.16-17.43.34a4.63,4.63,0,0,1,.69,1.08Zm17.34-.66A6.85,6.85,0,0,1,70.73,142a5.54,5.54,0,0,1-.45,3.14c-.7,1.31-2.31,2.21-4.78,2.68a23.77,23.77,0,0,1-12.93-1.13c-1.87-.71-3-1.53-3.41-2.56-.8-1.85-.29-3.44,1.55-4.87,2.79-2.16,7.84-3.27,12-3.27C65.24,136,67.44,136.44,68.55,137.3Z"/><path d="M11.56,143.51C17.49,148,25,149,32.73,149c2,0,4-.07,6-.16,3.44-.14,7-.46,9.71-2.3A5.14,5.14,0,0,1,47.33,145a.32.32,0,0,1,0-.09c-2.3,1.54-5.41,1.82-8.67,2-9.28.4-18.92.35-25.86-4.92-1.39-1-2.07-2-2.09-3a3.78,3.78,0,0,1,.75-2c3.46-5.26,11-6,15.2-6a51.72,51.72,0,0,1,22,5A8.38,8.38,0,0,1,50.47,137a15,15,0,0,1,1.88-1,8.66,8.66,0,0,0-2.89-2,53.8,53.8,0,0,0-22.83-5.19h-.1c-7.88,0-13.84,2.46-16.77,6.93A5.59,5.59,0,0,0,8.68,139C8.72,140.59,9.66,142.07,11.56,143.51Z"/><path d="M51.21,138l1.83-.81a4.63,4.63,0,0,0-.69-1.08,15,15,0,0,0-1.88,1A2.82,2.82,0,0,1,51.21,138Z"/><path d="M48.15,144.2a7.57,7.57,0,0,1-.85.67.32.32,0,0,0,0,.09,5.14,5.14,0,0,0,1.09,1.56,8.69,8.69,0,0,0,1.08-.84Z"/><path d="M250.78,1.12H1.22V178.88H250.78Zm-.13,177.63H1.35V1.24h249.3Z"/></g></svg>