<svg xmlns="http://www.w3.org/2000/svg" viewBox="0 0 252 180"><g id="Layer_3" data-name="Layer 3"><path d="M1.22,178.88H250.78V1.12H1.22ZM126,20A70,70,0,1,1,56,90,70,70,0,0,1,126,20Z"/><path d="M135.13,56.24a5.34,5.34,0,0,0,1.79.32,4.15,4.15,0,0,0,3.56-2c1.75-2.61,1.64-6.91-.22-9-.75-.85-2.45-2.06-5.39-.58a5.93,5.93,0,0,0-2.47,2.47,6.89,6.89,0,0,0-.69,5.05A5.49,5.49,0,0,0,135.13,56.24Zm-1.85-8.35a5.05,5.05,0,0,1,2-2.07,4.86,4.86,0,0,1,2.14-.58,2.64,2.64,0,0,1,2.06.94c1.54,1.74,1.61,5.61.14,7.81a3.31,3.31,0,0,1-4.19,1.31,4.51,4.51,0,0,1-2.79-3.11A5.87,5.87,0,0,1,133.28,47.89Z"/><path d="M155.6,81.44a4.33,4.33,0,0,0,2.5.68,12.57,12.57,0,0,0,2.31-.27,8.68,8.68,0,0,0,1.6-.43,5.61,5.61,0,0,0,3-3.85,15.59,15.59,0,0,0,.24-4.74,2.9,2.9,0,0,0-1.81-3.11,6.57,6.57,0,0,0-9.1,2.67,7.71,7.71,0,0,0-.27,7.2A4.66,4.66,0,0,0,155.6,81.44Zm-.37-8.54a5.62,5.62,0,0,1,4.87-3.05,6.28,6.28,0,0,1,2.9.76h0a2.83,2.83,0,0,1,.84.57,2.77,2.77,0,0,1,.43,1.7,14.66,14.66,0,0,1-.21,4.44,4.55,4.55,0,0,1-2.44,3.17,6.72,6.72,0,0,1-1.4.37c-1.45.28-3,.5-4.06-.25A3.7,3.7,0,0,1,155,79.15,6.74,6.74,0,0,1,155.23,72.9Z"/><path d="M168.82,104.12l.28,0a5.66,5.66,0,0,0,2-.5l2.07-.8a2.16,2.16,0,0,0,1-.6,2.13,2.13,0,0,0,.39-1.1,7.31,7.31,0,0,0-.42-4.31,4.41,4.41,0,0,0-4.33-2,4.2,4.2,0,0,0-3.9,2.42,4.32,4.32,0,0,0-.2,1.22,7.65,7.65,0,0,0,.38,3.38A3.51,3.51,0,0,0,168.82,104.12Zm-2.16-5.58a3.43,3.43,0,0,1,.15-.94c.43-1.19,1.85-1.69,3-1.76h.3a3.38,3.38,0,0,1,3.08,1.45,6.45,6.45,0,0,1,.32,3.72,1.34,1.34,0,0,1-.17.6,1.39,1.39,0,0,1-.55.31l-2.07.8a4.21,4.21,0,0,1-1.82.42,2.51,2.51,0,0,1-1.94-1.65A6.87,6.87,0,0,1,166.66,98.54Z"/><path d="M140.8,106a4.46,4.46,0,0,0,2.07,3.36,6.19,6.19,0,0,0,2.81.71H146a4.85,4.85,0,0,0,4.4-2.68,5.8,5.8,0,0,0-.25-6.05c-.66-.86-2.22-2.2-5.36-1.51a4.88,4.88,0,0,0-2.22,1,4.68,4.68,0,0,0-1,1.37A6.74,6.74,0,0,0,140.8,106Zm1.69-3.33a3.46,3.46,0,0,1,.78-1.08,3.86,3.86,0,0,1,1.77-.77c2-.43,3.45,0,4.34,1.14a4.84,4.84,0,0,1,.17,5,3.91,3.91,0,0,1-3.81,2.14,5.37,5.37,0,0,1-2.37-.57,3.49,3.49,0,0,1-1.57-2.62A5.76,5.76,0,0,1,142.49,102.64Z"/><path d="M161.84,122.49a3.51,3.51,0,0,0-3.26-1.06h0c-3.28.51-4.75,2.46-4.37,5.79a3.8,3.8,0,0,0,1.68,2.91,3.64,3.64,0,0,0,2,.5,7.35,7.35,0,0,0,1.65-.21,4.44,4.44,0,0,0,1.93-.83c1.16-1,1.28-2.61,1.24-4.08A4.78,4.78,0,0,0,161.84,122.49Zm-1.06,6.33a3.45,3.45,0,0,1-1.51.63,3.77,3.77,0,0,1-2.86-.17,2.87,2.87,0,0,1-1.21-2.17c-.32-2.82.77-4.26,3.53-4.69h0a2.53,2.53,0,0,1,2.34.71,4,4,0,0,1,.59,2.4C161.69,126.83,161.61,128.13,160.78,128.82Z"/><path d="M143.39,133.82c-1.95-.38-4.54,1.48-5.33,2.93a5.17,5.17,0,0,0,.37,5.43,2.64,2.64,0,0,0,.81.77,2.41,2.41,0,0,0,1,.31,4.18,4.18,0,0,0,.61.05,4.86,4.86,0,0,0,4.51-3.22,7.05,7.05,0,0,0-.25-5A2.56,2.56,0,0,0,143.39,133.82Zm1,6a3.8,3.8,0,0,1-4,2.5,1.62,1.62,0,0,1-.61-.19,1.84,1.84,0,0,1-.52-.5,4.23,4.23,0,0,1-.3-4.36,5.47,5.47,0,0,1,3.91-2.46,2,2,0,0,1,.35,0,1.48,1.48,0,0,1,1,.77A6.13,6.13,0,0,1,144.38,139.78Z"/><path d="M132.76,115.67a4,4,0,0,0-1.42-.29c-1.93-.16-3.79-.21-5.3.81a5.29,5.29,0,0,0-2.14,3.91,9.17,9.17,0,0,0,.8,4.28,3.16,3.16,0,0,0,.89,1.34,3.43,3.43,0,0,0,1.69.56,6.55,6.55,0,0,0,1,.07,6.15,6.15,0,0,0,5.86-3.73,8.13,8.13,0,0,0,.41-3.22C134.46,117.43,133.87,116.18,132.76,115.67Zm.43,6.59a5.33,5.33,0,0,1-5.78,3,2.49,2.49,0,0,1-1.2-.36,2.29,2.29,0,0,1-.59-.93,8.26,8.26,0,0,1-.72-3.82,4.26,4.26,0,0,1,1.7-3.16,5.21,5.21,0,0,1,3-.72c.54,0,1.1,0,1.66.08a3.46,3.46,0,0,1,1.09.2c.73.34,1.13,1.3,1.18,2.85A7.12,7.12,0,0,1,133.19,122.26Z"/><path d="M109.92,130.94a3,3,0,0,0-3.23,3.23,4.35,4.35,0,0,0,1.23,3.35,3.36,3.36,0,0,0,2.24.85,3.19,3.19,0,0,0,1.06-.18,4.85,4.85,0,0,0,2.73-2.93l0-.12a3.37,3.37,0,0,0-.82-3.21A4.71,4.71,0,0,0,109.92,130.94Zm3.08,4,0,.12a3.92,3.92,0,0,1-2.08,2.23,2.33,2.33,0,0,1-2.29-.47,3.34,3.34,0,0,1-.91-2.58,2,2,0,0,1,2.26-2.26h.17a3.69,3.69,0,0,1,2.39.74C113,133.11,113.16,133.8,113,134.9Z"/><path d="M88.43,123.29h.2a8.83,8.83,0,0,0,6.64-2.68,8.14,8.14,0,0,0,1.81-6.38,7.23,7.23,0,0,0-4.19-6.08,11.07,11.07,0,0,0-4.35-.61,8.39,8.39,0,0,0-3.52.53c-1.53.72-2.64,2.28-3.31,4.63-1,3.44-.45,6.63,1.4,8.54A7.37,7.37,0,0,0,88.43,123.29ZM82.67,113c.59-2.06,1.52-3.4,2.78-4a6.9,6.9,0,0,1,3-.44h.13a10.25,10.25,0,0,1,4,.54,6.3,6.3,0,0,1,3.59,5.24A7.26,7.26,0,0,1,94.53,120a7.88,7.88,0,0,1-5.92,2.34,6.43,6.43,0,0,1-4.78-1.75C82.23,118.89,81.8,116.06,82.67,113Z"/><path d="M79.54,90.81a7,7,0,0,0,.68-6.71,3.83,3.83,0,0,0-1.72-1.71,6,6,0,0,0-7,.94,4.91,4.91,0,0,0-1.27,5.15,6.44,6.44,0,0,0,5.16,4.11,4.89,4.89,0,0,0,.66,0A4.28,4.28,0,0,0,79.54,90.81Zm-4,.79a5.42,5.42,0,0,1-4.35-3.44,3.9,3.9,0,0,1,1-4.13,4.85,4.85,0,0,1,3.43-1.37,5,5,0,0,1,2.39.6,3,3,0,0,1,1.29,1.26,5.92,5.92,0,0,1-.58,5.7A3.31,3.31,0,0,1,75.51,91.6Z"/><path d="M97.11,52.33a3,3,0,0,0,1,.71,4.18,4.18,0,0,0,1.72.36,5,5,0,0,0,2.71-.82,6.89,6.89,0,0,0,2.63-3.52,6.12,6.12,0,0,0,0-4.38,3.75,3.75,0,0,0-2.36-2.22,5.9,5.9,0,0,0-4.77,1,5.25,5.25,0,0,0-2.3,3.1,7.71,7.71,0,0,0,.42,4A4.44,4.44,0,0,0,97.11,52.33Zm-.32-5.56a4.26,4.26,0,0,1,1.86-2.5,5.75,5.75,0,0,1,3-1,3.19,3.19,0,0,1,.94.13,2.7,2.7,0,0,1,1.72,1.65,5.08,5.08,0,0,1,0,3.66,5.83,5.83,0,0,1-2.23,3,3.77,3.77,0,0,1-3.48.39,2.06,2.06,0,0,1-.7-.48,3.49,3.49,0,0,1-.66-1.41A6.87,6.87,0,0,1,96.79,46.77Z"/><path d="M98.88,69.47a6.25,6.25,0,0,0-.45,4.36,4.39,4.39,0,0,0,2.19,3,4.52,4.52,0,0,0,2,.39h.21a4,4,0,0,0,2.52-.75,4.71,4.71,0,0,0,1.25-1.85,9.64,9.64,0,0,0,1-4,4.16,4.16,0,0,0-2.14-3.73C103.09,65.7,100,67.28,98.88,69.47Zm7.76,1.13a8.74,8.74,0,0,1-1,3.6,3.82,3.82,0,0,1-1,1.48,3.12,3.12,0,0,1-1.92.53,3.8,3.8,0,0,1-1.74-.28,3.42,3.42,0,0,1-1.65-2.34,5.2,5.2,0,0,1,.37-3.66,4.72,4.72,0,0,1,3.94-2.48,3.28,3.28,0,0,1,1.36.3A3.23,3.23,0,0,1,106.64,70.6Z"/><path d="M127.72,79.53a4.47,4.47,0,0,0,1,.1,5.19,5.19,0,0,0,3.94-1.83,3.7,3.7,0,0,0,.74-1.33,5.11,5.11,0,0,0,.14-1.58,11.78,11.78,0,0,0-.34-3.27,4.44,4.44,0,0,0-2.1-2.76,4.23,4.23,0,0,0-3-.22,8.69,8.69,0,0,0-2.57,1.27,3.86,3.86,0,0,0-2.07,2.49,10,10,0,0,0,.42,3.68A5.17,5.17,0,0,0,127.72,79.53Zm-3.31-7c.1-.76.91-1.3,1.63-1.78a8,8,0,0,1,2.28-1.13,4,4,0,0,1,1-.14,2.87,2.87,0,0,1,1.28.29,3.38,3.38,0,0,1,1.59,2.14,11.08,11.08,0,0,1,.3,3,4.23,4.23,0,0,1-.1,1.29,2.75,2.75,0,0,1-.55,1,4.1,4.1,0,0,1-7-1.39A8.81,8.81,0,0,1,124.41,72.52Z"/><path d="M103.79,97.56a7.06,7.06,0,0,0,.12,3.54,4.2,4.2,0,0,0,.38,1.15,3.79,3.79,0,0,0,1.36,1.38,6.4,6.4,0,0,0,3.45,1,5.05,5.05,0,0,0,2.21-.48c2.32-1.08,3.3-3.74,3.25-5.89a6.41,6.41,0,0,0-1.21-3.71c-1.71-2.23-4.18-2.22-7.32,0A5.65,5.65,0,0,0,103.79,97.56Zm2.82-2.14a6.55,6.55,0,0,1,3.59-1.49,2.89,2.89,0,0,1,2.36,1.27,5.74,5.74,0,0,1-1.67,8.09,5,5,0,0,1-4.69-.5,2.92,2.92,0,0,1-1-1,3.52,3.52,0,0,1-.29-.9,6.33,6.33,0,0,1-.13-3A4.68,4.68,0,0,1,106.61,95.42Z"/></g></svg>