<svg xmlns="http://www.w3.org/2000/svg" viewBox="0 0 252 180"><g id="Layer_3" data-name="Layer 3"><path d="M126,157.35A67.35,67.35,0,1,0,58.65,90,67.43,67.43,0,0,0,126,157.35ZM110,138l-3.67,5.93-.52-7L99,135.29l6.45-2.64-.51-7,4.5,5.32,6.45-2.63-3.67,5.92,4.51,5.32ZM117.6,97.7l-3.67,5.92-.51-7L106.65,95l6.45-2.64-.51-7,4.5,5.32,6.45-2.63L119.87,94l4.5,5.32ZM141,138l-3.67,5.93-.51-7L130,135.29l6.45-2.64-.52-7,4.5,5.32,6.46-2.63-3.67,5.92,4.5,5.32Zm0-27.32-3.67,5.93-.51-7L130,108l6.45-2.64-.52-7,4.5,5.32,6.46-2.64L143.23,107l4.5,5.32Zm33.13.54-3.67,5.92,4.51,5.33-6.77-1.66-3.67,5.92-.52-7-6.77-1.66,6.45-2.63-.51-7,4.5,5.33ZM165.67,84l6.45-2.64-3.67,5.93,4.5,5.32-6.77-1.66-3.67,5.93-.51-7-6.77-1.65,6.45-2.64-.51-6.95ZM148.92,50l4.51,5.32,6.45-2.64-3.67,5.93,4.5,5.32-6.77-1.66-3.67,5.93-.51-7L143,59.56l6.45-2.64Zm-7.66,26.35-3.67,5.93,4.51,5.32-6.77-1.66-3.67,5.93-.52-7-6.77-1.66,6.45-2.64-.51-7,4.5,5.32ZM121.45,32.77l4.5,5.32,6.45-2.63-3.67,5.92,4.5,5.32-6.77-1.65L122.8,51,122.28,44l-6.77-1.66L122,39.72ZM109.73,57.3l4.5,5.32L120.68,60,117,65.91l4.5,5.32-6.77-1.65-3.67,5.92-.51-7-6.77-1.66,6.45-2.64Zm-6.77,19-3.67,5.93,4.5,5.32L97,85.91l-3.67,5.93-.52-7-6.77-1.66,6.46-2.64-.52-7L96.5,79ZM83.65,50.15l-.51-6.95,4.5,5.32,6.45-2.64L90.42,51.8l4.51,5.33-6.77-1.66-3.67,5.92-.52-7L77.2,52.78ZM66.76,96.85l-.51-7-6.77-1.65,6.45-2.64-.51-6.95L69.92,84l6.45-2.64L72.7,87.26l4.5,5.32-6.77-1.66Zm16.89,16-.51-7,4.5,5.32,6.45-2.64-3.67,5.93,4.51,5.32-6.77-1.66-3.67,5.93-.52-7-6.77-1.66Z"/><path d="M1.22,178.88H250.78V1.12H1.22ZM126,20.65A69.35,69.35,0,1,1,56.65,90,69.42,69.42,0,0,1,126,20.65Z"/></g></svg>