<svg xmlns="http://www.w3.org/2000/svg" viewBox="0 0 252 180"><g id="Layer_3" data-name="Layer 3"><path d="M1.1,179H250.9V1H1.1ZM1.22,1.12H250.78V178.88H1.22Z"/><path d="M250.78,1.12H1.22V178.88H250.78Zm-.13,177.63H1.35V1.25h249.3Z"/><path d="M129.11,86.81a3.52,3.52,0,0,1-.36.31,4.63,4.63,0,0,1-1.91.78,4.24,4.24,0,0,1-1.22.07,2.94,2.94,0,0,1-.89-.16,1.68,1.68,0,0,1-.52-.18.78.78,0,0,1-.24-.13c-.18-.11,0,0,.13.21a5,5,0,0,1,.55.85,4.68,4.68,0,0,1,.29.67A7.45,7.45,0,0,0,129.11,86.81Z"/><path d="M74.84,117.67a61.48,61.48,0,0,0,18.77,13.86,50,50,0,0,0,23.57,4.9,55.22,55.22,0,0,0,40.76-22.8,41.94,41.94,0,0,0,5.58-11.3,38.14,38.14,0,0,0,1.75-12.8,44.76,44.76,0,0,0-2.46-12.4,49.83,49.83,0,0,0-5.62-10.94A48,48,0,0,0,148.94,57l-2.44-2c-.86-.61-1.76-1.18-2.64-1.76a24.49,24.49,0,0,0-2.79-1.58,21.81,21.81,0,0,0-2.93-1.37c-1-.38-2-.82-3.08-1.13l-3.22-.83c-1.08-.24-2.21-.34-3.32-.5a22.25,22.25,0,0,0-3.37-.17,23.71,23.71,0,0,0-3.38.14l-1.66.19c-.55.09-1.08.2-1.62.3s-1.07.21-1.6.34l-1.55.43a31,31,0,0,0-3,1,40.44,40.44,0,0,0-11,6.29,34.72,34.72,0,0,0-8.61,10,28.19,28.19,0,0,0-3.6,13.59,32,32,0,0,0,3,13.22A34,34,0,0,0,99.75,104a30.21,30.21,0,0,0,5.64,4.15,24.09,24.09,0,0,0,7.11,2.58,21.15,21.15,0,0,0,7.93,0,25.31,25.31,0,0,0,7-2.38,28.17,28.17,0,0,0,5.85-4A23.3,23.3,0,0,0,138,98.48a17.31,17.31,0,0,0,2.33-8.79A18.43,18.43,0,0,0,138,81.34,20.33,20.33,0,0,0,135.66,78,16.5,16.5,0,0,0,132,74.74c-.44-.26-.88-.51-1.36-.74a15.88,15.88,0,0,0-1.71-.65,13.2,13.2,0,0,0-2.15-.38,11.08,11.08,0,0,0-2.5.11,10.34,10.34,0,0,0-4.24,1.8,12.34,12.34,0,0,0-2.37,2.24,7.5,7.5,0,0,0,7.27,12.11,4.68,4.68,0,0,0-.29-.67,5,5,0,0,0-.55-.85c-.16-.21-.31-.32-.13-.21a.78.78,0,0,0,.24.13,1.68,1.68,0,0,0,.52.18,2.94,2.94,0,0,0,.89.16,4.24,4.24,0,0,0,1.22-.07,4.63,4.63,0,0,0,1.91-.78,3.52,3.52,0,0,0,.36-.31l.16-.17-.16.17a7.45,7.45,0,0,1-4.17,2.42c0,.1.07.19.09.27a1.77,1.77,0,0,1,.08.47,3.77,3.77,0,0,1-.41,1,10.86,10.86,0,0,1-4.31,3.7,10.3,10.3,0,0,1-2.71.91,5.48,5.48,0,0,1-2.25,0,8.62,8.62,0,0,1-2.47-.93,14,14,0,0,1-2.56-2,18.5,18.5,0,0,1-4.13-5.84,16.58,16.58,0,0,1-1.5-6.62,12.37,12.37,0,0,1,1.66-6c2.2-3.89,6.63-7.36,11.47-9.14a19.36,19.36,0,0,1,7.18-1.34A17.05,17.05,0,0,1,132,65.18a25,25,0,0,1,6.56,4.07,32,32,0,0,1,5.44,6,33.52,33.52,0,0,1,3.74,7.23,29,29,0,0,1,1.55,7.63,23.74,23.74,0,0,1-4.47,14.42,38.49,38.49,0,0,1-12.51,11.17,37.43,37.43,0,0,1-15.94,5,34.31,34.31,0,0,1-16.19-3.32,48,48,0,0,1-23.59-25,38.37,38.37,0,0,1-2.92-16.74,36.51,36.51,0,0,1,5-16.14c5.83-10.08,16.1-18,27.46-22.44a54.74,54.74,0,0,1,17.64-3.83,48.63,48.63,0,0,1,17.67,2.64,56.41,56.41,0,0,1,16,8.7A60.81,60.81,0,0,1,170.18,58a59.55,59.55,0,0,1,8.16,16.58,56.89,56.89,0,0,1,2.54,18.23,54.94,54.94,0,0,1-3.51,18.1,62.58,62.58,0,0,1-9.24,16.25,66.26,66.26,0,0,1-30.74,21.68,59.41,59.41,0,0,1-18.86,3.05,58.47,58.47,0,0,1-19.06-3.3,75,75,0,0,1-17.7-8.92,87.32,87.32,0,0,1-8-6.1,72,72,0,0,1-7.29-7l0,0a.69.69,0,0,0-.91-.11.7.7,0,0,0-.17,1,79.08,79.08,0,0,0,14.16,15.26,76,76,0,0,0,17.87,11.22,63.27,63.27,0,0,0,42.46,3.22,73.44,73.44,0,0,0,36.52-23.14A68.92,68.92,0,0,0,188,115.08a66.88,66.88,0,0,0,4.89-21.83,70,70,0,0,0-12.13-42.49,72.1,72.1,0,0,0-34.8-27.61,62.56,62.56,0,0,0-22.58-3.77A67.61,67.61,0,0,0,101,23.8,74.49,74.49,0,0,0,81.3,34.86,63,63,0,0,0,66,52.06a51.31,51.31,0,0,0-7.23,22.61,53.63,53.63,0,0,0,3.71,23.38A62.29,62.29,0,0,0,74.84,117.67Z"/></g></svg>