<svg xmlns="http://www.w3.org/2000/svg" viewBox="0 0 252 180"><g id="Layer_3" data-name="Layer 3"><path d="M89.2,92.21A11,11,0,0,0,90,94.47a8.08,8.08,0,0,0,1.65,2A6.21,6.21,0,0,1,93,97.71a5.23,5.23,0,0,0,1.4,1.1,6.24,6.24,0,0,1,1.14.79A6.19,6.19,0,0,0,97.8,101a3.8,3.8,0,0,1,.89.41,8.07,8.07,0,0,0,2.18,1.08,11.14,11.14,0,0,1,2.55.93,1.21,1.21,0,0,0,.34.09l4.31,1.06c.33.09.67.14,1,.22l1.87.49c.32.08.63.18.94.25.79.18,1.6.3,2.37.53a28.75,28.75,0,0,0,5.29.94c.3,0,.6,0,.89,0a1.6,1.6,0,0,1,.46.25c-.12.13-.21.35-.35.39a7.83,7.83,0,0,0-2.32,1.09,21,21,0,0,0-3,2c-.41.37-.85.71-1.25,1.09a5.13,5.13,0,0,0-.62.83,3.61,3.61,0,0,0-.27.56,7.38,7.38,0,0,0-.72,1.73,2,2,0,0,1-1.62,1.65,4.15,4.15,0,0,1-.73.24,4.07,4.07,0,0,0-1.71.76c-.9.63-1.83,1.22-2.67,1.92a4.83,4.83,0,0,0-1.47,1.84,11.71,11.71,0,0,0-.84,2.87,2.68,2.68,0,0,0,.39,1.85c.08.14.14.29.22.43a3.67,3.67,0,0,0,.46.76,4,4,0,0,1,.7.93,1.18,1.18,0,0,0,.57.48,1.05,1.05,0,0,1,.56.66,1.22,1.22,0,0,1-.34,1.29,13.69,13.69,0,0,0-1.56,2.3,11.25,11.25,0,0,0-1.68,4.56,3.6,3.6,0,0,0,.09,1.69,5.42,5.42,0,0,1,.42,2,2.12,2.12,0,0,0,.39,1.24,4.56,4.56,0,0,1,.48,1.08.86.86,0,0,1-.25,1c-.36.33-.69.68-1,1a12.21,12.21,0,0,1-1.14,1,4.32,4.32,0,0,0-1.55,1.57,1.66,1.66,0,0,1-.38.5,3.15,3.15,0,0,0-.87,1.57,12.16,12.16,0,0,0-.6,4.6,6.57,6.57,0,0,0,.69,2.68,3.08,3.08,0,0,1,.16.38,18.9,18.9,0,0,0,.94,2.1,12.63,12.63,0,0,0,2.77,3.11c.62.54,1.38.92,2,1.43a11.2,11.2,0,0,0,2.69,1.57c1.28.53,2.59,1,3.91,1.43a10.93,10.93,0,0,0,4,.93,1.38,1.38,0,0,1,.27.08c.25,0,.5.11.75.14.57.07,1.15.11,1.73.18.32.05.63.16.95.2.5.08,1,.11,1.49.19l2.33.41a.61.61,0,0,0,.27,0,5.47,5.47,0,0,1,1.8-.14c1.25,0,2.51-.1,3.76-.12a10.45,10.45,0,0,0,3.1-.36,8.27,8.27,0,0,1,1.57-.24,6,6,0,0,0,1.43-.13,16.4,16.4,0,0,1,2.18-.41c.87-.2,1.76-.35,2.64-.58s1.68-.54,2.53-.75a24.4,24.4,0,0,0,3.92-1.41,7.89,7.89,0,0,0,1.29-.8c.3-.21.57-.47.88-.68a5.5,5.5,0,0,0,1.5-1.34.65.65,0,0,0,.12-.49,1.08,1.08,0,0,0-1.44-.7c-.54.18-1.07.44-1.6.65a19.29,19.29,0,0,1-2.15.81c-1.12.3-2.26.51-3.4.74-.59.12-1.18.19-1.78.27s-1.24.14-1.87.21a18.11,18.11,0,0,1-2.83.29,9.52,9.52,0,0,1-2.06.1,10.93,10.93,0,0,1-3,.26c-.41,0-.83,0-1.24,0-1.11-.08-2.22-.25-3.33-.27a19.35,19.35,0,0,1-4.53-.65,37.86,37.86,0,0,1-4-1.08,10.61,10.61,0,0,0-2.24-.46,21.89,21.89,0,0,1-2.36-.57,7.36,7.36,0,0,1-.8-.24c-.83-.34-1.69-.64-2.48-1a17.21,17.21,0,0,1-3.25-1.6c-.71-.58-1.46-1.13-2.19-1.7-.2-.15-.37-.34-.58-.49a2.33,2.33,0,0,1-.85-1.24,5.24,5.24,0,0,1,0-2.86,2.35,2.35,0,0,1,.14-.37c.25-.52.52-1,.75-1.56a5.88,5.88,0,0,1,2.67-2.75.75.75,0,0,1,1,.14c.37.38.74.77,1.12,1.15a7.18,7.18,0,0,0,2,1.7,1.24,1.24,0,0,1,.23.17,14.85,14.85,0,0,0,2.48,1.65c.82.39,1.58.87,2.38,1.3a9.75,9.75,0,0,0,1.15.5c.64.21,1.29.41,1.94.59.91.27,1.82.56,2.75.77s2.15.39,3.22.62a8.3,8.3,0,0,0,1.93.25,10,10,0,0,1,1.72.16,3.86,3.86,0,0,0,1.08.2,10.76,10.76,0,0,1,2.27.05c.64,0,1.29,0,1.93,0a3.93,3.93,0,0,0,2-.12.66.66,0,0,1,.28,0,21.72,21.72,0,0,1,3.12.22,1.09,1.09,0,0,0,.46-.08,4.11,4.11,0,0,1,.74-.21c1.28-.08,2.49-.56,3.77-.68a11.66,11.66,0,0,0,4-1.24,3.53,3.53,0,0,0,1.63-1.38,7,7,0,0,1,.63-.91.56.56,0,0,0,.13-.62,18.61,18.61,0,0,1-.58-1.93,3.21,3.21,0,0,0-1.6-2,10.31,10.31,0,0,1-1-.71c-.74-.56-1.46-1.16-2.2-1.72a7.68,7.68,0,0,0-.78-.47c-.79-.47-1.61-.91-2.37-1.43a6.92,6.92,0,0,0-2.12-1.27,13.75,13.75,0,0,1-1.57-.71c-.49-.2-1-.36-1.48-.55v-.14c.3-.1.6-.21.91-.29a19.5,19.5,0,0,0,2-.53,21,21,0,0,0,2.23-1.11,8.25,8.25,0,0,0,1.06-.67,18.36,18.36,0,0,1,1.46-1.18c.4-.24.38-.66.6-1s.14-.74,0-1.09c-.44-.86-.9-1.71-1.35-2.57a2.93,2.93,0,0,0-1.14-1.2c-.91-.56-1.83-1.09-2.76-1.63-.28-.16-.57-.3-.86-.44-1-.45-1.94-.9-2.93-1.32a6,6,0,0,0-1.82-.65,9.25,9.25,0,0,1-1.7-.38c-.48-.15-.93-.39-1.42-.52a11.46,11.46,0,0,0-3.45-.43c-.29,0-.59,0-.88-.06-.51,0-1,0-1.52,0-.81,0-1.63,0-2.44,0a9.86,9.86,0,0,1-1.53.07,2.47,2.47,0,0,0-1.21.14,8.52,8.52,0,0,1-.86.26c-.47.12-.94.21-1.41.32a8.68,8.68,0,0,1-1,.27c-1,.15-2,.27-3,.4a3.14,3.14,0,0,0-.82.16,6.31,6.31,0,0,1-1.91.35.75.75,0,0,1-.78-.46,5.38,5.38,0,0,1-.07-2.87,14.67,14.67,0,0,1,1.05-2.79,3.17,3.17,0,0,1,2.88-2.08.82.82,0,0,1,.87.43,3.86,3.86,0,0,0,.64.82,9.17,9.17,0,0,0,3.28,2.05,35.38,35.38,0,0,0,4.19,1.51c1.54.42,3.12.63,4.69.93,1.06.19,2.14.3,3.22.39s2.11.11,3.17.11c.64,0,1.28-.06,1.92-.11a2.55,2.55,0,0,0,.68-.12c.89-.33,1.78-.68,2.65-1a.8.8,0,0,0,.4-.35,3.24,3.24,0,0,0-.54-3.72c-.47-.41-1-.8-1.46-1.18a15.47,15.47,0,0,0-4.4-2c-1-.28-2-.42-2.92-.63-.34-.07-.67-.18-1-.26a5.88,5.88,0,0,0-1.67-.44,16.54,16.54,0,0,1-2.22-.14,37.86,37.86,0,0,0-4.38-.37c-.32,0-.65,0-1,0-.59,0-1.19-.12-1.78-.12s-1.28.08-1.92.12a2,2,0,0,1-.35,0c-.72-.06-1-.46-.82-1.13a3.34,3.34,0,0,1,1.51-2,12.47,12.47,0,0,0,1.89-1.31,6.25,6.25,0,0,1,2.09-1.2c.63-.22,1.28-.41,1.92-.6a4,4,0,0,1,2.19-.23,1.17,1.17,0,0,0,.48-.06,10.12,10.12,0,0,1,2.46-.4,3.83,3.83,0,0,0,1.15-.15,1.18,1.18,0,0,1,1.31.39,9.25,9.25,0,0,0,.92,1l1.6,1.55,1,1c.21.21.42.43.64.63a33.71,33.71,0,0,0,2.55,2.38,11,11,0,0,0,2.65,1.8,2,2,0,0,1,.71.43,2.54,2.54,0,0,0,2.13.63,2.65,2.65,0,0,0,2.18-1.71,6.35,6.35,0,0,1,.41-.88,1.71,1.71,0,0,0,0-1.72,8,8,0,0,0-2-2.38,3,3,0,0,1-.45-.43,6.73,6.73,0,0,0-1.59-1.22c-.69-.4-1.36-.82-2-1.21a6.47,6.47,0,0,0-.75-.36c-.38-.16-.78-.3-1.15-.48-.08,0-.13-.19-.15-.29s.13-.11.21-.14c1-.32,2-.5,3-.81,1.59-.49,3.29-.51,4.92-.91,1.28-.31,2.6-.5,3.87-.86a5.94,5.94,0,0,0,1.13-.35,10.56,10.56,0,0,1,2.12-.64,11.93,11.93,0,0,0,1.21-.32,19.69,19.69,0,0,1,3-1.2,1.08,1.08,0,0,0,.3-.19c.62-.41,1.21-.86,1.85-1.21a13.38,13.38,0,0,0,2.48-1.79,4,4,0,0,1,.67-.5,3.15,3.15,0,0,0,1.14-1.29,3.07,3.07,0,0,1,.2-.36c.53-.59.35-1.49.92-2.06,0,0,0-.09,0-.14.07-.41.15-.81.23-1.22a11.28,11.28,0,0,0,.31-1.49,11.49,11.49,0,0,0-.13-1.76,3.05,3.05,0,0,0-.24-1,2.84,2.84,0,0,1-.32-1.27,1.49,1.49,0,0,0-.19-.72,5.79,5.79,0,0,0-1.77-1.75c-.61-.42-1.27-.77-1.88-1.19-.76-.53-1.49-1.11-2.26-1.63-.38-.26-.81-.45-1.22-.68a34.6,34.6,0,0,0-3.83-2c-1-.4-2.05-.74-3.09-1.1-.65-.23-1.3-.5-2-.67a31.31,31.31,0,0,0-4.22-.47,2.16,2.16,0,0,1-1.33-.32c-.07-.07-.22,0-.33-.07l-1.1-.15c-1.33-.2-2.67-.39-4-.6s-2.61-.4-3.91-.61c-.41-.07-.82-.18-1.23-.26a2.52,2.52,0,0,0-.48,0,8.54,8.54,0,0,1-2.89-.23,2.27,2.27,0,0,0-.88-.18,7.07,7.07,0,0,1-2.67-.16,1.38,1.38,0,0,0-.49,0c-.27,0-.55.08-.83.09-1.2,0-2.41.05-3.62.13a12.89,12.89,0,0,1-1.87.07c-.8-.06-1.61.06-2.41,0s-1.07-.09-1.31-1-.39-1.48-.57-2.22a4.43,4.43,0,0,1-.12-.89,8.93,8.93,0,0,1,.4-2.81c.19-.63.45-.81,1.06-.6a2.73,2.73,0,0,1,.72.41c.35.26.65.59,1,.84a16.42,16.42,0,0,0,1.59,1c.57.31,1.16.59,1.75.85s1.29.53,1.93.78,1,.37,1.51.54,1.26.44,1.9.65a13.33,13.33,0,0,0,1.4.43c.93.19,1.87.35,2.81.51a5.37,5.37,0,0,0,.9,0c.13,0,.28-.08.41,0a6.68,6.68,0,0,0,2.56,0,.91.91,0,0,1,.54.07,1.06,1.06,0,0,0,.87,0,2.08,2.08,0,0,1,.55-.12,12.73,12.73,0,0,0,2.93-.55c1-.28,2-.66,3-1a1.33,1.33,0,0,0,.77-.77c.27-.79.58-1.57.81-2.36a1.25,1.25,0,0,0-.13-.8,10,10,0,0,0-2.21-2.75c-.25-.21-.51-.4-.77-.6-.59-.44-1.2-.86-1.79-1.31a10.15,10.15,0,0,0-3.68-1.74,1.51,1.51,0,0,1-.58-.47c-.05,0,0-.28.07-.33a2.15,2.15,0,0,1,1.57-.43,2.57,2.57,0,0,0,.62,0c1-.09,1.94-.24,2.91-.27a5.15,5.15,0,0,0,2.08-.52c.46-.21.87-.54,1.34-.72a7.49,7.49,0,0,0,1.39-.52,6.06,6.06,0,0,0,1.5-1.12,13.8,13.8,0,0,0,1.08-2,.83.83,0,0,0-.06-.86,4.73,4.73,0,0,1-.75-1.7.65.65,0,0,0-.17-.3l-1.68-2.14a2.08,2.08,0,0,0-1.17-.72,2.08,2.08,0,0,1-.59-.21c-.43-.25-.86-.52-1.28-.81a5.64,5.64,0,0,0-2.92-1,1.82,1.82,0,0,1-.69-.3c-.07,0-.15-.19-.12-.22a.49.49,0,0,1,.26-.18,1.29,1.29,0,0,1,.34,0,4.84,4.84,0,0,0,1.93-.24c.22-.08.46-.08.69-.15.95-.3,2-.22,2.94-.53,1.44-.46,2.92-.78,4.38-1.19a15,15,0,0,0,2.18-.72,22,22,0,0,0,2.12-1.18,2.21,2.21,0,0,0,1.08-1,1.62,1.62,0,0,1,.76-.77c.3-.21.64-.38.92-.62a1.67,1.67,0,0,0,.8-1.66.66.66,0,0,1,0-.47c.32-.34.21-.62,0-.94-.11-.14-.11-.35-.19-.52a11,11,0,0,0-1-1.89,7.91,7.91,0,0,0-1.78-2c-.06,0-.08-.12-.13-.16a4,4,0,0,0-.77-.67c-.78-.41-1.6-.75-2.39-1.13a13.62,13.62,0,0,1-1.87-.94c-.82-.58-1.73-1-2.59-1.5a14.35,14.35,0,0,0-2.68-1.13,13.9,13.9,0,0,0-4.74-.65c-.82,0-1.63.06-2.44.07-1,0-1.94,0-2.9-.05a9.66,9.66,0,0,0-2.68.34c-.88.16-1.72.54-2.59.76-1.19.28-2.27,1-3.53,1a.33.33,0,0,0-.2.05,6.08,6.08,0,0,1-1.53.65l-.44.21-1.54.66-.51.19c-1,.44-2,.93-3.09,1.3a7.76,7.76,0,0,0-2.71,1.55c-.52.48-1,1-1.57,1.45-.38.31-.43.33-.72,0l-1.32-1.51A5.11,5.11,0,0,1,106.89,30c0-1.28,0-2.65,1.08-3.69a.44.44,0,0,0,.08-.11,7.76,7.76,0,0,1,2.62-2.63,12.11,12.11,0,0,0,1.25-.87,22.2,22.2,0,0,1,2.84-2,3.32,3.32,0,0,0,.69-.46,6,6,0,0,1,2.09-1.24c1-.4,2.12-.67,3.16-1a10.79,10.79,0,0,1,2.18-.43c1.08-.16,2.15-.43,3.22-.64.22,0,.46,0,.68,0l1.32-.08c.25,0,.49-.06.74-.07a4.42,4.42,0,0,0,.63,0,5.4,5.4,0,0,1,2.56-.12,1.89,1.89,0,0,0,.62,0,1.37,1.37,0,0,1,.34-.07c.94.1,1.89.19,2.83.31a15,15,0,0,1,1.49.28,10,10,0,0,0,2,.44,9.1,9.1,0,0,1,2.37.5c.95.27,1.9.54,2.85.83.52.16,1.05.33,1.56.54s.91.45,1.37.67a15.73,15.73,0,0,1,1.8.87A30.42,30.42,0,0,1,153.54,24a3.56,3.56,0,0,0,.48.39.45.45,0,0,0,.63-.1c.07-.08,0-.29,0-.43a10.4,10.4,0,0,0-.45-1.09,3.61,3.61,0,0,0-.52-.81,11.18,11.18,0,0,0-2.54-1.94c-.28-.19-.61-.33-.88-.54a16.7,16.7,0,0,0-4.47-2.23c-1-.4-1.94-.75-2.92-1.09a13.47,13.47,0,0,0-1.53-.46c-1-.21-1.91-.38-2.86-.58a3,3,0,0,0-.41-.08,14.15,14.15,0,0,1-2.74-.4,6.38,6.38,0,0,0-1.37-.2c-2.09-.05-4.18-.09-6.27-.1a12.61,12.61,0,0,0-2.21.2c-.82.14-1.62.36-2.43.56s-1.72.41-2.55.7c-1.25.43-2.47.94-3.7,1.43s-2.3.87-3.43,1.36c-1.6.7-2.8,2-4.3,2.8a1.42,1.42,0,0,0-.24.25c-.63.63-1.24,1.26-1.87,1.88-.22.2-.56.33-.69.57-.5.94-1.43,1.51-2,2.4a4.06,4.06,0,0,0-.73,1.49c-.16,1-.29,2.07-.44,3.1a3.49,3.49,0,0,0,.31,2c.43.9.9,1.78,1.36,2.66a1.91,1.91,0,0,0,.25.33,19.84,19.84,0,0,0,2.78,2.72,1.58,1.58,0,0,1,.66,1.51,23.44,23.44,0,0,0,.34,4.09,19.88,19.88,0,0,0,.66,3.21,2.48,2.48,0,0,0,.4,1,8,8,0,0,1,1,2.12.78.78,0,0,1-.14.9,6.25,6.25,0,0,0-1.13,1.41c-.5,1-1.33,2-1.18,3.24a.86.86,0,0,1-.09.33,2.29,2.29,0,0,0,.09,1.83,1.51,1.51,0,0,1,.15.54,20.46,20.46,0,0,0,.63,2.79,9.94,9.94,0,0,0,2.29,4c.36.41.4.42.11.91a9,9,0,0,0-.8,2,6.39,6.39,0,0,0-.27,3.49c.23.88.39,1.78.59,2.66.12.5.09.56-.43.57-.28,0-.57,0-.84,0a11.65,11.65,0,0,0-1.33,0c-.94.14-1.87.38-2.82.49a19.59,19.59,0,0,0-5.32,1.38c-.34.14-.67.33-1,.44-.95.3-1.92.53-2.86.86a10.15,10.15,0,0,0-2.22,1,8.53,8.53,0,0,0-2,1.71,14.28,14.28,0,0,0-2.27,3.24c-.43,1-.92,2-1.26,3A5.08,5.08,0,0,0,89,91.55C89.07,91.76,89.11,92,89.2,92.21Zm47.24,53c.89.29,1.76.61,2.64.91.31.1.63.16.93.29.72.3,1.43.63,2.15.94a18,18,0,0,1,3.66,2.27,6.83,6.83,0,0,1,1.07,1.08.89.89,0,0,1-.45,1.54c-.71.2-1.45.3-2.18.46-.38.08-.76.2-1.15.25a10.46,10.46,0,0,1-1.12,0v0c-1.46,0-2.93,0-4.38.09-.56,0-1.1-.06-1.64,0-.76.08-1.51-.05-2.26,0a28.67,28.67,0,0,1-2.93-.08,22.6,22.6,0,0,0-2.47,0c-.09,0-.2,0-.27,0a16.3,16.3,0,0,0-2.91-.65,5.25,5.25,0,0,0-1-.16,10.67,10.67,0,0,1-3.57-.77c-.3-.11-.63-.14-.94-.24-.71-.22-1.41-.45-2.11-.71-.53-.18-1-.39-1.55-.62a3.69,3.69,0,0,1-1.08-.61,3.8,3.8,0,0,0-1.19-.67,14.93,14.93,0,0,1-3.45-2,2.83,2.83,0,0,0-.47-.29c-.65-.37-.65-.79,0-1.17,0,0,0,0,.06,0a17.13,17.13,0,0,1,4-1.43c.3,0,.57-.22.86-.27a36.54,36.54,0,0,1,3.76-.52c.91,0,1.82-.07,2.72,0,.69,0,1.38,0,2.06,0s1.36,0,2,0a23.2,23.2,0,0,1,3.12.29,6.94,6.94,0,0,1,2.51.75,1.31,1.31,0,0,0,.66.2,2.28,2.28,0,0,1,1.48.54,1,1,0,0,0,.86.17,1.19,1.19,0,0,1,.53,0C135.06,144.81,135.76,145,136.44,145.23Zm-23.15-14.54a8,8,0,0,1,1.14-.31,7.77,7.77,0,0,0,2.1-.71,3.83,3.83,0,0,1,1.28-.24c1-.14,2-.27,3-.38a5.2,5.2,0,0,1,.68,0,6.25,6.25,0,0,1,2.07,0c1-.35,2,.14,3,0a8.6,8.6,0,0,1,2.06.19l1.18.13a18.8,18.8,0,0,1,2.11.3,14.33,14.33,0,0,1,1.88.73c.62.26,1.22.55,1.84.82l2.5,1.07a1,1,0,0,1,.18.1,17.31,17.31,0,0,1,2.37,1.9c.25.3.31.45,0,.7a3.05,3.05,0,0,1-1.18.67c-1.09.22-2.21.31-3.31.46l-1.45.2-1.64.2c-2-.14-3.91,0-5.85-.11a12.4,12.4,0,0,1-1.36-.21c-1-.18-2.1-.31-3.13-.56s-2-.59-3-.9c-.11,0-.21-.11-.32-.13a14.52,14.52,0,0,1-3.1-1.23,7.3,7.3,0,0,1-1.33-1,6.11,6.11,0,0,0-.67-.46c-.37-.24-.75-.46-1.11-.71A.31.31,0,0,1,113.29,130.69Zm-4.28,2a7.36,7.36,0,0,1,.77.71,11.92,11.92,0,0,0,2.31,1.54c.79.48,1.58,1,2.39,1.45.6.34,1.25.6,1.87.93a13.84,13.84,0,0,1,1.47.91,8.41,8.41,0,0,0,2.07,1.15,1.1,1.1,0,0,1,.38.17.52.52,0,0,1,.19.35c0,.09-.16.21-.27.25a5.83,5.83,0,0,1-1.08.25,37.28,37.28,0,0,0-4.81.75c-.6.12-1.18.4-1.81.47a5.65,5.65,0,0,0-1.09.19,7.32,7.32,0,0,0-2.1.7,3.74,3.74,0,0,1-1.66.44.68.68,0,0,1-.75-.38c-.22-.4-.53-.76-.77-1.15a2.33,2.33,0,0,1-.37-1.32,12.24,12.24,0,0,0-.07-1.64,6,6,0,0,1,.29-2.49,6.12,6.12,0,0,1,.91-2.32.71.71,0,0,0,.11-.25c.18-.74.82-.84,1.4-1A1,1,0,0,1,109,132.66Zm10-13.91c.41-.07.83-.13,1.24-.16.86-.07,1.72-.11,2.7-.17l2.87.25a5.29,5.29,0,0,0,1,.08,5.86,5.86,0,0,1,2.3.49c.72.24,1.47.39,2.2.63a9.8,9.8,0,0,1,1.33.59c.53.27,1.06.56,1.58.86.18.1.4.21.32.47a.49.49,0,0,1-.54.35c-.42,0-.85.34-1.26-.06,0,0,0,0-.06,0-1.09.36-2.13-.11-3.19-.17a29.18,29.18,0,0,1-3-.3,22.89,22.89,0,0,1-2.7-.61c-.79-.21-1.57-.43-2.33-.7s-1.61-.62-2.41-.93c0,0-.1,0-.13,0s-.18-.24-.28-.36C118.76,118.89,118.86,118.77,119,118.75Zm18.13-8.36a22.18,22.18,0,0,1,2.18,1.32,9.23,9.23,0,0,1,1.78,1.75,4,4,0,0,1,.23.41c.13.23.1.38-.17.49s-.39.25-.59.36a3.79,3.79,0,0,1-.48.21c-.22-.11-.45-.21-.66-.34a13.36,13.36,0,0,1-2.22-1.68c-.41-.39-1-.65-1.37-1a9.28,9.28,0,0,1-1.6-2.09c-.12-.24,0-.41.31-.37a2.48,2.48,0,0,1,.61.15A13.37,13.37,0,0,1,137.11,110.39Zm-3.38-45.62a12.2,12.2,0,0,1,4.56,2.33,5.24,5.24,0,0,1,.92,1.12c.23.36.18.55-.23.7a13.15,13.15,0,0,1-1.66.47,23.67,23.67,0,0,0-2.56.52,3.59,3.59,0,0,1-1.77.25l-1.92.21a1.48,1.48,0,0,1-.42,0,10.93,10.93,0,0,0-2.68-.18,7.57,7.57,0,0,1-1.24-.18c-.29,0-.59-.06-.88-.12-.64-.12-1.27-.26-1.9-.4a7.06,7.06,0,0,1-.93-.25c-.74-.26-1.48-.53-2.22-.82a17.17,17.17,0,0,1-1.66-.7c-.46-.22-.88-.52-1.32-.77-.2-.12-.43-.17-.63-.28s-.24-.19-.24-.29.13-.25.24-.29c.49-.21,1-.37,1.49-.57s1-.43,1.47-.6a6.44,6.44,0,0,1,1.4-.37,8.43,8.43,0,0,0,2.09-.47,8.64,8.64,0,0,1,2.86-.44,23.76,23.76,0,0,1,5,.41,6.09,6.09,0,0,1,.73.21C132.72,64.42,133.22,64.62,133.73,64.77Zm4.44-13.43a9.41,9.41,0,0,1,2.47,1.25A7.16,7.16,0,0,1,142,54c.32.33.21.65-.27.76-.92.22-1.85.41-2.79.54a14.89,14.89,0,0,1-1.89,0v-.05c-1,0-2.09,0-3.13,0a15.62,15.62,0,0,1-1.65-.24c-.94-.13-1.88-.26-2.82-.41s-1.79-.28-2.68-.43-1.59-.26-2.37-.42c-1.36-.28-2.7-.63-4.06-.89a28.22,28.22,0,0,1-3.37-1.1.46.46,0,0,1-.19-.08c-.13-.15-.35-.32-.35-.47s.26-.32.43-.37c.65-.2,1.3-.35,2-.52a33.79,33.79,0,0,1,3.49-.55c.73-.11,1.46-.2,2.19-.28q.51,0,1-.06a13.2,13.2,0,0,1,2.18-.21,23.4,23.4,0,0,1,3.52.46,5.14,5.14,0,0,0,1.51.2,9.82,9.82,0,0,1,2.84.62C136.46,50.71,137.29,51.12,138.17,51.34Zm-25-14.06c1.52-1.14,3-2.3,4.57-3.41a6.41,6.41,0,0,1,1.39-.6c.47-.2.93-.4,1.4-.58,1-.41,2.06-.84,3.11-1.21s2.08-.7,3.13-1,2-.44,3-.65c.19,0,.36-.09.55-.12.34,0,.65-.21,1-.06.18.08.45-.06.68-.1a3.74,3.74,0,0,1,.67-.1c.71,0,1.43,0,2.14.07a10,10,0,0,1,1.63.34,16,16,0,0,0,2.66.51,7.81,7.81,0,0,1,1.38.42c.3.1.61.21.92.3.57.17,1.15.36,1.74.48a26.65,26.65,0,0,1,3.25,1,1.29,1.29,0,0,1,.21.05,29.62,29.62,0,0,1,2.81,1.79c.34.31.73.56,1.08.86.53.46.55.57.31,1.27-.16.45,0,.65.46.69h.42c.22,0,.47,0,.5.28a.8.8,0,0,1-.16.56,5.13,5.13,0,0,1-.87.81,13.8,13.8,0,0,1-3.69,1.77c-1.52.51-3.1.81-4.65,1.19a21.65,21.65,0,0,1-2.46.35l-2,.13c-.54,0-1.07.1-1.6.13l-2.71.13a1.34,1.34,0,0,1-.28,0,15.3,15.3,0,0,0-2.79,0,14.52,14.52,0,0,1-4.53-.69c-1.17-.34-2.38-.48-3.57-.74a6,6,0,0,1-.79-.25,6.71,6.71,0,0,0-1.69-.52,9.15,9.15,0,0,1-1.75-.44c-.69-.18-1.4-.29-2.09-.46a14.6,14.6,0,0,1-1.47-.43c-.59-.22-1.15-.48-1.72-.74S112.67,37.63,113.13,37.28Zm-1,5.61c0-.21.15-.27.34-.24a.66.66,0,0,1,.2.06c1.17.68,2.53.93,3.72,1.56a5,5,0,0,0,1.07.23c1.15.31,2.34.48,3.48.88a32.09,32.09,0,0,0,3.38.84c.07,0,.15,0,.2,0a1.67,1.67,0,0,1,.23.23c-.07.06-.13.15-.21.17a14,14,0,0,1-1.44.27c-.53.07-1.06.08-1.59.11v0l-1.28.32-2.74.73a9.09,9.09,0,0,0-2.46.74l-.71.43c-.35.22-.48.22-.66-.15a12.87,12.87,0,0,1-.48-1.22c-.34-.92-.66-1.84-1-2.75A7.06,7.06,0,0,1,112.16,42.89ZM111,60.61a5.23,5.23,0,0,1-.54-1.34,5.36,5.36,0,0,1,0-2.58,7.47,7.47,0,0,1,.75-2.5,2.64,2.64,0,0,1,.38-.5c.55-.57.86-.62,1.52-.17s1.26.95,1.9,1.41,1.07.73,1.61,1.09c.9.58,1.77,1.21,2.7,1.72a16.72,16.72,0,0,0,2,.81,2.24,2.24,0,0,1,.39.14,15.76,15.76,0,0,0,4.31,1.5,7,7,0,0,0,2.18.38,3.2,3.2,0,0,1,.89.18.19.19,0,0,1,.12.14s-.06.13-.1.14c-.29.07-.59.12-.89.18s-.64-.13-1-.17a2.19,2.19,0,0,0-.76,0c-.86.21-1.74.19-2.6.44a9.51,9.51,0,0,1-2.39.43,10.16,10.16,0,0,0-3.13.56,20.28,20.28,0,0,0-2.71,1.27,9,9,0,0,1-1.35.58.85.85,0,0,1-.64-.09,3.6,3.6,0,0,1-1.34-1.37C111.88,62.07,111.43,61.34,111,60.61ZM90.38,88.21a3.07,3.07,0,0,0,.27-.77,3.9,3.9,0,0,1,1.84-2.67,10.05,10.05,0,0,0,1-.93,13.22,13.22,0,0,1,2.11-1.46,33.22,33.22,0,0,1,3-1.53c.93-.41,1.89-.74,2.84-1.1a2.09,2.09,0,0,0,.46-.17,8.53,8.53,0,0,1,3.2-.91c1.17-.24,2.36-.4,3.55-.59a3.22,3.22,0,0,1,.62,0,13.11,13.11,0,0,1,2.26.1,2.85,2.85,0,0,1,1.85,1.12,17.63,17.63,0,0,1,1.28,2.06q.51.87,1,1.71a.54.54,0,0,1-.24.89,3.77,3.77,0,0,0-1.13.66,2.57,2.57,0,0,0-1.09,2.79,2.91,2.91,0,0,0,1,1.85.6.6,0,0,1,.16.23,2.6,2.6,0,0,0,1.26,1.35,32.88,32.88,0,0,0,2.89,1.63,8.81,8.81,0,0,0,2.62.73c.45.08.91.12,1.37.21a12.45,12.45,0,0,0,2.28.18c.26,0,.51,0,.77,0,.83,0,1.66,0,2.49-.09.51,0,1-.16,1.54-.24a1.9,1.9,0,0,0,.35,0,9.47,9.47,0,0,1,2.57-.57,10.08,10.08,0,0,0,2.82-1.15,1.39,1.39,0,0,0,.73-.94,6.83,6.83,0,0,0,.34-1.12,1.48,1.48,0,0,0-.21-.84,17.4,17.4,0,0,1-1.1-1.69,3.85,3.85,0,0,0-1.2-1.3,9,9,0,0,0-2.22-1.11c-.21-.1-.45-.15-.64-.26a8.8,8.8,0,0,0-4.88-1.18h-.49A16,16,0,0,1,123.5,83a7.17,7.17,0,0,0-1.91,0l-2.77.08a1.53,1.53,0,0,1-1.6-1.08,3.73,3.73,0,0,0-.69-1.12,7,7,0,0,1-1.34-2.09c-.17-.55-.18-.56.34-.74a11.23,11.23,0,0,1,1.85-.56,20.51,20.51,0,0,1,2.36-.1H121a1.08,1.08,0,0,1,.48,0c.58.34,1.23.17,1.84.29a5.73,5.73,0,0,0,.82-.05,10.05,10.05,0,0,1,1.74.16,10.41,10.41,0,0,0,1.58,0c.78.06,1.57.1,2.35.13l3.48.17a3.63,3.63,0,0,1,.54.15,30.2,30.2,0,0,0,3,.39c.94.11,1.88.26,2.82.39a5.29,5.29,0,0,0,.56,0l2.5.16h.14c1.41.42,2.89.4,4.32.73a16.72,16.72,0,0,1,1.65.54c.66.22,1.33.41,2,.69s1.14.61,1.71.93c.26.14.51.31.78.44.91.44,1.85.81,2.72,1.3a23.38,23.38,0,0,1,2.31,1.56c.7.51,1.39,1.06,2.05,1.64a2.25,2.25,0,0,1,.54.86c.23.61.4,1.24.59,1.86a.6.6,0,0,1,.06.33,5.35,5.35,0,0,0-.25,1.72,1.82,1.82,0,0,1-.34.75,18.88,18.88,0,0,1-1.39,1.93,7,7,0,0,1-1.77,1.74,8.8,8.8,0,0,0-.73.64A13.48,13.48,0,0,1,153,98.82c-1,.3-1.94.78-2.91,1.16-.34.13-.7.23-1.06.33a37.24,37.24,0,0,1-4,.87c-.07,0-.15,0-.21,0a4.94,4.94,0,0,0-2,.08c-.64,0-1.27.14-1.91.21-1.18.13-2.35.3-3.54.38-.78.05-1.58-.09-2.37,0a38.54,38.54,0,0,0-4,.23s-.06,0-.07,0c-.7-.35-1.43.08-2.16-.08a2.23,2.23,0,0,0-1.56.11c-.06,0-.15.08-.2.06-.59-.28-1.17.14-1.76,0s-1.19-.2-1.78-.3a1.57,1.57,0,0,0-.28-.06c-.83,0-1.66,0-2.49,0-1,0-2-.08-3-.16a12.58,12.58,0,0,1-1.36-.27c-1.06-.2-2.12-.42-3.19-.6-.64-.1-1.28-.14-1.92-.23-.87-.13-1.74-.28-2.61-.42a2.34,2.34,0,0,1-.4-.11,33.16,33.16,0,0,0-4.68-1.21c-.23,0-.45-.14-.67-.2a3.31,3.31,0,0,0-1.5-.39,1.44,1.44,0,0,1-.91-.3,26.69,26.69,0,0,0-3.29-1.34c-.14-.07-.33-.09-.44-.2-.91-.85-2.12-1.32-2.9-2.33a1.21,1.21,0,0,0-.29-.19,6,6,0,0,1-1.59-1.71A20.77,20.77,0,0,1,90.37,89,.85.85,0,0,1,90.38,88.21Zm25.74.5a3.08,3.08,0,0,1,.42-.5c.38-.27.78-.51,1.18-.75a1,1,0,0,1,1.43.36,22.44,22.44,0,0,0,1.25,2c.15.29.34.56.48.85s0,.63-.44.58a3.79,3.79,0,0,1-.81-.18c-.4-.13-.78-.31-1.16-.47l-.07,0c-.66-.42-1.33-.82-2-1.27C116.29,89.21,116.24,89,116.12,88.71Zm6-1.61.14,0h1a7.91,7.91,0,0,1,2.41.32,12.73,12.73,0,0,0,2.06.23,2.52,2.52,0,0,1,.48.06c1.12.39,2.25.76,3.35,1.19a3.15,3.15,0,0,1,.9.64.43.43,0,0,1,.05.63,2.64,2.64,0,0,1-.79.67c-.7.29-1.43.51-2.11.86a4,4,0,0,1-1.5.28c-.67.07-1.34.08-2,.16a2.12,2.12,0,0,1-2.3-1.34A6,6,0,0,0,122.39,89a3.55,3.55,0,0,1-.7-1.1C121.5,87.46,121.61,87.23,122.09,87.1Z"/><path d="M250.78,1.12H1.22V178.88H250.78Zm-.13,177.63H1.35V1.24h249.3Z"/></g></svg>