<svg xmlns="http://www.w3.org/2000/svg" viewBox="0 0 252 180"><defs><style>.cls-1{fill:#6b6b6b;}</style></defs><g id="Layer_3" data-name="Layer 3"><path class="cls-1" d="M2.34.05v0l0,0Z"/><path d="M2.24.5c0,.91-.05,1.82-.05,2.73q0,47.28,0,94.54,0,6.06,0,12.12V176c0,.84,0,1.26.21,1.48V.08A.87.87,0,0,0,2.24.5Z"/><path d="M249.88,1H1.84a.65.65,0,0,0-.6.3h249.3A.85.85,0,0,0,249.88,1Z"/><path d="M198.36,138.25a19.92,19.92,0,0,0-2.62-5.53,12.4,12.4,0,0,0-1.73-1.91c-.71-.74-1.45-1.47-2.22-2.18-1.36-1.25-2.71-2.5-4.11-3.69-1-.83-2-1.54-3-2.35a30.38,30.38,0,0,0-5.77-3.65c-1.55-.78-3.17-1.44-4.74-2.19-1-.49-2-1-3-1.56-1.54-.82-3-1.72-4.61-2.47-2.44-1.15-4.91-2.25-7.38-3.29-1.85-.76-3.72-1.48-5.62-2.07-2.08-.65-4.21-1.13-6.33-1.69-.38-.09-.79-.22-.69-.71l-2.68-.41a5.94,5.94,0,0,1-3,1.14h-.11l-3.31.28a3.06,3.06,0,0,0-.6.13c-.67.19-.81.68-.36,1.2s1.15,1.22,1.71,1.84a4.43,4.43,0,0,1,.61.83c.62,1.16.39,1.75-.67,2.25l-.31.13a20.56,20.56,0,0,1-3.71.93c-.64.12-.81.43-.41,1,.56.73,1.28,1.34,1.87,2a13.56,13.56,0,0,1,1.23,1.67,2,2,0,0,1-.44,2.49,5,5,0,0,1-4.06,1.5c-.93,0-1.87,0-2.79,0a6.76,6.76,0,0,1-1.78-.54,27.4,27.4,0,0,1-4.1-1.94,17,17,0,0,1-3.88-3.58c-.64-.73-1-.8-1.71-.17a3.63,3.63,0,0,0-1,4.07,6.25,6.25,0,0,0,2.12,3.12c1.21,1,2.35,2.07,3.54,3.09a13.34,13.34,0,0,0,5.92,3c1.36.29,2.72.67,4.1.86a11.64,11.64,0,0,0,2.7-.08c1.45-.14,2.92-.27,4.33-.54a7.67,7.67,0,0,0,4-1.69A7.54,7.54,0,0,0,146,124a2.81,2.81,0,0,0-.44-1.72,11.16,11.16,0,0,0-1.31-2,25.36,25.36,0,0,0-2.22-2.42,14.48,14.48,0,0,0-2.27-1.78,26.09,26.09,0,0,0-2.4-1.11,2.33,2.33,0,0,1-.55-.49c.21-.15.4-.38.64-.43a1.78,1.78,0,0,1,.52,0,1.18,1.18,0,0,1,.43.07,13.59,13.59,0,0,1,4.24,2.51,31,31,0,0,1,2.69,2.41,6.15,6.15,0,0,1,2.06,4,12.44,12.44,0,0,1,.15,2,3.78,3.78,0,0,1-1.21,2.36,18.51,18.51,0,0,1-2,1.55,9.66,9.66,0,0,1-5.41,1.78,3.18,3.18,0,0,0-.55.07,18.44,18.44,0,0,1-5.12.45,13,13,0,0,1-3.8-.82c-.53-.19-1.14-.22-1.69-.38-1.39-.42-2.82-.81-4.18-1.32a16.5,16.5,0,0,1-2.34-1.26c-.55-.3-1.06-.65-1.62-.94a5.64,5.64,0,0,1-2.05-1.86,4.8,4.8,0,0,0-1-1,5.44,5.44,0,0,1-1.94-3.29,4.35,4.35,0,0,1-.09-1c0-.65-.07-1.3,0-2a2.51,2.51,0,0,1,.29-1,11.33,11.33,0,0,1,2.66-3.11c1-1,.83-2-.46-2.44a13.64,13.64,0,0,0-5.61-.48,30.62,30.62,0,0,0-6.13,1.26,19.35,19.35,0,0,0-5,2.17,10.59,10.59,0,0,0-3.15,3,1.77,1.77,0,0,0-.36.89,5.72,5.72,0,0,0,.65,3.36,18.19,18.19,0,0,0,3,4,13.67,13.67,0,0,1,1.16,1.38,10.52,10.52,0,0,0,3,2.27c.42.25.81.55,1.24.77s.82.28,1.2.49a42.25,42.25,0,0,0,9.1,3.9c2.38.67,4.87,1,7.3,1.55.07,0,.16,0,.2,0a1.37,1.37,0,0,0,.68.32c.51.1,1.06,0,1.57,0,1.15.15,2.31.19,3.47.3,1,.08,1.92.17,2.87.28.77.09,1.53.23,2.29.29s1.7.08,2.56.1c1.75,0,3.51.14,5.25,0s3.59-.39,5.39-.63a11.47,11.47,0,0,0,1.92-.39c.61-.19,1.19-.49,1.8-.71a14.24,14.24,0,0,0,4.42-2.84,26.52,26.52,0,0,0,2.18-2.05,3.1,3.1,0,0,0,.78-3.39A9.87,9.87,0,0,0,157,123.5a14.9,14.9,0,0,0-2.23-1.88c-.67-.47-1.45-.79-2.17-1.23-.51-.31-.95-.73-1.46-1.07s-1.16-.69-1.73-1-1.44-1-2.19-1.35c-1.22-.66-2.49-1.28-3.72-1.93-.41-.2-.8-.4-1.18-.61a14.74,14.74,0,0,1-2-1.31c-.17-.13-.18-.47-.27-.71.27,0,.55-.18.79-.1.81.28,1.61.61,2.38,1,1.48.65,2.94,1.3,4.38,2,1.18.56,2.35,1.16,3.5,1.76a28.58,28.58,0,0,1,2.92,1.62,28.18,28.18,0,0,1,4.43,3.38,10.26,10.26,0,0,1,2.69,4.36,6.49,6.49,0,0,1,.07,2.56,7.53,7.53,0,0,1-3.23,5.16,24.35,24.35,0,0,1-6.44,3,31.52,31.52,0,0,1-5.2.86,60.85,60.85,0,0,1-8.75.1c-1.54,0-3.08-.06-4.63-.16-1.3-.09-2.59-.24-3.87-.42-1.63-.24-3.27-.5-4.91-.78l-1.48-.25c-1.55-.27-3.11-.53-4.62-.91s-3.1-.93-4.65-1.38c-1.09-.31-2.23-.47-3.28-.88-1.79-.71-3.74-1.05-5.29-2.3a2.83,2.83,0,0,0-.71-.42,15,15,0,0,1-3.5-2.64c-.55-.47-1.1-.94-1.67-1.38a14.88,14.88,0,0,1-2.93-3.26,6.58,6.58,0,0,1,0-6.92,10.76,10.76,0,0,1,4.2-3.76,27.5,27.5,0,0,1,3.69-1.93,13.42,13.42,0,0,1,3-.69c1.48-.22,3-.34,4.47-.54a17.53,17.53,0,0,1,5.91.34c.37.08.82.12,1-.36a.82.82,0,0,0-.69-1,13.1,13.1,0,0,0-2.49-.35,27.9,27.9,0,0,1-6.55-.93,10.2,10.2,0,0,0-2.08-.15c-.88,0-1.76-.06-2.65,0a31.6,31.6,0,0,0-4.25.26,64.49,64.49,0,0,0-7.36,1.54A19.81,19.81,0,0,0,86,111.64a14,14,0,0,0-2.76,3,2.84,2.84,0,0,0-.38,2.33,8.19,8.19,0,0,1,.13,1.31,10.62,10.62,0,0,0,2.24,5.63c.94,1.31,1.72,2.75,2.7,4a21.09,21.09,0,0,0,2.66,2.85,33,33,0,0,0,3.54,2.8,19.54,19.54,0,0,0,3,1.56c1.2.56,2.45,1,3.66,1.54,2.58,1.13,5.13,2.32,7.72,3.41a32.75,32.75,0,0,0,3.39,1.11q3.36,1,6.73,1.9c.88.25,1.79.45,2.7.68.43.11.83.25,1.26.36,2.14.54,4.28,1.1,6.42,1.6.82.19,1.68.23,2.5.35,1.43.22,2.83.46,4.25.67,1.69.25,3.37.49,5,.69,1.36.16,2.73.31,4.1.38,1.67.08,3.35.08,5,.1,2.21,0,4.42.16,6.62,0a51.83,51.83,0,0,0,8.24-.92c2.11-.44,4.05-1.35,6.11-1.89a20.44,20.44,0,0,0,4.23-2.06,7.19,7.19,0,0,0,3.15-3.69,12.55,12.55,0,0,0,.82-2.07,5.15,5.15,0,0,0-.3-3.48,29.46,29.46,0,0,0-1.85-3.34,9.8,9.8,0,0,0-1.3-1.36c-.85-.89-1.68-1.8-2.54-2.68s-1.71-1.76-2.57-2.62a9.27,9.27,0,0,0-1.08-1,24.83,24.83,0,0,0-5-3.11,20.9,20.9,0,0,1-2-1.18c-1.58-.87-3.19-1.73-4.76-2.6s-3.28-1.89-5-2.72a35.33,35.33,0,0,0-3.5-1.38c-1.72-.65-3.45-1.28-5.16-1.9-.55-.2-1.12-.33-1.63-.55a11,11,0,0,1-1.4-.74c-.09,0-.13-.22-.2-.33a1.24,1.24,0,0,1,.41-.16h0a23.5,23.5,0,0,1,2.39.48c1.07.3,2.13.67,3.18,1l6.18,2.15c.62.22,1.24.44,1.82.71,1.34.61,2.64,1.26,4,1.9s2.71,1.3,4,2a19.5,19.5,0,0,1,1.78,1.11c1.72,1.14,3.46,2.27,5.15,3.45a14.84,14.84,0,0,1,3.06,2.71c.8,1,1.86,1.75,2.75,2.65,1.06,1.06,2.1,2.16,3.11,3.28a8,8,0,0,1,.88,1.32,10.67,10.67,0,0,1,1.48,5.89,8.13,8.13,0,0,1-1.28,4.34,12.41,12.41,0,0,1-4.19,4.21,14.67,14.67,0,0,1-2.95,1.22q-2.59.85-5.24,1.53c-1.08.28-2.19.39-3.28.59-.65.11-1.28.26-1.92.35a36.13,36.13,0,0,1-6.32.46c-2-.06-4,.07-6,0s-4.24-.3-6.35-.43c-.59,0-1.21.07-1.81.08a16.52,16.52,0,0,1-5-.4c-.13,0-.27,0-.4,0-.8-.1-1.57-.18-2.36-.31-1.2-.2-2.43-.41-3.63-.65-.73-.15-1.44-.4-2.17-.55-1.72-.38-3.46-.69-5.2-1.09-1.5-.35-3-.73-4.45-1.16-1.87-.55-3.74-1.18-5.6-1.76-.64-.2-1.29-.35-2-.56L106,141.15c-1.6-.52-3.22-1-4.8-1.51A20.55,20.55,0,0,1,95.87,137c-1.42-1-3-1.88-4.41-2.93a15.29,15.29,0,0,1-3.27-3c-.68-.9-1.65-1.57-2.42-2.41-1-1.11-2.34-2-2.73-3.61a9.12,9.12,0,0,0-.86-1.67c-.19-.37-.37-.74-.55-1.12-.27-.64-.58-1.27-.8-1.93a6.4,6.4,0,0,1,.06-4,16,16,0,0,1,2.61-4.64A9.13,9.13,0,0,1,86.77,109a10.06,10.06,0,0,0,1.15-.66,10.73,10.73,0,0,1,3.82-1.45c1.62-.33,3.2-.84,4.83-1.09a28.78,28.78,0,0,1,3.94-.14c1.72,0,3.43.14,5.11,0a29.52,29.52,0,0,1,4.8.21c2,.11,3.89.37,5.82.61,1.2.14,2.39.37,3.59.57a1.35,1.35,0,0,0,1.67-1.7c-.26-1.75-1.61-2.26-3-2.68a30.42,30.42,0,0,0-3.55-.67c-1.85-.35-3.69-.76-5.55-1.07-1.34-.22-2.71-.35-4.08-.47-1.74-.15-3.48-.24-5.2-.39-1.25-.11-2.49-.32-3.74-.4-2.25-.14-4.48-.28-6.72-.3-1.35,0-2.72.22-4.09.32-.63,0-1.27,0-1.89,0l-.28,0c-1.34.24-2.68.6-4,.89a71.23,71.23,0,0,0-8.5,2.46,13.3,13.3,0,0,0-3.37,2c-1.16.85-2.27,1.75-3.41,2.65a16,16,0,0,0-4.54,6.4c-.25.59-.6,1.16-.8,1.77a8.2,8.2,0,0,0-.25,4.11,15.59,15.59,0,0,0,3.62,7.73c1.45,1.64,3,3.2,4.53,4.74a15.4,15.4,0,0,0,1.85,1.39c1,.76,1.94,1.57,3,2.28s2.27,1.42,3.41,2.14c1.45.91,2.86,1.89,4.36,2.74,1.32.76,2.74,1.36,4.09,2.06.89.46,1.72,1,2.6,1.46a11,11,0,0,0,1.2.46c1.16.46,2.29.94,3.43,1.37,2.23.84,4.44,1.68,6.68,2.48,1.31.47,2.63.88,4,1.29,1.14.36,2.31.67,3.45,1a6.28,6.28,0,0,1,.88.4c.07,0,.14.13.23.14a24.47,24.47,0,0,1,4.61,1.07c.74.24,1.55.28,2.31.45,2.08.44,4.12,1,6.18,1.36,1.61.32,3.22.59,4.82.81,2.88.38,5.78.7,8.66,1.06L141,157.5a27,27,0,0,1,3.58.48c1.25.33,2.57.19,3.81.54a19.76,19.76,0,0,0,4,.42c.87.07,1.78-.09,2.66-.05,1.56.07,3.12.25,4.7.31a19.19,19.19,0,0,0,2.51-.13c.92-.07,1.85-.18,2.78-.24,1.94-.13,3.88-.21,5.82-.36a14.54,14.54,0,0,0,3.65-.47c2.16-.77,4.47-.62,6.65-1.31s4.4-1.12,6.56-1.83a17.69,17.69,0,0,0,3.27-1.67c.89-.51,1.73-1.11,2.57-1.69a5.47,5.47,0,0,0,2.24-2.58c.58-1.48,1.48-2.83,2-4.32A10.59,10.59,0,0,0,198.36,138.25Zm52.38-61V2.81c0-.33,0-.66,0-1a1,1,0,0,0-.19-.54H1.24s0,0,0,0V178.7c.2.22.64.23,1.5.23H126V179H249.23c1.16,0,1.46,0,1.54-.72V126.46ZM40.65,115.08A7.9,7.9,0,0,1,42,112.2c.5-.63.66-1.49,1.12-2.16a21.85,21.85,0,0,1,1.94-2.46c.91-1,1.88-2,2.83-3a2.9,2.9,0,0,1,.36-.34q1.88-1.48,3.8-3c.27-.22.56-.42.82-.65A21.44,21.44,0,0,1,57.29,98c1-.52,2-.89,3-1.34.71-.31,1.4-.65,2.09-1a16.9,16.9,0,0,1,3.88-1.31c1.5-.33,3-.79,4.45-1.14,1.9-.45,3.81-.88,5.73-1.24a28.7,28.7,0,0,1,3.37-.35c1-.06,1.89,0,2.84,0s2-.09,3.07-.1a45.26,45.26,0,0,1,7.17.34c2.44.35,4.9.47,7.34.81,3,.4,5.93.9,8.88,1.41,2.06.35,4.11.77,6.16,1.21,1.58.34,3.14.75,4.71,1.13a6.84,6.84,0,0,1,1,.2,2.8,2.8,0,0,1,.64.56c-.2.16-.39.45-.59.47a5.32,5.32,0,0,1-1.44,0,14.45,14.45,0,0,1-1.84-.43c-2-.61-4.09-1-6.15-1.43s-3.91-.83-5.87-1.15c-1.66-.28-3.32-.41-5-.61-2-.23-4-.5-6-.69-2.62-.24-5.24-.49-7.87-.6a60,60,0,0,0-6.29.08,39.19,39.19,0,0,0-4.39.68c-1.77.31-3.53.6-5.28,1a28.56,28.56,0,0,0-3.25,1c-1.42.53-2.83,1.08-4.22,1.69s-2.77,1.21-4.11,1.92a51,51,0,0,0-4.73,2.79,36.59,36.59,0,0,0-4.11,3.32,28.59,28.59,0,0,0-2.68,3,20.4,20.4,0,0,0-1.62,2.17,29.17,29.17,0,0,0-1.77,3.31c-.75,1.71-1.42,3.47-2.06,5.23a8.94,8.94,0,0,0,.18,6.34c.32.9.54,1.85.89,2.75.69,1.72,1.43,3.42,2.18,5.12a5.37,5.37,0,0,0,.71,1.11c1.28,1.51,2.49,3.07,3.86,4.48A18.2,18.2,0,0,0,54,142c1.56.94,3,2.12,4.46,3.16,1.12.77,2.24,1.51,3.38,2.2,1.44.86,2.91,1.67,4.37,2.48a1.47,1.47,0,0,1,1,1.23c.17-.46.35-.5.72-.31,1.81.9,3.62,1.79,5.45,2.66,1,.5,2.09,1,3.18,1.43,2.26.86,4.56,1.64,6.82,2.48,1.73.64,3.45,1.27,5.13,2a11.75,11.75,0,0,1,2.18,1.37c.19.15.39.58.31.76a1.09,1.09,0,0,1-.74.47,2.23,2.23,0,0,1-1-.11q-3-.9-5.94-1.85c-1.16-.37-2.33-.7-3.44-1.16a5.41,5.41,0,0,1-2.43-1.26c-.12-.14-.49,0-.69-.13-1.09-.46-2.16-1-3.24-1.44-1.91-.81-3.85-1.54-5.73-2.41-1.4-.64-2.75-1.44-4.12-2.18s-2.69-1.48-4-2.27A34.6,34.6,0,0,1,52.7,144c-.74-.73-1.63-1.3-2.38-2-1.4-1.36-2.83-2.71-4.11-4.19A28.92,28.92,0,0,1,41.68,131a16.13,16.13,0,0,1-1.47-3.9,21.53,21.53,0,0,1-.52-5.06,15.68,15.68,0,0,0-.08-1.67,1.93,1.93,0,0,1,0-.41M201.12,47.43A5.19,5.19,0,0,1,198,50c-1.11.35-1.23,1-.64,2a8.09,8.09,0,0,1,1.34,4.11,4,4,0,0,1-.82,2.4,6.28,6.28,0,0,1-5.27,2.84,14.05,14.05,0,0,0-2.22.23c-1,.14-1.12.6-.83,1.5s.47,2,.7,3a6,6,0,0,0,.19,1,4.16,4.16,0,0,1-.3,3.24c-.8,2-2.54,2.81-4.5,3.3a32,32,0,0,1-5.95.59,2.64,2.64,0,0,0-.28,0c-1,.18-1.2.46-.77,1.32.93,1.84.62,3.78.68,5.7a.62.62,0,0,1-.11.4c-.83,1-1.59,2.17-2.95,2.56a23.52,23.52,0,0,1-4.63,1.07,31.68,31.68,0,0,1-4.72-.37,4.07,4.07,0,0,0-1.48.1c-.58.18-.67.66-.36,1.18s.48.85.7,1.28a4.37,4.37,0,0,1-.13,4.18,3.24,3.24,0,0,1-2.45,1.55,16.56,16.56,0,0,1-4.85.62.88.88,0,0,0,0,.16c-2-.31-4-.62-6-.95-.39-.06-.82-.14-1,.25a2,2,0,0,0,0,1c.07.84.26,1.68.26,2.52a1.23,1.23,0,0,1-.6.87,11.72,11.72,0,0,1-2.44,1.19,6.72,6.72,0,0,1-2,.09,15.17,15.17,0,0,1-5.45-1.27A31.79,31.79,0,0,1,136.24,95a14,14,0,0,1-2.18-1.82c-.88-.83-1.71-1.71-2.57-2.56a1.16,1.16,0,0,0-1.75-.13,7.29,7.29,0,0,0-2.57,3.29,2.08,2.08,0,0,0,.31,1.93c.33.51,1,.38,1.48.39a26.69,26.69,0,0,1,2.69,0,39.58,39.58,0,0,1,5,.87,9.36,9.36,0,0,1,4.13,2.08,31.3,31.3,0,0,0,2.75,2.11,2.64,2.64,0,0,1,.82,2.64,1.17,1.17,0,0,1-.45.73,5.94,5.94,0,0,1-3,1.14h-.11l-3.31.28a3.06,3.06,0,0,0-.6.13c-.67.19-.81.68-.36,1.2s1.15,1.22,1.71,1.84a4.43,4.43,0,0,1,.61.83c.62,1.16.39,1.75-.67,2.25l-.31.13a20.56,20.56,0,0,1-3.71.93c-.64.12-.81.43-.41,1,.56.73,1.28,1.34,1.87,2a13.56,13.56,0,0,1,1.23,1.67,2,2,0,0,1-.44,2.49,5,5,0,0,1-4.06,1.5c-.93,0-1.87,0-2.79,0a6.76,6.76,0,0,1-1.78-.54,27.4,27.4,0,0,1-4.1-1.94,17,17,0,0,1-3.88-3.58c-.64-.73-1-.8-1.71-.17a3.63,3.63,0,0,0-1,4.07,6.25,6.25,0,0,0,2.12,3.12c1.21,1,2.35,2.07,3.54,3.09a13.34,13.34,0,0,0,5.92,3c1.36.29,2.72.67,4.1.86a11.64,11.64,0,0,0,2.7-.08c1.45-.14,2.92-.27,4.33-.54a7.67,7.67,0,0,0,4-1.69A7.54,7.54,0,0,0,146,124a2.81,2.81,0,0,0-.44-1.72,11.16,11.16,0,0,0-1.31-2,25.36,25.36,0,0,0-2.22-2.42,14.48,14.48,0,0,0-2.27-1.78,26.09,26.09,0,0,0-2.4-1.11,2.33,2.33,0,0,1-.55-.49c.21-.15.4-.38.64-.43a1.78,1.78,0,0,1,.52,0,1.18,1.18,0,0,1,.43.07,13.59,13.59,0,0,1,4.24,2.51,31,31,0,0,1,2.69,2.41,6.15,6.15,0,0,1,2.06,4,12.44,12.44,0,0,1,.15,2,3.78,3.78,0,0,1-1.21,2.36,18.51,18.51,0,0,1-2,1.55,9.66,9.66,0,0,1-5.41,1.78,3.18,3.18,0,0,0-.55.07,18.44,18.44,0,0,1-5.12.45,13,13,0,0,1-3.8-.82c-.53-.19-1.14-.22-1.69-.38-1.39-.42-2.82-.81-4.18-1.32a16.5,16.5,0,0,1-2.34-1.26c-.55-.3-1.06-.65-1.62-.94a5.64,5.64,0,0,1-2.05-1.86,4.8,4.8,0,0,0-1-1,5.44,5.44,0,0,1-1.94-3.29,4.35,4.35,0,0,1-.09-1c0-.65-.07-1.3,0-2a2.51,2.51,0,0,1,.29-1,11.33,11.33,0,0,1,2.66-3.11c1-1,.83-2-.46-2.44a13.64,13.64,0,0,0-5.61-.48,30.62,30.62,0,0,0-6.13,1.26,19.35,19.35,0,0,0-5,2.17,10.59,10.59,0,0,0-3.15,3,1.77,1.77,0,0,0-.36.89,5.72,5.72,0,0,0,.65,3.36,18.19,18.19,0,0,0,3,4,13.67,13.67,0,0,1,1.16,1.38,10.52,10.52,0,0,0,3,2.27c.42.25.81.55,1.24.77s.82.28,1.2.49a42.25,42.25,0,0,0,9.1,3.9c2.38.67,4.87,1,7.3,1.55.07,0,.16,0,.2,0a1.37,1.37,0,0,0,.68.32c.51.1,1.06,0,1.57,0,1.15.15,2.31.19,3.47.3,1,.08,1.92.17,2.87.28.77.09,1.53.23,2.29.29s1.7.08,2.56.1c1.75,0,3.51.14,5.25,0s3.59-.39,5.39-.63a11.47,11.47,0,0,0,1.92-.39c.61-.19,1.19-.49,1.8-.71a14.24,14.24,0,0,0,4.42-2.84,26.52,26.52,0,0,0,2.18-2.05,3.1,3.1,0,0,0,.78-3.39A9.87,9.87,0,0,0,157,123.5a14.9,14.9,0,0,0-2.23-1.88c-.67-.47-1.45-.79-2.17-1.23-.51-.31-.95-.73-1.46-1.07s-1.16-.69-1.73-1-1.44-1-2.19-1.35c-1.22-.66-2.49-1.28-3.72-1.93-.41-.2-.8-.4-1.18-.61a14.74,14.74,0,0,1-2-1.31c-.17-.13-.18-.47-.27-.71.27,0,.55-.18.79-.1.81.28,1.61.61,2.38,1,1.48.65,2.94,1.3,4.38,2,1.18.56,2.35,1.16,3.5,1.76a28.58,28.58,0,0,1,2.92,1.62,28.18,28.18,0,0,1,4.43,3.38,10.26,10.26,0,0,1,2.69,4.36,6.49,6.49,0,0,1,.07,2.56,7.53,7.53,0,0,1-3.23,5.16,24.35,24.35,0,0,1-6.44,3,31.52,31.52,0,0,1-5.2.86,60.85,60.85,0,0,1-8.75.1c-1.54,0-3.08-.06-4.63-.16-1.3-.09-2.59-.24-3.87-.42-1.63-.24-3.27-.5-4.91-.78l-1.48-.25c-1.55-.27-3.11-.53-4.62-.91s-3.1-.93-4.65-1.38c-1.09-.31-2.23-.47-3.28-.88-1.79-.71-3.74-1.05-5.29-2.3a2.83,2.83,0,0,0-.71-.42,15,15,0,0,1-3.5-2.64c-.55-.47-1.1-.94-1.67-1.38a14.88,14.88,0,0,1-2.93-3.26,6.58,6.58,0,0,1,0-6.92,10.76,10.76,0,0,1,4.2-3.76,27.5,27.5,0,0,1,3.69-1.93,13.42,13.42,0,0,1,3-.69c1.48-.22,3-.34,4.47-.54a17.53,17.53,0,0,1,5.91.34c.37.08.82.12,1-.36a.82.82,0,0,0-.69-1,13.1,13.1,0,0,0-2.49-.35,27.9,27.9,0,0,1-6.55-.93,10.2,10.2,0,0,0-2.08-.15c-.88,0-1.76-.06-2.65,0a31.6,31.6,0,0,0-4.25.26,64.49,64.49,0,0,0-7.36,1.54A19.81,19.81,0,0,0,86,111.64a14,14,0,0,0-2.76,3,2.84,2.84,0,0,0-.38,2.33,8.19,8.19,0,0,1,.13,1.31,10.62,10.62,0,0,0,2.24,5.63c.94,1.31,1.72,2.75,2.7,4a21.09,21.09,0,0,0,2.66,2.85,33,33,0,0,0,3.54,2.8,19.54,19.54,0,0,0,3,1.56c1.2.56,2.45,1,3.66,1.54,2.58,1.13,5.13,2.32,7.72,3.41a32.75,32.75,0,0,0,3.39,1.11q3.36,1,6.73,1.9c.88.25,1.79.45,2.7.68.43.11.83.25,1.26.36,2.14.54,4.28,1.1,6.42,1.6.82.19,1.68.23,2.5.35,1.43.22,2.83.46,4.25.67,1.69.25,3.37.49,5,.69,1.36.16,2.73.31,4.1.38,1.67.08,3.35.08,5,.1,2.21,0,4.42.16,6.62,0a51.83,51.83,0,0,0,8.24-.92c2.11-.44,4.05-1.35,6.11-1.89a20.44,20.44,0,0,0,4.23-2.06,7.19,7.19,0,0,0,3.15-3.69,12.55,12.55,0,0,0,.82-2.07,5.15,5.15,0,0,0-.3-3.48,29.46,29.46,0,0,0-1.85-3.34,9.8,9.8,0,0,0-1.3-1.36c-.85-.89-1.68-1.8-2.54-2.68s-1.71-1.76-2.57-2.62a9.27,9.27,0,0,0-1.08-1,24.83,24.83,0,0,0-5-3.11,20.9,20.9,0,0,1-2-1.18c-1.58-.87-3.19-1.73-4.76-2.6s-3.28-1.89-5-2.72a35.33,35.33,0,0,0-3.5-1.38c-1.72-.65-3.45-1.28-5.16-1.9-.55-.2-1.12-.33-1.63-.55a11,11,0,0,1-1.4-.74c-.09,0-.13-.22-.2-.33a1.24,1.24,0,0,1,.41-.16h0a23.5,23.5,0,0,1,2.39.48c1.07.3,2.13.67,3.18,1l6.18,2.15c.62.22,1.24.44,1.82.71,1.34.61,2.64,1.26,4,1.9s2.71,1.3,4,2a19.5,19.5,0,0,1,1.78,1.11c1.72,1.14,3.46,2.27,5.15,3.45a14.84,14.84,0,0,1,3.06,2.71c.8,1,1.86,1.75,2.75,2.65,1.06,1.06,2.1,2.16,3.11,3.28a8,8,0,0,1,.88,1.32,10.67,10.67,0,0,1,1.48,5.89,8.13,8.13,0,0,1-1.28,4.34,12.41,12.41,0,0,1-4.19,4.21,14.67,14.67,0,0,1-2.95,1.22q-2.59.85-5.24,1.53c-1.08.28-2.19.39-3.28.59-.65.11-1.28.26-1.92.35a36.13,36.13,0,0,1-6.32.46c-2-.06-4,.07-6,0s-4.24-.3-6.35-.43c-.59,0-1.21.07-1.81.08a16.52,16.52,0,0,1-5-.4c-.13,0-.27,0-.4,0-.8-.1-1.57-.18-2.36-.31-1.2-.2-2.43-.41-3.63-.65-.73-.15-1.44-.4-2.17-.55-1.72-.38-3.46-.69-5.2-1.09-1.5-.35-3-.73-4.45-1.16-1.87-.55-3.74-1.18-5.6-1.76-.64-.2-1.29-.35-2-.56L106,141.15c-1.6-.52-3.22-1-4.8-1.51A20.55,20.55,0,0,1,95.87,137c-1.42-1-3-1.88-4.41-2.93a15.29,15.29,0,0,1-3.27-3c-.68-.9-1.65-1.57-2.42-2.41-1-1.11-2.34-2-2.73-3.61a9.12,9.12,0,0,0-.86-1.67c-.19-.37-.37-.74-.55-1.12-.27-.64-.58-1.27-.8-1.93a6.4,6.4,0,0,1,.06-4,16,16,0,0,1,2.61-4.64A9.13,9.13,0,0,1,86.77,109a10.06,10.06,0,0,0,1.15-.66,10.73,10.73,0,0,1,3.82-1.45c1.62-.33,3.2-.84,4.83-1.09a28.78,28.78,0,0,1,3.94-.14c1.72,0,3.43.14,5.11,0a29.52,29.52,0,0,1,4.8.21c2,.11,3.89.37,5.82.61,1.2.14,2.39.37,3.59.57a1.35,1.35,0,0,0,1.67-1.7c-.26-1.75-1.61-2.26-3-2.68a30.42,30.42,0,0,0-3.55-.67c-1.85-.35-3.69-.76-5.55-1.07-1.34-.22-2.71-.35-4.08-.47-1.74-.15-3.48-.24-5.2-.39-1.25-.11-2.49-.32-3.74-.4-2.25-.14-4.48-.28-6.72-.3-1.35,0-2.72.22-4.09.32-.63,0-1.27,0-1.89,0l-.28,0c-1.34.24-2.68.6-4,.89a71.23,71.23,0,0,0-8.5,2.46,13.3,13.3,0,0,0-3.37,2c-1.16.85-2.27,1.75-3.41,2.65a16,16,0,0,0-4.54,6.4c-.25.59-.6,1.16-.8,1.77a8.2,8.2,0,0,0-.25,4.11,15.59,15.59,0,0,0,3.62,7.73c1.45,1.64,3,3.2,4.53,4.74a15.4,15.4,0,0,0,1.85,1.39c1,.76,1.94,1.57,3,2.28s2.27,1.42,3.41,2.14c1.45.91,2.86,1.89,4.36,2.74,1.32.76,2.74,1.36,4.09,2.06.89.46,1.72,1,2.6,1.46a11,11,0,0,0,1.2.46c1.16.46,2.29.94,3.43,1.37,2.23.84,4.44,1.68,6.68,2.48,1.31.47,2.63.88,4,1.29,1.14.36,2.31.67,3.45,1a6.28,6.28,0,0,1,.88.4c.07,0,.14.13.23.14a24.47,24.47,0,0,1,4.61,1.07c.74.24,1.55.28,2.31.45,2.08.44,4.12,1,6.18,1.36,1.61.32,3.22.59,4.82.81,2.88.38,5.78.7,8.66,1.06L141,157.5a27,27,0,0,1,3.58.48c1.25.33,2.57.19,3.81.54a19.76,19.76,0,0,0,4,.42c.87.07,1.78-.09,2.66-.05,1.56.07,3.12.25,4.7.31a19.19,19.19,0,0,0,2.51-.13c.92-.07,1.85-.18,2.78-.24,1.94-.13,3.88-.21,5.82-.36a14.54,14.54,0,0,0,3.65-.47c2.16-.77,4.47-.62,6.65-1.31s4.4-1.12,6.56-1.83a17.69,17.69,0,0,0,3.27-1.67c.89-.51,1.73-1.11,2.57-1.69a5.47,5.47,0,0,0,2.24-2.58c.58-1.48,1.48-2.83,2-4.32a10.59,10.59,0,0,0,.55-6.35,19.92,19.92,0,0,0-2.62-5.53,12.4,12.4,0,0,0-1.73-1.91c-.71-.74-1.45-1.47-2.22-2.18-1.36-1.25-2.71-2.5-4.11-3.69-1-.83-2-1.54-3-2.35a30.38,30.38,0,0,0-5.77-3.65c-1.55-.78-3.17-1.44-4.74-2.19-1-.49-2-1-3-1.56-1.54-.82-3-1.72-4.61-2.47-2.44-1.15-4.91-2.25-7.38-3.29-1.85-.76-3.72-1.48-5.62-2.07-2.08-.65-4.21-1.13-6.33-1.69-.38-.09-.79-.22-.69-.71a.84.84,0,0,1,.86-.73,9.1,9.1,0,0,1,3,.44,70.61,70.61,0,0,1,7.64,2.83c.93.36,1.89.66,2.81,1.08,2.07.94,4.12,1.93,6.19,2.91,1.06.5,2.17,1,3.2,1.51q4.19,2.18,8.3,4.43c1.26.69,2.46,1.49,3.7,2.24.75.46,1.51.9,2.25,1.38,1.42.91,2.8,1.83,4.18,2.76.86.57,1.69,1.17,2.51,1.77a7,7,0,0,1,1,.88c1.1,1.18,2.13,2.39,3.24,3.55a11.5,11.5,0,0,1,2.24,3.66c.38.92,1,1.77,1.25,2.72a21.26,21.26,0,0,1,.88,6,11,11,0,0,1-1.13,4.68,20.53,20.53,0,0,1-4.33,6.61,17.94,17.94,0,0,1-4,3.24c-1.88.95-3.88,1.68-5.79,2.62-2.41,1.19-5.07,1.53-7.65,2.11-1.56.36-3.17.61-4.76.84a36.75,36.75,0,0,1-4,.39c-2.07.08-4.17.06-6.25,0-1.33,0-2.66-.1-4-.17-1.69-.09-3.38-.17-5.07-.33-2.17-.2-4.32-.47-6.49-.74-2.76-.34-5.55-.65-8.31-1.1s-5.82-1.08-8.71-1.64c-.94-.18-1.88-.34-2.81-.57-1.44-.36-2.87-.82-4.31-1.16s-2.92-.57-4.37-.87c-1.77-.36-3.55-.74-5.32-1.13s-3.53-.88-5.31-1.18a40.33,40.33,0,0,1-6-1.93c-.92-.31-1.89-.53-2.8-.86-1.17-.4-2.3-.89-3.47-1.31-1.76-.64-3.52-1.28-5.32-1.87a36.82,36.82,0,0,1-5.77-2.24c-1.65-.87-3.41-1.51-5.05-2.37-2.07-1.09-4.11-2.28-6.14-3.45a34.69,34.69,0,0,1-3.18-2c-1-.69-1.82-1.51-2.74-2.27s-1.94-1.65-3-2.44a5.49,5.49,0,0,1-1.67-1.91,17.17,17.17,0,0,0-1.77-2.67A17.85,17.85,0,0,1,57.71,124a28.24,28.24,0,0,1-1.34-4.18c-.32-1.51-.89-3.08-.26-4.61a10.13,10.13,0,0,1,1.6-2.66C59,111,60,109.24,61.58,108c.35-.28.72-.51,1.06-.78,1.28-1,2.48-2.13,3.84-3a32.6,32.6,0,0,1,5-2.55,44.55,44.55,0,0,1,4.89-1.48c1.25-.36,2.5-.74,3.79-1s2.32-.35,3.5-.5l.62-.08c.64-.09,1.27-.21,1.92-.26,1.59-.13,3.2-.22,4.78-.32a4.17,4.17,0,0,1,.5,0c1.61.06,3.21.09,4.81.21s3.18.34,4.75.5c.58,0,1.16,0,1.75.11l6.8.73c1,.11,2.08.26,3.11.27a40.4,40.4,0,0,1,4.93.91c1,.15,2.07.36,3.1.46.24,0,.58-.27.74-.5.47-.76.85-1.59,1.37-2.34a2.39,2.39,0,0,1,1-.75,2.73,2.73,0,0,0,1.72-2.47c.19-2.57,1.68-4.42,3.55-6,.72-.62.83-.84.39-1.7a9,9,0,0,1-1.12-3,5.37,5.37,0,0,1,.19-2.86c.42-1,.61-2,.94-3a3.67,3.67,0,0,1,.67-1.19,1.74,1.74,0,0,0,.39-2,12.53,12.53,0,0,1-.92-4,6.71,6.71,0,0,1,1.09-4.59,13.86,13.86,0,0,1,1.53-2,1.45,1.45,0,0,0,.37-1.88c-.42-.72-.82-1.45-1.19-2.2a14,14,0,0,1-.82-1.92,9.86,9.86,0,0,1,.51-7.8c.47-.9,1-1.76,1.55-2.63a1.07,1.07,0,0,1,.4-.39c.68-.31.71-.86.56-1.47a7.52,7.52,0,0,1-.4-1.62,15.25,15.25,0,0,1,.28-2.11c0-.13.16-.25.17-.38.45-2.82,2.39-4.6,4.42-6.32.52-.45,1.13-.81,1.69-1.22a1.32,1.32,0,0,0,.56-1.34,3.29,3.29,0,0,1,.64-2.83,8.37,8.37,0,0,0,.61-1.1,8.43,8.43,0,0,1,3.16-3.14c1.28-.73,2.52-1.53,3.85-2.13a3.55,3.55,0,0,1,2.42-.63.14.14,0,0,0,.12,0c.34-.74,1.1-.46,1.66-.64a3.73,3.73,0,0,0,1.85-1.28,11.47,11.47,0,0,1,5.68-4.1,21.08,21.08,0,0,1,5.28-.79,38.54,38.54,0,0,1,4.42-.09,39.46,39.46,0,0,1,5,.75c1.4.28,2.73.77,4.11,1.09a28.23,28.23,0,0,1,5.06,1.81c.8.36,1.64.65,2.45,1,1,.46,2.07,1,3.11,1.44.08,0,.2.07.24.14a4.53,4.53,0,0,1,.26.6c-.2,0-.42.06-.57,0-2.41-1.08-4.77-2.23-7.19-3.25-1.38-.59-2.87-1-4.3-1.43-.48-.16-.93-.39-1.42-.51s-.76,0-1.13-.13c-.6-.14-1.2-.39-1.82-.51a13.62,13.62,0,0,0-2.12-.24c-1.87,0-3.72-.06-5.59,0a9.08,9.08,0,0,0-1.85.32,23.83,23.83,0,0,0-3.91,1,20.65,20.65,0,0,0-3.42,2.12.83.83,0,0,0-.27.76,1,1,0,0,0,.69.6c.83.15,1.7.18,2.56.26.55,0,1.1.09,1.66.16,1.5.17,3,.32,4.5.55.82.13,1.61.43,2.43.62.38.09.79.07,1.17.16,1.63.41,3.25.81,4.85,1.26,1.79.51,3.58,1.06,5.35,1.63S183.26,28,185,28.54a34.89,34.89,0,0,1,7.25,3.57c1.37.87,2.63,1.91,3.94,2.87A12.36,12.36,0,0,1,199,37.56a12.86,12.86,0,0,0,.86,1.09c1,1.14,1.18,2.6,1.51,4,.13.54.23,1.09.34,1.63A4.36,4.36,0,0,1,201.12,47.43Z"/><path d="M188.31,69.43a5.67,5.67,0,0,1-4.07,2.12c-.93,0-1.84.22-2.76.3a17.31,17.31,0,0,1-5.18-.19,6.19,6.19,0,0,1-2.22-1.28c-1.16-.82-2.26-1.76-3.44-2.57a25,25,0,0,0-2.5-1.37c-.39-.21-.78-.41-1.16-.64a31.68,31.68,0,0,0-7.08-3.42c-.86-.25-1.69-.67-2.57-.91-1.65-.46-3.31-.89-5-1.25-1.18-.26-2.4-.32-3.56-.6a5.39,5.39,0,0,1-2.13-.93c-1.36-1.1-2.59-2.33-3.86-3.51-.7-.65-1.45-1.25-2.08-2a32.37,32.37,0,0,1-2.09-2.7,18.07,18.07,0,0,1-1.26-2.13c-.32-.65-.21-.83.38-1.27a8.4,8.4,0,0,1,3.42-1.36c1.5-.29,3-.46,4.56-.67.2,0,.41,0,.63,0a5.32,5.32,0,0,1,3.95,1.59,10,10,0,0,0,1.18.87l2.64,1.81c.91.62,1.78,1.28,2.72,1.83s2.2,1.18,3.34,1.71c1.35.63,2.73,1.21,4.09,1.81l1,.37c1.76.73,3.49,1.56,5.3,2.18,2.41.83,4.89,1.48,7.33,2.27,1.12.36,2.18.91,3.3,1.29a18.37,18.37,0,0,0,2.32.48,12.19,12.19,0,0,1,2.12.36,3.79,3.79,0,0,1,2.26,2.5,23.23,23.23,0,0,1,.58,2.78c0,.18.12.36.17.53A1.88,1.88,0,0,1,188.31,69.43Z"/><path d="M197,48.09l-.63.3c-1.11.57-1.45.51-2.39-.38s-2-2-3.16-2.84-2.63-1.77-3.94-2.65A43.71,43.71,0,0,0,179.57,39c-1-.43-2-1-3-1.42-1.42-.58-2.86-1.16-4.33-1.6-2.28-.69-4.61-1.27-6.94-1.87-1.39-.36-2.79-.69-4.2-1a.76.76,0,0,0-.33,0c-.68.1-1.34-.25-1.94-.18s-1.1-.28-1.66-.34a1.76,1.76,0,0,1-1.49-1.21,35,35,0,0,1-1.2-4,5.77,5.77,0,0,1,.16-2.33A1.39,1.39,0,0,1,156,23.85c1.23-.05,2.47-.17,3.72-.26,1.2.13,2.44.22,3.64.4a49.93,49.93,0,0,1,5.06.86c2.25.55,4.48,1.25,6.7,1.92,1.94.58,3.88,1.15,5.79,1.84,2.19.79,4.37,1.64,6.5,2.57a44.25,44.25,0,0,1,5.46,3.16A15.43,15.43,0,0,1,197,38.18a8.8,8.8,0,0,1,1.86,3.17c.19.69.5,1.34.69,2A4,4,0,0,1,197,48.09Z"/><path d="M177.54,79.15a6.73,6.73,0,0,1-1.35,3.18,2.67,2.67,0,0,1-2,.82,29.49,29.49,0,0,1-9.57-1c-1.71-.5-3.31-1.23-5-1.64a31.56,31.56,0,0,1-3.67-1.6,27.24,27.24,0,0,1-3.22-2c-1.54-.84-3.08-1.65-4.62-2.48a5.31,5.31,0,0,1-.75-.48c-1.08-.83-2.14-1.69-3.23-2.52s-2-1.41-2.9-2.16A21.17,21.17,0,0,1,137,65.33a1.14,1.14,0,0,1,.42-1.89A14.33,14.33,0,0,1,142,62.11l3.53-.41a2.73,2.73,0,0,1,2,.43c1,.73,2,1.47,3.11,2.1a41.63,41.63,0,0,0,5.86,3.2c.95.37,1.84.89,2.76,1.34a43.31,43.31,0,0,0,8,3.17c1.8.45,3.61.83,5.42,1.25.8.19,1.6.36,2.36.61a2.32,2.32,0,0,1,.8.67A6.32,6.32,0,0,1,177.54,79.15Z"/><path d="M196.39,57a4.69,4.69,0,0,0-.54.89,2.74,2.74,0,0,1-2.18,1.33c-1.06.18-2.13.26-3.18.48a4.89,4.89,0,0,1-4.8-1.55,31.06,31.06,0,0,0-3.63-3.35,33.79,33.79,0,0,0-4.45-2.73c-1.24-.65-2.51-1.26-3.8-1.84l-1.87-.83c-1.93-.84-3.86-1.66-5.83-2.34-2.37-.8-4.75-1.51-7.18-2.12-2.14-.56-4.36-1-6.55-1.36-.68-.13-1.39-.11-2.07-.18a2.25,2.25,0,0,1-1.57-.8c-1-1.14-2.12-2.22-3.17-3.34a2.34,2.34,0,0,1-.65-1,7.91,7.91,0,0,0-1.23-2.4c-.54-.84-.38-1.22.56-1.54a12.68,12.68,0,0,1,3.89-.86c1.44,0,2.9,0,4.34,0a4.84,4.84,0,0,1,3.78,1.93c1.62,1.76,3.05,3.7,5.14,5a20.89,20.89,0,0,1,1.65,1.5,18.05,18.05,0,0,0,2.26,1.6c1.4.82,2.83,1.62,4.31,2.32,1.69.81,3.45,1.47,5.17,2.26a28.76,28.76,0,0,0,6.29,1.79c1.66.34,3.36.45,5,.67,1.43.19,2.84.43,4.26.6.77.09,1.55.09,2.31.13h.14a1.9,1.9,0,0,1,2,.52,9.28,9.28,0,0,1,1.86,3.49A1.8,1.8,0,0,1,196.39,57Z"/><path d="M162.56,91.54a14.75,14.75,0,0,1-6,.68,22.37,22.37,0,0,1-4.16-.92,46.39,46.39,0,0,1-4.51-2c-1.12-.55-2.26-1.1-3.33-1.75a23.77,23.77,0,0,1-3.23-2.28c-1.91-1.68-3.73-3.44-5.52-5.21a7.57,7.57,0,0,1-1.23-1.68c-.47-.79-.33-1.29.53-1.59a21.18,21.18,0,0,1,2.92-.65,7,7,0,0,1,1.12,0v0c1.1,0,2.19-.12,3.29-.14a9.82,9.82,0,0,1,4.45.94c1.34.64,2.72,1.22,4,1.93,1,.55,1.92,1.31,2.93,1.87A26.71,26.71,0,0,0,159,83.05a7,7,0,0,1,3.33,2.22c.57.7,1.09,1.44,1.66,2.14A2.71,2.71,0,0,1,162.56,91.54Z"/><path d="M191.44,49.26a21.11,21.11,0,0,1-2.44.19c-2.07-.23-4.44-.41-6.79-.8a23.87,23.87,0,0,1-3.78-1.17c-2.28-.79-4.62-1.47-6.81-2.46a20.28,20.28,0,0,1-5.41-3c-1.44-1.27-3.09-2.3-4.56-3.55-1.1-1-2.08-2.06-3.09-3.12a.79.79,0,0,1-.12-.67.85.85,0,0,1,.68-.37c1.63.24,3.3.47,4.92.83,1.84.41,3.69.91,5.51,1.45a32.58,32.58,0,0,1,3.1,1.21c2.37,1,4.77,1.89,7.09,3,1.62.75,3.13,1.71,4.7,2.57.87.47,1.75,1,2.67,1.37a18.2,18.2,0,0,1,4.62,3.46C192.2,48.63,192.1,49.13,191.44,49.26Z"/><path d="M182,58c-.13.22-.48.33-.77.43a1.14,1.14,0,0,1-.55,0c-1.63-.37-3.25-.86-4.89-1.1a41.78,41.78,0,0,1-4.13-1.24,23.79,23.79,0,0,1-3.06-1.3c-.94-.38-1.93-.68-2.88-1-.63-.24-1.25-.49-1.87-.78-1.14-.55-2.31-1.1-3.44-1.69-.66-.34-1.26-.77-1.92-1.12-1-.54-2.06-1-3-1.6s-1.95-1.5-2.92-2.27c-.29-.24-.5-.58-.28-.91s.5-.27.69-.37c1,.23,1.78.38,2.58.61,1.53.43,3,.89,4.55,1.37,2.55.8,5.08,1.62,7.63,2.43a31.41,31.41,0,0,1,6.86,3.24c1.13.7,2.4,1.18,3.52,2a28.69,28.69,0,0,1,3.51,2.6C181.82,57.47,182.17,57.71,182,58Z"/><path d="M143.92,60.31a12.64,12.64,0,0,1-1.36.43,1.52,1.52,0,0,0-.06-.2c-.81.18-1.63.35-2.44.55-1.57.39-3.14.82-4.73,1.17a1.07,1.07,0,0,1-.87-.38,15,15,0,0,1-1-1.77,17.11,17.11,0,0,1-1.75-5,4.06,4.06,0,0,1,.31-2.36c.26-.6.49-1.21.78-1.79a3.6,3.6,0,0,1,.67-1c.79-.79,1.68-.7,2.16.3a18.21,18.21,0,0,0,2.81,3.88,10.24,10.24,0,0,0,1.33,1.12c.85.66,1.7,1.29,2.53,2A21,21,0,0,1,144.21,59C144.76,59.55,144.64,60,143.92,60.31Z"/><path d="M148.24,97.34A19.51,19.51,0,0,1,145,97.2a12.12,12.12,0,0,1-3.05-1,37,37,0,0,1-4-2.17,17.06,17.06,0,0,1-2.68-2.09,6,6,0,0,1-1-1.55.7.7,0,0,1,.38-1.09c.65-.23,1.34-.34,2-.5a23.37,23.37,0,0,1,8.18,2.34,39.1,39.1,0,0,1,3.87,2.35,5,5,0,0,1,1.17,1.61C150.13,95.74,149.12,97.34,148.24,97.34Z"/><path d="M133.52,120.1a5.84,5.84,0,0,1-3.37.52,10.05,10.05,0,0,1-5.65-2.16,22.55,22.55,0,0,1-3-3.18c-.81-1-.44-1.45.69-1.75.61-.17,1.24-.3,1.76-.43,1.53.25,2.91.47,4.3.72a12.65,12.65,0,0,1,5.07,2,4.44,4.44,0,0,1,1.21,1.34C135.23,118.39,134.82,119.41,133.52,120.1Z"/><path d="M145,43.55c-1,.21-2,.35-3,.52a10.84,10.84,0,0,0-4.43,1,3.57,3.57,0,0,1-1,.43,1.13,1.13,0,0,1-.86-.16,2.13,2.13,0,0,1-.61-1.9c.22-1,.39-2,.68-3a7.14,7.14,0,0,1,.93-1.85,5.89,5.89,0,0,1,3.16-2.71c.82-.22,1.28-.07,1.64.7a13.91,13.91,0,0,0,2.23,3.44,20,20,0,0,1,1.67,2.39C145.87,43.06,145.75,43.4,145,43.55Z"/><path d="M152.74,32.23c-1.1,0-2.18,0-3.28,0a1.36,1.36,0,0,0,0-.2c-1.13.2-2.26.43-3.42.59a12.49,12.49,0,0,1-2.28.16A1.4,1.4,0,0,1,142.52,31a3.19,3.19,0,0,1,.44-1,8.08,8.08,0,0,1,3.71-3.05c1.52-.68,3.07-1.34,4.64-1.92.87-.31,1.34.1,1.4,1.06,0,.81,0,1.63.12,2.44s.29,1.36.43,2c.06.25.18.49.23.74C153.58,31.82,153.33,32.21,152.74,32.23Z"/><path d="M141.19,103.36c-1.19.3-2.39.48-3.61.72-.35.07-.71.16-1.09.22a.39.39,0,0,1-.23,0,7.43,7.43,0,0,0-1-.49,8.19,8.19,0,0,1-3.43-1.63,11,11,0,0,0-1.42-1c-.83-.54-1.14-1.5-1.75-2.23s-.36-1.17.5-1.46a7.43,7.43,0,0,1,1.16-.22,17.84,17.84,0,0,1,4.64.85,19.9,19.9,0,0,1,4.95,2,4.3,4.3,0,0,1,1.83,1.73C142,102.52,141.9,103.18,141.19,103.36Z"/><path d="M142,73.14a1.24,1.24,0,0,1-.81.54c-1.63.33-3.29.62-4.93.91-1,.17-2,.37-3,.46a1,1,0,0,1-.75-.48,5.53,5.53,0,0,1-.92-3,5.8,5.8,0,0,1,1-4.07,11.89,11.89,0,0,1,1.25-1.31,2.76,2.76,0,0,1,.69-.34,4.13,4.13,0,0,1,.63.47c.88.89,1.71,1.84,2.62,2.7,1.25,1.16,2.55,2.24,3.8,3.37C141.75,72.57,142.05,73,142,73.14Z"/><path d="M141.26,87.89a1.5,1.5,0,0,1-.44.35c-.88-.15-1.64-.33-2.43-.42-1.1-.13-2.21-.19-3.33-.28a1.37,1.37,0,0,0-.35,0c-1.53.3-2.59-.51-3.52-1.53a2.83,2.83,0,0,1-.69-1.42,11.91,11.91,0,0,1,.1-4.21,4.91,4.91,0,0,1,.7-1.34c.21-.35.55-.33.82,0s.44.6.7.87c.55.56,1.11,1.1,1.67,1.66.83.84,1.64,1.7,2.5,2.51s1.5,1.37,2.28,2c.58.48,1.18.92,1.75,1.39C141.14,87.56,141.31,87.82,141.26,87.89Z"/><path d="M169.51,70.27c-.08.34-.44.29-.76.19a17.35,17.35,0,0,0-2.27-.61,12.42,12.42,0,0,1-1.92-.66c-.68-.21-1.35-.49-2-.76s-1.32-.63-2-.86c-2.43-.8-4.44-2.31-6.57-3.63a8.1,8.1,0,0,1-1.18-.73,1.13,1.13,0,0,1-.42-.79c0-.15.47-.27.75-.43,1.36.32,2.71.62,4,.94a22.56,22.56,0,0,1,5.7,2.7c1.68,1,3.36,1.89,5,2.87a7.66,7.66,0,0,1,1.34,1A.93.93,0,0,1,169.51,70.27Z"/><path d="M136.79,110.46c0,.48-.41.73-.86.88a9.39,9.39,0,0,1-6.53-.71,7.87,7.87,0,0,1-3.05-2c-.67-.77-.54-1.2.46-1.46.59-.15,1.23-.19,2-.31a38.17,38.17,0,0,1,4.43.89,13.65,13.65,0,0,1,3.05,1.64A1.52,1.52,0,0,1,136.79,110.46Z"/><path d="M131.62,104.71c0,.14-.31.34-.5.35a9,9,0,0,1-2.26,0,7.24,7.24,0,0,0-3.31.15,1.66,1.66,0,0,1-2.34-1.27c-.1-.37-.16-.77-.26-1.19.36-1.52.78-3,2.36-3.79a.7.7,0,0,1,.94.11,11.56,11.56,0,0,1,1,1.29,9.71,9.71,0,0,0,2.62,2.76c.49.31,1,.61,1.46,1A.87.87,0,0,1,131.62,104.71Z"/><path d="M126,111.25c0,.14-.29.35-.49.4-.45.11-.94.14-1.42.21,0,0,0-.07,0-.1-.74.06-1.47.16-2.21.19s-1.11-.43-.93-1.06a3.43,3.43,0,0,1,1.64-2.39.89.89,0,0,1,1.2.12c.38.39.74.78,1.12,1.16a8.18,8.18,0,0,1,.81.74A1.16,1.16,0,0,1,126,111.25Z"/></g></svg>