<svg xmlns="http://www.w3.org/2000/svg" viewBox="0 0 252 180"><g id="Layer_3" data-name="Layer 3"><path d="M158.61,90.91c-.28,16.78-15.25,32-31.86,31.85-18.29-.16-35-19-31.55-41.25.88,12.2,11.51,21,22.45,20,9.49-.88,17.58-9,18.52-19.42-.57.84-4.3,6.12-10.48,6.53-7.4.48-13.64-6.33-14.56-12.75-1.18-8.3,6.51-16.33,13.66-18C138,54.66,158.94,70.79,158.61,90.91Z"/><path d="M1.23,1.12V178.88H250.77V1.12ZM126,160.38A70.38,70.38,0,1,1,196.37,90,70.37,70.37,0,0,1,126,160.38Z"/><path d="M158.61,90.91c-.28,16.78-15.25,32-31.86,31.85-18.29-.16-35-19-31.55-41.25.88,12.2,11.51,21,22.45,20,9.49-.88,17.58-9,18.52-19.42-.57.84-4.3,6.12-10.48,6.53-7.4.48-13.64-6.33-14.56-12.75-1.18-8.3,6.51-16.33,13.66-18C138,54.66,158.94,70.79,158.61,90.91Z"/><path d="M158.61,90.91c-.28,16.78-15.25,32-31.86,31.85-18.29-.16-35-19-31.55-41.25.88,12.2,11.51,21,22.45,20,9.49-.88,17.58-9,18.52-19.42-.57.84-4.3,6.12-10.48,6.53-7.4.48-13.64-6.33-14.56-12.75-1.18-8.3,6.51-16.33,13.66-18C138,54.66,158.94,70.79,158.61,90.91Z"/></g></svg>