<svg xmlns="http://www.w3.org/2000/svg" viewBox="0 0 252 180"><g id="Layer_3" data-name="Layer 3"><path d="M126,19.93A70.07,70.07,0,1,0,196.07,90,70.07,70.07,0,0,0,126,19.93Zm0,130.42A60.36,60.36,0,1,1,186.35,90,60.35,60.35,0,0,1,126,150.35Z"/><path d="M126,43.16A46.84,46.84,0,1,0,172.83,90,46.84,46.84,0,0,0,126,43.16Zm0,78.24A31.41,31.41,0,1,1,157.41,90,31.41,31.41,0,0,1,126,121.4Z"/><path d="M140.78,90A14.78,14.78,0,1,1,126,75.22,14.78,14.78,0,0,1,140.78,90Z"/><path d="M250.78,1.12H1.22V178.88H250.78Zm-.13,177.63H1.35V1.24h249.3Z"/></g></svg>