<svg xmlns="http://www.w3.org/2000/svg" viewBox="0 0 252 180"><defs><style>.cls-1{fill:#fff;}</style></defs><g id="Layer_3" data-name="Layer 3"><path d="M158.15,80.85c-.15-.52-.32-1-.49-1.56s-.36-1-.56-1.54c-.31-.76-.63-1.5-1-2.23-.11-.24-.23-.49-.36-.73-.5-1-1-1.89-1.61-2.79h0c-.32-.51-.66-1-1-1.49h0c-.53-.73-1.09-1.44-1.67-2.13-.29-.34-.59-.68-.9-1-.61-.66-1.25-1.3-1.91-1.91-.33-.31-.67-.61-1-.9-.69-.58-1.4-1.14-2.13-1.67h0c-.49-.36-1-.7-1.49-1h0c-.9-.57-1.83-1.11-2.79-1.61-.24-.13-.48-.25-.73-.36L139,59.21c-.75-.32-1.52-.61-2.3-.87l-.77-.25c-.26-.09-.53-.16-.79-.24a33.6,33.6,0,0,0-18.3,0c-.26.08-.53.15-.79.24l-.77.25c-.78.26-1.55.55-2.3.87l-1.47.67c-.25.11-.49.23-.73.36-1,.5-1.89,1-2.79,1.61h0c-.5.32-1,.66-1.49,1h0c-.73.53-1.44,1.09-2.13,1.67-.34.29-.68.59-1,.9-.66.61-1.3,1.25-1.91,1.91-.31.33-.61.67-.9,1-.58.69-1.14,1.4-1.67,2.13h0c-.36.49-.7,1-1,1.49h0c-.57.9-1.11,1.83-1.61,2.79-.13.24-.25.49-.36.73-.35.73-.67,1.47-1,2.23-.2.51-.39,1-.56,1.54s-.34,1-.49,1.56a33.6,33.6,0,0,0,0,18.3c.15.52.32,1,.49,1.56q.12.39.27.78c.19.51.39,1,.6,1.51h0c.22.49.44,1,.67,1.47h0c.23.48.47,1,.73,1.42.51.93,1.06,1.84,1.65,2.72h0a36.54,36.54,0,0,0,2.93,3.74c.34.39.7.78,1.09,1.15s.75.75,1.14,1.11h0l.84.76.9.74a32.88,32.88,0,0,0,2.82,2h0c.9.57,1.83,1.11,2.79,1.61.24.13.48.25.73.36l1.47.67c.75.32,1.52.61,2.3.87.51.17,1,.34,1.56.49a33.6,33.6,0,0,0,18.3,0c.53-.15,1-.32,1.56-.49.78-.26,1.55-.55,2.3-.87l1.47-.67c.25-.11.49-.23.73-.36,1-.5,1.89-1,2.79-1.61h0a32.88,32.88,0,0,0,2.82-2l.9-.74.84-.76h0c.19-.17.38-.35.56-.54s.39-.37.58-.57c.39-.37.75-.76,1.09-1.15a36.54,36.54,0,0,0,2.93-3.74h0c.59-.88,1.14-1.79,1.65-2.72.26-.46.5-.94.73-1.42h0c.23-.49.45-1,.67-1.47h0c.21-.5.41-1,.6-1.51q.15-.39.27-.78c.17-.52.34-1,.49-1.56a33.6,33.6,0,0,0,0-18.3ZM126,116.47A26.47,26.47,0,1,1,152.46,90,26.5,26.5,0,0,1,126,116.47Z"/><path d="M176.16,84.85c-.09-.85-.19-1.69-.32-2.52-.06-.42-.13-.84-.21-1.25-.15-.83-.32-1.64-.5-2.45q-.13-.61-.3-1.23c-.21-.8-.44-1.59-.68-2.37-.11-.39-.24-.79-.38-1.18-.26-.78-.54-1.56-.85-2.32h0c-.17-.43-.34-.86-.53-1.28-.36-.85-.74-1.68-1.15-2.5s-.7-1.38-1.07-2.06-.77-1.34-1.17-2c-.19-.33-.4-.66-.61-1s-.41-.63-.64-1h0a50.43,50.43,0,0,0-3.26-4.29c-.53-.63-1.08-1.24-1.64-1.85a51.49,51.49,0,0,0-13.73-10.4c-1.08-.56-2.17-1.07-3.29-1.55q-.54-.24-1.08-.45c-.85-.34-1.72-.66-2.6-1a45.79,45.79,0,0,0-4.78-1.36c-.81-.18-1.62-.35-2.45-.5-.41-.08-.83-.15-1.25-.21-.83-.13-1.67-.23-2.52-.32a51.13,51.13,0,0,0-10.3,0c-.85.09-1.69.19-2.52.32-.42.06-.84.13-1.25.21-.83.15-1.64.32-2.45.5a45.79,45.79,0,0,0-4.78,1.36c-.88.3-1.75.62-2.6,1l-1.08.45c-1.12.48-2.21,1-3.29,1.55A51.49,51.49,0,0,0,89.15,55.6h0l-.83.91q-.41.45-.81.93a50.43,50.43,0,0,0-3.26,4.29h0c-.23.32-.44.64-.64,1s-.42.66-.61,1c-.41.66-.8,1.32-1.17,2s-.73,1.37-1.07,2.06-.79,1.65-1.15,2.5c-.19.42-.36.85-.53,1.28h0c-.31.76-.59,1.54-.85,2.32-.14.39-.27.79-.38,1.18-.24.78-.47,1.57-.68,2.37q-.17.61-.3,1.23c-.18.81-.35,1.62-.5,2.45-.08.41-.15.83-.21,1.25-.13.83-.23,1.67-.32,2.52A51.47,51.47,0,0,0,75.58,90c0,1.74.09,3.46.26,5.16.09.84.2,1.68.32,2.51q.09.63.21,1.26c.15.82.32,1.64.5,2.44q.13.61.3,1.23c.21.8.44,1.59.68,2.38.11.39.24.78.38,1.17a50.23,50.23,0,0,0,3.51,8c.47.84,1,1.67,1.46,2.48h0A50.9,50.9,0,0,0,105.26,136c.6.28,1.22.54,1.84.79.9.37,1.82.71,2.75,1,.38.14.77.27,1.17.38.79.24,1.58.47,2.38.68l1.23.3c.81.18,1.62.35,2.45.5.41.08.83.15,1.25.21.83.13,1.67.23,2.52.32a51.13,51.13,0,0,0,10.3,0c.85-.09,1.69-.19,2.52-.32.42-.06.84-.13,1.25-.21.83-.15,1.64-.32,2.45-.5l1.23-.3c.8-.21,1.59-.44,2.38-.68.4-.11.79-.24,1.17-.38.93-.31,1.85-.65,2.75-1,.62-.25,1.24-.51,1.84-.79a50.9,50.9,0,0,0,22.06-19.31h0c.26-.41.51-.82.75-1.24s.48-.82.71-1.24a50.23,50.23,0,0,0,3.51-8c.14-.39.27-.78.38-1.17.24-.79.47-1.58.68-2.38q.16-.61.3-1.23c.18-.8.35-1.62.5-2.44q.12-.63.21-1.26c.12-.83.23-1.67.32-2.51.17-1.7.26-3.42.26-5.16A51.47,51.47,0,0,0,176.16,84.85ZM126,133.66A43.66,43.66,0,1,1,169.66,90,43.71,43.71,0,0,1,126,133.66Z"/><path d="M167.54,86.8c-.08-1.06-.2-2.11-.36-3.14a40.26,40.26,0,0,0-1.1-5.06c-.19-.66-.39-1.3-.61-1.95s-.45-1.29-.7-1.92c-.38-.94-.79-1.87-1.22-2.78-.14-.31-.29-.61-.45-.91-.27-.52-.55-1-.84-1.55-.54-1-1.12-1.89-1.74-2.8-.27-.4-.54-.79-.83-1.18-.57-.77-1.16-1.53-1.77-2.26Q156.53,61.6,155,60.1a42.39,42.39,0,0,0-9.24-6.78c-.85-.46-1.72-.89-2.6-1.29h0c-.62-.27-1.24-.54-1.86-.79q-.47-.2-1-.36l-1-.34c-.64-.22-1.28-.43-1.94-.61a40.42,40.42,0,0,0-5.07-1.1c-1-.16-2.07-.28-3.13-.36s-2.12-.12-3.2-.12-2.15,0-3.2.12-2.1.2-3.13.36a40.42,40.42,0,0,0-5.07,1.1c-.66.18-1.3.39-1.94.61l-1,.34q-.5.16-1,.36c-.62.25-1.24.52-1.86.79h0c-.88.4-1.75.83-2.6,1.29A42.39,42.39,0,0,0,97,60.1q-1.55,1.5-2.94,3.15c-.61.73-1.2,1.49-1.77,2.26-.29.39-.56.78-.83,1.18-.62.91-1.2,1.84-1.74,2.8-.29.51-.57,1-.84,1.55-.16.3-.31.6-.45.91-.43.91-.84,1.84-1.22,2.78-.25.63-.49,1.27-.7,1.92s-.42,1.29-.61,1.95a40.26,40.26,0,0,0-1.1,5.06c-.16,1-.28,2.08-.36,3.14s-.12,2.12-.12,3.2,0,2.15.12,3.21.2,2.1.36,3.13a41.2,41.2,0,0,0,1.1,5.07c.19.66.4,1.3.61,1.94h0c.27.81.57,1.6.89,2.38s.66,1.55,1,2.31h0c.49,1,1,2,1.6,3,.29.48.59,1,.89,1.44h0c.34.53.69,1,1.06,1.57s.75,1,1.13,1.5h0c.39.5.79,1,1.19,1.45h0a43.81,43.81,0,0,0,5.38,5.26c.49.4,1,.78,1.49,1.16.93.69,1.9,1.35,2.89,2s2,1.15,3,1.67c1.2.6,2.43,1.16,3.69,1.67q.47.19,1,.36l1,.34c.64.22,1.28.43,1.94.61a40.42,40.42,0,0,0,5.07,1.1c1,.16,2.07.28,3.13.36s2.12.12,3.2.12,2.15,0,3.2-.12,2.1-.2,3.13-.36a40.42,40.42,0,0,0,5.07-1.1c.66-.18,1.3-.39,1.94-.61l1-.34q.49-.16,1-.36l.91-.37a41.42,41.42,0,0,0,5.23-2.66,42.58,42.58,0,0,0,11.82-10.63c.3-.39.58-.78.86-1.18s.74-1.07,1.08-1.62a39.18,39.18,0,0,0,2.38-4.25h0c.37-.76.71-1.52,1-2.31s.62-1.57.89-2.38h0c.21-.64.42-1.28.61-1.94a41.2,41.2,0,0,0,1.1-5.07c.16-1,.28-2.08.36-3.13s.12-2.13.12-3.21S167.62,87.85,167.54,86.8ZM126,125.43A35.43,35.43,0,1,1,161.42,90,35.46,35.46,0,0,1,126,125.43Z"/><path d="M126,19.62A70.38,70.38,0,1,0,196.38,90,70.38,70.38,0,0,0,126,19.62Zm0,122.79A52.41,52.41,0,1,1,178.42,90,52.48,52.48,0,0,1,126,142.41Z"/><path d="M141.86,90a15.78,15.78,0,0,1-2.71,8.87,19.15,19.15,0,0,1-1.41,1.79l-.53.55c-.18.19-.37.37-.55.53a19.15,19.15,0,0,1-1.79,1.41l-.65.41a15.22,15.22,0,0,1-2.05,1,15.85,15.85,0,0,1-12.34,0,15.84,15.84,0,0,1-2-1l-.65-.41a16.32,16.32,0,0,1-1.79-1.41c-.18-.16-.37-.34-.55-.53l-.53-.55a19.15,19.15,0,0,1-1.41-1.79h0c-.14-.21-.28-.42-.41-.64a15.86,15.86,0,0,1,.41-17.09,19.15,19.15,0,0,1,1.41-1.79l.53-.55c.18-.19.37-.37.55-.53a19.15,19.15,0,0,1,1.79-1.41l.65-.41a15.84,15.84,0,0,1,2-1,15.85,15.85,0,0,1,12.34,0,15.22,15.22,0,0,1,2.05,1l.65.41a19.15,19.15,0,0,1,1.79,1.41c.18.16.37.34.55.53l.53.55a19.15,19.15,0,0,1,1.41,1.79A15.78,15.78,0,0,1,141.86,90Z"/><path d="M145.52,75.25c-.21-.28-.42-.55-.64-.81-.5-.61-1-1.19-1.58-1.74s-1.14-1.08-1.74-1.58c-.26-.22-.53-.43-.81-.64-.54-.41-1.11-.8-1.69-1.17l-.89-.54a24.41,24.41,0,0,0-24.34,0l-.89.54c-.58.37-1.15.76-1.69,1.17-.28.21-.55.42-.81.64-.6.5-1.18,1-1.74,1.58s-1.08,1.13-1.58,1.74c-.22.26-.43.53-.64.81a24.4,24.4,0,0,0-.29,29.13c.42.57.87,1.13,1.33,1.67.27.3.54.6.83.9s.57.58.86.86a26.45,26.45,0,0,0,2.14,1.8l.78.56.8.53c.41.25.82.5,1.24.73s.84.45,1.27.66l.88.4a21.81,21.81,0,0,0,2.74,1l.83.23a24.25,24.25,0,0,0,6.11.78A24.52,24.52,0,0,0,150.49,90,24.25,24.25,0,0,0,145.52,75.25ZM108.14,90A17.86,17.86,0,1,1,126,107.86,17.88,17.88,0,0,1,108.14,90Z"/><path d="M250.78,1.12H1.22V178.88H250.78Zm-.13,177.63H1.35V1.24h249.3Z"/><path class="cls-1" d="M106.48,75.25a24.4,24.4,0,0,0-.29,29.13,24.52,24.52,0,0,1,.29-29.13Zm9.84,37.24a21.81,21.81,0,0,0,2.74,1A25.5,25.5,0,0,1,116.32,112.49Zm9.68-47a24.3,24.3,0,0,0-12.17,3.25,24.54,24.54,0,0,1,24.34,0A24.3,24.3,0,0,0,126,65.52Zm19.52,9.73A24.48,24.48,0,0,1,126,114.47a25.06,25.06,0,0,1-6.11-.76,24.25,24.25,0,0,0,6.11.78A24.52,24.52,0,0,0,150.49,90,24.25,24.25,0,0,0,145.52,75.25Z"/></g></svg>