<svg xmlns="http://www.w3.org/2000/svg" viewBox="0 0 252 180"><g id="Layer_3" data-name="Layer 3"><path d="M1.22,178.88H250.78V1.12H1.22ZM172.58,36.79s22.66,20.11,22.89,54.79-27.74,54.79-27.74,54.79C127,84.88,172.58,36.79,172.58,36.79ZM103.92,82.56a136.45,136.45,0,0,1,23.35-63.34,49.76,49.76,0,0,1,11.1.92,50.39,50.39,0,0,1,10.86,3.47,116,116,0,0,0-6.47,135A79.14,79.14,0,0,1,119.18,160,137.24,137.24,0,0,1,103.92,82.56ZM56.3,86c2.24-38.55,35.08-57,37-58a158,158,0,0,0-6.94,120C84.58,146.76,54.05,124.62,56.3,86Z"/><path d="M183,54.59c-26.36,37.92-3.93,76.52-3.93,76.52C207,93.2,183,54.59,183,54.59Z"/></g></svg>