<svg xmlns="http://www.w3.org/2000/svg" viewBox="0 0 252 180"><g id="Layer_3" data-name="Layer 3"><path d="M126,120A30,30,0,0,1,96,90.13H59a67,67,0,0,0,134.09,0H156A30,30,0,0,1,126,120Z"/><path d="M126,60.25A29.79,29.79,0,0,0,96.25,89.88h59.51A29.79,29.79,0,0,0,126,60.25Z"/><path d="M250.78,1.12H1.22V178.88H250.78ZM125.9,159.45a69.62,69.62,0,1,1,69.62-69.62A69.62,69.62,0,0,1,125.9,159.45Z"/><path d="M96.25,90h59.51v-.12h.12a29.88,29.88,0,0,0-59.75,0h.12ZM126,60.25a29.79,29.79,0,0,1,29.76,29.63H96.25A29.79,29.79,0,0,1,126,60.25Z"/><path d="M156,90.13h37A67,67,0,0,1,59,90.13H96V90H58.83a67.17,67.17,0,0,0,134.34,0H156Z"/><path d="M126,119.88A29.86,29.86,0,0,1,96.13,90.13H96a30,30,0,0,0,60,0h-.13A29.88,29.88,0,0,1,126,119.88Z"/><path d="M155.76,90h.12v-.12h-.12Z"/><path d="M155.88,90.13H156V90h-.13Z"/><path d="M96,90.13h.13s0-.09,0-.13H96Z"/><path d="M96.25,89.88h-.12s0,.08,0,.12h.13Z"/></g></svg>