<svg xmlns="http://www.w3.org/2000/svg" viewBox="0 0 252 180"><g id="Layer_3" data-name="Layer 3"><path d="M1.1,179H250.9V1H1.1ZM1.22,1.12H250.78V178.88H1.22Z"/><path d="M250.78,1.12H1.22V178.88H250.78Zm-.13,177.63H1.35V1.25h249.3Z"/><path d="M126,159.5A69.5,69.5,0,1,0,56.5,90,69.49,69.49,0,0,0,126,159.5Zm11.78-3.34,0,0Zm54.5-54.53,0,.05ZM60,101.66h0l0,0,0,0a67.87,67.87,0,0,1,0-23.33h0C64.06,81.25,70.79,82,70.79,82h47.33V32.41c0-5.91-3.67-8.61-3.67-8.61a67.7,67.7,0,0,1,23.3,0l.05,0-.05,0a10.93,10.93,0,0,0-3.62,8.57V82h49.58c5.91,0,8.61-3.67,8.61-3.67a67.7,67.7,0,0,1,0,23.3A10.93,10.93,0,0,0,183.71,98H134.13v47.32s.75,6.7,3.65,10.83a67.87,67.87,0,0,1-23.33,0h0c2.92-4.13,3.67-10.86,3.67-10.86V98H70.79S64.09,98.76,60,101.66Z"/></g></svg>