<svg xmlns="http://www.w3.org/2000/svg" viewBox="0 0 252 180"><g id="Layer_3" data-name="Layer 3"><path d="M126,161.7A71.7,71.7,0,1,0,54.3,90,71.7,71.7,0,0,0,126,161.7ZM56.85,90.16a86.06,86.06,0,0,1,1-13.15H77.64V39h34.75V21.57a93.19,93.19,0,0,1,13.43-.92,90.9,90.9,0,0,1,12.69.92V39h35.68V77H194a84.84,84.84,0,0,1,0,26.12H174.19v37.06H138.51v18.39a93,93,0,0,1-26.12,0V140.19H77.64V103.13H57.86A85,85,0,0,1,56.85,90.16Z"/><path d="M250.78,1.12H1.22V178.88H250.78Zm-.13,177.63H1.35V1.24h249.3Z"/></g></svg>