<svg xmlns="http://www.w3.org/2000/svg" viewBox="0 0 252 180"><g id="Layer_3" data-name="Layer 3"><path d="M250.78,1.12H1.22V178.88H250.78Zm-74.5,138.55h-.72a70.34,70.34,0,0,1-99.31,0h-.53v-.55a70.3,70.3,0,0,1,0-98.57v-.22h.2a70.34,70.34,0,0,1,100,0h.39v.41a70.3,70.3,0,0,1,0,98.18Z"/><path d="M175.56,139.67h.72v-.75C176,139.17,175.81,139.42,175.56,139.67Z"/><path d="M75.72,40.33v.22l.2-.22Z"/><path d="M75.72,139.12v.55h.53Z"/><path d="M176.28,40.33h-.39l.39.41Z"/><path d="M175.89,40.33h-100l-.2.22v98.57l.53.55h99.31c.25-.25.48-.5.72-.75V40.74Zm-.61,98.34H76.72V41.33h98.56Z"/></g></svg>