<svg xmlns="http://www.w3.org/2000/svg" viewBox="0 0 252 180"><g id="Layer_3" data-name="Layer 3"><polygon points="194.5 67.04 194.49 67.04 194.49 67.05 194.5 67.04"/><polygon points="59.74 67.04 59.75 67.05 59.75 67.04 59.74 67.04"/><path d="M1.22,178.88H250.78V1.12H1.22ZM58.62,68.11h0A70.86,70.86,0,0,1,126,19.17v0a70.86,70.86,0,0,1,67.37,48.94h0a70.84,70.84,0,0,1-25.74,79.18v0l0,0a70.78,70.78,0,0,1-83.24,0l0,0v0A70.84,70.84,0,0,1,58.63,68.11Z"/><path d="M167.64,147.32v0h0Z"/><path d="M84.36,147.32l0,0h0Z"/><polygon points="126 19.17 126 19.15 126 19.17 126 19.17 126 19.17"/><path d="M84.37,147.29h0L126,117.06l41.62,30.24h0L151.74,98.36l41.63-30.25H141.91L126,19.17h0L110.09,68.11H58.63l41.63,30.25Z"/></g></svg>