<svg xmlns="http://www.w3.org/2000/svg" viewBox="0 0 252 180"><g id="Layer_3" data-name="Layer 3"><path d="M1.1,179H250.9V1H1.1ZM1.22,1.12H250.78V178.88H1.22Z"/><path d="M250.78,1.12H1.22V178.88H250.78Zm-.13,177.63H1.35V1.25h249.3Z"/><path d="M164.23,43.76l-.13-.13h0c-.48-.42-1-.82-1.45-1.23s-.76-.66-1.15-1l-.62-.48a63.85,63.85,0,0,0-37.34-13.85,66.36,66.36,0,0,0-8.56.21A64.68,64.68,0,0,0,77.88,140a64.07,64.07,0,0,0,43.06,16.61h0l.88,0c.93,0,1.86,0,2.79-.1s1.59-.09,2.38-.16a64.67,64.67,0,0,0,37.24-112.6ZM169,65.61l-.25.41a7.34,7.34,0,0,1,.6.51l.37.33c.3.28.57.54.76.74l.45.58a14.61,14.61,0,0,0,1,1.15c.26.27.55.55.87.83s.44.39.67.56a18.24,18.24,0,0,0,1.58,1.15l.48.29.44.25.5.26,1,.45c.42.18.83.33,1.22.46s.54.18.8.25.47.13.69.19l.5.11-.76.84c-.38.43-.78.89-1.2,1.4l-.28.35-.31.4c-.41.51-.82,1-1.24,1.64a40.76,40.76,0,0,0-3.46,5.72,31.33,31.33,0,0,1-2.26,3.86,22.71,22.71,0,0,1-8.82,7.81c-6.36,3-13,1.16-16.44-.17a86.83,86.83,0,0,0-8.4-3.19,100.19,100.19,0,0,0-13.92-3.6,2.13,2.13,0,0,0-1.32,0,1.2,1.2,0,0,0-.71.94c0,.37,0,1.1,1.06,1.88a52.48,52.48,0,0,0,6.07,4.55,83.67,83.67,0,0,0,9.17,5.21c1.56.81,3.42,1.77,5.74,3,7.4,3.92,8.22,4.54,9.26,5.45a20.21,20.21,0,0,1,6.72,9.67,19.1,19.1,0,0,1-1,12.74,21,21,0,0,0-1.7,5.29c0,.16-.06.32-.08.47l-.18,1.4c0,.08,0,.17,0,.25l-.05.59-.95-.37c-.3-.11-.62-.22-1-.31l-.45-.12-1.06-.25a16.3,16.3,0,0,0-3.21-.32,22.41,22.41,0,0,0-5.39.76,18.31,18.31,0,0,1-1.93.39c-2.28.24-4.83-.92-7.58-3.48l-.47-.45-.61-.61-.29-.31a49.09,49.09,0,0,1-4.56-5.8l-.48-.7c-.32-.49-.65-1-1-1.57h0l-.16-.49-.38-1.17c-.49-1.6-.91-3.25-1.25-4.9-.09-.4-.17-.81-.24-1.24-.18-1-.33-1.89-.45-2.8a57.83,57.83,0,0,1-.46-6.74c0-1.81-.09-3.68-.37-6.13,0-.37-.09-.75-.15-1.15a57.48,57.48,0,0,0-2.58-10.77,1.78,1.78,0,0,0-1.24-1.18,1.53,1.53,0,0,0-1.66.63,2.79,2.79,0,0,0-.44,1c-.14.58-.32,1.25-.52,2a76.26,76.26,0,0,0-1.89,8.16,68.47,68.47,0,0,0-.84,12.64c.13,2.34.1,10.48-6.06,16.73-2.07,2.13-7.52,7-13.43,6.21a15.49,15.49,0,0,1-2.19-.49,15.3,15.3,0,0,0-4.9-.68,4.16,4.16,0,0,0-.62,0l-.25,0-.26,0-1.62.23c-.26.05-.51.1-.73.16l-.49.12-.76.22c-.24.07-.47.15-.69.23l-.34.13-.42.16c0-.09,0-.19,0-.29l0-.15c0-.15.06-.32.08-.47l0-.23c0-.11,0-.23,0-.36l0-.21a1.49,1.49,0,0,1,0-.21,1.36,1.36,0,0,0,0-.2v-.09a2.11,2.11,0,0,1,0-.25,1.77,1.77,0,0,0,0-.22v-.1c0-.13,0-.25,0-.43,0-.54,0-1.1,0-1.69a19.83,19.83,0,0,0-.34-2.76,1.23,1.23,0,0,0-.08-.4q-.12-.57-.27-1.14a21.15,21.15,0,0,1-.87-3.14,12.36,12.36,0,0,1-.21-1.33,15.18,15.18,0,0,1,1.08-8.1c1.37-3.1,3.47-4.81,6.39-7.19,3.86-3.15,7.46-4.83,13.43-7.63l3.18-1.45a30.4,30.4,0,0,0,8.3-4.81l1.53-1.27a23.76,23.76,0,0,0,3.3-3l.11-.15a1.25,1.25,0,0,0,0-1.67,1.79,1.79,0,0,0-1.32-.53,70.29,70.29,0,0,0-14,1.75l-1.27.29-1.9.5c-.58.16-1.13.32-1.63.48a53.91,53.91,0,0,0-5.09,1.88,22.86,22.86,0,0,1-6.07,1.81c-3.21.49-11.73,1.79-16.4-3a19.28,19.28,0,0,1-3.75-6.87,27.55,27.55,0,0,1-.89-3.24c-.22-1-.48-2.07-.94-3.6-.26-.85-.54-1.7-.87-2.6l-.14-.39c-.35-1-.72-1.87-1.11-2.71L62.64,73c3-1.81,6.07-3.78,9-5.84,1.1-.76,1.95-1.37,2.64-1.87,2-1.43,2.6-1.86,3.9-2.23,5.46-1.56,11,1.72,13.12,3,2.3,1.36,4,3,7.25,6.28,2.38,2.36,3.93,4.15,5.29,5.74a37.21,37.21,0,0,0,6.12,6l.5.38a40.1,40.1,0,0,0,5.75,3.5,5.47,5.47,0,0,0,1.84.57,1.12,1.12,0,0,0,.83-.25,1.71,1.71,0,0,0,.52-1.34,4.58,4.58,0,0,0-.52-1.91l0,0a18.33,18.33,0,0,0-3.08-4.33c-.9-1.05-1.82-2.15-2.65-3.32l-.25-.36c-2.11-3.13-3.45-4.88-4.43-6.16a20.82,20.82,0,0,1-2.61-4c-3.16-6.45-3.81-12.54-1.93-18.11.15-.45.31-.88.49-1.3.06-.15.13-.3.2-.46s.27-.6.42-.89l.23-.43c0-.1.13-.23.21-.37l.1-.18c.31-.53.64-1.06,1-1.56l.34-.46c.11-.15.24-.32.37-.47l.37-.46c.31-.38.68-.79,1.12-1.24l.37-.36q.43-.43.87-.81l.24-.21a19.91,19.91,0,0,1,1.7-1.33l.32-.23c.57-.4,1.16-.77,1.88-1.18,1-.79,2-1.65,2.95-2.56.17-.17.34-.33.5-.5s.31-.31.52-.52c.45-.47.88-.93,1.28-1.38l.34-.4c.29-.34.57-.67.83-1l.43-.54c.39.51.82,1,1.28,1.57l.06.08.28.32c.4.46.83.92,1.28,1.38a40,40,0,0,0,3,2.81l.48.39.63.49h0l.07.05.38.24.22.16c.23.16.48.35.74.56l.25.22a19.35,19.35,0,0,1,3.63,4.28c.1.15.2.3.29.46s.22.37.33.57l.23.4a4.76,4.76,0,0,1,.24.45,27.3,27.3,0,0,1,1.81,4.24c1.89,5.58,1.23,11.67-1.93,18.12a20.48,20.48,0,0,1-2.62,4c-1,1.28-2.32,3-4.42,6.15l-.28.43c-2.14,3.22-3.78,6.15-5,8.29l-.74,1.33a1.4,1.4,0,0,0,.7,1.85,1.57,1.57,0,0,0,1,.09,2.49,2.49,0,0,0,.75-.33,45,45,0,0,0,5.07-4,43.24,43.24,0,0,0,5.53-6.4l1.54-2c3.13-4,5.39-6.89,8.76-9.27,7.21-5.12,13.2-5.15,17-4.27.36.08.74.18,1.08.29l.27.09.24.08a17.89,17.89,0,0,1,4.27,2.17l.66.47.35.27.2.15.33-.34Z"/></g></svg>