<svg xmlns="http://www.w3.org/2000/svg" viewBox="0 0 252 180"><g id="Layer_3" data-name="Layer 3"><path d="M1.1,1V179H250.9V1ZM250.78,178.88H1.22V1.12H250.78Z"/><path d="M1.22,178.88H250.78V1.12H1.22ZM1.35,1.25h249.3v177.5H1.35Z"/><path d="M126,19.81A70.19,70.19,0,1,0,196.19,90,70.18,70.18,0,0,0,126,19.81Zm-18.27,32a18.77,18.77,0,0,1,23.41-16.07.34.34,0,0,1,0,.67c-9.26,1.18-16.43,9.42-16.43,19.38a19.78,19.78,0,0,0,7.63,15.73.34.34,0,0,1-.29.6A18.77,18.77,0,0,1,107.73,51.83ZM87.94,107.28a18.77,18.77,0,0,1-16.06-23.4.34.34,0,0,1,.66.05c1.19,9.26,9.42,16.43,19.39,16.43a19.8,19.8,0,0,0,15.72-7.63.35.35,0,0,1,.61.29A18.77,18.77,0,0,1,87.94,107.28ZM111.57,90A14.43,14.43,0,1,1,126,104.43,14.43,14.43,0,0,1,111.57,90Zm35.65,37.47a18.78,18.78,0,0,1-23.41,16.06.34.34,0,0,1,0-.67c9.27-1.18,16.43-9.42,16.43-19.38a19.82,19.82,0,0,0-7.62-15.73.34.34,0,0,1,.29-.6A18.77,18.77,0,0,1,147.22,127.47Zm32-34.29a.34.34,0,0,1-.67-.05c-1.19-9.27-9.42-16.43-19.38-16.43a19.8,19.8,0,0,0-15.73,7.62.34.34,0,0,1-.6-.29,18.76,18.76,0,1,1,36.38,9.15Z"/></g></svg>