<svg xmlns="http://www.w3.org/2000/svg" viewBox="0 0 252 180"><defs><style>.cls-1{fill:#004812;}.cls-2,.cls-3{fill:none;}.cls-3{stroke:#8de6e1;stroke-miterlimit:10;}</style></defs><g id="Layer_3" data-name="Layer 3"><polygon class="cls-1" points="65.36 53.28 65.37 53.29 65.37 53.28 65.36 53.28"/><polygon class="cls-1" points="65.36 124.59 65.37 124.58 65.37 124.58 65.36 124.59"/><path class="cls-2" d="M250.65,1.25H1.35v177.5h249.3Z"/><polygon class="cls-1" points="187.75 125.65 187.75 125.65 187.75 125.65 187.75 125.65"/><polygon class="cls-1" points="187.75 54.35 187.75 54.35 187.75 54.35 187.75 54.35"/><path d="M1.1,179H250.9V1H1.1ZM1.35,1.25h249.3v177.5H1.35Z"/><path d="M65.69,121.75a68.06,68.06,0,0,1,1.54-66.12L84.4,90.07Z"/><path d="M104.06,121.09l22.33,37h-.48a68,68,0,0,1-60.22-36.35Z"/><path d="M125.91,22h.48l-22,33.58H67.23A68,68,0,0,1,125.91,22Z"/><path d="M125.91,98.92a8.85,8.85,0,1,1,8.85-8.85A8.84,8.84,0,0,1,125.91,98.92Z"/><path d="M183.91,54.48H145.28L126.39,22A68,68,0,0,1,183.91,54.48Z"/><path d="M194,90.07a68,68,0,0,1-67.56,68L147.57,122l38.32.15L165.13,86.73l18.78-32.25A67.77,67.77,0,0,1,194,90.07Z"/><path class="cls-3" d="M66.8,120.69h0s0,0,0,0Z"/></g></svg>