<svg xmlns="http://www.w3.org/2000/svg" viewBox="0 0 252 180"><g id="Layer_3" data-name="Layer 3"><path d="M173.2,43V42.8H173Z"/><path d="M126.09,23.34l-.09-.09-.09.09h.18Z"/><path d="M173,137.2h.17V137Z"/><path d="M59.34,89.91l-.09.09.09.09v-.18Z"/><path d="M125.91,156.66l.09.09.09-.09h-.18Z"/><path d="M126,159.66A69.66,69.66,0,1,0,56.34,90,69.74,69.74,0,0,0,126,159.66ZM57.13,89.29,59.42,87A66.37,66.37,0,0,1,76.8,45.07V40.8h4.27A66.37,66.37,0,0,1,123,23.42l3-3,3,3A66.37,66.37,0,0,1,170.93,40.8h4.27v4.27A66.37,66.37,0,0,1,192.58,87l3,3-3,3a66.37,66.37,0,0,1-17.38,41.94v4.27h-4.27A66.37,66.37,0,0,1,129,156.58l-3,3-3-3A66.37,66.37,0,0,1,81.07,139.2H76.8v-4.27A66.37,66.37,0,0,1,59.42,93l-3-3Z"/><path d="M78.8,137v.17H79A1.37,1.37,0,0,0,78.8,137Z"/><path d="M79,42.8H78.8V43A1.37,1.37,0,0,0,79,42.8Z"/><path d="M192.66,90.09l.09-.09-.09-.09v.18Z"/><polygon points="78.8 109.55 78.8 112.38 103.62 137.2 106.45 137.2 78.8 109.55"/><path d="M76.8,107.55,59.34,90.09c0,1,0,1.94.08,2.9L76.8,110.38Z"/><rect x="134.82" y="19.73" height="24.69"/><rect x="183.89" y="66.02" height="24.59" transform="translate(-1.52 152.97) rotate(-45)"/><path d="M108.45,139.2h-2.83L123,156.58c1,0,1.93.08,2.9.08Z"/><rect x="159.37" y="37.08" height="39.1" transform="translate(6.64 129.28) rotate(-45)"/><rect x="137.68" y="19.81" height="24.59"/><polygon points="145.55 137.2 148.38 137.2 173.2 112.38 173.2 109.55 145.55 137.2"/><rect x="183.93" y="68.83" height="24.69" transform="translate(-3.53 153.83) rotate(-45)"/><path d="M143.55,139.2l-17.46,17.46c1,0,1.94,0,2.9-.08l17.39-17.38Z"/><rect x="160.79" y="37.66" height="35.1"/><path d="M175.2,107.55v2.83L192.58,93c0-1,.08-1.93.08-2.9Z"/><path d="M59.34,90.09,59.25,90l-.7.71-1.42-1.42-.7.71,3,3C59.37,92,59.34,91.06,59.34,90.09Z"/><polygon points="128.99 23.42 126 20.43 128.99 23.42 128.99 23.42"/><path d="M194.87,89.29l-1.42,1.42-.79-.8h0l.09.09-.09.09c0,1,0,1.94-.08,2.9l3-3-3-3h0Z"/><path d="M126,156.75l-.09-.09c-1,0-1.94,0-2.9-.08l3,3,3-3c-1,0-1.93.08-2.9.08Z"/><polygon points="126.09 23.34 126 23.25 126.09 23.34 126.09 23.34"/><path d="M108.45,40.8l17.46-17.46c-1,0-1.94,0-2.9.08L105.62,40.8Z"/><path d="M76.8,72.45V69.62L59.42,87c-.05,1-.08,1.93-.08,2.9Z"/><path d="M146.38,40.8,129,23.42c-1-.05-1.93-.08-2.9-.08L143.55,40.8Z"/><polygon points="173.2 67.62 148.38 42.8 145.55 42.8 173.2 70.45 173.2 67.62"/><polygon points="106.45 42.8 103.62 42.8 78.8 67.62 78.8 70.45 106.45 42.8"/><path d="M192.66,89.91c0-1,0-1.94-.08-2.9L175.2,69.62v2.83Z"/><path d="M126,23.25l.09.09c1,0,1.94,0,2.9.08l-3-3-3,3c1-.05,1.93-.08,2.9-.08Z"/><path d="M59.25,90l.09-.09c0-1,0-1.94.08-2.9l-2.29,2.28,1.42,1.42Z"/><path d="M193.45,90.71l1.42-1.42L192.58,87c0,1,.08,1.93.08,2.9Z"/><path d="M78.8,112.38l-2-2v24.55c.66.71,1.32,1.41,2,2.1Z"/><path d="M148.38,137.2l-2,2h24.55c.71-.66,1.41-1.32,2.1-2Z"/><polygon points="78.8 109.55 78.8 70.45 76.8 72.45 76.8 107.55 78.8 109.55"/><polygon points="106.45 137.2 108.45 139.2 143.55 139.2 145.55 137.2 106.45 137.2"/><path d="M103.62,137.2H79c.69.68,1.39,1.34,2.1,2h24.55Z"/><path d="M78.8,67.62V43c-.68.69-1.34,1.39-2,2.1V69.62Z"/><path d="M78.8,137.2V137c-.68-.69-1.34-1.39-2-2.1v4.27h4.27c-.71-.66-1.41-1.32-2.1-2Z"/><path d="M78.8,42.8h-1v-2h-1v4.27c.66-.71,1.32-1.41,2-2.1Z"/><path d="M173.2,137.2H173c-.69.68-1.39,1.34-2.1,2h4.27v-1h-2Z"/><polygon points="76.8 107.55 76.8 110.38 78.8 112.38 78.8 109.55 76.8 107.55"/><polygon points="103.62 137.2 105.62 139.2 108.45 139.2 106.45 137.2 103.62 137.2"/><polygon points="143.55 139.2 146.38 139.2 148.38 137.2 145.55 137.2 143.55 139.2"/><polygon points="78.8 67.62 76.8 69.62 76.8 72.45 78.8 70.45 78.8 67.62"/><polygon points="145.55 42.8 143.55 40.8 108.45 40.8 106.45 42.8 145.55 42.8"/><polygon points="173.2 70.45 173.2 109.55 175.2 107.55 175.2 72.45 173.2 70.45"/><path d="M148.38,42.8H173c-.69-.68-1.39-1.34-2.1-2H146.38Z"/><path d="M173.2,112.38V137c.68-.69,1.34-1.39,2-2.1V110.38Z"/><path d="M173.2,67.62l2,2V45.07c-.66-.71-1.32-1.41-2-2.1Z"/><path d="M103.62,42.8l2-2H81.07c-.71.66-1.41,1.32-2.1,2Z"/><path d="M173.2,42.8V43c.68.69,1.34,1.39,2,2.1V40.8h-4.27c.71.66,1.41,1.32,2.1,2Z"/><path d="M173.2,137.2v1h2v-3.27c-.66.71-1.32,1.41-2,2.1Z"/><path d="M78.8,42.8H79c.69-.68,1.39-1.34,2.1-2H77.8v2Z"/><rect x="174.2" y="70.04" height="2.83"/><polygon points="173.2 112.38 175.2 110.38 175.2 107.55 173.2 109.55 173.2 112.38"/><rect x="174.2" y="67.21" height="2.83"/><rect x="147.38" y="40.39" height="2.83" transform="translate(13.61 116.45) rotate(-45)"/><rect x="144.55" y="40.39" height="2.83"/><polygon points="108.45 40.8 105.62 40.8 103.62 42.8 106.45 42.8 108.45 40.8"/><polygon points="145.55 42.8 148.38 42.8 146.38 40.8 143.55 40.8 145.55 42.8"/><polygon points="173.2 70.45 175.2 72.45 175.2 69.62 173.2 67.62 173.2 70.45"/><path d="M250.78,1.12H1.22V178.88H250.78Zm-.13,177.63H1.35V1.24h249.3Z"/></g></svg>