<svg xmlns="http://www.w3.org/2000/svg" viewBox="0 0 252 180"><g id="Layer_3" data-name="Layer 3"><path d="M192.12,117.44l-.82.07-.24.52,2-.16-1.17-1.64-.24.53Z"/><path d="M180,100.45l11.61,16.31.24-.53L180.74,100.6Z"/><path d="M192.12,117.44l-.49-.68-.33.75Z"/><path d="M193.24,63.13l-.53.63c.06.17.14.35.2.53l1.28-1.5-2-.34.21.54Z"/><path d="M179.84,78.8l.78-.14,12.29-14.37c-.06-.18-.14-.36-.2-.53Z"/><path d="M193.24,63.13,192.4,63c.11.26.21.51.31.77Z"/><path d="M197.35,90.35c0-.21,0-.41,0-.62,0,.27,0,.53,0,.79A1,1,0,0,0,197.35,90.35Z"/><path d="M197.37,88.93c0,.27,0,.54,0,.8s0,.41,0,.62a1,1,0,0,1,0,.17c0,1-.06,2-.13,3a11.63,11.63,0,0,0,.1-7.5C197.34,87,197.37,88,197.37,88.93Z"/><path d="M193.91,80.84A11.76,11.76,0,0,0,184,78.05l-3.34.61-.51.6,3.94-.72a11.29,11.29,0,0,1,13.3,11.19c0-.26,0-.53,0-.8,0-1,0-1.92-.07-2.87A11.81,11.81,0,0,0,193.91,80.84Z"/><path d="M186.09,101a11.57,11.57,0,0,1-2.32-.24l-3.46-.72.43.6,2.93.62a12.51,12.51,0,0,0,2.42.25,11.79,11.79,0,0,0,11.11-7.91c.07-1,.11-2,.13-3A11.29,11.29,0,0,1,186.09,101Z"/><polygon points="180.02 100.45 180.74 100.61 180.31 100 179.59 99.86 180.02 100.45"/><polygon points="180.11 79.26 180.62 78.66 179.84 78.8 179.33 79.4 180.11 79.26"/><path d="M250.28,1.62H1.72V178.38H250.28ZM196.73,91.45a11.6,11.6,0,0,1-.65,3.18,70,70,0,0,1-5.33,22.67l1.17,1.64-2,.15a70.17,70.17,0,0,1-12.29,18.51A11.52,11.52,0,0,1,175,141a11.83,11.83,0,0,1-2.71,1.8,70.19,70.19,0,0,1-19.79,12.23l-.33,2-1.5-1.28a69.68,69.68,0,0,1-21.74,4.39,11.93,11.93,0,0,1-3.63.57l-.74,0a11.84,11.84,0,0,1-3.16-.65,69.81,69.81,0,0,1-22.68-5.33l-1.64,1.17-.15-2A70.17,70.17,0,0,1,78.4,141.65,11.65,11.65,0,0,1,75,139a11.83,11.83,0,0,1-1.8-2.71,70.19,70.19,0,0,1-12.23-19.79l-2-.33,1.28-1.5a69.93,69.93,0,0,1-4.39-21.78,11.87,11.87,0,0,1-.55-4.33,11.53,11.53,0,0,1,.65-3.18A69.89,69.89,0,0,1,61.25,62.7l-1.17-1.64,2-.15A70.17,70.17,0,0,1,74.35,42.4,11.52,11.52,0,0,1,77,39a11.83,11.83,0,0,1,2.71-1.8A70.19,70.19,0,0,1,99.52,24.93l.33-2,1.5,1.28a69.81,69.81,0,0,1,21.76-4.39,11.74,11.74,0,0,1,4.35-.55,11.53,11.53,0,0,1,3.18.65,69.89,69.89,0,0,1,22.66,5.33l1.64-1.17.15,2a70,70,0,0,1,18.52,12.3A11.58,11.58,0,0,1,177,41a11.37,11.37,0,0,1,1.8,2.72,70,70,0,0,1,12.23,19.78l2,.33-1.28,1.5a69.93,69.93,0,0,1,4.39,21.77A11.87,11.87,0,0,1,196.73,91.45Z"/><path d="M137.37,37.82l-8.66,41.6a1.71,1.71,0,0,0,3.09,1.32l23.87-34.53-1.59-20.29Z"/><path d="M154.51,25l.06.82.52.24-.15-2-1.64,1.17.53.24Z"/><path d="M131.55,82.23l.13-.07Z"/><polygon points="156.68 46.52 156.68 46.51 132.62 81.3 156.59 46.65 156.68 46.52"/><path d="M130.48,82.48h0Z"/><path d="M129.8,82.41l.14,0Z"/><path d="M132.19,81.8l-.13.1Z"/><path d="M156.12,45.56l.44-.64-1.47-18.86-.52-.24Z"/><path d="M137.52,37.1l16.31-11.61-.53-.24L137.67,36.38Z"/><path d="M154.51,25l-.68.49c.25.1.49.22.74.33Z"/><path d="M137.37,37.82l16.71-11.9,1.59,20.29.45-.65-1.55-19.74c-.25-.11-.49-.23-.74-.33L137.52,37.1l-8.81,42.32Z"/><path d="M100.55,24.83l-3.4,20.23L120.44,80.6a1.6,1.6,0,0,0,1.49.77,1.75,1.75,0,0,0,.57-.12,1.67,1.67,0,0,0,1-1.9L116,38.06Z"/><path d="M100.2,23.88l.62.53.53-.2-1.5-1.28-.33,2,.54-.22Z"/><path d="M122.25,82.34l.16,0Z"/><path d="M121.2,82.3l.12,0Z"/><polygon points="119.6 81.14 119.61 81.15 119.6 81.14 96.12 45.32 96.12 45.33 119.6 81.14"/><path d="M121.93,82.37h0Z"/><path d="M120.17,81.77l-.14-.12Z"/><path d="M120.55,82a.57.57,0,0,0,.13.08A.57.57,0,0,1,120.55,82Z"/><path d="M96.74,44.44l3.32-19.73-.54.22L96.34,43.84Z"/><path d="M115.88,37.29l-.14-.78-14.39-12.3-.53.2Z"/><path d="M100.2,23.88l-.14.83.76-.3Z"/><path d="M100.55,24.83,116,38.06l7.53,41.29-7.67-42.06L100.82,24.41l-.76.3L96.74,44.44l.41.62Z"/><path d="M122.5,81.25a1.75,1.75,0,0,1-.57.12A1.75,1.75,0,0,0,122.5,81.25Z"/><path d="M73.82,78.63l41.6,8.66h0a1.71,1.71,0,0,0,1.29-3.09L82.22,60.33l-20.3,1.59Z"/><path d="M61,61.49l.82-.06.24-.52-2,.15,1.17,1.64.24-.53Z"/><polygon points="115.22 88.27 104.98 86.14 115.22 88.27 115.22 88.27"/><path d="M116.25,88.3a3.29,3.29,0,0,1-.45,0h0A3,3,0,0,0,116.25,88.3Z"/><path d="M117.73,83.73a2.59,2.59,0,0,1,.74,2.13A2.59,2.59,0,0,0,117.73,83.73Z"/><path d="M117.73,87.48l-.16.17Z"/><path d="M116.4,88.26a1.29,1.29,0,0,0,.28-.08A1.29,1.29,0,0,1,116.4,88.26Z"/><path d="M117.85,87.35l.15-.2Z"/><path d="M117.24,87.9a1.18,1.18,0,0,0,.18-.13A1.18,1.18,0,0,1,117.24,87.9Z"/><path d="M118.08,87a2.19,2.19,0,0,0,.16-.3A2.19,2.19,0,0,1,118.08,87Z"/><polygon points="82.5 59.31 82.5 59.31 117.3 83.38 82.64 59.41 82.5 59.31"/><path d="M116.86,88.11l.21-.1Z"/><path d="M73.1,78.48,61.49,62.17l-.24.53L72.38,78.33Z"/><path d="M81.57,59.88l-.65-.45L62.06,60.91l-.24.52Z"/><path d="M61,61.49l.49.68.33-.74Z"/><path d="M115.45,87.29a1.64,1.64,0,0,0,1.89-1A1.66,1.66,0,0,1,115.45,87.29Z"/><path d="M61.92,61.92l20.3-1.59-.65-.45L61.82,61.43l-.33.74L73.1,78.48l.72.15Z"/><path d="M81.06,118.85l32.31-21.17,3.23-2.12a1.73,1.73,0,0,0,.65-.74,1.76,1.76,0,0,0,.08-1.08,2.25,2.25,0,0,0-.08-.24,1.66,1.66,0,0,0-1.9-1L74.06,100,60.83,115.45Z"/><path d="M59.88,115.8l.53-.62c-.06-.18-.14-.35-.2-.53l-1.28,1.5,2,.33c-.07-.18-.14-.36-.22-.54Z"/><polygon points="117.14 96.4 81.32 119.88 81.33 119.88 117.14 96.4"/><path d="M80.44,119.26l-19.73-3.32c.08.18.15.36.22.54l18.91,3.17Z"/><path d="M73.29,100.12l-.78.14-12.3,14.39c.06.18.14.35.2.53Z"/><path d="M59.88,115.8l.83.14-.3-.76Z"/><path d="M116.6,95.56l-3.23,2.12,3.23-2.12a1.73,1.73,0,0,0,.65-.74A1.73,1.73,0,0,1,116.6,95.56Z"/><path d="M60.83,115.45,74.06,100l-.77.14L60.41,115.18l.3.76,19.73,3.32.62-.41Z"/><path d="M114.63,142.18l8.66-41.6a1.71,1.71,0,0,0-3.09-1.32L96.33,133.78l1.59,20.3Z"/><path d="M97.49,155l-.06-.82-.52-.24.15,2,1.64-1.17-.53-.24Z"/><path d="M121,97.58a2.2,2.2,0,0,1,.5-.06A2.2,2.2,0,0,0,121,97.58Z"/><path d="M121,97.58a2.5,2.5,0,0,0-.52.19A2.5,2.5,0,0,1,121,97.58Z"/><path d="M119.38,98.7a2.6,2.6,0,0,1,.43-.49A2.6,2.6,0,0,0,119.38,98.7Z"/><path d="M122.05,97.56l-.37,0Z"/><path d="M122.68,97.74a2.44,2.44,0,0,0-.48-.15A2.44,2.44,0,0,1,122.68,97.74Z"/><polygon points="95.31 133.5 95.31 133.5 119.38 98.69 95.41 133.35 95.31 133.5"/><path d="M120.31,97.85a3.75,3.75,0,0,0-.36.24A3.75,3.75,0,0,1,120.31,97.85Z"/><path d="M114.48,142.9,98.17,154.51l.53.24,15.63-11.13Z"/><path d="M95.88,134.43l-.45.65,1.48,18.86.52.24Z"/><path d="M97.49,155l.68-.49-.74-.33Z"/><path d="M114.63,142.18l-16.71,11.9-1.59-20.3-.45.65,1.55,19.75.74.33,16.31-11.61,8.81-42.32Z"/><path d="M151.45,155.17l3.4-20.24L131.56,99.4a1.63,1.63,0,0,0-1.29-.78,1.85,1.85,0,0,0-.58.07,1.39,1.39,0,0,0-.19.06,1.69,1.69,0,0,0-1.05,1.21,2,2,0,0,0,0,.69L136,141.94Z"/><path d="M151.8,156.12l-.62-.53-.53.2,1.5,1.28.33-2-.54.22Z"/><polygon points="132.4 98.86 155.91 134.71 155.91 134.71 132.4 98.86"/><path d="M136.12,142.71l.14.78,14.39,12.3.53-.2Z"/><path d="M155.26,135.55l-3.32,19.74.54-.22,3.18-18.91Z"/><path d="M151.8,156.12l.14-.83-.76.3Z"/><path d="M129.69,98.69a1.85,1.85,0,0,1,.58-.07A1.85,1.85,0,0,0,129.69,98.69Z"/><path d="M151.45,155.17,136,141.94l-7.53-41.29,7.67,42.06,15.06,12.88.76-.3,3.32-19.74-.41-.62Z"/><path d="M178.18,101.37l-41.6-8.66a1.69,1.69,0,0,0-.38,0h0a1.64,1.64,0,0,0-.46.08l-.07,0a1.36,1.36,0,0,0-.37.21.18.18,0,0,0-.07,0,1.53,1.53,0,0,0-.28.29.1.1,0,0,0,0,.05,2,2,0,0,0-.2.34,1.66,1.66,0,0,0,.6,2.09l34.52,23.87,20.3-1.59Z"/><path d="M133.52,94.58a2.74,2.74,0,0,1,.08-.86A2.74,2.74,0,0,0,133.52,94.58Z"/><polygon points="169.5 120.69 169.5 120.69 134.7 96.62 169.36 120.59 169.5 120.69"/><path d="M170.43,120.12l.65.45,18.86-1.48.24-.52Z"/><path d="M136.2,92.67a1.69,1.69,0,0,1,.38,0A1.69,1.69,0,0,0,136.2,92.67Z"/><path d="M134.9,93.32a1.53,1.53,0,0,1,.28-.29A1.53,1.53,0,0,0,134.9,93.32Z"/><path d="M190.08,118.08l-20.3,1.59.65.45,19.75-1.55.33-.74L178.9,101.52l-.72-.15Z"/><path d="M135.25,93a1.36,1.36,0,0,1,.37-.21A1.36,1.36,0,0,0,135.25,93Z"/><path d="M134.66,93.71a2,2,0,0,1,.2-.34A2,2,0,0,0,134.66,93.71Z"/><path d="M135.69,92.75a1.64,1.64,0,0,1,.46-.08A1.64,1.64,0,0,0,135.69,92.75Z"/><path d="M191.17,64.55l-20.23-3.4L135.4,84.43a1.71,1.71,0,0,0,1.25,3.12L178,80Z"/><path d="M134.07,87.33a1.88,1.88,0,0,0,.16.23A1.88,1.88,0,0,1,134.07,87.33Z"/><path d="M134.51,87.86a1.53,1.53,0,0,1-.18-.18A1.53,1.53,0,0,0,134.51,87.86Z"/><path d="M135.39,88.42l.24.07Z"/><polygon points="134.85 83.59 170.68 60.12 170.67 60.12 134.85 83.59"/><path d="M135.82,88.54c.11,0,.22,0,.33,0C136,88.56,135.93,88.56,135.82,88.54Z"/><path d="M135,88.23l.22.11Z"/><path d="M133.82,86.87a2.31,2.31,0,0,0,.18.35A2.31,2.31,0,0,1,133.82,86.87Z"/><path d="M134.64,88l.19.15Z"/><path d="M171.56,60.74l19.73,3.32c-.08-.18-.15-.36-.22-.54l-18.91-3.17Z"/><path d="M191.17,64.55,178,80l-41.3,7.54,42.07-7.68,12.87-15.05-.3-.76-19.73-3.32-.62.41Z"/><path d="M174.65,140.67c.15-.13.27-.27.41-.41l-.52.5Z"/><path d="M251.28.62H.72V179.38H251.28Zm-.5,178.26H1.22V1.12H250.78Z"/><path d="M124.57,160.23c.21,0,.42,0,.63,0l-.79,0Z"/><path d="M77.35,39.33c-.15.13-.27.27-.41.41l.52-.5Z"/><path d="M55.77,88.57c0,.21,0,.42,0,.63,0-.26,0-.53,0-.8A1,1,0,0,0,55.77,88.57Z"/><path d="M176.67,41.35c-.13-.15-.27-.27-.41-.41l.5.52Z"/><path d="M127.43,19.77h-.64l.81,0Z"/><path d="M75.33,138.65c.13.15.27.27.41.41l-.5-.52Z"/><path d="M55.77,89.2c0-.21,0-.42,0-.63a1,1,0,0,1,0-.17c0-1,.06-2,.13-3a11.53,11.53,0,0,0-.65,3.18,11.87,11.87,0,0,0,.55,4.33c0-1-.07-1.91-.07-2.87C55.75,89.73,55.77,89.47,55.77,89.2Z"/><path d="M176.26,40.94c.14.14.28.26.41.41l.09.11c.71.74,1.41,1.5,2.08,2.28A11.37,11.37,0,0,0,177,41a11.58,11.58,0,0,0-3.43-2.66C174.52,39.19,175.4,40.06,176.26,40.94Z"/><path d="M1.22,178.88H250.78V1.12H1.22ZM1.72,1.62H250.28V178.38H1.72Z"/><path d="M75.74,139.06c-.14-.14-.28-.26-.41-.41l-.09-.11c-.71-.74-1.4-1.5-2.08-2.27A11.83,11.83,0,0,0,75,139a11.65,11.65,0,0,0,3.44,2.67C77.49,140.81,76.6,140,75.74,139.06Z"/><path d="M175.06,140.26c-.14.14-.26.28-.41.41l-.11.09c-.74.71-1.5,1.4-2.27,2.08A11.83,11.83,0,0,0,175,141a11.52,11.52,0,0,0,2.67-3.44C176.81,138.51,175.94,139.4,175.06,140.26Z"/><path d="M125.2,160.23c-.21,0-.42,0-.63,0l-.16,0c-1,0-2-.06-3-.13a11.84,11.84,0,0,0,3.16.65l.74,0a11.93,11.93,0,0,0,3.63-.57c-1,0-1.93.07-2.91.07Z"/><path d="M76.94,39.74c.14-.14.26-.28.41-.41l.11-.09c.74-.71,1.5-1.4,2.27-2.08A11.83,11.83,0,0,0,77,39a11.52,11.52,0,0,0-2.67,3.44C75.19,41.49,76.05,40.6,76.94,39.74Z"/><path d="M126.79,19.77h.64l.17,0c1,0,2,.06,3,.13a11.53,11.53,0,0,0-3.18-.65,11.74,11.74,0,0,0-4.35.55c1,0,1.92-.07,2.89-.07Z"/><path d="M135.21,88.34l.18.08Z"/><path d="M134.83,88.13l.16.1Z"/><path d="M135.63,88.49l.19.05Z"/><path d="M134.64,88l-.13-.12Z"/><path d="M134,87.22l.07.11Z"/><path d="M129.94,82.44l.4,0Z"/><path d="M131.68,82.16a2.86,2.86,0,0,0,.38-.26A2.86,2.86,0,0,1,131.68,82.16Z"/><path d="M131.55,82.23a2.57,2.57,0,0,1-1.07.25A2.57,2.57,0,0,0,131.55,82.23Z"/><path d="M118.47,85.86a2.75,2.75,0,0,1-.21.82l0,0,0,0A2.75,2.75,0,0,0,118.47,85.86Z"/><path d="M117.57,87.65l-.15.12Z"/><path d="M120,81.65a2.32,2.32,0,0,1-.42-.5A2.32,2.32,0,0,0,120,81.65Z"/><path d="M122.25,82.34a3.16,3.16,0,0,1-.32,0A3.16,3.16,0,0,0,122.25,82.34Z"/><path d="M132.62,81.3a3,3,0,0,1-.43.5A3,3,0,0,0,132.62,81.3Z"/><path d="M129.32,82.26a2.44,2.44,0,0,0,.48.15A2.67,2.67,0,0,1,129.32,82.26Z"/><path d="M92.68,137.31a10.8,10.8,0,1,1-14.81-15.17l3.45-2.26h-.14l-.62-.1-3,1.94a11.3,11.3,0,0,0-2.36,16.82l.5.52a11.28,11.28,0,0,0,17.35-1.47l2.28-3.3-.06-.79Z"/><path d="M118,87.15a1.48,1.48,0,0,0,.08-.13A1.48,1.48,0,0,1,118,87.15Z"/><path d="M182.93,79.61l-3.94.72-.52.6-.17,0-41.47,7.57L183,80.1A10.8,10.8,0,1,1,185,101.53a11.23,11.23,0,0,1-2.22-.23l-46-9.57,42,8.74.43.6,3.46.72A11.57,11.57,0,0,0,185,102a11.29,11.29,0,0,0,11.24-10.45c0-.26,0-.52,0-.78A11.29,11.29,0,0,0,182.93,79.61Z"/><path d="M116.68,88.18l.18-.07Z"/><path d="M116.25,88.3l.15,0Z"/><path d="M122.41,82.31a2.42,2.42,0,0,0,.46-.13A2.42,2.42,0,0,1,122.41,82.31Z"/><path d="M117.07,88l.17-.11Z"/><path d="M120.46,97.77l-.15.08Z"/><path d="M121,97.58h0Z"/><path d="M122.2,97.59l-.15,0Z"/><path d="M120.68,82.11a2.5,2.5,0,0,0,.52.19A2.5,2.5,0,0,1,120.68,82.11Z"/><path d="M78.69,56.68A10.8,10.8,0,1,1,93.86,41.87l2.26,3.45v-.14l.1-.62-1.94-3a11.3,11.3,0,0,0-16.82-2.36l-.52.5a11.28,11.28,0,0,0,1.47,17.35l3.3,2.28.79-.06Z"/><path d="M121.32,82.32a3,3,0,0,0,.43.05A3,3,0,0,1,121.32,82.32Z"/><path d="M117.73,87.48l.12-.13Z"/><path d="M127.47,100.83,135.89,147a10.8,10.8,0,1,1-21.42,2,11.23,11.23,0,0,1,.23-2.22l9.57-46-8.74,42-.6.43-.72,3.46A11.57,11.57,0,0,0,114,149a11.3,11.3,0,0,0,10.44,11.24l.79,0a11.28,11.28,0,0,0,11.18-13.31l-.72-3.94-.6-.52Z"/><path d="M120.17,81.77a2.33,2.33,0,0,0,.38.26A2.33,2.33,0,0,1,120.17,81.77Z"/><path d="M115.8,88.33a2.93,2.93,0,0,1-.58-.06A2.93,2.93,0,0,0,115.8,88.33Z"/><path d="M134.23,87.56l.1.12Z"/><path d="M159.32,42.68a10.8,10.8,0,1,1,14.81,15.18l-3.45,2.26h.14l.62.1,3-1.94a11.3,11.3,0,0,0,2.36-16.82l-.5-.52a11.29,11.29,0,0,0-17.35,1.46l-2.29,3.32.06.79Z"/><path d="M136.15,88.57a2.64,2.64,0,0,0,.68,0,2.44,2.44,0,0,1-.53,0Z"/><path d="M173.31,123.32a10.8,10.8,0,1,1-15.17,14.8l-2.23-3.41-.13.73,1.94,2.95a11.29,11.29,0,0,0,16.82,2.37l.52-.5a11.28,11.28,0,0,0-1.47-17.35l-3.3-2.28-.79.06Z"/><path d="M119.81,98.21l.14-.12Z"/><path d="M124.53,79.17,116.11,33a10.8,10.8,0,1,1,21.42-2,11.26,11.26,0,0,1-.23,2.23l-9.57,46,8.74-42,.6-.43.72-3.46A11.59,11.59,0,0,0,138,31,11.28,11.28,0,0,0,127.6,19.79l-.81,0a11.28,11.28,0,0,0-11.17,13.3l.72,4,.6.52Z"/><path d="M73.71,99l41.46-7.56L69,99.89a10.8,10.8,0,1,1-2-21.42,11.26,11.26,0,0,1,2.23.23L105,86.14,73.24,79.53l-.43-.6-3.46-.72A11.59,11.59,0,0,0,67,78,11.28,11.28,0,0,0,55.79,88.4c0,.27,0,.54,0,.8a11.28,11.28,0,0,0,13.31,11.18L73,99.66l.52-.6Z"/><path d="M121.51,97.52h0Z"/><path d="M134.7,96.62a2.6,2.6,0,0,1-1.18-2A2.6,2.6,0,0,0,134.7,96.62Z"/><path d="M84.5,143a11.7,11.7,0,0,0,9-5.08l1.93-2.79-.06-.79-2.28,3.3a11.28,11.28,0,0,1-17.35,1.47c.86.89,1.75,1.75,2.66,2.59A11.68,11.68,0,0,0,84.5,143Z"/><path d="M179,131.5a11.7,11.7,0,0,0-5.08-9l-2.79-1.93-.79.06,3.3,2.28a11.28,11.28,0,0,1,1.47,17.35c.88-.86,1.75-1.75,2.59-2.66A11.68,11.68,0,0,0,179,131.5Z"/><path d="M179.5,48.81a11.28,11.28,0,0,1-5.1,9.47l-3,1.94.72.13,2.51-1.65A11.79,11.79,0,0,0,180,48.81a11.63,11.63,0,0,0-1.16-5.07c-.67-.78-1.37-1.54-2.08-2.28A11.18,11.18,0,0,1,179.5,48.81Z"/><path d="M167.18,143.5a11.26,11.26,0,0,1-9.46-5.11l-1.94-2.95-.12.72,1.64,2.5a11.79,11.79,0,0,0,15,4.18c.77-.68,1.53-1.37,2.27-2.08A11.26,11.26,0,0,1,167.18,143.5Z"/><path d="M158.5,42.12l-1.94,2.8.06.8,2.29-3.32a11.29,11.29,0,0,1,17.35-1.46c-.86-.88-1.74-1.75-2.65-2.58a11.75,11.75,0,0,0-15.11,3.76Z"/><path d="M73.05,48.5a11.7,11.7,0,0,0,5.08,9l2.79,1.93.79-.06-3.3-2.28a11.28,11.28,0,0,1-1.47-17.35c-.89.86-1.75,1.75-2.59,2.66A11.68,11.68,0,0,0,73.05,48.5Z"/><path d="M138,31a11.59,11.59,0,0,1-.24,2.33l-.72,3.46.6-.43.61-2.93a11.78,11.78,0,0,0-7.64-13.53c-1-.07-2-.11-3-.13A11.28,11.28,0,0,1,138,31Z"/><path d="M114,149a11.57,11.57,0,0,1,.24-2.32l.72-3.46-.6.43-.61,2.93a11.77,11.77,0,0,0,7.66,13.53c1,.07,2,.11,3,.13A11.3,11.3,0,0,1,114,149Z"/><path d="M117.9,23.22a11.7,11.7,0,0,0-2.77,9.94l.61,3.35.6.51-.72-4a11.28,11.28,0,0,1,11.17-13.3l-.79,0c-1,0-1.93,0-2.89.07A11.8,11.8,0,0,0,117.9,23.22Z"/><path d="M72.5,131.18a11.26,11.26,0,0,1,5.1-9.46l3-1.94-.72-.13-2.51,1.65a11.8,11.8,0,0,0-4.17,15c.68.77,1.37,1.53,2.08,2.27A11.26,11.26,0,0,1,72.5,131.18Z"/><path d="M67,78a11.59,11.59,0,0,1,2.33.24l3.46.72-.43-.6-2.93-.61a11.78,11.78,0,0,0-13.53,7.64c-.07,1-.11,2-.13,3A11.28,11.28,0,0,1,67,78Z"/><path d="M134.09,156.78a11.69,11.69,0,0,0,2.78-9.95l-.61-3.34-.6-.51.72,3.94a11.28,11.28,0,0,1-11.18,13.31l.8,0c1,0,2,0,2.91-.07A11.71,11.71,0,0,0,134.09,156.78Z"/><path d="M84.82,36.5a11.26,11.26,0,0,1,9.46,5.1l1.94,3,.12-.72L94.7,41.33a11.8,11.8,0,0,0-15-4.17c-.77.68-1.53,1.37-2.27,2.08A11.2,11.2,0,0,1,84.82,36.5Z"/><path d="M59.22,98.09a11.68,11.68,0,0,0,10,2.78l3.34-.61.51-.6-3.94.72A11.28,11.28,0,0,1,55.77,89.2c0,.27,0,.53,0,.8,0,1,0,1.92.07,2.87A11.69,11.69,0,0,0,59.22,98.09Z"/><polygon points="155.67 46.22 155.67 46.21 131.8 80.74 155.67 46.22"/><path d="M127.73,79.22a2.69,2.69,0,0,0,2.07,3.19l.14,0,.4,0h.14a2.57,2.57,0,0,0,1.07-.25l.13-.07a2.86,2.86,0,0,0,.38-.26l.13-.1a3,3,0,0,0,.43-.5l24.06-34.79-.06-.79-.44.63h0L132.21,81a2.21,2.21,0,0,1-4-1.7l.35-1.69,8.35-40.1.15-.72-.6.43Z"/><polygon points="156.62 45.72 156.56 44.92 156.12 45.56 156.18 46.35 156.62 45.72"/><polygon points="137.52 37.1 137.67 36.38 137.07 36.81 136.92 37.53 137.52 37.1"/><path d="M128.57,77.63l-.35,1.69a2.21,2.21,0,0,0,4,1.7l24-34.66h0l-.06-.79-.45.65h0L131.8,80.74a1.71,1.71,0,0,1-3.09-1.32l8.81-42.32-.6.43Z"/><path d="M120.44,80.6,97.15,45.06h0l23.3,35.53a1.6,1.6,0,0,0,1.49.77A1.6,1.6,0,0,1,120.44,80.6Z"/><path d="M96.12,45.32,119.6,81.14h0a2.32,2.32,0,0,0,.42.5l.14.12a2.33,2.33,0,0,0,.38.26.57.57,0,0,0,.13.08,2.5,2.5,0,0,0,.52.19l.12,0a3,3,0,0,0,.43.05h.18a3.16,3.16,0,0,0,.32,0l.16,0a2.42,2.42,0,0,0,.46-.13,2.66,2.66,0,0,0,1.66-3l-7.59-41.63-.6-.52.14.78,7.25,39.77.31,1.69a2.21,2.21,0,0,1-4,1.61L96.62,45.18h0l-.4-.61-.1.62Z"/><polygon points="96.74 44.44 96.34 43.84 96.22 44.56 96.62 45.17 96.74 44.44"/><polygon points="116.34 37.02 115.74 36.51 115.88 37.29 116.48 37.8 116.34 37.02"/><path d="M96.62,45.18,120,80.87a2.21,2.21,0,0,0,4-1.61l-.31-1.69L116.48,37.8l-.6-.51,7.67,42.06a1.67,1.67,0,0,1-1,1.9,1.75,1.75,0,0,1-.57.12,1.6,1.6,0,0,1-1.49-.77L97.14,45.07h0l-.41-.62-.12.73Z"/><polygon points="82.22 60.33 82.22 60.33 116.74 84.2 82.22 60.33"/><polygon points="73.82 78.63 115.42 87.29 73.82 78.63 73.82 78.63"/><path d="M115.42,87.29h0Z"/><path d="M105,86.14l10.24,2.13a2.93,2.93,0,0,0,.58.06,3.29,3.29,0,0,0,.45,0l.15,0a1.29,1.29,0,0,0,.28-.08l.18-.07.21-.1.17-.11a1.18,1.18,0,0,0,.18-.13l.15-.12.16-.17.12-.13.15-.2a1.48,1.48,0,0,0,.08-.13,2.19,2.19,0,0,0,.16-.3l0,0a2.75,2.75,0,0,0,.21-.82,2.59,2.59,0,0,0-.74-2.13,3,3,0,0,0-.43-.35L82.5,59.31l-.79.06.65.45,34.66,24a2.21,2.21,0,0,1-1.7,4l-41.79-8.7-.72-.15.43.6Z"/><polygon points="73.1 78.48 72.38 78.33 72.81 78.93 73.53 79.08 73.1 78.48"/><polygon points="81.71 59.37 80.92 59.43 81.57 59.88 82.36 59.82 81.71 59.37"/><path d="M115.32,87.78a2.21,2.21,0,0,0,1.7-4l-34.66-24-.79.06.65.45h0L116.74,84.2a1.67,1.67,0,0,1,.6,2.09,1.64,1.64,0,0,1-1.89,1h0l-41.6-8.66h0l-.72-.15.43.6Z"/><polygon points="74.06 99.98 74.06 99.98 115.35 92.45 74.06 99.98"/><polygon points="81.07 118.86 113.37 97.68 81.06 118.85 81.07 118.86"/><path d="M117.25,94.82a1.76,1.76,0,0,0,.08-1.08A1.76,1.76,0,0,1,117.25,94.82Z"/><path d="M81.32,119.88,117.14,96.4a2.71,2.71,0,0,0-2-4.93L73.71,99l-.17,0-.52.6.78-.14L115.26,92a2.21,2.21,0,0,1,1.61,4l-35.69,23.4h0l-.61.4.62.1Z"/><polygon points="73.02 99.66 72.51 100.26 73.28 100.12 73.8 99.52 73.02 99.66"/><polygon points="80.44 119.26 79.84 119.66 80.56 119.78 81.17 119.38 80.44 119.26"/><path d="M81.18,119.38,116.87,96a2.21,2.21,0,0,0-1.61-4L73.8,99.52l-.51.6.77-.14h0l41.29-7.53a1.66,1.66,0,0,1,1.9,1,2.25,2.25,0,0,1,.08.24,1.76,1.76,0,0,1-.08,1.08,1.73,1.73,0,0,1-.65.74l-3.23,2.12-32.3,21.18h0l-.62.41.73.12Z"/><polygon points="96.33 133.78 96.33 133.78 120.2 99.26 96.33 133.78"/><path d="M124.27,100.78a2.65,2.65,0,0,0-1.59-3,2.44,2.44,0,0,0-.48-.15l-.15,0-.37,0h-.17a2.2,2.2,0,0,0-.5.06h0a2.5,2.5,0,0,0-.52.19l-.15.08a3.75,3.75,0,0,0-.36.24l-.14.12a2.6,2.6,0,0,0-.43.49L95.31,133.5l.06.79.45-.65,24-34.66a2.21,2.21,0,0,1,4,1.7l-8.7,41.79-.15.72.6-.43Z"/><polygon points="114.48 142.9 114.33 143.62 114.93 143.19 115.08 142.47 114.48 142.9"/><polygon points="95.37 134.29 95.43 135.08 95.88 134.43 95.82 133.64 95.37 134.29"/><path d="M123.78,100.68a2.21,2.21,0,0,0-4-1.7l-24,34.66.06.79.45-.65h0L120.2,99.26a1.71,1.71,0,0,1,3.09,1.32l-8.81,42.32.6-.43Z"/><path d="M129.5,98.75a1.39,1.39,0,0,1,.19-.06,1.39,1.39,0,0,0-.19.06,1.69,1.69,0,0,0-1.05,1.21A1.69,1.69,0,0,1,129.5,98.75Z"/><polygon points="154.85 134.93 131.56 99.4 154.85 134.93 154.85 134.93"/><path d="M131.56,99.4a1.62,1.62,0,0,0-1.29-.78A1.63,1.63,0,0,1,131.56,99.4Z"/><path d="M132.4,98.86a2.71,2.71,0,0,0-4.93,2l7.59,41.63.6.52-.14-.78L128,100.74a2.21,2.21,0,0,1,4-1.61l23.4,35.69.4.62.13-.73Z"/><polygon points="135.66 142.98 136.26 143.49 136.12 142.71 135.52 142.2 135.66 142.98"/><polygon points="155.26 135.55 155.66 136.16 155.78 135.44 155.38 134.82 155.26 135.55"/><path d="M132,99.13a2.21,2.21,0,0,0-4,1.61l7.56,41.46.6.51-7.67-42.06a2,2,0,0,1,0-.69,1.69,1.69,0,0,1,1.05-1.21,1.39,1.39,0,0,1,.19-.06,1.85,1.85,0,0,1,.58-.07,1.62,1.62,0,0,1,1.29.78l23.29,35.53h0l.41.62.12-.73Z"/><path d="M136.19,92.67h0Z"/><polygon points="169.78 119.67 169.78 119.67 135.26 95.8 169.78 119.67"/><path d="M134.86,93.37a.1.1,0,0,1,0-.05A.1.1,0,0,0,134.86,93.37Z"/><path d="M135.18,93a.18.18,0,0,1,.07,0A.18.18,0,0,0,135.18,93Z"/><path d="M135.62,92.77l.07,0Z"/><polygon points="178.18 101.37 136.58 92.71 178.18 101.37 178.18 101.37"/><path d="M136.78,91.73a2.65,2.65,0,0,0-3,1.59c-.05.13-.1.26-.14.4a2.74,2.74,0,0,0-.08.86,2.6,2.6,0,0,0,1.18,2l34.8,24.07.79-.06-.65-.45L135,96.21a2.21,2.21,0,0,1,1.7-4l41.79,8.7.72.15-.43-.6Z"/><polygon points="170.29 120.63 171.08 120.57 170.43 120.12 169.64 120.18 170.29 120.63"/><path d="M136.68,92.22a2.21,2.21,0,0,0-1.7,4l34.66,24,.79-.06-.65-.45h0L135.26,95.8a1.66,1.66,0,0,1-.6-2.09,2,2,0,0,1,.2-.34.1.1,0,0,1,0-.05,1.53,1.53,0,0,1,.28-.29.18.18,0,0,1,.07,0,1.36,1.36,0,0,1,.37-.21l.07,0a1.64,1.64,0,0,1,.46-.08h0a1.69,1.69,0,0,1,.38,0l41.6,8.66h0l.72.15-.43-.6Z"/><polygon points="170.93 61.15 135.4 84.43 170.94 61.15 170.93 61.15"/><path d="M170.68,60.12,134.86,83.59a2.66,2.66,0,0,0-1,3.28,2.31,2.31,0,0,0,.18.35l.07.11a1.88,1.88,0,0,0,.16.23l.1.12a1.53,1.53,0,0,0,.18.18l.13.12.19.15.16.1.22.11.18.08.24.07.19.05c.11,0,.22,0,.33,0h.15a2.44,2.44,0,0,0,.53,0L178.3,81l.17,0,.52-.6-.78.14h0l.35.36h0l-.35-.37L136.74,88a2.21,2.21,0,0,1-1.61-4l35.69-23.39h0l.61-.4-.62-.1Z"/><polygon points="171.56 60.74 172.16 60.34 171.44 60.22 170.83 60.62 171.56 60.74"/><path d="M170.82,60.62,135.13,84a2.21,2.21,0,0,0,1.61,4l41.45-7.57-.33-.35.34.35h0l.51-.6-42.07,7.68a1.71,1.71,0,0,1-1.25-3.12l35.53-23.29h0l.62-.41-.73-.12Z"/><rect x="178.37" y="80.4" width="0.01" height="0.51" transform="translate(-6.42 145.27) rotate(-43.6)"/><polygon points="178.19 80.47 178.2 80.47 177.85 80.12 178.19 80.47"/></g></svg>