<svg xmlns="http://www.w3.org/2000/svg" viewBox="0 0 252 180"><g id="Layer_3" data-name="Layer 3"><path d="M1.1,179H250.9V1H1.1ZM1.22,1.12H250.78V178.88H1.22Z"/><path d="M250.78,1.12H1.22V178.88H250.78Zm-.13,177.63H1.35V1.25h249.3Z"/><path d="M69.47,131.56a70.11,70.11,0,0,0,113.05,0h0a70.15,70.15,0,0,0-98-98.1h0a70.08,70.08,0,0,0-15,98.1ZM126,158.19A67.87,67.87,0,0,1,85.78,145l41.57-42.24,40.47,41A67.86,67.86,0,0,1,126,158.19ZM180.39,48.91a68.07,68.07,0,0,1,.64,81.32L140.38,89.56ZM126,21.81A67.79,67.79,0,0,1,166.21,35L126,75.18,85.79,35A67.79,67.79,0,0,1,126,21.81ZM57.81,90A67.83,67.83,0,0,1,72.75,47.45L113,88.22l-42,42A67.8,67.8,0,0,1,57.81,90Z"/></g></svg>