<svg xmlns="http://www.w3.org/2000/svg" viewBox="0 0 252 180"><g id="Layer_3" data-name="Layer 3"><path d="M250.78,1.12H1.22V178.88H250.78ZM135.88,22.06a1.53,1.53,0,0,1,1.77-1.52,70.45,70.45,0,0,1,58,59.18,1.54,1.54,0,0,1-1.53,1.74h-32a1.53,1.53,0,0,1-1.31-2.33l11.94-19.6a1.54,1.54,0,0,0-1.31-2.34h-34a1.54,1.54,0,0,1-1.53-1.53ZM56.33,79.72A70.45,70.45,0,0,1,118.68,20a1.54,1.54,0,0,1,1.68,1.54V55.66a1.54,1.54,0,0,1-1.54,1.53H81.75a1.54,1.54,0,0,0-1.31,2.34l11.94,19.6a1.53,1.53,0,0,1-1.31,2.33H57.86A1.54,1.54,0,0,1,56.33,79.72ZM119,158.36a1.53,1.53,0,0,1-1.71,1.53,70.45,70.45,0,0,1-60.95-59.64,1.54,1.54,0,0,1,1.53-1.74h45.47a1.54,1.54,0,0,1,1.31.74l14.12,23.17a1.52,1.52,0,0,1,.23.8ZM124.3,103A13.12,13.12,0,1,1,139,88.29,13.16,13.16,0,0,1,124.3,103Zm71.37-2.76a70.42,70.42,0,0,1-59.25,59.4,1.54,1.54,0,0,1-1.74-1.53v-35.7a1.6,1.6,0,0,1,.22-.8l13.64-22.37a1.54,1.54,0,0,1,1.31-.74h44.29A1.54,1.54,0,0,1,195.67,100.25Z"/></g></svg>