<svg xmlns="http://www.w3.org/2000/svg" viewBox="0 0 252 180"><g id="Layer_3" data-name="Layer 3"><path d="M120.38,95.44a3.47,3.47,0,0,0-.3-.38,2.62,2.62,0,0,0-1.32.55,2.62,2.62,0,0,1,1.32-.55A3.47,3.47,0,0,1,120.38,95.44Z"/><path d="M120.43,95.55a1.46,1.46,0,0,1,.07.19A1.46,1.46,0,0,0,120.43,95.55Z"/><path d="M85.41,92.31a.6.6,0,0,1-.48.67.61.61,0,0,0,.49-.67.49.49,0,0,0-.17-.41A.46.46,0,0,1,85.41,92.31Z"/><path d="M190.39,66.23c-.06-.44-.31-.88-.08-1.34a1,1,0,0,0-.42-1.41l-2.19.63a2.44,2.44,0,0,0-.67.17,11.33,11.33,0,0,1-2.75,1.17,3.22,3.22,0,0,1-1.57.16,1,1,0,0,0-.67,0,2.48,2.48,0,0,1-1.36.47,3.37,3.37,0,0,0-.82.19c-1.24.43-2.48.89-3.73,1.31a25,25,0,0,0-4,1.34,1.28,1.28,0,0,1-1.19.13c.11-.5.11-.51.41-.66a2.73,2.73,0,0,1,.72-.27,11,11,0,0,0,3.24-1.26,20.68,20.68,0,0,0,4-2.67,1.35,1.35,0,0,1,.44-.2c.51-.14,1-.23,1.54-.41a6.68,6.68,0,0,0,1.67-.78,5.42,5.42,0,0,1,2.3-1.11,5.86,5.86,0,0,0,1.59-.69.86.86,0,0,0,.31-1.26,1.28,1.28,0,0,0-1.91-.63c-.67.3-1.3.69-2,1a29.17,29.17,0,0,0-3.3,1.79,11.56,11.56,0,0,1-1.92.79c-.29.11-.65,0-1,.11-.48.14-.95.37-1.43.53a11.83,11.83,0,0,0-3,1.57,3.55,3.55,0,0,0-1.32,1.29l.27.64c-.39.52-.44.56-.88.19a.78.78,0,0,0-.9-.12c-.42.18-.87.32-1.29.53a7.25,7.25,0,0,0-1.05.68.85.85,0,0,0-.19.9.57.57,0,0,0,.71.24c.45-.11.53,0,.61.83a3.59,3.59,0,0,0-.88-.17,4.9,4.9,0,0,0-.88.18,3.14,3.14,0,0,0-.55-.82,2.43,2.43,0,0,1-.81-1,.9.9,0,0,0-1-.55c-.28,0-.55.07-.82.09s-.71,0-1.06,0l-.06-.16a7.94,7.94,0,0,1,1.25-1.08c.67-.39,1.43-.65,2.14-1a19.35,19.35,0,0,0,2-1,2.53,2.53,0,0,1,1.56-.5.71.71,0,0,0,.78-.45,3.18,3.18,0,0,1,.48-.73c.53-.62.41-1.4.5-2.12,0-.12-.1-.25-.14-.38-.19-.57-.4-1.13-.56-1.71a2,2,0,0,0-.74-1.27.54.54,0,0,1,0-.89,3,3,0,0,1,.62-.43c.21-.14.44-.26.65-.4s.55-.43.85-.6a9.93,9.93,0,0,0,1.18-.58A12.51,12.51,0,0,0,175,53.17a.52.52,0,0,1,.18-.1c.79-.39,1.57-.8,2.38-1.15.66-.3,1.57-1.33,1.48-1.94a3.07,3.07,0,0,0-1-2.09.67.67,0,0,0-.7-.18,8.76,8.76,0,0,0-2,1c-.75.55-1.54,1-2.31,1.55-.58.39-1.16.78-1.71,1.21a13.41,13.41,0,0,1-2.74,1.61c-.19.08-.4.28-.54,0a1,1,0,0,1-.05-.64,2,2,0,0,1,.31-.53,13.61,13.61,0,0,1,.8-1.14,11.14,11.14,0,0,1,1.81-2.29,1.16,1.16,0,0,0,.48-1c-.05-.6.31-.88.74-1.14a3.61,3.61,0,0,1,.46-.17,1.14,1.14,0,0,0,.78-1.13,11.83,11.83,0,0,1,.34-1.87c.07-.61-.22-1.26-.21-1.89a1.17,1.17,0,0,0-.51-1.06,5.2,5.2,0,0,1-.43-.37,1.13,1.13,0,0,0-1.88.12,2.45,2.45,0,0,1-1,.78,1.16,1.16,0,0,0-.49.38c-.42.58-1.07,1-1.33,1.68a1.33,1.33,0,0,1-.38.5,14.88,14.88,0,0,0-2,2.72,4.12,4.12,0,0,0-.46.85c-.26.66-.72.83-1.3.43a.51.51,0,0,0-.68,0,5.8,5.8,0,0,1-1.95.91,2.56,2.56,0,0,0-.64.27c-.48.27-.94.59-1.44.82a3.06,3.06,0,0,1-1.32.35,4.34,4.34,0,0,1,1.29-1.53,8.79,8.79,0,0,0,.79-.57c1-.85,2-1.74,3-2.59a2.85,2.85,0,0,0,1-1.4,3.87,3.87,0,0,1,.39-.79c.24-.42.51-.81.76-1.22a.41.41,0,0,0,0-.57c-.16-.18-.34-.35-.6-.23a9,9,0,0,0-1.34.6c-1,.62-1.87,1.28-2.79,1.94-.68.49-1.33,1-2,1.52-.84.62-1.67,1.24-2.54,1.83-.53.36-1.09.69-1.66,1-.41.22-.62.17-.79-.25s-.42-.46-.71-.6l-.4-.15c.18-.17.31-.27.43-.38.84-.75,1.86-1.25,2.7-2a14.88,14.88,0,0,1,2.14-1.4c.46-.29,1-.42,1.32-1a.65.65,0,0,1,.28-.2l1.24-.61a.88.88,0,0,0,.58-.94c-.09-.38.08-.53.22-.79a1.62,1.62,0,0,0,.26-1.49c-.18-.39-.37-.44-.67-.14a3.91,3.91,0,0,1-.55.53c-1,.61-2,1.19-3,1.8-.38.22-.73.49-1.11.71a9,9,0,0,1-2.21,1.16c-.06,0-.1.1-.16.14l-.78.54c-.57-.34-.8-.72-.51-1.26a1.08,1.08,0,0,0,0-1.06,1.87,1.87,0,0,1,.06-1.65,2.66,2.66,0,0,1,.45-.71,5.59,5.59,0,0,0,1.1-1.83c0-.14.19-.25.31-.37s.51-.48.74-.75a1,1,0,0,0,.3-.53,5.44,5.44,0,0,0-.22-2.47,4,4,0,0,1-.32-1.9,1.2,1.2,0,0,0-.7-1.32,1.76,1.76,0,0,0-1.83.15,6.13,6.13,0,0,0-2.1,3.08,6.3,6.3,0,0,1-.72,1.64,1.51,1.51,0,0,0-.35,1.37.72.72,0,0,1-.11.51,8,8,0,0,0-1,2.43,1.74,1.74,0,0,0,.31,2.09l-1,1.17c.13,1,1.11,1.23,1.56,1.91-.28,0-.52-.09-.76-.11a4.75,4.75,0,0,0-2.21.76c-.17.09-.27.36-.37.57-.19.42.11.79.17,1.24-.62.27-.73,1.17-1.51,1.27-.83-.71-.91-1.13-.42-2.05,0-.08.08-.17.13-.25a1.17,1.17,0,0,0-.11-1.53,1.81,1.81,0,0,1-.19-.29c-.29-.55-.22-.73.34-1s.64-.33.5-1a3.45,3.45,0,0,1-.11-.54.87.87,0,0,0-.74-.84l-.86,1.12-.88-.78c-.49-.39-.81-.33-1,.23a3.62,3.62,0,0,0-.17.87c-.07.65-.11,1.29-.18,1.94,0,.07-.1.13-.16.19s-.12-.07-.12-.11a4,4,0,0,1-.17-1.55.92.92,0,0,0,0-.4c-.19-.71-.41-1.41-.56-2.13a3.38,3.38,0,0,1,0-1.1,4.46,4.46,0,0,1,1.09-2,2.68,2.68,0,0,0,.55-1.34c.1-1,.13-2,.3-2.95a9,9,0,0,1,.87-2.9c.26-.47.48-.95.71-1.42.11-.24,0-.81-.21-.88a.93.93,0,0,0-.72,0,5.09,5.09,0,0,0-1.48,2.3c-.26.79-.4,1.61-.68,2.39a8.35,8.35,0,0,0-.47,2.15,4,4,0,0,1-.27,1.14c-.2.5-.47,1-1,1.12a.76.76,0,0,0-.66.61,4.07,4.07,0,0,0-.22,1.56,6.93,6.93,0,0,1-.09,1.44c-.7.09-1-.63-1.51-.75l-.51.29c-.38.23-.39.31-.15.71.1.17.27.39.23.55a7.32,7.32,0,0,0,.06,1.69,7.83,7.83,0,0,1-.13,2.14l-1.2-1.36c.6-.67.61-1,.11-1.44s-.89-.15-1.33.54l.48.68-.48.79c-.15.26.18.64-.21.88a8,8,0,0,1-.75-2.11c-.22-1.1-.55-2.18-.81-3.28s-.46-2-.67-3a3.17,3.17,0,0,1,.35-2.24,1.23,1.23,0,0,0,0-1.48,1.51,1.51,0,0,1-.3-1,1.66,1.66,0,0,0-.19-.46c-1.09.22-1.09.22-1.19,1.18a.87.87,0,0,1-.71.83c-.36.09-.75.49-.65.7.2.45-.14,1,.2,1.38.05.07,0,.22,0,.33a1.85,1.85,0,0,0,0,.47c.15.69.31,1.39.47,2.08.23,1,.46,1.93.67,2.9a4.85,4.85,0,0,1,0,.87,5,5,0,0,1-.78-.29,2,2,0,0,1-.45-.43,7.46,7.46,0,0,0-2.64-2,1.51,1.51,0,0,1-.84-.9,5.73,5.73,0,0,1-.28-2.73,2.39,2.39,0,0,0,0-.8c-.14-.75-.32-1.49-.47-2.23-.09-.48-.16-1-.23-1.43-.16-1-.69-1.88-.87-2.89a12.11,12.11,0,0,0-1.1-2.68.72.72,0,0,0-.76-.38.57.57,0,0,0-.49.53,5.62,5.62,0,0,0-.16,1.09c0,.72.06,1.45,0,2.16a2.4,2.4,0,0,0,.07,1.28,1.63,1.63,0,0,1,0,1.69c.34.44.65.84,1,1.25a.85.85,0,0,1,.17.43,4.1,4.1,0,0,1,0,1.05,1.41,1.41,0,0,0,.37,1.39.8.8,0,0,1,.18.57c0,.41-.16.81-.21,1.22a1.38,1.38,0,0,0,.06.53,11.24,11.24,0,0,1,.41,1.24,2.7,2.7,0,0,1-.47,2.37,2.62,2.62,0,0,1-.76-1.48,30.46,30.46,0,0,0-.66-3.32,10.77,10.77,0,0,1-.33-2.63,5,5,0,0,0-.54-1.82,1.5,1.5,0,0,0-.39-.48c-.58-.48-.9-.39-1.17.34a4.21,4.21,0,0,0,0,2.46,5.78,5.78,0,0,1,.24,1.06,21.43,21.43,0,0,0,.49,3.4,36.82,36.82,0,0,1,.81,4.9.73.73,0,0,0,0,.2,13.73,13.73,0,0,1,.4,1.39c.13.67.47,1.32.14,2-.06.12.06.35.15.5a2.8,2.8,0,0,1,.51,1.61,4,4,0,0,0,0,.77c0,.52.11,1,.16,1.53a.86.86,0,0,1-1.16.06,1,1,0,0,1-.45-.95,2.12,2.12,0,0,0-.32-1.45,1,1,0,0,1,0-1.42c.24-.27.11-.57-.27-.71a1.06,1.06,0,0,1-.6-.68l.21-.15c.68-.4.7-.57.11-1.09a.87.87,0,0,1-.32-.48,2.1,2.1,0,0,1,.11-1.07,2.72,2.72,0,0,0,0-2.41,6.41,6.41,0,0,1-.42-2.37,4.69,4.69,0,0,0,0-.84c-.2-.9-.43-1.79-.62-2.69a1.83,1.83,0,0,1,.11-1.36.87.87,0,0,0-.12-1,3.66,3.66,0,0,0-.93-.82c-.37-.25-.67-.14-.82.29a2.77,2.77,0,0,0-.09.95c0,.51.08,1,.13,1.52,0,.32.11.63.12.95a3.76,3.76,0,0,1-.12,1.59,11,11,0,0,1-1.24-2.5,2.25,2.25,0,0,0-1.52-1.53l-.44,1.58.5.48c.15.15.39.29.41.46a7.52,7.52,0,0,1,.09,1.71,1,1,0,0,0,.2.76,2.18,2.18,0,0,1,.61,1.71,1.89,1.89,0,0,0,.45,1.21,1.14,1.14,0,0,1,.23.55,8.39,8.39,0,0,0,.3,2.6c.17.61.22,1.32,1,1.56a3.68,3.68,0,0,0,.88.15c.39,0,.49.33.59.61a.51.51,0,0,1-.26.65l-.27.13a.76.76,0,0,0,.06,1c.3.31.52.59.26,1,0,.06,0,.18,0,.27a2,2,0,0,0,1,1.58s.06.11.08.17l-.42.45c.33.24.68.43.52.91a1.76,1.76,0,0,1-.23,0,.86.86,0,0,0-1.1.94,2.53,2.53,0,0,0,.79,1.58,6.65,6.65,0,0,1,.89-.36.8.8,0,0,1,1,.58c.06.5.09,1,.11,1.51a.75.75,0,0,0,.47.76.65.65,0,0,1,.34.23c.3.55.84.92,1.08,1.52.11.28.42.48.62.73a2.48,2.48,0,0,1,.45.69,11.75,11.75,0,0,1,.37,1.53,6,6,0,0,1,.07.77c-.29.08-.51.15-.73.2a1.05,1.05,0,0,0-.84,1.27,9,9,0,0,0,.38,1.25,7.48,7.48,0,0,1,.35,2.13c-.61.08-.92.38-.84,1a.47.47,0,0,1-.31.56.66.66,0,0,1-.72-.12,1.31,1.31,0,0,1-.46-1.49c.23-.58.57-1.11.88-1.71-.16-.93-.91-1.17-1.75-1.24,0-.08,0-.15,0-.17a1.64,1.64,0,0,1,.21-.24c.34-.33.43-.75.14-1a2.4,2.4,0,0,1-.9-1.63c0-.53-.62-.64-1-.94s-.48-.09-.73,0a2,2,0,0,1-.68.11c-.41,0-.93.18-1.14-.43.23-.41.9-.76.21-1.33-.17,0-.41.07-.52,0a5.06,5.06,0,0,1-1.15-1.16,5.48,5.48,0,0,0-1.36-1.66.84.84,0,0,1-.27-.38c-.15-.51-.25-1-.39-1.58a2,2,0,0,0,.36-.26c.17-.15.4-.29.46-.48a11.1,11.1,0,0,0,.25-1.4.66.66,0,0,0-.06-.34c-.26-.74-.53-1.48-.78-2.22a3.44,3.44,0,0,0-.75-1.31,2,2,0,0,1-.65-1.68,6,6,0,0,0-.66-3c-.46-1.23-1.21-2.34-1.62-3.6-.2-.63-.55-1.22-.76-1.86a16.43,16.43,0,0,0-1.81-3.51,3.61,3.61,0,0,0-.53-.64.55.55,0,0,0-1,.24,1.21,1.21,0,0,0,.07.72,6.06,6.06,0,0,0,.36.81,3.14,3.14,0,0,0-.21.73c0,.46.11.92.11,1.38a3.11,3.11,0,0,0,.25,1.28c.4.91.77,1.83,1.17,2.74a10.64,10.64,0,0,1,.62,1.15,15.64,15.64,0,0,0,1.48,3.12c.12.21.2.4,0,.62a2.4,2.4,0,0,1-.92-1.1,2.78,2.78,0,0,0-.49-.81c-.64-.69-1.45-1.25-1.63-2.28,0-.1-.13-.19-.21-.27-.41-.44-.83-.87-1.24-1.3-.63-.68-1.25-1.36-1.88-2,0,0-.08,0-.16,0a.52.52,0,0,0,0,.25,6,6,0,0,1,.73,2.33,6.14,6.14,0,0,0,.51,1.64c.32.61.79,1.13,1.17,1.72s.78,1.29,1.18,1.93a10.89,10.89,0,0,1,1.25,2.45,3.73,3.73,0,0,1,.07.65,4.52,4.52,0,0,1-.76-.72,6.8,6.8,0,0,0-1.07-1.32c-.73-.79-1.45-1.6-2.18-2.41-.47-.51-.91-1.05-1.42-1.52a3.07,3.07,0,0,0-.92-.47,4.85,4.85,0,0,0-.55-.08A2.84,2.84,0,0,1,97,42.27a4.21,4.21,0,0,0-.87-1.22,20.29,20.29,0,0,0-2.36-1.47,3.37,3.37,0,0,1-1.22-1.09,1.52,1.52,0,0,0-.87-.66.79.79,0,0,0-.86.29.58.58,0,0,0-.14.75c.39.73.74,1.48,1.1,2.23a.67.67,0,0,1,.12.44,1.21,1.21,0,0,0,.79,1.51A2.19,2.19,0,0,1,94,44.84a1.74,1.74,0,0,0,.57,1.22,2.28,2.28,0,0,1,.4.56,1.34,1.34,0,0,0,.28.37A2,2,0,0,1,96,48a6.17,6.17,0,0,0,.86,1.31,5.75,5.75,0,0,0,.77.79,1,1,0,0,1,.48.79A1.36,1.36,0,0,0,99,52.07a4,4,0,0,1,1,.73,2.75,2.75,0,0,1,.62,1.58,5.84,5.84,0,0,0,1,2.39,6.62,6.62,0,0,1,.85,1.57c.27.68.45,1.4.67,2.1a1.67,1.67,0,0,0,1.34,1.27,3.25,3.25,0,0,1,.68.18,1,1,0,0,1,.66,1.29,1,1,0,0,0,.11.5c.07.14.26.25.27.39a2.62,2.62,0,0,0,.81,1.49l.57-.12c-.37.58.27,1,.15,1.55a2.28,2.28,0,0,1-1.28-.7L105.26,65a1.18,1.18,0,0,0-.78-.52A1.22,1.22,0,0,0,105,66a3.71,3.71,0,0,1,1.51,1.63,1.72,1.72,0,0,1,.07.42l-1.3-.5a2.31,2.31,0,0,0,.25.71A21.06,21.06,0,0,0,107,70a3.23,3.23,0,0,1,.9,1.57,2.14,2.14,0,0,1-.44-.11c-.5-.34-1-.7-1.47-1A3.86,3.86,0,0,0,105,70c-.23-.07-.43-.07-.58-.31s-.35-.13-.41,0c-.12.65.91.38.66,1.13a4.65,4.65,0,0,1-.86-.51.93.93,0,0,1-.31-.65,1.27,1.27,0,0,0-.76-1.47,2.81,2.81,0,0,0-2.21-.6,1.87,1.87,0,0,1-1.14-.2c-.69-.31-1.35-.7-2-1.07-.29-.16-.54-.25-.74.09.37.64,1.15.86,1.39,1.6a.91.91,0,0,1-.26.11c-.46,0-.66.26-.76.74A1.66,1.66,0,0,1,96,70a7.3,7.3,0,0,1-1.59.48.9.9,0,0,0-.78.57,1.18,1.18,0,0,1-1.79.51,1.34,1.34,0,0,0-.91-.27,1.65,1.65,0,0,1-1.65-.81c-.29-.43-.71-.89-1.41-.63-.11,0-.3-.06-.43-.13a4.2,4.2,0,0,1-1.9-2,.61.61,0,0,1,.14-.81,4.86,4.86,0,0,1,2.67-1.42,2.55,2.55,0,0,0,1.79-1,9.79,9.79,0,0,1,2.2-2.11,1.1,1.1,0,0,0,.35-.33,13.12,13.12,0,0,1,2.39-2.2,12,12,0,0,0,2-2.11,1.05,1.05,0,0,0,0-1.39c-.23-.29-.45-.59-.7-.86a1.4,1.4,0,0,0-.51-.36,2.87,2.87,0,0,0-3.26.58.87.87,0,0,1-.23.16c-.7.4-1.41.78-2.09,1.21a.86.86,0,0,0-.3.63.52.52,0,0,0,.53.47l.57.05A.66.66,0,0,1,91,59a6.85,6.85,0,0,1-.83,1A23.94,23.94,0,0,0,87,63.06c-1,1.16-2.16,2.22-3.26,3.32a1,1,0,0,1-.3.18,2.58,2.58,0,0,1-2.45-.26,9.05,9.05,0,0,0-2.19-1c-.51-.16-1-.27-1.52-.47-.81-.33-1.6-.69-2.39-1.07s-.81-.86-.25-1.47c1-1,2.07-1.87,2.93-3a17.22,17.22,0,0,0,2-2.22,1.23,1.23,0,0,1,.36-.31c.42-.35.88-.67,1.28-1.05a16.54,16.54,0,0,1,1.55-1.58,26.57,26.57,0,0,0,2.63-2.45,12.6,12.6,0,0,0,1.11-1.31l-.55-.76a12.56,12.56,0,0,0-1.78,1.53c-.61.7-1.32,1.31-2,2-.49.46-1,.9-1.49,1.36-.32.3-.65.6-.94.93s-.7.86-1.08,1.27c-1,1.11-2.24,2-2.89,3.45a.8.8,0,0,1-.34.34,16,16,0,0,0-2.23,2,.94.94,0,0,1-.28.21,2.72,2.72,0,0,1-2.46-.35,5.59,5.59,0,0,0-1-.47,5.36,5.36,0,0,0-1.53-.12c-.43.54-.48.63-.24.85a4.69,4.69,0,0,0,1.3,1,2.68,2.68,0,0,1,1.42,1.14,1.9,1.9,0,0,0,1,.86,4.63,4.63,0,0,1,2,1.06.67.67,0,0,0,.32.14,2.33,2.33,0,0,1,1.22.89.73.73,0,0,0,.63.33,7.51,7.51,0,0,1,2.26.4,4.56,4.56,0,0,1,1.61,1.36,4.6,4.6,0,0,1-2.44-.38c-.77-.32-1.51-.69-2.24-1.08a1.35,1.35,0,0,0-.86-.12,7.65,7.65,0,0,1-1.79,0,6,6,0,0,0-2.33.23c.17.5.31.92.45,1.37a1,1,0,0,1-.3.11,2.51,2.51,0,0,0-2.11,1.65,2.12,2.12,0,0,1-.67.76c-.57.42-1.19.79-1.8,1.16s-1,.6-1.56.86a2.29,2.29,0,0,1-.67,0l.79-.71c.26-.23.14-.46,0-.68s-.33-.64-.76-.61c-.07,0-.13.12-.19.18-.58.6-1.17,1.19-1.74,1.79a10.8,10.8,0,0,0-1.33,1.29c-.23.34-.5.66-.76,1a2.5,2.5,0,0,1-.46.51,4.46,4.46,0,0,0-1,1,12.22,12.22,0,0,1-2.61,2.86,3.29,3.29,0,0,0-.74.83c-.31.46-.27,1.51.11,1.75a1.57,1.57,0,0,1,.74,1c1,.32,1.85.65,2.76.92a14.55,14.55,0,0,0,1.49.3,1.52,1.52,0,0,1,.52.17A7.11,7.11,0,0,0,62.59,87c.45.07.46.22.23.61a18.4,18.4,0,0,1-2.08,2.24c-.34.41-1,.49-1.15,1.06a.85.85,0,0,1-.93.58H57.3a1.64,1.64,0,0,0,0,1.48,1.81,1.81,0,0,1,.08,1.72,1.46,1.46,0,0,0,1,2,2.3,2.3,0,0,1,.49.26c.74.5.92.21,1.33-.29a2.54,2.54,0,0,0,.31-.53,2.51,2.51,0,0,1,.89-1.14,18.21,18.21,0,0,0,3-2.32c.48-.48,1-.86,1.55-1.3A27,27,0,0,1,68,89.44a2.3,2.3,0,0,1,2.27-.67c.69.24,1.09-.17,1.2-.92a1.24,1.24,0,0,1,.22-.56,2.57,2.57,0,0,1,1.36-1,1.73,1.73,0,0,0,.83-.59,11.47,11.47,0,0,1,1.73-1.61,26.51,26.51,0,0,1,2.43-1.41c.22-.13.45-.24.66-.37a7.75,7.75,0,0,1,1.32-.78,7.1,7.1,0,0,0,2.66-2c.27-.26.28-.89,0-1s-.78-.45-1.25-.28a5.35,5.35,0,0,0-2.42,1.63c-.12.15-.27.38-.43.4a7.47,7.47,0,0,0-2.23,1,7.59,7.59,0,0,0-1,.49A24.78,24.78,0,0,1,73,83.13a.78.78,0,0,1-.82,0c-.07-.36.19-.41.36-.55a3.78,3.78,0,0,0,.72-.72c.33-.44.57-1,1.15-1.15.1,0,.18-.14.26-.22a6.77,6.77,0,0,0,1.13-1.21,8.5,8.5,0,0,1,1.39-1.65,3.21,3.21,0,0,0,.48-.92.65.65,0,0,1,.74-.45,18.85,18.85,0,0,1,3.41.66,1.36,1.36,0,0,1,1,.71c.1.18.32.41.5.42a5.05,5.05,0,0,0,2.59,0,3.08,3.08,0,0,0,.62-.39,1.51,1.51,0,0,0,.24-.39,2.77,2.77,0,0,0,1,1.58c.23.19.21.43,0,.64-.41.37-.8.77-1.22,1.13-.69.59-1.39,1.17-2.09,1.74-.43.35-.87.69-1.31,1a8.09,8.09,0,0,0-.68.46c-.64.57-1.26,1.16-1.88,1.75-.15.14-.28.29-.44.42a2.3,2.3,0,0,1-2.32.16,1.31,1.31,0,0,0-.73,0c-.3.06-.53.21-.5.56s.28.46.58.5c.11,0,.24,0,.34,0a4.92,4.92,0,0,1,.56.29c-.31.7-.89,1-1.38,1.37-1,.76-1.7,1.77-2.69,2.53S72.1,93,71.14,93.63a1,1,0,0,0-.35.41,1.89,1.89,0,0,1-1.41,1.28.63.63,0,0,0-.31.17c-.63.71-1.28,1.4-1.86,2.15a2.25,2.25,0,0,1-1.37.85,3.24,3.24,0,0,1-2.13,0,.2.2,0,0,0-.13,0,10.63,10.63,0,0,1-2.17.32,4.4,4.4,0,0,0-.75.25c0,.32-.07.56-.11.86a3.76,3.76,0,0,0-2.6.8,2.37,2.37,0,0,1,.15.34,1.14,1.14,0,0,0,1.4.85,2,2,0,0,1,.73.15l1.14.29.54.15a2.53,2.53,0,0,1-.19.87,11.44,11.44,0,0,1-1.15,1.45,2.06,2.06,0,0,0-.52,2.68,1.06,1.06,0,0,1,.11.66,1.17,1.17,0,0,0,.15,1.18c-.54.32-.9-.07-1.41-.33a1.72,1.72,0,0,1-.26.4c-.48.46-.56,1.14-.93,1.68a.66.66,0,0,0,.22,1,1.77,1.77,0,0,0,.73.15,12.64,12.64,0,0,1,1.38,0,1.4,1.4,0,0,0,1.13-.2,4.83,4.83,0,0,1,2.48-.59,6.23,6.23,0,0,0,1.55-.28c.9-.39,1.8-.75,2.69-1.16a3.59,3.59,0,0,1,1.77-.27,1.27,1.27,0,0,1,.38.18c-.55.52-1.06,1-1.55,1.46-.67.63-1.51,1.07-1.95,1.94a1.85,1.85,0,0,1-.54.54c-.36.3-.75.55-1.09.86s-.77.67-.67,1.22a1.32,1.32,0,0,1-.58,1.32c-.38.31-.79.58-1.19.86a1.33,1.33,0,0,0-.75,1.23c0,.47-.17.62-.65.61s-.92-.07-1.38-.1c-.09,0-.2,0-.27,0-.45.26-.89.55-1.39.86.27.23.53.36.64.57a3.9,3.9,0,0,1,.17.8c.26,1.07,1.25,1.85,2.34.93a6.39,6.39,0,0,1,2.19-1.19,4,4,0,0,0,.65-.26c1.09-.58,2.21-1.14,3.26-1.78A24.86,24.86,0,0,1,71,118.13a5.15,5.15,0,0,0,1.4-.87c.58-.49.74-.73.08-1.47-.25-.28-.54-.53-.48-1a12.61,12.61,0,0,1,1.39-1.12c.69-.42,1.47-.69,2.17-1.09a4.18,4.18,0,0,0,2.17-2,2.13,2.13,0,0,1,.22-.37,4.36,4.36,0,0,0,.63.31.78.78,0,0,0,1.09-.77,1.29,1.29,0,0,1,0-.48,1.57,1.57,0,0,1,.28-.76,4.82,4.82,0,0,1,1.26-.85c1.25-.49,2.52-.9,3.79-1.35.24-.08.41-.22.3-.51a1.62,1.62,0,0,0-.22-.57.86.86,0,0,1-.06-1.15,7.77,7.77,0,0,1,.51-.66c.38-.5.39-.76,0-1.2a1.35,1.35,0,0,1-.43-.91c0-.06,0-.12,0-.21h.6c-.07-.51.25-.69.65-.76a7.77,7.77,0,0,1,1-.09c.45,0,.91,0,1.23-.45a.43.43,0,0,1,.62-.15.62.62,0,0,1-.25.78,4.84,4.84,0,0,1-1.67,1,2.65,2.65,0,0,0-.75.38c-.29.2-.3.44-.06.71s.27.23.44.38l-.39.44c-.37.43-.55.76.1,1.16.43-.16.85-.35,1.29-.47s.91-.19,1.37-.28a1.19,1.19,0,0,0,.87-.53c.19-.31.36-.64.52-1a1,1,0,0,1,1-.6,3.87,3.87,0,0,0,1.65-.2,1.4,1.4,0,0,1,1.14.07,3.38,3.38,0,0,0-.77.52,5.44,5.44,0,0,1-2,1.39,10.1,10.1,0,0,0-1.35,1,2.9,2.9,0,0,1-.69.42,1.14,1.14,0,0,0-.88,1,1,1,0,0,1-.35.57c-.77.59-1.58,1.12-2.36,1.71a32.51,32.51,0,0,0-2.58,2.11,6.31,6.31,0,0,1-2.19,1.58,1.69,1.69,0,0,0-1.21,1.32,1.9,1.9,0,0,1-.14.4c-.13.28-.28.52-.64.56a1.53,1.53,0,0,0-1.12.86,4.5,4.5,0,0,1-1.11,1.15c-.3.25-.59.51-.88.78s-.5.53-.76.79a3.8,3.8,0,0,0-1.3,1.84.63.63,0,0,1-.52.5,3.65,3.65,0,0,0-1.7,1.09,16,16,0,0,0-2.24,2.35c-.26.35-.54.69-.82,1s-.53.58-.76.89a.85.85,0,0,0,.55,1.4,1.39,1.39,0,0,1,.93.83l.65,1.15.64-.29a2.07,2.07,0,0,0,1.19-1.08,2.64,2.64,0,0,1,.52-.89,7.3,7.3,0,0,1,2.08-1.61c.73-.35,1.42-.8,2.16-1.12a3.06,3.06,0,0,0,1.8-1.39,2.68,2.68,0,0,1,1.59-1.27,7.38,7.38,0,0,0,2-1,3.55,3.55,0,0,1,.54-.3,4.23,4.23,0,0,0,1.34-.68,9,9,0,0,1,2.56-1.56,20.75,20.75,0,0,1,2.58-1,.77.77,0,0,1,.91.09.78.78,0,0,1-.8.56,4.58,4.58,0,0,0-2.16.91.78.78,0,0,0-.32,1,2.67,2.67,0,0,1,.08.45c-.26,0-.5-.07-.65,0a8.81,8.81,0,0,0-1.47.91,3.34,3.34,0,0,1-1.72.85c-.28,0-.55.11-.82.15s-.62.24-.64.55a.94.94,0,0,0,.36.62,1.69,1.69,0,0,0,2.3,0,12.94,12.94,0,0,1,1.67-1,4.57,4.57,0,0,0,1.17-1.07c.11-.14,0-.48,0-.75a4.76,4.76,0,0,0,.52-.1,4.94,4.94,0,0,0,2.65-1.12,1.73,1.73,0,0,1,1.86-.26,2.15,2.15,0,0,1-.65,1.14c-.64.59-1.42,1-2,1.64s-1.53,1.31-2.2,2.09a23,23,0,0,1-2.23,2.06l-2.77,2.43c-.23.19-.5.33-.71.53-.52.49-1,1-1.52,1.52a8.4,8.4,0,0,0-2,2c0,.06-.11.09-.15.14a14.07,14.07,0,0,0-1.73,1.9c-.5.75-1.08,1.43-1.58,2.18A8,8,0,0,0,74,137.2a.86.86,0,0,0,.24,1.12c.52.29,1.06.56,1.6.83a.94.94,0,0,0,1.4-.37,1.17,1.17,0,0,0,.2-.36A2.92,2.92,0,0,1,79,136.8c.71-.43,1.42-.86,2.11-1.31,1.47-.93,2.93-1.88,4.4-2.82.5-.32,1-.61,1.53-.95s.65-.52,1-.75.69-.37,1-.57.71-.45,1.09-.63a4.46,4.46,0,0,1,.76-.21l.07.13a2.74,2.74,0,0,1-.38.45c-1,.77-1.63,1.86-2.72,2.48a.61.61,0,0,0-.2.19,6.55,6.55,0,0,1-1.45,1.57,39.43,39.43,0,0,0-3,2.73c-.69.7-.79,1.35.14,1.93a6.75,6.75,0,0,0,1.33.36,2.13,2.13,0,0,0,1.43,0,14,14,0,0,0,2.53-1.14c1.57-.79,3-1.76,4.65-2.47.79-.34,1.5-.82,2.26-1.22.49-.27,1-.51,1.5-.74s1.33-.53,2-.82a17.68,17.68,0,0,1,2.42-1.22,6.61,6.61,0,0,0,1-.38c.51-.23,1-.5,1.51-.69a2.43,2.43,0,0,1,.77,0,3.13,3.13,0,0,1-1,1.21,5.38,5.38,0,0,0-.84.81,7.2,7.2,0,0,1-1.82,1.71c-1.07.72-1.87,1.73-2.85,2.53-.47.38-.86.84-1.3,1.25a12,12,0,0,0-2.09,2.12.52.52,0,0,1-.2.19,9.58,9.58,0,0,0-2.29,2.2A2.18,2.18,0,0,1,92,143a9.05,9.05,0,0,0-1.9,1.86,32.61,32.61,0,0,1-2.46,2.91,7.39,7.39,0,0,0-1.93,2.86c.19.26.35.73.65.86a1.63,1.63,0,0,1,1,.89c.21.44.49.46.92.18a1.75,1.75,0,0,0,.73-.81,4,4,0,0,1,1-1.48,8.34,8.34,0,0,0,.72-.94,4.1,4.1,0,0,1,.68-.7c1-.71,2-1.43,3.09-2.08a1.42,1.42,0,0,1,1.45-.27.84.84,0,0,0,.6-.11c.57-.31,1.13-.65,1.7-1a11.82,11.82,0,0,0,1.61-.85,9.69,9.69,0,0,1,1.66-.87,12.54,12.54,0,0,0,2.18-1.06c.06,0,.2,0,.42,0a13.91,13.91,0,0,1-1.33,1.53,2.28,2.28,0,0,0-.69,1.09,2.69,2.69,0,0,0-.23,1.66c.09.28.17.53.51.57a1.3,1.3,0,0,1,.79.41,4.35,4.35,0,0,0,.71.46,17.3,17.3,0,0,1,1.5-1.28,4.58,4.58,0,0,0,1.35-1.46c.38-.58.75-1.16,1.15-1.73a2.62,2.62,0,0,1,.44-.44c.28-.26.59-.5.85-.78.42-.46.78-1,1.21-1.41a2.52,2.52,0,0,1,.87-.53c.46-.18.66,0,.57.51a9.17,9.17,0,0,0-.24,1.27,3.84,3.84,0,0,1-.42,1.52c-.1.25-.24.49-.33.75a1.24,1.24,0,0,0,.57,1.49c.43-.3.9-.6,1.34-.92a.69.69,0,0,1,1.14.44,13,13,0,0,1-.06,1.76c0,.18,0,.37,0,.55,0,.34.22.5.47.64s.44,0,.62-.17a2.27,2.27,0,0,0,.74-2.23c-.06-.26-.13-.66,0-.77a4.88,4.88,0,0,0,.86-1.23,16.94,16.94,0,0,0,1.24-2.79,1.8,1.8,0,0,0,.13-1c-.14-.58-.21-1.09.37-1.48,0,0,0-.13.08-.19.21-.48.41-1,.64-1.44a8.59,8.59,0,0,1,1.16-2,.84.84,0,0,0,.18-1,1.76,1.76,0,0,1,0-.41c-.06-.65.33-1.19.43-1.8a5.47,5.47,0,0,0,.3-2.07c-.14-.7.35-1.15.89-1.52a.91.91,0,0,1,1.3.12,1,1,0,0,0,.18-.17,16.24,16.24,0,0,0,.8-1.69.94.94,0,0,0,0-.93.47.47,0,0,1,.1-.69,3,3,0,0,0,1.24-1.85c.08-.29.13-.58.23-.86.33-1,.68-1.91,1-2.86.2-.56.37-1.13.58-1.69.08-.22.11-.52.54-.51-.08.7-.11,1.38-.24,2-.18,1-.44,1.91-.64,2.88-.09.38-.1.77-.18,1.16-.19,1-.47,1.93-.57,2.91a3.49,3.49,0,0,1-.8,1.78,3,3,0,0,0-.48,1c-.15.44-.23.89-.34,1.34a1.92,1.92,0,0,0-.09.4,13.1,13.1,0,0,0,.1,1.78,6.34,6.34,0,0,1-.2,2.67,18.89,18.89,0,0,0-.59,3.26,1.17,1.17,0,0,1-.56,1,3.31,3.31,0,0,0-1.73,2.45c-.18,1-.52,2-.79,3.07a.74.74,0,0,0,.33.79,1,1,0,0,0,.71,0c.43-.11.82-.32,1.25-.43a1.64,1.64,0,0,0,1.44-1.56,2.55,2.55,0,0,1,.5-1.33,1.11,1.11,0,0,0,.05-1.45,1.5,1.5,0,0,1-.25-1.06A1.48,1.48,0,0,1,125,139c.23-.29.55-.17.85-.16a.64.64,0,0,0,.63-.47.45.45,0,0,0-.2-.6c-.11-.08-.17-.23-.28-.31-.62-.41-.51-1-.32-1.54s.29-1.06.43-1.59.38-.9,1-1a4,4,0,0,0,.48-.09c.59-.12,1,0,.92.87-.12.7.1,1.36,0,2a.59.59,0,0,0,.09.33c.11.16.22.4.38.44s.39-.11.52-.35a3.84,3.84,0,0,0,.42-1.8,3.09,3.09,0,0,1,.17-1.14,11.87,11.87,0,0,0,.59-3.23c-.36-1,.28-1.93.11-2.93a4.43,4.43,0,0,1,.3-1.46c.08-.43.16-.86.2-1.29.06-.72.06-1.44.16-2.15a16,16,0,0,1,.41-1.82c0-.11.15-.26.24-.27a.44.44,0,0,1,.32.19.71.71,0,0,1,.08.71,4.59,4.59,0,0,0-.11,2.33,13.37,13.37,0,0,1,0,2.1.31.31,0,0,1-.05.2c-.57.5-.37,1.16-.34,1.77.05.92.17,1.83.26,2.75,0,.14,0,.28,0,.42.18,1,.37,2.08.55,3.12,0,.25.11.5.13.75a1.58,1.58,0,0,1-.88,1.67,2.21,2.21,0,0,0-.92,1,8,8,0,0,0-.86,4,1.84,1.84,0,0,0,.93,1.67,2.46,2.46,0,0,1,.61.55c.38.52.59.54,1.2.31a2,2,0,0,1,1.09-.05c.15,0,.23.4.33.62s.11.36.18.53a1.09,1.09,0,0,0,.8.77,4.54,4.54,0,0,0,.69-3.05,13.21,13.21,0,0,1-.39-3.37c0-.46-.08-.92-.12-1.38l-.15-1.87a5.46,5.46,0,0,0,0-.7,19.18,19.18,0,0,1-.4-4,2.74,2.74,0,0,0,0-.7,16.73,16.73,0,0,1-.39-4c0-1.75,0-3.5,0-5.25a1.27,1.27,0,0,1,.52-1.2c.13.69.21,1.32.38,1.93.28,1,.61,2,.92,3a1.29,1.29,0,0,1,.11.46,9.46,9.46,0,0,0,.36,2.18c.12.59.36,1.15.51,1.73s.2,1,.31,1.48c.19.91.34,1.84.6,2.73a1.27,1.27,0,0,1-.1,1.06,7.44,7.44,0,0,0-.8,2.62,2.15,2.15,0,0,0,.29,1.32,1.86,1.86,0,0,1,.24.43,8.25,8.25,0,0,0,1.17,2.24,1,1,0,0,0,.45.42c.47.19,1,.33,1.44.5a.79.79,0,0,0,.83-.26,2.1,2.1,0,0,0,.64-2.72,1.79,1.79,0,0,1-.13-.32,3.88,3.88,0,0,1-.16-.88,2.18,2.18,0,0,0-.32-1.26,4.89,4.89,0,0,1-.65-2.66,1.49,1.49,0,0,0-.76-1.37,1.15,1.15,0,0,1-.41-.44,12,12,0,0,1-.52-1.57c-.24-1-.43-2-.65-3-.11-.5-.24-1-.35-1.48-.16-.79-.33-1.58-.48-2.37a12.94,12.94,0,0,1-.33-2,5,5,0,0,0-.37-1.68,8.51,8.51,0,0,1-.49-2.77,1.91,1.91,0,0,1,.18-.5c.38.43.68.77,1,1.13s.69,1,1.08,1.39a1,1,0,0,1,.31,1,2.89,2.89,0,0,0,.22,1.83,10.17,10.17,0,0,1,.55,1.78,6.86,6.86,0,0,0,.84,2.19,2.8,2.8,0,0,1,.45,1.48c0,.74.11,1.47.18,2.21a.86.86,0,0,0,.18.44c.38.46.78.89,1.24,1.4-.12.25-.26.55-.39.81.08.3.17.57.22.84a1.52,1.52,0,0,0,.74,1.18c.54.25.59.7.57,1.19,0,.2-.06.41-.08.62a1,1,0,0,0,0,.39c.08.43.16.86.28,1.28a13.88,13.88,0,0,0,.61,1.89,1,1,0,0,1,.12.79,1.26,1.26,0,0,0,0,.86,3.41,3.41,0,0,1,.13.53,9,9,0,0,0,.66,2.75c.22.58.43,1.17.6,1.77s.37,1.47.55,2.2a7.59,7.59,0,0,1,.29,1.21,3.22,3.22,0,0,0,.4,1.31,2.62,2.62,0,0,1,.34,1.72,1.42,1.42,0,0,0,.15.8c.24.5.55,1,.83,1.44.1.18.22.36.31.5.81-.52.88-.75.6-1.39a2.77,2.77,0,0,1-.05-2.52,1,1,0,0,0,0-1c-.2-.4-.37-.83-.55-1.23.66-.51.73-.53,1.31-.06a1,1,0,0,0,1.33.13,2.2,2.2,0,0,0,.3-.19.87.87,0,0,1,1.25,0,3.07,3.07,0,0,0,.62.24,6.14,6.14,0,0,0,.15-.72.7.7,0,0,0-.07-.4c-.29-.63-.61-1.25-.88-1.89s-.49-1.23-.7-1.86a.57.57,0,0,1,.13-.42s.25,0,.36.1c.41.21.79.46,1.21.65a.7.7,0,0,0,1.05-.35c.07-.12.12-.25.18-.38a1.34,1.34,0,0,0-.65-2c-1.07-.49-1-1.09-.82-1.86s.29-1.24.45-1.86a5.88,5.88,0,0,0-.12-2.79,2.91,2.91,0,0,1-.12-.82,1.6,1.6,0,0,0-.69-1.44c-.55-.44-1.16-.81-1.73-1.2-.77.68-.82,1-.3,1.7.14.18.31.35.46.52a2.23,2.23,0,0,1,.72,1.82,15.69,15.69,0,0,1-.37,1.68c-.1.42-.25.82-.38,1.24-.41,0-.73-.05-.91-.4a12.12,12.12,0,0,1-1.29-2.95,4.66,4.66,0,0,0-.26-.71,3.62,3.62,0,0,1-.58-2.18,1.64,1.64,0,0,0-.16-.73c-.22-.65-.45-1.3-.7-1.95a15,15,0,0,0-1.11-2.9,3,3,0,0,1-.4-1.59,4,4,0,0,0-.64-2.14,5.55,5.55,0,0,1-.91-2.08,7,7,0,0,0-.25-.86c-.07-.31-.1-.63-.19-.94a2.9,2.9,0,0,0-.37-1,1.31,1.31,0,0,1-.33-.87,2.5,2.5,0,0,0-.47-1.63c-.07-.08,0-.26,0-.4a3.55,3.55,0,0,1,1,2.07,8.23,8.23,0,0,0,1.15,2.34,7.86,7.86,0,0,1,.54.87c.14.29.19.62.31.92a33.48,33.48,0,0,0,2.16,4.32c.55.93.84,2,1.42,2.91.22.35.37.74.57,1.1s.41.67.63,1,.26.36.39.54c.27-.14.3-.27.16-.48a3.13,3.13,0,0,1-.49-1.84,1.93,1.93,0,0,0-.17-.87,8.64,8.64,0,0,1-.94-2.29,3.22,3.22,0,0,0-.51-1.26,10.46,10.46,0,0,1-1.33-2.88c-.3-.67-.58-1.36-.87-2-.45-1-1-2-1.36-3.09s-.81-2.41-1.26-3.59a8.79,8.79,0,0,0-.84-1.57,2.34,2.34,0,0,1-.38-1.83,2.5,2.5,0,0,1,1.59,1.4,5.7,5.7,0,0,0,.43.76c.56.93,1.16,1.84,1.68,2.8a10.67,10.67,0,0,0,1.66,2.69l0,.06a7,7,0,0,0,1.11,1.78c.51.87,1.16,1.67,1.75,2.49.08.1.23.16.32.26a2,2,0,0,1,.68,1.62c-.07.79-.1,1.59-.14,2.38a.84.84,0,0,0,0,.42,6.8,6.8,0,0,0,1.46,2.32,3.62,3.62,0,0,0,1.59.69,1.19,1.19,0,0,1,1,1.61,2.54,2.54,0,0,0,0,.48c0,.22,0,.44,0,.66a3.72,3.72,0,0,0,.3,2.3.89.89,0,0,0,.52.38.58.58,0,0,0,.63-.36,6.1,6.1,0,0,0,.62-3.26,10.68,10.68,0,0,0-1.16-3.54,2.46,2.46,0,0,0-.61-.72,12.94,12.94,0,0,0-1.2-.9,1.19,1.19,0,0,1-.54-.86c-.06-.69-.12-1.39-.14-2.08a2.39,2.39,0,0,0-2.07-2.16.92.92,0,0,1-1-.67,6.8,6.8,0,0,0-1.07-1.77,6.2,6.2,0,0,1-1.06-1.7,22.87,22.87,0,0,0-1.16-2.75c-.35-.75-.64-1.53-1.05-2.25a2,2,0,0,1-.34-1.37.45.45,0,0,0-.33-.6.51.51,0,0,1-.38-.59,3.66,3.66,0,0,1,.1-.75.78.78,0,0,0-.45-1c-.14-.07-.29-.15-.44-.21-.73-.28-.91-.56-.89-1.43.19,0,.42-.1.58,0,.5.21,1,.51,1.08,1.08a1.58,1.58,0,0,0,.8,1.28,1.83,1.83,0,0,1,.48.39c.48.66.95,1.31,1.39,2a19.22,19.22,0,0,0,2,2.64c.48.51.89,1.08,1.33,1.62.14.18.28.35.43.52a5.12,5.12,0,0,1,.9,1,3.34,3.34,0,0,0,2.07,1.59c0,.16,0,.36.06.55a1,1,0,0,0,.16.51,4.9,4.9,0,0,1,1,2.19,1.34,1.34,0,0,0,.94,1c.13,0,.26.12.39.15a1.4,1.4,0,0,1,1,.92,2.37,2.37,0,0,0,1.14,1.16,5.08,5.08,0,0,0,.66-2.66c0-.08-.07-.17-.11-.25a6.46,6.46,0,0,1-.5-1.15,2.41,2.41,0,0,0-.92-1.33,2.3,2.3,0,0,1-.77-.88,3.37,3.37,0,0,1-.16-1.57,4.62,4.62,0,0,0-.2-1.93c-.19-.88-.93-1.36-1.48-2a1,1,0,0,0-.52-.2.69.69,0,0,0-.75,1,3.64,3.64,0,0,0,.3.63,2.59,2.59,0,0,1,0,2.95.91.91,0,0,1-.77-.53c-.62-1-1.24-2.07-1.95-3a10.4,10.4,0,0,1-1.36-2.17,5.78,5.78,0,0,0-.75-1.38,13.65,13.65,0,0,1-1.64-2.34,10.16,10.16,0,0,0-.69-.93,9.82,9.82,0,0,1-1.69-2.45,1.92,1.92,0,0,0-.36-.5,10.23,10.23,0,0,1-2-2.85,1.59,1.59,0,0,0-.39-.48c-.36-.35-.76-.67-1.11-1s-.34-.48-.06-.89c.07-.1.12-.2.19-.31a6.28,6.28,0,0,0-2-2.06s0,0-.06,0c-.65-.37-1.31-.71-1.93-1.11-1.21-.78-2.39-1.59-3.58-2.4-.37-.25-.58-.21-.78.18a2.35,2.35,0,0,0-.14.52,2.78,2.78,0,0,1-.16.6,2.06,2.06,0,0,0-.27,1.79,17.15,17.15,0,0,0,.7,2.87,14.33,14.33,0,0,1,.58,1.71,11.7,11.7,0,0,0,.36,1.19,4.39,4.39,0,0,1,.28,2.52,1.55,1.55,0,0,0,.31,1.4,1.07,1.07,0,0,1,.25.69,7.87,7.87,0,0,1-.36,1.23,2.14,2.14,0,0,1-.86-.65,6.76,6.76,0,0,0-.72-.93,3.12,3.12,0,0,1-1.08-2,2.48,2.48,0,0,0-1.34-1.93,9.71,9.71,0,0,0-1.83-.83,2.8,2.8,0,0,0-1.72-.09,4,4,0,0,1-1,.18,3.94,3.94,0,0,0-2.69,1.52,5.83,5.83,0,0,1-1.43,1.5,1.15,1.15,0,0,0-.24.25c-.49.56-.62,1.36-1.19,1.88a.12.12,0,0,0,0,.05c-.39,1.2-.8,2.4-1.18,3.61-.23.73-.38,1.48-.65,2.18-.4,1.06-.87,2.09-1.31,3.12l-.91,2.16a1.12,1.12,0,0,0-.08.26,18.78,18.78,0,0,1-1.26,3.58c-.29.64-.49.66-1.14.36s-1.06-.62-1.71-.41a10.92,10.92,0,0,0-1.28.49,7.86,7.86,0,0,0-1.76,1.1,4,4,0,0,1-1.64.88c-.89.24-1.71.71-2.59,1a6.43,6.43,0,0,0-1.93.79,10.68,10.68,0,0,1-1.81.86c-.93.42-1.85.84-2.77,1.28-.26.12-.47.31-.73.42l-5.71,2.35c-.3.12-.61.19-.94.3-.16-.26-.31-.46-.42-.68a.57.57,0,0,1-.06-.38,1.21,1.21,0,0,1,1.58-.69,1.12,1.12,0,0,0,.44.16,1.21,1.21,0,0,0,1.14-1.43A1.32,1.32,0,0,1,98,127.31a1.81,1.81,0,0,0,1.77-.55,3.76,3.76,0,0,1,1.32-.74,2.88,2.88,0,0,0,.8-.41c.46-.37.89-.8,1.34-1.21.29-.26.58-.53.89-.78s.77-.58,1.14-.9.44-.56.73-.73a23.48,23.48,0,0,0,2.62-1.92c.42-.32.8-.8,1.42-.83.07,0,.14-.09.21-.14.8-.63,1.56-1.3,2.39-1.88a5.6,5.6,0,0,1,1.73-.86,3.57,3.57,0,0,0,1.13-.48.85.85,0,0,0,.35-1.14,1.12,1.12,0,0,1,0-.6,2.84,2.84,0,0,1,.82-1.19,16.87,16.87,0,0,0,1.57-1.48,22.51,22.51,0,0,1,3-2.7,1.52,1.52,0,0,0,.12-2.42,1,1,0,0,0-1.16-.13c-.28.16-.56.34-.83.51a9.37,9.37,0,0,1-1.67,1.12,5.28,5.28,0,0,0-1.37.67,25.42,25.42,0,0,1-2.61,1.57c-.71.41-1.35,1-2,1.42a7,7,0,0,1-1.4.93,11.53,11.53,0,0,0-2.2,1.29c-.21.14-.4.31-.61.45-.8.51-1.61,1-2.4,1.51-1.36.89-2.7,1.82-4.08,2.66a15.76,15.76,0,0,0-1.46,1,3.49,3.49,0,0,1-.65.43,12.87,12.87,0,0,0-2.29,1.28c-.84.6-1.73,1.15-2.61,1.72-.29.2-.57.4-.87.58a1.34,1.34,0,0,1-.4.07c0-.1,0-.13,0-.15a5.25,5.25,0,0,1,.38-.58.77.77,0,0,0,.18-.7c-.09-.58.14-.79.72-.69l.27,0a1.07,1.07,0,0,0,1.17-.56c.2-.27,0-.63-.18-.91a.83.83,0,0,1-.09-.25l.6-.15a1.88,1.88,0,0,0,.61-.16,19.34,19.34,0,0,0,2.44-1.79,12.34,12.34,0,0,1,1.18-1c.15-.13.37-.24.45-.41a1.71,1.71,0,0,1,1.3-1,1.65,1.65,0,0,0,1.12-.85,2,2,0,0,1,.32-.45l2.2-2.12a1.83,1.83,0,0,1,.49-.39,8.74,8.74,0,0,0,2.7-2.17,7.21,7.21,0,0,1,2.16-1.62c1-.43,1.87-.92,2.8-1.39a3.77,3.77,0,0,0,.84-.51,1.27,1.27,0,0,1,1.13-.34,1.33,1.33,0,0,0,1.35-.68c.19-.56.36-1.13.54-1.71l-.49-.43a6.7,6.7,0,0,0-1.51.48c-1.21.75-2.35,1.6-3.58,2.34a2.61,2.61,0,0,1-1.24.33,1.19,1.19,0,0,1,.46-.86,50.48,50.48,0,0,1,3.9-3.25c.32-.26.62-.55.94-.81a2.31,2.31,0,0,1,.88-.38c.26-.07.43-.45.69-.61a5.52,5.52,0,0,1,1.26-.58,1.52,1.52,0,0,0,1.11-1.49,2.47,2.47,0,0,1,.39-1.31,2.62,2.62,0,0,0,.26-.39.72.72,0,0,0,.07-.3,1.46,1.46,0,0,0-.07-.19.54.54,0,0,0-.05-.11,3.47,3.47,0,0,0-.3-.38,2.62,2.62,0,0,0-1.32.55,7.76,7.76,0,0,1-2.84,1.31.92.92,0,0,1-.87-.12l.64-1.41a1.08,1.08,0,0,1,.12-.24,5.09,5.09,0,0,1,2.31-1.83,7.65,7.65,0,0,0,1.61-.93A.85.85,0,0,0,120,91a5.71,5.71,0,0,0-1.68-1.53,1,1,0,0,1-.51-.69,3.07,3.07,0,0,0-.73-1.39,3.52,3.52,0,0,1-.91-1.92.54.54,0,0,0-.51-.56,4.28,4.28,0,0,0-.68-.13,1.57,1.57,0,0,1-1.41-.76c-.22-.32-.41-.66-.65-1a4,4,0,0,0-1-1.19.79.79,0,0,1-.47-.72,4.78,4.78,0,0,0-.51-2,5,5,0,0,0-.4-.8c-.22-.34-.49-.64-.76-1a1.06,1.06,0,0,1,1.17.19l.8.61c0,.18,0,.43,0,.68a.49.49,0,0,0,.47.57,7.37,7.37,0,0,0,1.05,0,3.76,3.76,0,0,1,1.1-.06,2.27,2.27,0,0,0,1.48,0c.27,1.18.27,1.18,1.33,1.87l.11.08a5,5,0,0,0,2.54.48,1.18,1.18,0,0,0,.45-.18c.47-.3.93-.61,1.38-.92a1.46,1.46,0,0,0,.21.11l.37.07a1.46,1.46,0,0,0,0-.36,6.34,6.34,0,0,0-.41-1.08A33.54,33.54,0,0,1,120.1,76a8.29,8.29,0,0,0-.64-1.06,3.13,3.13,0,0,1-.25-.48,4.89,4.89,0,0,0-.55-1.25,4,4,0,0,1-.87-1.69,1.52,1.52,0,0,0-.48-.88c-.44-.38-.81-.83-1.21-1.25-.13-.13-.26-.27-.38-.41l-1.08-1.35c-.09-.11-.23-.18-.28-.3a19.87,19.87,0,0,0-2-3.21A17.51,17.51,0,0,1,111,62.35a17.32,17.32,0,0,0-1.12-1.79,4.84,4.84,0,0,1-1-1.73,1.23,1.23,0,0,0-.26-.49,4.63,4.63,0,0,1-.84-1.83.56.56,0,0,1,.69.23l.41.48c.68.79,1.36,1.58,2,2.38a13.33,13.33,0,0,0,1.52,1.87,8.16,8.16,0,0,1,1.57,2,5.47,5.47,0,0,0,.79.94c.32.32.7.59,1,.87a2.27,2.27,0,0,0,.11.89c.44.71,1,1.37,1.44,2,.11.15.25.28.35.43.58.86,1.1,1.76,1.72,2.59a44.74,44.74,0,0,1,3,4.61c.22.39.48.6.86.54a7.81,7.81,0,0,1,.73-.65c.68-.5.74-1.3,1-2,0-.13-.07-.31-.11-.46a3.82,3.82,0,0,1-.21-.71,8.42,8.42,0,0,1,0-1.23c0-.58.09-1.15.12-1.73a6.39,6.39,0,0,0,0-1c-.07-.71-.2-1.42-.24-2.13a24.35,24.35,0,0,0-.26-3.41,5.39,5.39,0,0,1,.1-1.43c0-.36.32-.48.57-.54s.36.23.44.45.09.26.15.38a12.22,12.22,0,0,1,.48,2.22c.26,1.08.62,2.13.85,3.21a7.31,7.31,0,0,0,1.22,2.69c.28.4.59.78.86,1.18s.44.77.72,1.11a1.75,1.75,0,0,0,1.55.62c.71-.06,1.41-.19,2.12-.22a16.2,16.2,0,0,0,3.39-.62,1.44,1.44,0,0,1,1.45.18c.44-.24.88-.45,1.28-.71a2.85,2.85,0,0,0,.6-.55,13.2,13.2,0,0,1,1-1.31,4.21,4.21,0,0,0,.85-1.4,1.38,1.38,0,0,1,.41-.62,20.44,20.44,0,0,1,1.88-.92c.1,0,.25,0,.5,0a6.59,6.59,0,0,1-.35.78c-.67,1.08-1.36,2.15-2,3.22a1.73,1.73,0,0,0-.14.31,5,5,0,0,1-1,1.63c-.33.4-.78.75-.77,1.34a1.44,1.44,0,0,1-.61,1.12,13.74,13.74,0,0,0-2.22,2.08,8.48,8.48,0,0,1-1.5,1.94c-.15.12-.13.45-.18.66l.65.34a8.74,8.74,0,0,1-.71,1.13,1.5,1.5,0,0,0-.31,1.43c.06.28.09.57.12.84-.3.17-.61.24-.74.42a8.21,8.21,0,0,0-.79,1.53c-.15.38.2.65.62.53.62-.18,1.24-.37,1.85-.58a3.72,3.72,0,0,0,.73-.4,2.85,2.85,0,0,1,1.78-.68,1.4,1.4,0,0,0,.93-.2,1.42,1.42,0,0,1,1.41-.12l1.19-.52a12.37,12.37,0,0,1,2.21-1,3.41,3.41,0,0,0,1.11-.39,8.22,8.22,0,0,1,2.8-1,8.34,8.34,0,0,0,2.83-.93,1.23,1.23,0,0,1,.53-.17,5.86,5.86,0,0,0,2.26-.68,6.14,6.14,0,0,1,.64-.27.81.81,0,0,1,1,.2c.08.09.16.2.23.29a2.32,2.32,0,0,0,1.83-1.26.88.88,0,0,1,.71-.48,2.47,2.47,0,0,0,1.33-.54,1.29,1.29,0,0,1,.72-.2,3.63,3.63,0,0,0,1.85-.54,7.75,7.75,0,0,1,1.09-.74,19.87,19.87,0,0,0,1.9-.83c.54-.3.64-.38.35-.94a.55.55,0,0,1,.14-.79,6.94,6.94,0,0,1,2.23-1.06c0,.07-.09.1-.14.15a10.89,10.89,0,0,0-1,1,.66.66,0,0,0,0,.58c.05.09.31.09.49.11a4.26,4.26,0,0,1,1.08.12.7.7,0,0,0,.9-.26,3.35,3.35,0,0,0,.21-.36,1.06,1.06,0,0,1,1-.59c.47,0,1,0,1.27-.52,0-.1.23-.15.34-.23l.78-.62c-.44-1-.69-1-1.58-.65a17.81,17.81,0,0,1-1.75.56l0,0h0c-.21.44-.64.27-1,.42l0-.15,1-.27h0a2.88,2.88,0,0,1,.33-.28l1.8-.92a13,13,0,0,1,1.31-.62c.66-.22,1.34-.36,2-.56a2,2,0,0,0,.76-.32,3.47,3.47,0,0,1,1.54-.75c.85-.22,1.7-.4,2.55-.63s1.67-.43,2.47-.73c1.62-.6,3.29-1,4.94-1.47a1.26,1.26,0,0,1,1.28.3,6.46,6.46,0,0,0-.24.88.74.74,0,0,0,.68.91A1.25,1.25,0,0,0,190.39,66.23Zm-25.18-6.76c.65-.27.87-.15,1.14.62a1.49,1.49,0,0,1-.52.1,1.25,1.25,0,0,0-1.08.34,2.17,2.17,0,0,1-.67.36,1.41,1.41,0,0,1-.5,0l-.05-.15A7.17,7.17,0,0,1,165.21,59.47ZM122,44.38c-.32,0-.76-.32-.77-.62a8.39,8.39,0,0,1-.1-2.57,1.2,1.2,0,0,1,.75.92c.1.63.12,1.28.16,1.93A1.37,1.37,0,0,1,122,44.38ZM64.28,85.44a1,1,0,0,1-.78,0,10.39,10.39,0,0,1-1.34-.75.69.69,0,0,1-.19-.19c-.26-.36-.11-.74.32-.73a4.58,4.58,0,0,1,1.16.17c.56.14,1.1.32,1.64.48l0,.21A5.15,5.15,0,0,1,64.28,85.44ZM74.67,75.7a10.18,10.18,0,0,1-1.06.91,2.47,2.47,0,0,1-.76.33.89.89,0,0,0-.77.83A2.05,2.05,0,0,1,71,79.51a.61.61,0,0,0-.2.19,1.66,1.66,0,0,1-1.07.68,2.16,2.16,0,0,0-.79.53,3.7,3.7,0,0,0-.49.48c-.25.27-.48.55-.71.84a2.8,2.8,0,0,1-.86.78,2.32,2.32,0,0,1-1.55.12l-3-.44-2-.26c-.35,0-.7,0-1-.08a6.9,6.9,0,0,1-1.27-.3.62.62,0,0,1-.2-1A13.82,13.82,0,0,1,59,80a.44.44,0,0,1,.57,0,1,1,0,0,0,1.51-.48,4.49,4.49,0,0,1,1.78-2.07,1.16,1.16,0,0,1,.78-.21,9,9,0,0,1,1.16.13.73.73,0,0,1,.42.33,1.83,1.83,0,0,0,1.65.88,1.12,1.12,0,0,1,.76.24c.26.23.3.2.8-.09-.14-.43-.25-.88-.43-1.3s-.41-.75-.64-1.16c.36-.2.67.17,1,.11a7.2,7.2,0,0,0,1-.3,1.14,1.14,0,0,0-.66-.86l-1.23-.64c-.67-.36-.71-.79-.08-1.17a14,14,0,0,1,1.71-.91,1,1,0,0,1,1.1.26,6.31,6.31,0,0,0,3.28,1.53c.57.15,1.21.16,1.6.76C75.1,75.33,74.87,75.52,74.67,75.7Zm8,0a5,5,0,0,1-.78-.09c-.21,0-.39-.21-.26-.46s.32-.23.52-.09.38.31.57.46Zm5.44,49.54c-.19-.5.21-.5.42-.58s.51,0,.64.4Zm55-16c.7.37.73.43.54,1.12C143.08,110.16,143,110,143.12,109.18Zm-5.88,6.66a1.58,1.58,0,0,1-.3,1.46,10.67,10.67,0,0,1-.12-1.18C136.83,116,137.07,116,137.24,115.84ZM129,124.75a5.65,5.65,0,0,1-.15,3c0,.06-.17.09-.37.19A6.52,6.52,0,0,1,129,124.75Zm-23,8.27a2.4,2.4,0,0,0,1.32-.86,2.72,2.72,0,0,1,.65-.51,1.28,1.28,0,0,0,.67-1.13c0-.64.17-.8.78-.8a1.44,1.44,0,0,0,1-.33,1.43,1.43,0,0,1,.63-.26,1.43,1.43,0,0,0,.89-.61,2.61,2.61,0,0,1,1.55-1.19,2.42,2.42,0,0,0,1.44-.91c.21-.29.71-.39,1.09-.54.06,0,.26.13.28.23a1,1,0,0,1,0,.61,1.65,1.65,0,0,0,.14,1.41,2.67,2.67,0,0,1,.09.26c.28.91.4.73-.48,1.27a1.49,1.49,0,0,0-.84,1.47,3.32,3.32,0,0,1-1,2.37,2.47,2.47,0,0,1-1.66.63,4.24,4.24,0,0,0-1.25.35,14.45,14.45,0,0,0-3.21,1.92,2.65,2.65,0,0,1-.53.27c-.76.33-1.54.64-2.29,1a4.46,4.46,0,0,0-.77.54,12.84,12.84,0,0,1-2.8,1.62.92.92,0,0,0-.38.28c-.24.41-.67.54-1,.76s-1,.47-1.41.76a1.3,1.3,0,0,1-1.11.16,2.66,2.66,0,0,1,.85-1.55,10.1,10.1,0,0,0,.68-.77c.39-.36.83-.66,1.23-1a2.85,2.85,0,0,0,.47-.51,2.5,2.5,0,0,1,1.07-.86,1.49,1.49,0,0,0,.51-.36c.49-.48,1-1,1.45-1.48a3.37,3.37,0,0,0,.63-1A1.94,1.94,0,0,1,106.06,133ZM89.7,77c.09.53,0,.73-.36.88s-.49.07-.77-.38C88.78,76.78,89.21,76.81,89.7,77ZM74,106.25a4,4,0,0,0-1.21.78,6.85,6.85,0,0,1-1.27,1.15.81.81,0,0,1-1,.15,2.46,2.46,0,0,0-1.88-.23c-.18.06-.43-.09-.7-.15-.14.81-1.71.91-2.48.13.06-.08.1-.22.18-.25.77-.31,1.55-.61,2.33-.9,1.55-.6,3.23-.49,4.82-.84.52-.12,1-.31,1.53-.46a3.8,3.8,0,0,1,.49-.07C74.65,106,74.29,106.07,74,106.25Zm4.44-3.55c-.34.27-.69.53-1.06.78a1.84,1.84,0,0,1-.51.19l-1.46.45a1.39,1.39,0,0,1-.33.1c-1.29-.07-2.44.54-3.66.79a4.86,4.86,0,0,1-1.16.23,9.85,9.85,0,0,0-3,.66c-.66.15-1.31.33-2,.48a3.66,3.66,0,0,1-.68,0,6.55,6.55,0,0,1,2.52-2.11,4.55,4.55,0,0,0,1.28-1,2.27,2.27,0,0,1,1.78-.8c.53,0,1.07.07,1.6.06.77,0,1.53-.1,2.29-.17.58,0,1.15-.1,1.72-.19.83-.12,1.65-.29,2.47-.42.35-.06.73-.19,1.08.26C79,102.19,78.74,102.46,78.44,102.7Zm5-4c-.34.27-.71.52-1.08.76a3.29,3.29,0,0,1-2.21.68,6.11,6.11,0,0,0-1.09.16,8.92,8.92,0,0,1-2.36.17c-.32-.06-.6-.14-.68-.49a.64.64,0,0,1,.51-.73A6.3,6.3,0,0,1,78,99a22.52,22.52,0,0,0,3.54-.75c.13,0,.28-.11.4-.08.64.15,1.31-.35,2,.09A3.82,3.82,0,0,1,83.45,98.74Zm9.73.31a4.35,4.35,0,0,0-1-.55.81.81,0,0,0-.51,0,4,4,0,0,0-1.47.86c-.41.38-.56.33-.88-.26A6.36,6.36,0,0,1,91.22,98a4.63,4.63,0,0,0,1.13-.66,1.08,1.08,0,0,1,1.77.86c0,.29.1.58.14.87A.77.77,0,0,1,93.18,99.05Zm1.23-9.49c-.14.14-.48.12-.73.14a2.36,2.36,0,0,0-1.36.26l.81.78A3.55,3.55,0,0,1,91.48,92a4,4,0,0,0-.92.31,1.06,1.06,0,0,0-.54.59c-.18,1-1,1.51-1.69,2.06a10.76,10.76,0,0,0-.93.7,3.12,3.12,0,0,1-1.9.77c-.59.07-1.16.21-1.75.3s-1,.12-1.57.18a17,17,0,0,0-2.14.2,1.77,1.77,0,0,1-2-.72c-.1-.13-.18-.27-.33-.5a5.21,5.21,0,0,0-.46.59c-.48,1-1.44,1.21-2.4,1.4a10,10,0,0,1-1.21.15,1.51,1.51,0,0,1-1.5-.71,4.43,4.43,0,0,0-1,.73c-.41.5-.92.39-1.41.34s-.77-.66-.43-1.18a3.41,3.41,0,0,1,1.47-1,2.59,2.59,0,0,0,1.16-.9,10.82,10.82,0,0,1,1.6-1.65,1.94,1.94,0,0,1,.68-.32,6.33,6.33,0,0,1,1-.25.93.93,0,0,1,.52,0A1.2,1.2,0,0,0,77,92.67a.77.77,0,0,0-.54-.66c-.46-.21-.53-.54-.16-.86a2.22,2.22,0,0,1,1.13-.61A9.29,9.29,0,0,0,79.23,90,5.55,5.55,0,0,1,80,89.8a2,2,0,0,0,1.31-.54,2.72,2.72,0,0,1,1.51-.82.84.84,0,0,0,.54-.38,4.46,4.46,0,0,1,.67-.77c.47-.41.49-.4.3-1a8.08,8.08,0,0,0-.32-.77,14.17,14.17,0,0,0,1.34-.75,6.52,6.52,0,0,0,.94-.8c.58-.56.57-.56,1.32-.28a.69.69,0,0,0,.51,0c.44-.25.85-.55,1.25-.81-.29-1.25.1-1.68,1.19-1.45.32.07.66.36,1,.1s1-.75,1-1.46c0-.09,0-.18,0-.29a1.2,1.2,0,0,1,1.12.14c.21.15.43.28.64.42a5.55,5.55,0,0,0,1.47.6c.75.22,1.48.5,2.21.79.18.06.31.24.49.39-.38.38-.67.74-1.24.6-.2,0-.45.1-.68.12a2.12,2.12,0,0,1-1,0,1.64,1.64,0,0,0-1.61.3l-.27.13L92.16,82c-.31-.25-.47-.24-.68.08-.09.14-.16.29-.24.43,0,.55.47.8.83,1a4.21,4.21,0,0,0,1.3.3c.08.35.15.68.23,1-.48.21-.89.38-1.28.57-.12.06-.19.2-.28.29.24.51.34.57.77.46l1-.29c.22.51.17.86-.21,1.13-.61.43-.63.91,0,1.23l1.64-.66.2,0c.4,0,1,.22,1,.47,0,.43-.33.58-.64.73A4.74,4.74,0,0,0,94.41,89.56Zm4.28,3.88a.6.6,0,0,1,.62.54c0,.32-.16.47-.4.58a5.67,5.67,0,0,1-.66.22,11.7,11.7,0,0,0-1.19.36,3,3,0,0,1-1.69,0,7.49,7.49,0,0,1-.77-.23c.18-.75.54-1,1.51-1a1.06,1.06,0,0,0,.89-.26c.11-.13.38-.15.58-.16A10.29,10.29,0,0,1,98.69,93.44ZM93.38,131.9l-1.24.06-.06-.16.82-.69Zm-.4-3.82c-.51.92-.67,1-1.54,1.09C91.87,128.67,92.2,128.1,93,128.08Zm10-24.22a5.13,5.13,0,0,0-1.51.93,13.19,13.19,0,0,1-2.23,1.26c-.5.24-1.06.36-1.56.58-.66.29-1.29.65-2,.94s-1.13.4-1.68.63a9.38,9.38,0,0,0-1.22.63c-.81.49-1.6,1-2.39,1.54-.3.21-.56.47-.86.68-.73.51-1.45,1-2.19,1.49-.27.17-.58.27-.87.42s-.63.37-1,.54-.81.41-1.31.65c-.09-.72.09-1.07.57-1.14a1.91,1.91,0,0,0,1.28-.73.87.87,0,0,1,.43-.34c.7-.1,1-.67,1.44-1.12a9.86,9.86,0,0,1,1.17-1.16,3,3,0,0,0,1.24-1.44,1.44,1.44,0,0,1,.23-.32c.07,0,.13,0,.16,0,.92.53,1.66-.05,2.41-.41a2.23,2.23,0,0,0,1.32-1.35,1.39,1.39,0,0,1,.55-.61,14.21,14.21,0,0,0,1.84-1.63,2.75,2.75,0,0,1,2.84-.61c-.31.24-.64.46-.94.71a.51.51,0,0,0-.12.69.56.56,0,0,0,.73.23c.72-.26.73-.24,1.12-1.18l.75.43.06,0,1.16-.41a1.24,1.24,0,0,0,.34-.22c.35-.32.35-.32,1-.36A1.29,1.29,0,0,1,103,103.86Zm-2.4-11.15a.41.41,0,0,1,.2-.32,3.59,3.59,0,0,1,2.64-.21c-.39.26-.71.51-1.06.72a2.26,2.26,0,0,1-1.56.1C100.72,93,100.59,92.81,100.59,92.71Zm2.81-2.61a1.08,1.08,0,0,1-.41,0,4.66,4.66,0,0,0-2.06-.27,1.88,1.88,0,0,1-.48-.18,1.31,1.31,0,0,1,.2-.48,2.1,2.1,0,0,1,2.06-.55,7.25,7.25,0,0,1,.86.29c.12.34.22.62.34.94A.43.43,0,0,1,103.4,90.1ZM101,77.61l.69.8C101.27,78.37,101,78.2,101,77.61Zm12.28,9.66a.76.76,0,0,1-.72,0,1,1,0,0,0-.93,0,1.84,1.84,0,0,1-2.19-.52,1,1,0,0,0-1.22-.36c-.71.22-1.24-.1-1.46-1.13A20.2,20.2,0,0,1,113.28,87.27ZM109,77c-.39,0-.78.07-1.18.08a2,2,0,0,0-1.58.59,1,1,0,0,1-1.41,0,3.78,3.78,0,0,0-1.34-.83c-.66-.27-1.28-.63-1.92-1-.45.34-1.08.39-1.31,1.11a4.11,4.11,0,0,1-.47-.48,8.43,8.43,0,0,1-.68-1,.79.79,0,0,1-.09-.64.7.7,0,0,1,.6-.18,6,6,0,0,1,1,.3l1.5.55a.56.56,0,0,0,.68-.15c-.2-.65-.8-.8-1.27-1.11a4.07,4.07,0,0,0-.55-.28c-.31-.13-.56-.38-.48-.68a1.23,1.23,0,0,1,.56-.81,2.18,2.18,0,0,1,1.15.08,3.67,3.67,0,0,1,.87.42.88.88,0,0,1,.26.31c.1.15.16.33.26.49.33.53.52.57,1.07.27a2.59,2.59,0,0,1,.75-.36,1.46,1.46,0,0,1,1.49.49,7.14,7.14,0,0,0,.86.68,3.51,3.51,0,0,1,.67.78C108.61,76,108.75,76.44,109,77Zm-.58-4.52.11,0v.93l-.56-.39Zm1.51-19.66a5.13,5.13,0,0,1-1.21-1.84c-.35-.81-.75-1.59-1.09-2.4a5.15,5.15,0,0,1-.18-1c.6.24.89.78,1.66,2.52.4.91.89,1.77,1.32,2.64C110.19,53,110,52.92,109.88,52.77Zm14.9-10.91c-.82-.61-.86-1-.15-1.71C125.29,41,125.32,41.43,124.78,41.86Zm3.06,17.72a5.59,5.59,0,0,1,.78,3.12A2.7,2.7,0,0,1,127.84,59.58Zm4.36-1.66a4.46,4.46,0,0,1-.67-.46,9.41,9.41,0,0,1-.75-.92,6.37,6.37,0,0,1-1-2.54,5.61,5.61,0,0,1,.12-1.57c0-.09.14-.25.19-.24a.49.49,0,0,1,.34.19c.11.2.12.45.24.64.27.45.61.87.87,1.33a4,4,0,0,1,.33.89A5.38,5.38,0,0,1,132.2,57.92ZM151.82,76c.3-.68.76-.35,1.1-.42C152.69,75.92,152.31,75.87,151.82,76Zm5.87-2a5.37,5.37,0,0,0-2.55.82.22.22,0,0,1-.14,0,2.49,2.49,0,0,1-.27-.18c.9-.38,1.69-.74,2.5-1a2.5,2.5,0,0,1,.78-.06l.07.16C158,73.78,157.83,74,157.69,74Zm.74-19.18c-.42.27-.82.58-1.24.87a10.88,10.88,0,0,1-1.17.73c-.56.26-1.16.46-1.74.69-.09,0-.17.11-.25.11a1.55,1.55,0,0,1-.36-.08,1.58,1.58,0,0,1,.14-.36.57.57,0,0,1,.24-.14,4.42,4.42,0,0,0,1.58-1.08,14.64,14.64,0,0,1,1.71-1.28c.32-.23.65-.46.94-.71a1.3,1.3,0,0,1,1.11-.28c.15,0,.28.22.5.39a4.47,4.47,0,0,1-.5.57C159.08,54.43,158.74,54.58,158.43,54.79Zm1.27,14.33c-.33-.64-.24-.92.44-1.17a1.77,1.77,0,0,1,1.28-.07,4.46,4.46,0,0,0,.73.13C161.38,68.43,160.77,69.29,159.7,69.12Z"/><path d="M170,71.75l0,0h0Z"/><path d="M120.38,95.44a.54.54,0,0,1,.05.11A.54.54,0,0,0,120.38,95.44Z"/><path d="M120.5,95.74a.72.72,0,0,1-.07.3A.72.72,0,0,0,120.5,95.74Z"/><path d="M187.41,78.4a3.09,3.09,0,0,0-1.48,0,1.61,1.61,0,0,1-1,.12,4.26,4.26,0,0,0-2,.21c-1.85.33-3.69.72-5.53,1.09l-1.84.36c-.32.06-.63.16-1,.19a10.09,10.09,0,0,0-2.07.21,13,13,0,0,1-3.22.34s-.07,0-.15-.11a2.7,2.7,0,0,1,.38-.27,6.37,6.37,0,0,1,1.47-.59,12.9,12.9,0,0,1,3.21-.53,3.57,3.57,0,0,0,1-.13c.47-.11.93-.28,1.41-.38,1.05-.23,2.11-.44,3.17-.65.23,0,.46,0,.68-.11a.41.41,0,0,0,.35-.45.46.46,0,0,0-.34-.47.64.64,0,0,0-.27-.07c-.53,0-1.06,0-1.6.06a8.34,8.34,0,0,1-1.87,0,2,2,0,0,0-1.93.44,1.69,1.69,0,0,1-1.57.33c-.25-.06-.48-.15-.74-.23a1.51,1.51,0,0,1-1.56.32,1.72,1.72,0,0,0-.67-.06,4.6,4.6,0,0,0-1.9.63.86.86,0,0,1-.53.1,13.27,13.27,0,0,0-3.08.4c-.45.1-.76.43-.75.72s.37.49.66.62l1.41.69a7.91,7.91,0,0,1-2.55,1.07,12.83,12.83,0,0,1-2.23.28c-.31,0-.63.07-1,.11-.51.07-1,.15-1.52.21s-1,.39-1.48.15c-.06,0-.18.1-.28.14s-.24.11-.32.07c-.53-.24-1,0-1.55.06-.73.06-1.46.22-2.19.34a2.83,2.83,0,0,0-1.5.52,1.25,1.25,0,0,1-.77.22,5.24,5.24,0,0,1-1.09-.21.29.29,0,0,1-.17-.48,3.11,3.11,0,0,1,.47-.29,3.36,3.36,0,0,0,.49-.35c.17-.15.3-.35.47-.5.41-.36.42-.45.05-.9a3.76,3.76,0,0,1-.25-.31c-.26.19-.46.35-.68.48s-.74.58-1.07.54a1,1,0,0,0-.92.37,3.35,3.35,0,0,1-1.61.91,1.19,1.19,0,0,0-1.07,1,.94.94,0,0,1-.74.75c-.63.17-1.26.32-1.89.47a4.69,4.69,0,0,0-1.07.29,14.42,14.42,0,0,0-1.61,1.06c-.35.26-.62.63-1,.9-.64.51-1.33,1-1.94,1.48-.86.74-1.15,1.5-.11,2.35a10.68,10.68,0,0,0,2.3,1.25,9.85,9.85,0,0,0,2.45.9,6.13,6.13,0,0,1,1.79.93c.11.07.17.22.26.34-.25.15-.49.22-.61.39a1,1,0,0,0,.39,1.44,10.4,10.4,0,0,1,2.05,1.29,10.59,10.59,0,0,0,1.14.66c.88.55,1.74,1.13,2.64,1.67,1.22.73,2.69,1,3.79,2a.64.64,0,0,0,.18.1,4.4,4.4,0,0,1,1.77,1.57,3.12,3.12,0,0,0,1.42,1.36c.92.36,1.78.88,2.7,1.26a2.48,2.48,0,0,1,1.05.77,2.25,2.25,0,0,0,1.89.86.87.87,0,0,1,.78.46c.45.7.9,1.38,1.36,2.07a1.64,1.64,0,0,0,.33.44l2.7,2.09c.7.53,1.4,1.06,2.09,1.61.45.36.87.76,1.32,1.13,1.15,1,2.36,1.87,3.44,2.9A9.62,9.62,0,0,0,176.5,121a.72.72,0,0,0,.93-.07c.45-.38.83-.27,1.29.15a1.5,1.5,0,0,0,.63.41,1.2,1.2,0,0,1,1.05,1.11,1.28,1.28,0,0,0,.13.39,1.23,1.23,0,0,0,.94.75,4.69,4.69,0,0,0,1.18-.08c.45-.05.62-.31.48-.73a1.07,1.07,0,0,0-.26-.4c-.51-.53-1-1.06-1.56-1.55a.67.67,0,0,1-.3-.68c1.21.35,1.8,1.5,2.88,2.06.05-.15.11-.24.1-.32-.15-.9-1-1.27-1.49-2a6.58,6.58,0,0,1,1-.3c.39-.06.46-.44.73-.6a1.27,1.27,0,0,1,.31-.15.59.59,0,0,0,.46-.8,4.47,4.47,0,0,0-.7-.73,13.61,13.61,0,0,0-1.41-.86c-1.11-.6-2.21-1.18-3.33-1.74-.6-.3-1.25-.5-1.84-.8s-1-.29-1.51-.49a14.13,14.13,0,0,1-2.46-1.23c-.45-.29-1-.47-1.41-.78a7.75,7.75,0,0,0-1.9-.86l-.35.44c-.59-.36-1.17-.67-1.69-1a6.29,6.29,0,0,1-1.43-1.3,3.1,3.1,0,0,0-1.4-1.22c-.65-.25-1.27-.58-1.9-.87a.94.94,0,0,1-.58-1.07.66.66,0,0,0-.27-.72c-.36-.28-.68-.66-1.23-.57-.13,0-.3-.09-.44-.17-.72-.38-1.45-.75-2.15-1.14-.36-.21-.68-.48-1-.68a7.25,7.25,0,0,1-2.38-1.51c0-.07-.16-.09-.25-.13a28.92,28.92,0,0,1-3-1.87,1.52,1.52,0,0,1-.82-1.62,1.94,1.94,0,0,0-.42-1.41,5.52,5.52,0,0,0-1.24-1,2.58,2.58,0,0,0-2.26-.56,1.52,1.52,0,0,1-.82-.07c-.5-.21-1-.51-1.57-.84a3.72,3.72,0,0,1,.59-.08c.32,0,.64.09,1,.14a2.52,2.52,0,0,1,.89.16c.27.16.57.1.82.24a7.46,7.46,0,0,0,2.13.52,1.75,1.75,0,0,0,1.21-.2,3.17,3.17,0,0,1,2.24-.49,2.56,2.56,0,0,0,2.18-.38c.11.06.17.08.19.11A2.42,2.42,0,0,0,158,94.71a15,15,0,0,1,1.57.74,3.18,3.18,0,0,0,1,.35c.55.08,1.09.23,1.62.31,1.2.16,2.41.17,3.62.23a.74.74,0,0,0,.68-.34c-.39-.5-.76-1-1.14-1.42a.85.85,0,0,0-.42-.34A13,13,0,0,0,163,94a.94.94,0,0,0-1,.66c-.1.34-.35.35-.61.23s-.51-.31-.78-.46a2.71,2.71,0,0,0-.68-.34,5.74,5.74,0,0,1-2-.73,2,2,0,0,0-.67-.21l-.67-.16.1-.09-1-1.65a2.23,2.23,0,0,1,.68-.28,16.67,16.67,0,0,1,2.64-.07,9.36,9.36,0,0,0,1.59,0,.65.65,0,0,0,.64-.43c-.38-.47-.5-.53-1-.53h-1l-2.86,0a10.86,10.86,0,0,1-2.06,0,3.64,3.64,0,0,0-1.71.08c-1,.27-.94.56-.49,1.13,0,0,0,.09,0,.22l-.48.07c-.5.09-1,.07-1.21.73a.34.34,0,0,1-.57.19,3,3,0,0,0-.29-.89,1.59,1.59,0,0,0-1.6-.31,2.33,2.33,0,0,1-1.7.14c-.42-.16-.83-.36-1.33-.59.16-.15.27-.33.41-.38a16.87,16.87,0,0,1,2.27-.68c1.46-.27,3-.13,4.43-.52a6.17,6.17,0,0,0,.87-.23,1.79,1.79,0,0,1,1-.17,3.34,3.34,0,0,0,1.09.07,23.4,23.4,0,0,0,2.35-.51,5.49,5.49,0,0,1,1.93-.22,3.33,3.33,0,0,0,2.09-.39,1.55,1.55,0,0,1,.53-.15c.54-.13,1.08-.25,1.61-.39s1.16-.32,1.74-.49.87-.3,1.32-.43a19.76,19.76,0,0,1,2.47-.7,17.28,17.28,0,0,0,2.85-.64,13.73,13.73,0,0,1,1.39-.4c.91-.23,1.83-.44,2.74-.65a2.19,2.19,0,0,0,.53-.17.42.42,0,0,0,0-.77l-.55-.31a4.87,4.87,0,0,1,2.3-.54c.79,0,1.45-.6,2.15-.54l.63.7c.52-.21.07-.6.28-.87,1-.3,2-.57,3.09-.82a20.9,20.9,0,0,1,2.59-.54,1.3,1.3,0,0,0,1.16-.74C188,78.83,187.85,78.43,187.41,78.4ZM143,91.64c-.53,0-1.1.3-1.58-.31.47-.49,1.05-.28,1.57-.29.08,0,.22.19.22.3S143,91.64,143,91.64Zm36,26.87a.32.32,0,0,1,.08.29c-.06.09-.21.2-.3.18a.94.94,0,0,1-.81-.57A1,1,0,0,1,179,118.51Zm-2.75-1.07c-.45.19-.78,0-1.08-.7C175.93,116.52,176,116.59,176.26,117.44Z"/><path d="M109,38.19a3.35,3.35,0,0,1,.21,1.82c0,.06,0,.14,0,.2a38.6,38.6,0,0,1,1.26,4.22,1.41,1.41,0,0,0,.19.66,5,5,0,0,1,.78,2c.46,1.59,1,3.17,1.44,4.76.18.63.29,1.22-.36,1.68a.51.51,0,0,0-.18.42,1.7,1.7,0,0,0,.23.71c.41.64.86,1.25,1.3,1.87a.46.46,0,0,0,.22.17c.1,0,.25,0,.32,0a.36.36,0,0,0,.1-.3,3.3,3.3,0,0,0-.23-.41c-.08-.18-.13-.36-.21-.59.36-.06.61-.12.86-.14s.56-.16.58-.55.1-.78.14-1.17c0-.56.14-1.06.78-1.25a1.84,1.84,0,0,0,.45-.33c-.14-.26-.21-.59-.39-.67-.63-.31-.84-.92-1.14-1.45a7.87,7.87,0,0,1-1-2.85,3.12,3.12,0,0,0-.57-1.83,6.37,6.37,0,0,1-1.25-2.59c-.17-.61-.39-1.22-.61-1.81-.38-1-.82-2-1.18-3a6.41,6.41,0,0,0-1-2,4.4,4.4,0,0,1-.62-1.15,4.44,4.44,0,0,0-1.4-2c-.24.18-.47.3-.43.62a5.1,5.1,0,0,0,.5,1.86A12.58,12.58,0,0,1,109,38.19Z"/><path d="M137,151.81a4.58,4.58,0,0,0-.85-2.08,1.14,1.14,0,0,1-.24-.77,1.31,1.31,0,0,0-.85-1.44.56.56,0,0,0-.4,0,7.91,7.91,0,0,0-1.11.69,1,1,0,0,0-.3.6,2.57,2.57,0,0,1-.5,1.2,2.2,2.2,0,0,0-.51,1.62,1,1,0,0,1-.11.73,1.89,1.89,0,0,0-.4,1.08c-.08.41-.15.81-.27,1.21a1.3,1.3,0,0,0,.35,1.35c.25.26.43.23.65-.08s.32-.5.48-.75c.41-.62.55-.65,1.13-.43.37.13.74.28,1.11.4a.89.89,0,0,0,.47.08c.63-.22,1.25-.47,1.86-.71a2.71,2.71,0,0,0-.24-1.74A7.11,7.11,0,0,1,137,151.81Z"/><path d="M127.93,151.13a3.14,3.14,0,0,0-.8-2,1.21,1.21,0,0,0-1.81-.24,17,17,0,0,0-1.34,1.19,1.65,1.65,0,0,0-.48.82c-.06.53-.24,1-.32,1.54-.12.75-.12,1.52-.17,2.29a5.09,5.09,0,0,1,0,.55c0,.21-.21.45-.16.63s.3.39.47.59c.68-.31.68-.31,1-.08.56.33.88.3,1.23-.25a1.37,1.37,0,0,1,.9-.59c.31-.07.64-.13,1-.22a1,1,0,0,0,.76-.83,4.61,4.61,0,0,0,0-1A23,23,0,0,1,127.93,151.13Z"/><path d="M146.79,152.73c-.11-.49-.23-1-.33-1.47-.07-.31-.1-.64-.19-.94a3.45,3.45,0,0,0-.49-1.28,2.09,2.09,0,0,1-.4-2,2,2,0,0,0-.1-1.22c-.13-.35-.79-.71-1.08-.54a3.69,3.69,0,0,0-1.13.88,10.72,10.72,0,0,0-1.39,3.37,3.25,3.25,0,0,0-.13,1,1.43,1.43,0,0,0,.79,1.15,2.05,2.05,0,0,1,1,1.43c.22.95.41,1.17,1.35,1.32a2.33,2.33,0,0,0,1.67-.33c.47-.3.33-.82.34-1.28v-.07Z"/><path d="M175.73,130.92a1,1,0,0,1-1.09-.85,14,14,0,0,0,.59-1.28,6.58,6.58,0,0,0,.35-1.32,3.19,3.19,0,0,0-.86-2.31,4.6,4.6,0,0,0-2.33-1.57c-.37-.12-.66-.15-.93.18a.79.79,0,0,0-.1,1,2.87,2.87,0,0,0,.55.6c.41.35.86.64,1.24,1a.9.9,0,0,1,.24,1.07,14.48,14.48,0,0,0-.64,2,3.69,3.69,0,0,0,.08,2.39,13,13,0,0,0,1.14,2,1.32,1.32,0,0,0,1.39.63,10.15,10.15,0,0,0,1.86-.74,1,1,0,0,0,.56-1A2.31,2.31,0,0,0,175.73,130.92Z"/><path d="M113,150.56a2.51,2.51,0,0,0-1,.26.66.66,0,0,1-.82-.08c-.25-.22-.51-.4-.52-.83a5.2,5.2,0,0,0,.47-.54.5.5,0,0,1,.67-.18c.52.18.52.17.91-.43a2.64,2.64,0,0,0-.6-.49,1.13,1.13,0,0,1-.75-.83c-.05-.23-.15-.49-.44-.44a.83.83,0,0,0-.49.33,5.82,5.82,0,0,0-.83,1.74,15.33,15.33,0,0,1-.85,2.47,2.81,2.81,0,0,0,.06,1.94.46.46,0,0,0,.12.24c.46.44.94.87,1.41,1.3a1.3,1.3,0,0,0,.32,1.31,1.38,1.38,0,0,0,.79.31c.51-.5.09-1.13.19-1.7a1,1,0,0,0,1-1.1.42.42,0,0,1,.08-.2c.32-.61.64-1.23,1-1.84S113.74,150.56,113,150.56Z"/><path d="M110.38,155c-.47-.43-.95-.86-1.41-1.3.46.44.94.87,1.41,1.3a1.3,1.3,0,0,0,.32,1.31A1.3,1.3,0,0,1,110.38,155Z"/><path d="M169.4,130.9a1.46,1.46,0,0,0,0-.69,4.68,4.68,0,0,0-1.37-2.37c-.54-.44-.55-.85-.08-1.36.11-.12.22-.25.33-.36a1.31,1.31,0,0,0,.44-1.19,16.72,16.72,0,0,1-.37-2c-.06-1-.73-1.44-1.48-1.84a.43.43,0,0,0-.67.42,1.73,1.73,0,0,0,.16.66,3,3,0,0,1-.31,3.15,2.26,2.26,0,0,0-.53,1.71,5.27,5.27,0,0,0,.71,2.81,3.06,3.06,0,0,0,2.05,1.72A.85.85,0,0,0,169.4,130.9Z"/><path d="M164.54,139.27c-.76-.53-.9-1-.59-2.05.16-.55.29-1.11.43-1.66,0-.12,0-.24-.08-.35-.15-.46-.29-.92-.45-1.37a3,3,0,0,0-1.06-1.67.74.74,0,0,0-1.06.09c-.21.26-.23.52.12.93a2,2,0,0,1,.41,1.69c0,.27-.15.53-.19.8a23,23,0,0,0-.33,2.46,5.13,5.13,0,0,0,.42,1.94,3.08,3.08,0,0,0,2.12,1.83.79.79,0,0,0,1-.79A2.26,2.26,0,0,0,164.54,139.27Z"/><path d="M176.29,56.59c-.44.23-.63.52-.53.94a13.6,13.6,0,0,0,.5,1.48c.52-.19.94-.31,1.33-.5.92-.45,1.82-.94,2.74-1.39.35-.18.72-.3,1.07-.47a4.37,4.37,0,0,0,2-1.69.89.89,0,0,0,0-.9c-.56-1.21-1.39-1.34-2.42-.48a25.27,25.27,0,0,1-2.45,1.8C177.83,55.84,177,56.19,176.29,56.59Z"/><path d="M195.55,74.28a1.54,1.54,0,0,0-.77-.26,1.89,1.89,0,0,0-.75,0c-.59.13-1.3,0-1.5.87a.71.71,0,0,1-.7.49,3.6,3.6,0,0,1-1-.07.85.85,0,0,0-.89.27,1.45,1.45,0,0,0,.85.88,1.11,1.11,0,0,1,.63.7.86.86,0,0,0,.61.6,1.85,1.85,0,0,1,1,.77c.24.41.51.42.92.14s.93-.77,1.45-1.06a1.79,1.79,0,0,0,.91-1.23.89.89,0,0,1,.82-.72c.2,0,.39-.1.59-.15l0-.22a5.05,5.05,0,0,0-.71-.33A3.67,3.67,0,0,1,195.55,74.28Z"/><path d="M133.76,30.88a.7.7,0,0,0,.75.91,1.37,1.37,0,0,0,1.37-1.05c.2-.81.39-1.61.58-2.42a1.42,1.42,0,0,0,0-.87,2.46,2.46,0,0,1,.17-1c-.11-.47-.2-1-.37-1.55a1,1,0,0,0-.92-.65.89.89,0,0,0-.87.57,3.28,3.28,0,0,0-.25.58,21,21,0,0,0-.53,2.35,3.55,3.55,0,0,0-.06,1.62A3,3,0,0,1,133.76,30.88Z"/><path d="M172.09,137.94a2.4,2.4,0,0,0-1.49-1.43c-.87-.31-1.74-.65-2.6-1a.58.58,0,0,0-.72.29,1.61,1.61,0,0,0,.94,1.49,6.44,6.44,0,0,0,1.92.57,1.41,1.41,0,0,1,1.39,1.69,9,9,0,0,0,0,1.64,2.44,2.44,0,0,0,.25.63c.15,0,.2,0,.23-.07a1,1,0,0,0,.2-.2,3.35,3.35,0,0,0,.09-3.3C172.26,138.16,172.15,138.06,172.09,137.94Z"/><path d="M157.93,97.84a3,3,0,0,1,.28-.51,4.75,4.75,0,0,1,.38-.4.46.46,0,0,0,.09-.63.9.9,0,0,0-1-.33,1.8,1.8,0,0,1-.74.16c-.75-.09-1.5-.24-2.28-.38a1.7,1.7,0,0,0-1.62-1c-.36,0-.53.26-.36.56a9.42,9.42,0,0,0,.81,1c0,.73.1.89.91,1.13a5.05,5.05,0,0,1,.86.27.85.85,0,0,0,.92,0,1.42,1.42,0,0,1,1.33,0C157.63,97.73,157.77,97.79,157.93,97.84Z"/><path d="M143.87,39.11c.16-.06.3-.15.45-.19a.92.92,0,0,0,.7-1,1.08,1.08,0,0,1,.18-.65.68.68,0,0,0,.08-.93,1.91,1.91,0,0,1-.27-1.14,1.44,1.44,0,0,0-.43-1.14c-.3.45-.58.81-.8,1.21a11.9,11.9,0,0,0-.82,3.11C142.82,39,143.34,39.3,143.87,39.11Z"/><path d="M180.46,123.84c-.33-.21-.68-.56-1.22-.44a2.29,2.29,0,0,0,.13.27,11.75,11.75,0,0,1,1.27,2.13,1.29,1.29,0,0,0,.45.51.82.82,0,0,0,1.13-.11.9.9,0,0,0-.16-1A11.36,11.36,0,0,0,180.46,123.84Z"/><path d="M115.67,57.36a.7.7,0,0,0-1.07.63,1.35,1.35,0,0,0,.19.63c.32.62,1.13.85,1.25,1.62,0,.08.17.13.3.23.32-.31.16-.55.08-.81a1.22,1.22,0,0,1-.08-.65A1.44,1.44,0,0,0,115.67,57.36Z"/><path d="M161.12,98.23c.87.23,1.52-.12,1.59-.67s-.38-.92-1.33-1.13C161,97,160.63,97.55,161.12,98.23Z"/><path d="M157.21,98.16a.41.41,0,0,0-.36,0,3.16,3.16,0,0,0-.45.51l-.49-.29c-.34-.19-.57-.13-.82.21s0,.49.18.63a2,2,0,0,0,.68.34,10.48,10.48,0,0,0,1.16.15s.09-.1.09-.16c0-.37-.22-.75.12-1.09C157.36,98.42,157.28,98.2,157.21,98.16Z"/><path d="M78.1,113.64a.56.56,0,0,0-.65-.08c-.26.15-.5.32-.75.48s-.37.32,0,.77a10.37,10.37,0,0,0,1.38-.32C78.54,114.3,78.54,114,78.1,113.64Z"/><path d="M175,59c-.15.17-.31.37-.09.61a.47.47,0,0,0,.68.05,3.91,3.91,0,0,0,.36-.47C175.62,58.65,175.32,58.59,175,59Z"/><path d="M115.51,55.5c-.69.65-.69.85,0,1.28C116,56.17,116,56,115.51,55.5Z"/><path d="M152.45,153.77c-.25,0-.41.08-.4.35a.46.46,0,0,0,.44.51c.23,0,.42-.09.38-.36S152.78,153.78,152.45,153.77Z"/><path d="M67.79,68.21a.42.42,0,0,0,.22-.29c.06-.3-.08-.49-.44-.54l-.42.48A.5.5,0,0,0,67.79,68.21Z"/><path d="M81.73,109a2.89,2.89,0,0,0-.69-.42c-.22,0-.37.15-.36.39a.51.51,0,0,0,.55.4C81.38,109.3,81.5,109.15,81.73,109Z"/><path d="M183,68.94a3.45,3.45,0,0,0-.18-.51l-.17-.05a2.82,2.82,0,0,0-.31.56c-.06.21,0,.44.31.43A.35.35,0,0,0,183,68.94Z"/><path d="M178.46,83c.17.22.39.19.66-.08l-.56-.75A.51.51,0,0,0,178.46,83Z"/><path d="M153,81.11c0-.15-.17-.28-.33-.5a2.14,2.14,0,0,0-.31.45c-.05.19.2.44.38.37S153,81.21,153,81.11Z"/><path d="M159.07,96.62l.48.57c.26-.3.23-.51,0-.71S159.24,96.38,159.07,96.62Z"/><path d="M187.1,67.91c.25-.24.17-.48-.17-.71l-.43.4C186.69,68,186.86,68.14,187.1,67.91Z"/><path d="M177.83,70.56c-.07,0-.23.09-.25.16-.09.33.12.44.44.49C178.19,70.86,178.15,70.65,177.83,70.56Z"/><path d="M103.26,35.44l-.63-.62C102.6,35.6,102.72,35.7,103.26,35.44Z"/><path d="M150,90.09a.62.62,0,0,0,.73.35C150.39,89.81,150.39,89.81,150,90.09Z"/><path d="M151,152c-.07,0-.28.08-.32.18-.12.28.07.4.38.49C151.19,152.33,151.3,152.09,151,152Z"/><path d="M84,107.21c-.33.26-.18.46,0,.73C84.36,107.62,84.24,107.43,84,107.21Z"/><path d="M113.66,149.16a1.4,1.4,0,0,0,0,.46c0,.09.21.13.32.18,0-.11.1-.24.06-.34a1.23,1.23,0,0,0-.26-.35Z"/><path d="M103.93,63.52c0-.32-.15-.45-.47-.46C103.51,63.35,103.55,63.58,103.93,63.52Z"/><path d="M163.19,90.62l-.47-.37C162.68,90.63,162.78,90.75,163.19,90.62Z"/><path d="M91.46,87.88c-.15,0-.4.25-.6.38s-.21.1-.31.15c-.57.29-.75.24-1.15-.24a2.7,2.7,0,0,0-.41-.34c-.48,0-.81.71-.52.91.46.3.39.72.47,1.13a3.1,3.1,0,0,0,.15.6.7.7,0,0,0,.9.42,1.28,1.28,0,0,0,.81-.6A1.53,1.53,0,0,1,92,89.5a1.86,1.86,0,0,0,.41-.08.53.53,0,0,0,.16-.94A3,3,0,0,0,91.46,87.88Z"/><path d="M85.41,92.31a.46.46,0,0,0-.16-.41.68.68,0,0,0-.47-.09,3.39,3.39,0,0,0-2.33,1.59.49.49,0,0,0,.08.69c.2.2.4.31.67.13a1.5,1.5,0,0,0,.4-.28,2.64,2.64,0,0,1,1.33-1A.6.6,0,0,0,85.41,92.31Z"/><path d="M88.5,90.68c-.53-.83-1.35-.75-2.21.1a.88.88,0,0,0,1,.72A1.4,1.4,0,0,0,88.5,90.68Z"/><path d="M87.24,92.49c-.17.15-.15.3,0,.46.4.39.83.34,1.4-.2A.89.89,0,0,0,87.24,92.49Z"/><path d="M79.33,94.82l-.44.21a.52.52,0,0,0,.36.73c.5.16.75-.18,1-.63l-.51-.56Z"/><path d="M70.73,76.82a.75.75,0,0,0,.15.2l.16-.13-.2-.19S70.72,76.8,70.73,76.82Z"/><path d="M103.33,75.24a.37.37,0,0,0-.24.2.31.31,0,0,0,0,.31,9.05,9.05,0,0,0,1.1.72c.2.11.35,0,.38-.24a.66.66,0,0,0,0-.15A1.88,1.88,0,0,0,103.33,75.24Z"/><path d="M105.42,76.68c.2.64.2.64.59.32C105.81,76.89,105.77,76.55,105.42,76.68Z"/><path d="M250.78,1.12H1.22V178.88H250.78Zm-.13,177.63H1.35V1.24h249.3Z"/></g></svg>