<svg xmlns="http://www.w3.org/2000/svg" viewBox="0 0 252 180"><defs><style>.cls-1{fill:none;}</style></defs><g id="Layer_3" data-name="Layer 3"><path class="cls-1" d="M196.12,91.47a2.7,2.7,0,0,1-1.38-1.15l-.74-.21.74.21A2.7,2.7,0,0,0,196.12,91.47Z"/><path class="cls-1" d="M89.06,63.13a1.82,1.82,0,0,0-.48-.59A1.82,1.82,0,0,1,89.06,63.13Z"/><path class="cls-1" d="M88.3,62.37a1.42,1.42,0,0,0-1,0c-.78-.38-1.57-.77-2.36-1.14.79.37,1.58.76,2.36,1.14A1.42,1.42,0,0,1,88.3,62.37Z"/><path d="M2.47.2l-.08,0V177.54l.08.05Z"/><path d="M203.18,79.07v-.54C202.86,78.77,202.86,78.77,203.18,79.07Z"/><path d="M193.51,106.94c.05.29.09.5.12.64l-.8,1.9.42.36.92-1.31-.2-.74c.27-.58,1-.66,1-1.24-.17-.26-.3-.45-.47-.69Z"/><path d="M193.76,100.21l-.72-.8c-.25.32-.37.48-.49.65.1.25.18.48.26.68C193.36,101,193.49,100.6,193.76,100.21Z"/><path d="M193.49,102.79l.16-.08c0-.38.16-.77-.24-1.13l-.33.5Z"/><path d="M194.11,104.78l.14-.07c0-.32,0-.66-.36-.78l-.18.11Z"/><path d="M58.7,92.86c1.26-.46,2.54-.88,3.82-1.3.26-.09.55-.09.79-.2.59-.27,1.15-.58,1.5-.75a11.11,11.11,0,0,1,2.24-.55c.68,0,1.38-.48,2-.08l.71-.12.68-.1a5.52,5.52,0,0,1,1.14-.12,2.17,2.17,0,0,1,1.84.81c.15-.1.28-.14.33-.23.27-.54.82-.78,1.22-1.18s1-1.06.69-1.83a11.73,11.73,0,0,1,.57-1.07.61.61,0,0,0-.11-.9c-.88.23-.91.28-1.22,1.58a3.43,3.43,0,0,0-1.63,2c-.75-.06-1.39-.14-2-.18a16.9,16.9,0,0,0-3.17-.11,22.28,22.28,0,0,0-3.53,1c-1,.32-2,.72-3,1-.42.14-.88.14-1.28.31-1.45.57-2.88,1.18-4.31,1.79a.9.9,0,0,0-.64,1l.28.06A8.78,8.78,0,0,0,58.7,92.86Z"/><path d="M61.66,83.1c-.95.3-1.9.59-2.84.92-.47.16-.91.42-1.37.61a6.07,6.07,0,0,1-1.6.59,3.83,3.83,0,0,0-2,1,1,1,0,0,1-.18.1L53,86.09c-.28.13-.54.28-.82.39a4.11,4.11,0,0,1-2,.49,1.46,1.46,0,0,0-1.43.9,1.63,1.63,0,0,0,.94,1.32,13.12,13.12,0,0,1,1.2-.75c.94-.5,1.7-1.32,2.79-1.52.33-.06.69,0,1-.09a15.66,15.66,0,0,0,1.89-.66c1.14-.49,2.27-1,3.41-1.55l.71.08c.54-.58,1.58-.55,2-1.58l-1-.17Z"/><path d="M72.5,79.64c-.52.18-1,.33-1.59.46a11,11,0,0,1-1.16.18,10.78,10.78,0,0,0-1.27.22c-1.35.43-2.69.88-4,1.36a3.57,3.57,0,0,0-.83.63c.72.62,1.44.15,2.1.32s1.39-.49,1.92-.84c.75-.12,1.33-.17,1.88-.31a6.2,6.2,0,0,0,2.87-1c.3-.26.89-.21,1.34-.31a.7.7,0,0,0,.19-.1l0-.52C73.42,79.24,73,79.47,72.5,79.64Z"/><path d="M56.94,79.08,59.51,78l.37.19L61.13,78l-1.05-.64-.59.37-1.31-.08a13.33,13.33,0,0,1-2.1.84,2.09,2.09,0,0,0-1.55,1.12C55.22,80.2,56,80,56.94,79.08Z"/><path d="M52.28,97.55a3.25,3.25,0,0,1,.91-.9c.56-.38,1.13-.87.83-1.68.1-.25.18-.47.29-.73L54,93.72a2,2,0,0,0-.59,1.7c-.25.2-.51.3-.59.49-.16.39-.48.51-.82.68-.63.31-1.36.51-1.72,1.26a1.19,1.19,0,0,0,.31.26A1.49,1.49,0,0,0,52.28,97.55Z"/><path d="M54.64,80.73,54,79.88c-.79.66-1.61,1.11-1.72,2.2A2.08,2.08,0,0,0,54.64,80.73Z"/><path d="M63.87,78.24c.13.08.31.54.68,0L64.3,78l-2.38-.69-.59.48c.17.15.28.32.41.33C62.41,78.17,63.09,78.2,63.87,78.24Z"/><path d="M70.77,78.5c-.76-.81-1.54-.88-2.08-.2A1.45,1.45,0,0,0,70.77,78.5Z"/><path d="M46.84,86.16l-.49.19L45.53,86l-.12.22,1.07.75,0-.09,1.6.31.1-.17-.63-.27Z"/><path d="M73.18,73.25l-1-.56-1,.23.83.91Z"/><path d="M50.25,83.64c-.36-.45-.49-.44-.87.07C49.76,84.12,49.79,84.12,50.25,83.64Z"/><path d="M71.69,78.29s0,.12,0,.22h.64C72.11,78.11,71.93,78.06,71.69,78.29Z"/><path d="M80.76,68.84l-.07-.21-.35.18.07.15Z"/><path d="M55.38,64.19h.15v-.3h-.19Z"/><path d="M49.67,98.16l-.08,0-.05.17.09,0Z"/><path d="M54.43,64.06l.07.14a1.09,1.09,0,0,0,.17-.13l0-.07Z"/><path d="M58.81,61.72l0,.09.19,0,0-.1Z"/><path d="M84.56,119.88l1.36-.67c.08-.31.12-.48.17-.65.91.11,1.09.22,3-1.17,0-.24.08-.49.12-.76l.78-.14.64-.5c.47-.34.94-.68,1.4-1a1.7,1.7,0,0,0,.53-1.64c-.18-1.53-.85-3-1-4.53a1.61,1.61,0,0,0-.81-1.54l-.83.25a12.29,12.29,0,0,0,.4,3.71.11.11,0,0,0,0,.06,2,2,0,0,1,.41,1.87,1.8,1.8,0,0,1-.69,1.37c-.46.35-.93.68-1.4,1l.16.14-2.9,2.6-2.43,1C83.74,119.83,84.17,119.78,84.56,119.88Z"/><path d="M94.66,140.26l-.8-.16c-1.07,1.18-2.14,2.35-3.13,3.42a3.81,3.81,0,0,1-2.26-.3,9.93,9.93,0,0,0-1.84-.61c-.58-.15-1.2-.17-1.77-.35a9.26,9.26,0,0,0-3.77-.34A4.58,4.58,0,0,1,80,142a2.36,2.36,0,0,0-2.23,1l.28.7.7,0a4.39,4.39,0,0,1,.94-.6c1-.3,2,.19,3.06,0,0,0,0,0,.07,0a5,5,0,0,0,.67,0c.25,0,.5-.06.75-.09l0,.13c.5.18,1,.37,1.49.52.24.08.51.06.75.14a6.31,6.31,0,0,0,2.46.7,11.59,11.59,0,0,1,2.71.44c1.76-1,2.26-2.85,3.35-4.29Z"/><path class="cls-1" d="M105.81,51.16c.19-.55,0-1.13-.65-2L105,47.79c0,.45.09.9.13,1.35C105.8,50,106,50.61,105.81,51.16Z"/><path d="M1.42,178.71H250.59V1.31s0-.07,0-.11H1.36l-.08,0V178.62A.55.55,0,0,0,1.42,178.71Zm70.12-47.79c-.46.29-.92.6-1.36.92a7.52,7.52,0,0,1-.64.51,8.84,8.84,0,0,0-3.41,2.59c-1,1.34-2,2.63-3.06,3.92a2.66,2.66,0,0,1-.76.57c-.49.26-1,.5-1.49.72-.24.09-.5.12-.79.2a1,1,0,0,1,.46-1,11.65,11.65,0,0,0,2.44-2.26.73.73,0,0,0,.24-.34c.17-.85.85-1.3,1.39-1.89A21,21,0,0,0,67,132.21a10.31,10.31,0,0,1,1.67-1.83c.51-.47,1.11-.83,1.66-1.25s1.1-.89,1.67-1.3c1.66-1.18,3.34-2.32,5-3.52a2.77,2.77,0,0,1,1.44-.69c.31,0,.6-.33.9-.48a2.74,2.74,0,0,1,.7-.27,2.34,2.34,0,0,0,1.33-.68,11.29,11.29,0,0,1,.94-.77,1.21,1.21,0,0,0-1.74-.28,4.25,4.25,0,0,1-1,.5,5,5,0,0,0-1.84,1.29,2.74,2.74,0,0,0-.32.36,2.71,2.71,0,0,0-2.54,1.32c-.37.13-.8.25-1.2.42a4.73,4.73,0,0,0-.8.43q-.78.51-1.53,1.05a23.75,23.75,0,0,0-2.09,1.62,7.17,7.17,0,0,1-1.46,1.16,6.36,6.36,0,0,0-2.23,2.51,1.58,1.58,0,0,1-.43.52,11.91,11.91,0,0,0-2.55,2.61c-.63.73-1.36,1.37-2,2.07-.5.52-1,1.06-1.44,1.59s-.85.95-1.36,1.53a12.17,12.17,0,0,0-4.59-2.94V136a14.56,14.56,0,0,0,2.8-4.79c.69-1.79,1.54-3.52,2.08-5.36.3-1,.77-2,1.14-3a14.24,14.24,0,0,0,.47-1.44,3.68,3.68,0,0,0,.19-1.21,4.33,4.33,0,0,1,.15-1.68,6.9,6.9,0,0,0,.15-1.44c.06-1.35.13-2.7.13-4s-.09-2.83-.12-4.25a2,2,0,0,1,1.35-2c.64-.25,1.26-.56,1.9-.82a3.31,3.31,0,0,1,.87-.24,1.66,1.66,0,0,0,1.26-.72,2.72,2.72,0,0,0,2.43-1l.84-.2.62-.82c-.63-.39-1.39.08-2.1-.39-1-2.63-.89-5.5-.79-8.36.21-.82.29-.87,1.12-.85h1.53A1.85,1.85,0,0,1,69.11,95,2.88,2.88,0,0,0,69,96.52a7,7,0,0,1,0,1.37,10.06,10.06,0,0,0,.67,2.75,1.56,1.56,0,0,1-.12,1.67c.12.21.22.41.36.66a8.48,8.48,0,0,0,2.84-.89,36.83,36.83,0,0,1,4.73-2.5,7.13,7.13,0,0,0,2.28-1.12,2.56,2.56,0,0,1,.88-.42,10.73,10.73,0,0,0,3.71-2.14c1.12-1.12,2.58-1.67,3.83-2.57.44-.32,1-.45,1.47-.77a13.31,13.31,0,0,0,2-1.61c.74-.77,1.32-.73,2.48-.31a5.74,5.74,0,0,1,1.13.76,10.67,10.67,0,0,0,3,1.08c.25.08.49.2.88.36a26.66,26.66,0,0,0-2.55,4.68l-4.32,2.12a2.22,2.22,0,0,1-.38.18c-1.78.44-2.37,1.9-2.92,3.41-.23.63-.54,1.23-.79,1.81l.61,2.52,1-.18c.06-.27.14-.62.21-1,.19-.92.35-1.85.57-2.77A3.18,3.18,0,0,1,93.05,101a10.24,10.24,0,0,0,1.56-.7,2.36,2.36,0,0,1,.6,0l.07.21c-.35.25-.67.53-1,.76a6.09,6.09,0,0,0-2.77,2.92,2.39,2.39,0,0,0-.13,1.89,17.58,17.58,0,0,1,1.25,4.9c.12.79.18,1.58.29,2.38s.22,1.32.34,2a1.47,1.47,0,0,1-.35,1.4c-.2.22-.34.51-.55.72A21.08,21.08,0,0,1,90.57,119c-1.14.91-2.3,1.78-3.5,2.6-.4.28-.71.52-.66,1.1a7.55,7.55,0,0,1-.88.52c-.68.31-1.41.55-2.08.88s-1.5.83-2.25,1.24c-1,.52-2,1-3,1.55-1.28.69-2.56,1.37-3.81,2.11-.66.4-1.24.93-1.88,1.37C72.24,130.61,71.87,130.73,71.54,130.92Zm2.82-70.36a4.32,4.32,0,0,1-1.94-.82c-.27-.13-.52-.29-.78-.43h-.12c-.25-.61-.49-1.22-.74-1.82l.14-.15c.18,0,.41.06.53.18a3.34,3.34,0,0,0,1.73,1c.3.06.53.44.83.56a11.65,11.65,0,0,0,1.62.5c.17,0,.4-.08.54,0,.58.28,1.13.6,1.7.9l1.92,1H81.3a2.62,2.62,0,0,0,2,.76.79.79,0,0,1,.4.07l2.37,1.14a1.39,1.39,0,0,1,1,0,1.18,1.18,0,0,1,.29.16,1.72,1.72,0,0,1,.47.6,3.73,3.73,0,0,1,.34,1,3,3,0,0,1-.74,0c-1.26-.37-2.51-.78-3.78-1.16a1.77,1.77,0,0,0-.69,0,3.78,3.78,0,0,1-2.53-.81,9.36,9.36,0,0,0-1.07-.47C78.2,62.07,77,61.5,75.81,61A3.83,3.83,0,0,0,74.36,60.56Zm.28,1.67c-.35.6-.48.59-1.06-.06l.5-.35Zm6.22,68.51c-.49.43-1,.92-1.56,1.37a.72.72,0,0,1-1-.1,4.94,4.94,0,0,1-1.41-2.18,3.51,3.51,0,0,1,2.58-1.44A4.34,4.34,0,0,1,80.86,130.74Zm11.44,15a1.22,1.22,0,0,1-.67,1.35l-2.42-.57c-.8-.19-1.6-.44-2.41-.55s-1.91-.15-2.87-.24c-1.31-.13-2.62-.29-3.93-.41-.85-.08-1.71-.11-2.56-.19-.38,0-.75-.14-1.06-.2-.34-1.51-1.44-1.46-2.44-1.54a6.5,6.5,0,0,1,.12-2.61,5.05,5.05,0,0,1,.87-2,19.54,19.54,0,0,1,1.83-2.33c0-.05.1-.11.15-.15,1.25-1,2.22-2.25,3.65-3,.74-.4,1.34-1.05,2-1.53,1.44-1,2.91-1.87,4.36-2.81.74-.47,1.46-1,2.19-1.46s1.69-1.1,2.53-1.65c.15-.1.34-.2.41-.35a2.93,2.93,0,0,1,1.62-1.35,5.72,5.72,0,0,0,1.81-1.49,9,9,0,0,0,1.78-3.33,4.37,4.37,0,0,0,.54-2.12A10,10,0,0,1,98,115a13.59,13.59,0,0,0-.28-3.81,17.87,17.87,0,0,1-.23-1.79,13,13,0,0,1-.14-1.52,3.2,3.2,0,0,1,1.52-2.79,9.77,9.77,0,0,0,1.07-1c.68-.62,1.42-1.19,2-1.87.84-.92,1.59-1.93,2.37-2.9l1-1.26a2.75,2.75,0,0,1,2.23.28l.19.48a4.88,4.88,0,0,1-1.62,3.25,2.08,2.08,0,0,0-.62,1.44c-.07.68-.26,1.35-.38,2-.07.41-.07.84-.18,1.24a2.78,2.78,0,0,1-.49,1,4.16,4.16,0,0,0-.92,3.7,12.3,12.3,0,0,0,.3,2.24c.07.17.1.36.17.52a8.44,8.44,0,0,1,.7,2.75,8.22,8.22,0,0,0,.47,1.88c.36,1.05.72,2.11,1.16,3.13a12,12,0,0,0,1.05,1.79c.08.13.31.17.46.25l.11-.13-.43-.7c.42-1.06-.27-2-.47-3.07-.23-1.2-.56-2.37-.82-3.56s-.41-2.18-.67-3.26A10.28,10.28,0,0,0,105,112l-.7-.33a2,2,0,0,0,1-2.24,14.93,14.93,0,0,0,1.37-2.08,5,5,0,0,0,.33-2.09,3.16,3.16,0,0,1,1.44-2.31c0,.38,0,.68,0,1,0,.46-.07.92-.11,1.37s-.1.83-.12,1.25,0,1-.06,1.51c-.1.75-.31,1.48-.41,2.23a9.53,9.53,0,0,0-.18,2.48,42.6,42.6,0,0,0,.94,4.76,33.18,33.18,0,0,0,1.89,5.65c.22.46.35,1,.53,1.45a3.43,3.43,0,0,1-1.73,3.1,1.57,1.57,0,0,0-.33.35,7.51,7.51,0,0,1-2.75,2.18,4.41,4.41,0,0,0-.64.42c-1.51,1.15-3,2.27-4.52,3.46a21.08,21.08,0,0,0-2.16,2.07c-.6.66-1.08,1.43-1.65,2.11s-1.27,1.33-1.84,2a9,9,0,0,0-1,1.61c-.3.6-.5,1.25-.81,1.84a2.38,2.38,0,0,1-.72.69A1.36,1.36,0,0,0,92.3,145.76Zm21.46-14.17c.65,0,.65,0,1.11.66-.14.65-.3,1.34-.48,2.19l.21.44.39-.31c.6.47.63,1.57,0,2.75l-1-1c-.22.43-.46.83-.63,1.26a2.5,2.5,0,0,1-.94,1.05,10.41,10.41,0,0,0-2.28,1.68,4.8,4.8,0,0,1-.84.62c-.48.4-1,.81-1.42,1.22s-1.2,1.08-1.77,1.65a3.52,3.52,0,0,0-.49.74c-.12.2-.19.43-.32.61-.57.78-1.07.76-1.8.13s-1.76-1.43-2.67-2.1a1.21,1.21,0,0,1-.52-1.24,5.16,5.16,0,0,1,2-3.36.86.86,0,0,0,.19-.19,11.57,11.57,0,0,1,3.25-2.66,8.84,8.84,0,0,0,.77-.6,12.64,12.64,0,0,1,2.71-1.52,9.64,9.64,0,0,0,1.74-1.14A4.63,4.63,0,0,1,113.76,131.59Zm-1.27-46.31.58-.64.75.6C113.35,85.73,113.1,85.74,112.49,85.28Zm2,53.76a1.22,1.22,0,0,1-.71,1.26,4.19,4.19,0,0,0-1.76,1.32,8.91,8.91,0,0,1-1.24.89,5.4,5.4,0,0,0-.93.92c-.89,1.15-1.76,2.33-2.62,3.5-.21.28-.36.59-.52.85h-.89c-.56-.54-.58-1,0-1.52s1.15-.93,1.68-1.43,1.24-1.25,1.85-1.89a11.25,11.25,0,0,1,3-2.57,15.86,15.86,0,0,0,1.78-1.2A2.22,2.22,0,0,1,114.48,139Zm49.39,15.7c-.88.4-1.71.9-2.55,1.36,0,0-.06.08-.1.1-1.2.54-2.4,1.09-3.61,1.62a11.07,11.07,0,0,1-1.6.67c-2,.55-4,1-6,1.58-1.35.37-2.67.81-4,1.14a25.26,25.26,0,0,1-2.61.39l-3.78.53a2.4,2.4,0,0,1-.28,0l-3.34.1a3.41,3.41,0,0,0-.54.1c-.14,0-.3.11-.4.06-.86-.44-1.77-.07-2.64-.18s-1.82-.24-2.72-.36l-1.75-.24c-1.6-.24-3.21-.44-4.79-.74s-2.94-.68-4.4-1c-1-.24-2.05-.43-3.05-.71-1.53-.44-3-.92-4.56-1.43-1.18-.4-2.34-.87-3.51-1.33a9.41,9.41,0,0,1-.9-.53,7.12,7.12,0,0,1-2.77-1c-1.47-.88-3-1.7-4.43-2.58-.91-.54-1.78-1.15-2.67-1.74s-1.86-1.21-2.76-1.85a7.91,7.91,0,0,1-.92-.91,5.6,5.6,0,0,1,1.36-2.66l1.11.81c2.15,1.6,4.4,3,6.64,4.5,1,.7,2.24,1.19,3.36,1.79.26.14.5.33.76.49a5.47,5.47,0,0,0,.84.5l5.48,2c.37.13.72.31,1.1.43.81.26,1.64.49,2.46.74a1.08,1.08,0,0,1,.27.05,13.3,13.3,0,0,0,3.33,1.21c1.11.28,2.2.59,3.31.84,1.31.29,2.63.56,4,.79a14.07,14.07,0,0,0,2.15.18c2,.05,4,0,6,.08.79,0,1.57.25,2.35.21a25.39,25.39,0,0,0,2.73-.43c1.15-.18,2.3-.32,3.44-.53a26.38,26.38,0,0,0,5.1-1,11.7,11.7,0,0,1,2.61-.63,19.28,19.28,0,0,0,3.19-1c1.12-.35,2.14-.89,3.21-1.34s2.26-1,3.34-1.54a3.65,3.65,0,0,0,.79-.56,1.44,1.44,0,0,1,1.15-.4c.62.06,1.25.06,1.87.14a4.83,4.83,0,0,1,.94.35A5.13,5.13,0,0,1,163.87,154.74Zm25.86-3.1c-.55.13-1.13.17-1.69.3-1.58.36-3.26.3-4.77,1.05a2.69,2.69,0,0,1-1.44.17c-1.21-.15-2.42-.39-3.63-.59-.85-.13-1.71-.23-2.56-.36-1.46-.23-2.92-.51-4.4-.67-1.23-.14-2.48-.14-3.73-.2-.39,0-.79,0-1.18,0a8.94,8.94,0,0,0-2.68-.14c-.19,0-.41-.08-.62-.1l-2.95-.29a3.79,3.79,0,0,1-.83-.14,8,8,0,0,0-2.88-.4c-.85,0-1.7-.15-2.56-.22a11.27,11.27,0,0,0-1.16-.06,17.86,17.86,0,0,1-3.33-.58c-1.47-.27-3-.49-4.45-.71-.82-.12-1.65-.23-2.47-.31-1.18-.1-2.36-.16-3.53-.25-.79-.06-1.57-.16-2.54-.25-.39-.06-1-.14-1.56-.24l-2-.35-.75-.1-3.19-.28c-.63,0-1.26-.08-1.88-.16s-1.45-.27-2.18-.37-1.39-.12-2.08-.2-1.61-.21-2.42-.31a2.38,2.38,0,0,1-1.47-1,3.28,3.28,0,0,1,.51-2.29,11.49,11.49,0,0,1,1.81-2.42c.79-.73,1.41-1.65,2.14-2.45s1.29-1.27,1.87-1.95a21.57,21.57,0,0,0,1.82-2.34,13.54,13.54,0,0,0,1.43-2.61,8,8,0,0,0,.58-3.31c-.08-1.63-.14-3.27-.07-4.9a19.86,19.86,0,0,1,.55-3.41,13,13,0,0,1,.83-2.2,2.16,2.16,0,0,1,.61-.74c1.66-1.34,3.33-2.66,5-4l.06,0a5.52,5.52,0,0,1,2.7-1.73,5.7,5.7,0,0,0,1.18-.7,2.13,2.13,0,0,1,2.56,1.2,5,5,0,0,0,1.89,1.69,2.86,2.86,0,0,1,.42.24,7.54,7.54,0,0,0,3.1,1.47,26.15,26.15,0,0,1,3,1.18,11,11,0,0,0,2.87.79,4,4,0,0,1,1.18.39A10.3,10.3,0,0,0,159.3,118a1.4,1.4,0,0,1,.4.11c1.71.44,3.41.91,5.12,1.33.93.23,1.87.37,2.8.58s1.27.55,1.43,1.58c.11.75.32,1.49.5,2.31a1.55,1.55,0,0,0,.11,1.87c0,.5-.07.93-.1,1.34l.58.54h1.42a7,7,0,0,1,1,1.74,10.76,10.76,0,0,0,1.94,3.66,3.07,3.07,0,0,1,.4.65c.32.56.59,1.15,1,1.69a24.32,24.32,0,0,0,1.62,2.16,11.09,11.09,0,0,0,1.3,1.16,6.14,6.14,0,0,1,1.24,1.39,6.09,6.09,0,0,0,1.42,1.4c.52.42,1.16.7,1.65,1.15a6.54,6.54,0,0,0,2.62,1.67,1.33,1.33,0,0,1,.89,1l-.56.43v-.13c-.8-.13-1.6-.22-2.38-.41a2.06,2.06,0,0,1-1-.58,6.22,6.22,0,0,0-2.29-1.54,2.61,2.61,0,0,1-.72-.51c-.57-.57-1.12-1.17-1.66-1.78-.38-.43-.72-.89-1.09-1.33-.17-.19-.39-.34-.55-.53s-.3-.34-.29-.5a3.34,3.34,0,0,0-1.11-2.51,12.07,12.07,0,0,0-1.15-1c-.07-.31-.15-.69-.26-1.19l-1.43-1.81a4.24,4.24,0,0,0-.89-3.22.94.94,0,0,0-1,.72l.33,1.15.09,0c.5,1.22,1,2.42,1.48,3.66a3.12,3.12,0,0,0,.63,1.21c.52.55,1,1.11,1.52,1.68a3.46,3.46,0,0,1,.29.45c.4.62.8,1.23,1.34,2a2.69,2.69,0,0,0,1,2,8.62,8.62,0,0,1,1.3,1.63,2.06,2.06,0,0,0,2.18,1.16l1.94,2.05a2.05,2.05,0,0,1,1.63.17,10.45,10.45,0,0,0,2,.33,5,5,0,0,1,.92.25c.35.12.67.33,1,.43a5.52,5.52,0,0,1,2.51,1.43c0,.49.14,1,.16,1.54A1,1,0,0,1,189.73,151.64ZM135.6,47.9c-.57.06-1.15.1-1.73.15-1,.09-2,.14-3.05.27s-1.91.35-2.87.5c-.34.06-.69,0-1,0-1.22.13-2.44.3-3.67.39-.8.06-1.61,0-2.41,0-.13,0-.25-.1-.52-.21l.72-.62,0,.11,2.61-.56a3.49,3.49,0,0,0,2.17,0c.93-.28,1.92-.36,2.85-.64a6.35,6.35,0,0,1,2-.28,19,19,0,0,0,2.26-.23c.53-.05,1.06-.07,1.59-.16,1.16-.19,2.31-.42,3.47-.64.43-.09.85-.22,1.28-.32a1.49,1.49,0,0,1,1-.5,7.77,7.77,0,0,0,2.51-.45,4,4,0,0,1,1.22-.25c.61-.1,1.23-.18,1.84-.29,1-.17,1.91-.33,2.86-.54.55-.11,1.07-.3,1.61-.45.2-.05.41-.06.72-.11a2.52,2.52,0,0,1-.16.52,4.67,4.67,0,0,1-3,2.3c-1.27.22-2.52.6-3.78.87-1,.22-2,.43-3,.55C139.29,47.56,137.45,47.72,135.6,47.9Zm-.08,41h-1.06a2.43,2.43,0,0,1-1.37-2.56,6.19,6.19,0,0,1,3.21-2.44A11.14,11.14,0,0,1,135.52,88.94ZM126,81.76a7.07,7.07,0,0,1-2.25-1.39,9.19,9.19,0,0,0-2.11-1.57,1.44,1.44,0,0,1-.91-1.82c.74-.78,1.48-1.56,2.2-2.34s1.37-.77,1.91.16a15.27,15.27,0,0,1,1.38,4.49c.13.59.17,1.19.28,2Zm0,18-.72.33a1.5,1.5,0,0,1-.28-2c.2,0,.36,0,.52,0a1.38,1.38,0,0,1,.32.07C126.16,98.66,126.19,98.9,126,99.8Zm-3.71-19c-.77,0-.87,0-1-.74Zm-1-7.55c0,.36,0,.53.05.77-.94.58-1.13,2-2.43,2.35l-.09-.66C119.64,74.82,120,73.64,121.35,73.2Zm22.12,18a3.72,3.72,0,0,1,2-3.44,5.75,5.75,0,0,1,.53.48c.54.6,1.05,1.22,1.59,1.82s.46.47.31,1.19a8.63,8.63,0,0,1-4.05.38l-.06,0Zm9.2,7.95.2-.63A2,2,0,0,1,154.8,98c1.4.09,2.78.4,4.1.61a1.21,1.21,0,0,1-.6,1.81,16.25,16.25,0,0,0-2.49,1.19,1.3,1.3,0,0,1-1.59-.26,8.92,8.92,0,0,1-.92-1A9.14,9.14,0,0,1,152.67,99.1Zm7.53-9.82.17-.06.86,1.63C160.44,90.81,160.05,90.13,160.2,89.28Zm4.08,2.31a7.68,7.68,0,0,1,.11.82l-.19.11c-.17-.12-.44-.2-.5-.36a20.08,20.08,0,0,0-1.38-2.39,3.35,3.35,0,0,1-.14-2.38c.25-.94.72-1.22,1.73-1,.12.51.23,1,.33,1.43a11,11,0,0,0-.36,2A8.41,8.41,0,0,0,164.28,91.59Zm28.55,36.48a15.86,15.86,0,0,1-2.07,3.27c-1,1.45-1.86,2.93-2.9,4.32a31.08,31.08,0,0,1-2.24,2.79c-.58.6-1.38,1-1.76,1.81a1.16,1.16,0,0,1-1.31.56,4.1,4.1,0,0,1-.52-.49c-.26-.33-.49-.68-.21-1.12a6.19,6.19,0,0,1,.79-1.29,13.23,13.23,0,0,0,1.54-2c.68-.93,1.45-1.79,2.12-2.73,1.06-1.48,2.12-3,3.08-4.52.79-1.27,1.41-2.64,2.16-3.93.46-.8.89-.81,1.56-.17.28.26.55.54.9.89C193.57,126.33,193.15,127.18,192.83,128.07Zm23.48-37.25.82,1A14.28,14.28,0,0,1,215.61,96c-.28.68-.49,1.39-.74,2.08a2.51,2.51,0,0,1-.16.46c-1.21,2.23-1.78,4.72-2.77,7-.51,1.21-.89,2.47-1.36,3.7-.4,1-.85,2.05-1.29,3.06-.5,1.17-1.07,2.31-1.51,3.5s-.81,2.5-1.16,3.77c-.15.5-.18,1-.28,1.56a15.28,15.28,0,0,1-.81,2.94,7.79,7.79,0,0,0-.32,1.83c-.12.84-.24,1.72-1.19,2a3,3,0,0,1-1.52,0c-1-.24-2-.52-3-.7a3.76,3.76,0,0,1-1.41-.56,35,35,0,0,1-3.38-2.33,18.79,18.79,0,0,1-2.64-3.07c-.64-.88-1.38-1.69-2.05-2.56a13.45,13.45,0,0,1-1.89-3.37,11,11,0,0,0-1.06-1.7,2.21,2.21,0,0,1,2.08-1.41,2.65,2.65,0,0,0,.95-.34c.08,0,.08-.26.15-.54l-.58.35-.62-.15-.38.48a20.65,20.65,0,0,0-2.49,0,18.65,18.65,0,0,0-3.05.67,34.45,34.45,0,0,0-5.25,1.67,9.91,9.91,0,0,1-1.13.35c-.89.3-1.81.57-2.67.94a2.91,2.91,0,0,1-2,0,1.92,1.92,0,0,1-1.05-1,30.81,30.81,0,0,1-2.42-5.52,5.51,5.51,0,0,1-.19-1.16l.55-.48c.17.33.32.59.43.86.39,1,1,1.88,1.3,2.91a8.7,8.7,0,0,0,1.33,2l.15,0a1.11,1.11,0,0,0,0-.37c-.59-1.25-1.27-2.46-1.77-3.75a3.36,3.36,0,0,1-.26-1.8,2.47,2.47,0,0,0-1.1-2.7c0-1.09,1.21-.89,1.56-1.47.81-.08,1.54-.16,2.28-.22s1.57-.07,2.35-.15c1.22-.12,2.44-.26,3.66-.41.81-.1,1.61-.2,2.41-.33a6.08,6.08,0,0,0,.87-.34c-1.46-.65-2-1.93-2.63-3.11-.32-.58-.75-1.11-1.1-1.67s-.68-1.21-1-1.81-.87-1.46-1.38-2.14A14.72,14.72,0,0,1,175,91c-.5-1-1-2-1.52-2.92A20.92,20.92,0,0,0,172.2,86a8.85,8.85,0,0,0-1.48-1.74,8.75,8.75,0,0,1-1.38-1.54,5.26,5.26,0,0,0-1-1c0-.2-.07-.4-.11-.64l.51-.36a3.24,3.24,0,0,1,1.56,1.17,5.85,5.85,0,0,0,.55.68c.44.56.87,1.13,1.3,1.71a2.86,2.86,0,0,0,.24.42c1,1.14,1.4,2.65,2.19,3.93.25.4.56.76.84,1.14l.17,0a4.44,4.44,0,0,0,1.1,2.33c.83-.32.76-1-.26-2.15a5,5,0,0,0-.21-1.13,6,6,0,0,0-2-2.74,2.22,2.22,0,0,0-.43-1.35l-.26-.4c-.4-.62-.85-1.22-1.23-1.86a1.76,1.76,0,0,1-.19-2,12.2,12.2,0,0,1,1.71,0c1.48.24,3,.52,4.43.82A11.74,11.74,0,0,1,182,82.83,11,11,0,0,1,184.7,85a2.81,2.81,0,0,0,.44.33c.43.32.86.64,1.27,1,.56.45,1.11.91,1.66,1.37a1.86,1.86,0,0,1,.27.22,3,3,0,0,0,2.15,1.08l.64,1L192.87,91l-.06.09.74.22a2.79,2.79,0,0,0,1.38,1.15c.34.14.69.25,1,.36a19.57,19.57,0,0,0,2.5.55c1.06.17,2.14.44,3.14-.26A1.46,1.46,0,0,1,202,93c.28.22.58.44.8.6.71.08,1.33.2,1.95.22a7.73,7.73,0,0,0,1.59-.16c.9-.2,1.79-.46,2.7-.67a13,13,0,0,1,1.64-.27,11,11,0,0,0,4.53-1.68A3.45,3.45,0,0,1,216.31,90.82ZM178,39.35c.84.08,1.67.16,2.5.27a1.69,1.69,0,0,1,.65.23,13.75,13.75,0,0,0,3.52,1.42,19.17,19.17,0,0,0,2,.32c.72.1.87.32.93,1,.07.94.21,1.88.32,2.82,0,.33.06.65.09,1,0,.51.13,1,.12,1.53a7.15,7.15,0,0,1-.22,1.85,2.21,2.21,0,0,0,0,1.8,2,2,0,0,1,.18,1,20.17,20.17,0,0,0,0,2.2,2.73,2.73,0,0,1-.24,1.69c.32.95.63,1.84.92,2.7l-.49.58a5.72,5.72,0,0,0,.2,1.25c.08.24.4.39.71.65.26-.56.46-1,.7-1.54l.37-.15a1.15,1.15,0,0,0,.78-1.6,14.22,14.22,0,0,0-1.11-2.16,2.43,2.43,0,0,1-.38-2.1,4.64,4.64,0,0,0,0-.84,1.72,1.72,0,0,1,.28-.71c1.05,1.12,2.24,2.1,2.52,3.69a7.74,7.74,0,0,1,1.49,2c.52,1.18,1.24,1.43,2.5,1.14a.75.75,0,0,1,.55,0H199c.51,0,1,0,1.54,0,.69,0,1.39-.11,2.08-.11a1.77,1.77,0,0,1,.85.23,9.23,9.23,0,0,1,1.68,1.11,20.69,20.69,0,0,1,1.68,1.82c.35.4.68.82,1,1.22s.61.76.94,1.12.58.52.87.78.88.75,1.29,1.15c.1.1.09.29.16.54a7.53,7.53,0,0,0-1.24.61,6.27,6.27,0,0,0-.84,1,19.22,19.22,0,0,0-1.52,1.44c-.73.83-1.43,1.7-2.08,2.6A6.33,6.33,0,0,0,204,75.51a6,6,0,0,1-.94,1.67c.08.13.21.35.34.59l.92-.38c.12-.58.24-1.14.36-1.71l.35,0c.56-.73,1.1-1.38,1.58-2.08s.88-1.47,1.33-2.22l.48-.09a.86.86,0,0,1,1-.86l.26-.59,1.74-1.16.48.27c.1.75-.42,1.14-.77,1.57a6.7,6.7,0,0,1-1.61,1.71,3.54,3.54,0,0,0-.77,1c-.16.2-.32.4-.47.61-.75,1-1.52,1.92-2.24,2.91-.55.74-1,1.51-1.54,2.28a5.55,5.55,0,0,0-.88,2c-.14.68-.55,1.31-.73,2s-.27,1.39-.41,2.08h-.11c.13.37.26.74.35,1,.08,1.14.18,2.17.23,3.2a8.3,8.3,0,0,1,0,3c-1.15.65-2.11.12-3.19-.12,0-.68.14-1.32.13-2s-.07-1.57-.13-2.36a1.22,1.22,0,0,1,.54-1.31V86a.52.52,0,0,0-.18-.12,3.43,3.43,0,0,1-1.35-.92c-.65-.65-1.42-1.18-2.14-1.77s-1.21-1-1.77-1.52a2.87,2.87,0,0,0-1.13-.75,5.56,5.56,0,0,1-1.2-.69,31.81,31.81,0,0,0-3.57-2.4,9,9,0,0,0-2.18-1.06,4.61,4.61,0,0,1-2-1.18,9.45,9.45,0,0,0-1.18-.75c-.43-.26-.87-.53-1.31-.78a1.46,1.46,0,0,0-.51-.23,7.42,7.42,0,0,1-2.68-1.28c-.81-.23-1.45-.45-2.09-.58a22.53,22.53,0,0,0-4.54-.82,17.77,17.77,0,0,1-2-.42c-.93-.11-1.89-.11-2.83-.2a14.9,14.9,0,0,0-3.32.51,34.54,34.54,0,0,0-5.12,1.49,13.45,13.45,0,0,1-1.41.26l-.12-.21a2.6,2.6,0,0,1,.61-.55c.51-.2,1.06-.3,1.58-.46s.91-.34,1.37-.49a18.51,18.51,0,0,0,2.11-.67c.92-.45,1.87-.16,2.79-.3s2-.49,3-.72c.71-.16,1.44-.27,2.15-.4.09-.32.15-.53.23-.83a10.15,10.15,0,0,0-2.22.1,5.36,5.36,0,0,1-1.32.06,5.06,5.06,0,0,0-2.73.4,13.48,13.48,0,0,1-3.25.65,8.37,8.37,0,0,0-1.09.21c-.6.15-1.21.31-1.8.51s-1,.44-1.56.58a4.16,4.16,0,0,1-1.06,0l-.11-.19c.32-.38.62-.77,1-1.11a23.1,23.1,0,0,1,1.83-1.74c.77-.63,1.61-1.19,2.42-1.77.28-.21.57-.39.84-.6,1.11-.86,2.2-1.77,3.35-2.58.73-.52,1.57-.89,2.34-1.35.24-.14.43-.37.66-.5a2.07,2.07,0,0,1,.93-.41,10.3,10.3,0,0,1,3.42.52,5.1,5.1,0,0,1,1.61.69,1.06,1.06,0,0,0,.33.09l1.67.34v.15l.75-.37c-.65-.45-1-1-1.77-1.25-1.17-.37-2.29-.91-3.46-1.31a4.48,4.48,0,0,0-1.51-.19c-1.18,0-2.37,0-3.56.17a12.51,12.51,0,0,0-2.86.5c-1.45.5-2.83,1.16-4.24,1.78a1.52,1.52,0,0,0-.62.53c-.53.84-1.32.74-2.12.67a15.92,15.92,0,0,0-2.91-.22,8.54,8.54,0,0,0-2.65.75A8.24,8.24,0,0,0,149.21,65a9.79,9.79,0,0,1-2,1.27l-.16-.18a9.07,9.07,0,0,1,.84-1c.7-.64,1.43-1.24,2.16-1.85a10.56,10.56,0,0,1,4.61-2,4.46,4.46,0,0,0,1.16-.46,2.09,2.09,0,0,1,1.74-.16,2.11,2.11,0,0,0,2.16-.63,1.82,1.82,0,0,1,1-.59,8.39,8.39,0,0,0,1.23-.47,2.46,2.46,0,0,1,1-.07l1.7-.61,0-.25a3.44,3.44,0,0,0-1-.12,13,13,0,0,0-3.48.88,5,5,0,0,1-2.66.38,7.63,7.63,0,0,0-3.41.83c-.68.31-1.4.53-2.08.83a15.61,15.61,0,0,0-3.23,1.58A11.26,11.26,0,0,0,146,64.75a2.45,2.45,0,0,1-1.26.8c-1,.27-1.83-.93-1.43-2-.45-.45-.3-.93,0-1.41s.82-1.22,1.18-1.85c.78-1.37,1.56-2.74,2.28-4.14a6.64,6.64,0,0,1,2-2.31,8.84,8.84,0,0,0,.88-.95,5.21,5.21,0,0,1,.93-.71,29.15,29.15,0,0,0,4-2.51,7.41,7.41,0,0,1,1.67-.82,15.73,15.73,0,0,1,1.63-.57,3.85,3.85,0,0,1,1.29-.19,4.14,4.14,0,0,0,2-.41c.6-.23,1.22-.4,1.83-.6s1-.38,1.51-.53a3.57,3.57,0,0,1,1-.21,6,6,0,0,0,3.71-1.19c1.55-1.13,3.14-2.18,4.71-3.26.18-.12.37-.21.56-.32l.88-2,1.26-.31C177,39.28,177.5,39.3,178,39.35ZM85.85,42.83c.53-.48,1-1,1.51-1.54a8.8,8.8,0,0,1,.71-.6,18.11,18.11,0,0,1,1.8-1.62c2.2-1.45,4-3.39,6.53-4.59.55,1-.44,1.7-.32,2.58l2.41,1.19a5.64,5.64,0,0,0,.2-.74,2.73,2.73,0,0,0,0-.7,2.29,2.29,0,0,1,1.22-2.5,2.37,2.37,0,0,0,1.18-2.18,2.09,2.09,0,0,1,1.76-.77l-.75,1.23c-.07.65-.12,1.19-.19,1.82l.69.86c-.24.32-.45.62-.66.91.12.82.26,1.61.36,2.41.06.57.06,1.13.09,1.7a.57.57,0,0,0,0,.13c.23.69.47,1.38.73,2.15l-.25.53c0,.81-.1,1.62.82,2a1.45,1.45,0,0,0,.53-1.83,8.85,8.85,0,0,1-.32-2c0-.61,0-1.18-.85-1.57l.67-.3c-.24-1.29-.46-2.48-.68-3.65V32.66l2-.15c-.23.76.34,1.52-.4,2,.06.81.54,1.53,0,2.21.25.89-.1,2,1,2.55,0,.35-.07.69-.11,1l-.13.1.59.42c.38-.88-.11-1.59-.23-2.42l.23-.56-.35-.69a4,4,0,0,1,.43-1.87,1.46,1.46,0,0,0,0-1.07,1.28,1.28,0,0,1,.05-1c.23-.5.49-1,.67-1.52a5.59,5.59,0,0,0,.28-1.21c.07-.62.09-1.25.13-1.87l.61-.54,1,.31A23.44,23.44,0,0,0,113,26.81a12.67,12.67,0,0,1,2.14-.55c1.71-.43,3.42-.89,5.13-1.29.81-.19,1.64-.27,2.45-.39s1.75-.22,2.62-.33l.14,0c1.7-.2,3.4-.41,5.1-.59.48-.05,1,0,1.44,0,1.25-.07,2.5-.16,3.75-.25.42,0,.84-.11,1.25-.1.62,0,1.24.06,1.87.11,1.13.09,2.28.13,3.4.29,1.44.21,2.86.55,4.3.77.71.11,1.44.09,2.15.16a4.31,4.31,0,0,1,.85.24c.11,0,.21.12.32.15,1.47.43,2.95.84,4.41,1.3.7.22,1.36.57,2.05.82.44.17.9.25,1.33.41,1.05.38,2.1.76,3.13,1.18A43.46,43.46,0,0,1,165,30.51a45,45,0,0,1,4.67,2.31c1.08.76,2.2,1.46,3.27,2.23.68.49,1.29,1.06,2,1.61.17.28.36.6.61,1v.66l-.56.43a5.22,5.22,0,0,1-3.56-1.65,1.82,1.82,0,0,0-.47-.31c-1.85-.83-3.35-2.25-5.22-3-.9-.37-1.79-.75-2.68-1.14-.36-.16-.68-.4-1-.55-1.44-.6-2.87-1.21-4.33-1.75-.89-.33-1.83-.52-2.73-.81-1.43-.46-2.84-1-4.29-1.42-1.29-.35-2.62-.57-4-.8s-2.41-.39-3.62-.57c-.82-.13-1.64-.26-2.46-.36s-1.91-.19-2.86-.27a5.06,5.06,0,0,0-.68.09,1.6,1.6,0,0,1-.61,0,6.47,6.47,0,0,0-2.63,0,20.3,20.3,0,0,1-4,.36c-1.21-.08-2.38.13-3.58.14a18.45,18.45,0,0,0-3.28.44c-1.46.27-2.92.55-4.35.94a8.67,8.67,0,0,0-3.36,1.25c-.45.35-.85.76-1.29,1.17a1.1,1.1,0,0,0,.87.77c1.21.3,2.41.65,3.62,1a2.71,2.71,0,0,1,2,1.43c0,.11.14.21.14.31,0,1.43.33,2.86-.27,4.26a16.94,16.94,0,0,0-.79,2.2,4.08,4.08,0,0,0-.07,1.16c0,.27,0,.55,0,.82l-.48.81a2.78,2.78,0,0,0,.61.32,5.2,5.2,0,0,0,2.29,0,15.1,15.1,0,0,1,4.29-.45c1,0,2-.08,3.07-.12a1.93,1.93,0,0,1,.34,0c1.64.31,3.1-.37,4.61-.78.83-.23,1.64-.52,2.46-.76s1.66-.45,2.48-.68L145.57,39c.82-.23,1.64-.44,2.47-.66a1.56,1.56,0,0,1,1.61.6,22.45,22.45,0,0,1,1.71,2.27,2.09,2.09,0,0,1,.15.77l-.78-.12v.06l-1.69.25v0c-.74.15-1.49.31-2.24.45a54.63,54.63,0,0,0-6,1.31,24.8,24.8,0,0,1-4.45.94c-1.77.18-3.54.36-5.3.56-.39,0-.77.19-1.16.26-1.35.23-2.69.48-4,.65a17.3,17.3,0,0,0-3.67,1.05,2,2,0,0,1-1.61.14,2,2,0,0,0-2.17.53c-.78.12-1.18-.46-1.74-.77l-.21-.59a3.88,3.88,0,0,1,2.4-3.36,3.6,3.6,0,0,0-.71-.58,3.87,3.87,0,0,0-1-.17,1.19,1.19,0,0,0-1.46,1.19c-.14,1.26-.33,2.51-.4,3.77a1.86,1.86,0,0,0,.64,1.81,8.2,8.2,0,0,1,.89.88,2,2,0,0,1,.19,2,6.93,6.93,0,0,0-.58.87,3.63,3.63,0,0,0-.48,1.7,3.69,3.69,0,0,1-.61,1.74c-.56,1-1.19,2-1.8,3a11,11,0,0,0-1,1.71,18.49,18.49,0,0,1-1.59,2.64c-.32.54-.72,1-1.08,1.54-.24.34-.46.7-.7,1l-.53.67a2.19,2.19,0,0,1-.33-1.74c.12-.7.29-1.4.35-2.11a4.29,4.29,0,0,0-.24-1.16c.24-.71.62-1.52-.33-2.14a2.56,2.56,0,0,0-1,2.21c.09.78.07.84-.48,1.44-.49-.46-.33-1-.25-1.56s.32-1.26.37-1.9a8.09,8.09,0,0,0-.08-1.84c-.1-.69-.35-1.34-.46-2-.14-.92-.25-1.84-.3-2.76,0-.69-.6-.94-1-1.38-.43.33-.12.69-.07,1l-.27.55h.09c0,.73-.07,1.45-.1,2.19a2.93,2.93,0,0,0-2,2.35,14.35,14.35,0,0,1-.55,1.72,10.3,10.3,0,0,0-.67,3.1,2,2,0,0,1-.66,1.47A1.57,1.57,0,0,1,99.41,63c-.17-1.68-.32-3.37-.41-5.05a6.25,6.25,0,0,1,.18-1.72c.21-1,.57-2.06.68-3.1a5.34,5.34,0,0,1,.23-1.74c0-1,0-1.65,0-2.33a2.14,2.14,0,0,0-.67-1.72l.08-.4c-.23-.34-.42-.66-.65-.94a7.78,7.78,0,0,1-1.44-3c-.21-.74-.17-1.52-.33-2.24a8.34,8.34,0,0,1-.53-2.48c-.58.38-.43.75-.34,1.2-.28.06-.54.13-.8.17-.84.15-1.58.45-1.77,1.42a8.05,8.05,0,0,0-2.73,2c-.22.23-.52.38-.74.61-.75.79-1.49,1.59-2.2,2.41-.52.59-1,1.24-1.49,1.83a6.84,6.84,0,0,1-.85.72l-.6,0a1.54,1.54,0,0,1-.49-1.21,15.83,15.83,0,0,0,0-1.82A3.44,3.44,0,0,1,85.85,42.83ZM67.67,44.62C68.8,43.8,70,43,71.09,42.24a3.48,3.48,0,0,1,.3-.26c.4-.21.81-.41,1.22-.59a7.17,7.17,0,0,0,1.1-.42,6.73,6.73,0,0,1,2.4-.83c1.3-.33,2.61-.63,3.92-.92a8.85,8.85,0,0,1,.9-.08A3.72,3.72,0,0,1,82.58,42c.12,1.12.08,2.25.2,3.36a23,23,0,0,0,.58,4.44,1.43,1.43,0,0,0,.23.5,7,7,0,0,1,1.18,2.4,13.15,13.15,0,0,0,.9,1.47,8.88,8.88,0,0,1,.36.9c.22.52.47,1,.7,1.55s.53,1.33.82,2a9.31,9.31,0,0,1,.86,3c0,.25.25.48.44.82,0,.19,0,.51-.1,1-.31-.3-.55-.44-.67-.66A2.19,2.19,0,0,0,86,61.64,3.94,3.94,0,0,1,84.29,61a4.08,4.08,0,0,0-2.41-.76,5.22,5.22,0,0,1-2.55-.52c-1-.44-2-.78-3-1.14a1.89,1.89,0,0,0-.57-.07c-.65-.34-1.21-.61-1.74-.92a7.38,7.38,0,0,1-1.33-.86,3.59,3.59,0,0,1-.79-1.1A16.73,16.73,0,0,0,69.8,52a1,1,0,0,1-.28-.55c0-.84-.51-1.24-1.26-1.57l-.57.43a8.54,8.54,0,0,0,1,1.26c.79.62.54,1.39.55,2.23-.19-.07-.34-.07-.39-.14a4.61,4.61,0,0,1-.53-1C68,51.5,67.26,50.48,67,49.35l1.18-.7a3.15,3.15,0,0,0-.69-1.51C66.63,46.1,66.68,45.32,67.67,44.62ZM37.78,91.9a14.48,14.48,0,0,0,1.91-1.36,8.45,8.45,0,0,1,1.76-1.09A1.43,1.43,0,0,1,43.3,90a1.58,1.58,0,0,0,.68.46c.89.39,1.79.73,2.68,1.13a6.75,6.75,0,0,1,1.19.7,1.05,1.05,0,0,0,1.28.15c.94-.52,1.9-1,2.87-1.48.5-.24,1-.38,1.57-.59,1.08-.43,2.17-.85,3.23-1.32.71-.32,1.39-.72,2.09-1.05a6,6,0,0,1,.73-.19c.5-.17,1-.35,1.48-.54s1.23-.51,1.88-.78l.41.11,4.44-1.27,3.74-1.09c.58-.18,1.15-.36,1.72-.57a3.79,3.79,0,0,0,.62-.35l-.27-.86-1.51.3a3.2,3.2,0,0,0-2.42.53,7.55,7.55,0,0,1-2.91,1.09,21.22,21.22,0,0,0-2.67.75l-.73.2a16.27,16.27,0,0,0-3,.89c-1.14.54-2.26,1.11-3.44,1.56a9.37,9.37,0,0,0-1.87,1,2.89,2.89,0,0,1-1.89.77,1.09,1.09,0,0,0-.47.09,26.85,26.85,0,0,1-2.86,1.17c-.44,0-.88,0-1.32,0a5.45,5.45,0,0,1-2.59-.88l-1.24-.78-1.52-1c-.49-.3-1-.58-1.49-.89a6,6,0,0,1-.61-.5c0-.49.08-.9.11-1.27,1.13-.29,1.67.71,2.59,1,.05-.38.08-.64.11-.88a3.63,3.63,0,0,0-1.72-1.2,2.19,2.19,0,0,1-1.14-1,4.33,4.33,0,0,1-.76-1.83c-.07-.62-.12-1.28.44-1.67A11.34,11.34,0,0,0,43,77.58c.92-1.13,1.89-2.21,2.81-3.33.42-.52.62-1.22,1.46-1.45.91.38,1.87,0,2.84-.18,0,0,.09-.06.13-.06.8,0,1.61,0,2.41,0,.26,0,.5.28.8.46a1.72,1.72,0,0,1,1.74,0,3.51,3.51,0,0,0,2.37.3,1.13,1.13,0,0,1,.48,0,5.22,5.22,0,0,0,1.43.12,16.19,16.19,0,0,1,2.06.22,9.65,9.65,0,0,0,1.93.1,7,7,0,0,1,3.32.43c.26.1.56.1.84.23l.7-.14.65.37.76-.69-1-.72v-1l1.43-.28c-.12-.19-.17-.38-.29-.44A22,22,0,0,0,66,69.87a12.42,12.42,0,0,1-1.86-.93c-.75-.35-1.52-.68-2.28-1a.54.54,0,0,1-.29-.27,3.81,3.81,0,0,1,2.3.34c.59.18,1.17.42,1.76.6.91.27,1.84.49,2.74.79.43.15.8.47,1.22.65.6.26,1.22.45,1.92.69,0-.58-.31-.65-.57-.79l-2.24-1.28c-.48-.26-1-.55-1.46-.77A22.17,22.17,0,0,0,65,67c-.9-.29-1.82-.51-2.74-.75-.45-.12-.91-.22-1.36-.3s-.63,0-1-.07a3.86,3.86,0,0,0-2.62-.18c.62.82,1.74.47,2.37,1.23a2.77,2.77,0,0,1-.46.06c-.44,0-.87-.1-1.31-.15-1-.09-2-.14-2.93-.29a5.24,5.24,0,0,1-2.24-.76c-.42-.87-.73-1.52-1.17-2.41a5.27,5.27,0,0,0-.66-3,6.23,6.23,0,0,1,1.82-3.56c1-1.28,2.08-2.52,3.14-3.76a8.51,8.51,0,0,1,1-1,.71.71,0,0,1,1.15.28,1.34,1.34,0,0,1,.18.53c0,1.05.8,1.8,1.1,2.75a3,3,0,0,0,1,1.25c1.31,1.11,2.67,2.15,4,3.25.44-.16.74,0,1.13.34a6,6,0,0,0,1.72.88c1.12.43,2.31.71,3.39,1.23a33.7,33.7,0,0,1,3.14,1.91,2.37,2.37,0,0,1,.92,1,.44.44,0,0,0,.26.22c1,.31,1.38,1.24,2.1,1.82.27.22.54.43.82.63s.81.55,1.36.91l1.11.13c.11.3.22.58.32.83l.91.5a.78.78,0,0,1-.78.48c-1.07,0-2.14.06-3.2.19a6.68,6.68,0,0,0-1.58.53,1.12,1.12,0,0,1-1.28-.12l.81-.93-1.73-.44-.69.35c-.09.2-.16.39-.27.65l.93.88c0,.71-.63,1.38-.4,2.19a3.36,3.36,0,0,0,1.89-.08,5.12,5.12,0,0,0,.68-.14.77.77,0,0,1,.84.34,3.55,3.55,0,0,0,1,.75,3.34,3.34,0,0,1,1.55,1.35,4.88,4.88,0,0,0,.65.76c0,.68-.45,1.15-1.3,1.17.07-.14.12-.25.18-.36s.13-.19.25-.39L78.54,77c-.18.29-.27.44-.36.6l-.05-.07-1.89,1.19c-.34.21-.68.36-1,0l-1.93.93.66.66a18.27,18.27,0,0,1,1.84-1.05,8.66,8.66,0,0,1,2-.5c-1,1.33-2.56,1.86-3.6,3.14l.24.52.21.14c.1-.18.19-.36.29-.53,1.6-.73,2.82,0,4,1.14.08.18-.09.43-.35.46a2.89,2.89,0,0,0-1.62.86c-.36.34-.79.61-1.19.92a1.8,1.8,0,0,0-.16.21l.39.31c1-.39,1.8-.73,2.65-1.09a1.51,1.51,0,0,0,.39-.27,1.63,1.63,0,0,1,1.38-.44l0,.38c-1,.89-1.89,1.69-2.73,2.57A15.67,15.67,0,0,0,75,91c-.3.59-.66.78-1.7,1l-.89.75-1.31-.3a3.88,3.88,0,0,0-.94-.17c-.88,0-1.77.1-2.65.16a2.71,2.71,0,0,1-.56,0,14.34,14.34,0,0,0-4.07.51,8.08,8.08,0,0,0-2.09.46c-.47.21-.88.41-1,.69-1.22.8-2.26,1.54-3.36,2.19a9,9,0,0,0-1.72,1.29c-.65.64-1.36,1.23-2,1.85a1,1,0,0,0-.15.14c-.57,1.25-1.79,1.91-2.69,2.85a15.14,15.14,0,0,1-3,2.72,6.73,6.73,0,0,0-1,.93c-.84-.36-1.62-.66-2.37-1a6,6,0,0,1-.75-.6,18.74,18.74,0,0,0-1.64-1c-.78-.4-1.62-.68-2.38-1.12a3.5,3.5,0,0,0-1.56-.53,1.74,1.74,0,0,1-1.35-.57l-1.08-.07c-.89-.85-1-2-1.09-3.2.59.27,1.07.45,1.51.71.88.51,1.73,1.06,2.6,1.59a.86.86,0,0,0,.39.15,5,5,0,0,1,2.13.79c.58.28,1.19.51,1.79.74s1.28.52,1.94.71a9.09,9.09,0,0,0,1.29.16,1.26,1.26,0,0,1,.61.2l1.74-.43.81-1.2c-.16-.21-.3-.4-.49-.67-1,.32-1.9.68-2.85.91a4.48,4.48,0,0,1-1.63,0,53.81,53.81,0,0,0-6.89-2.85l-2.4-3.51A8.13,8.13,0,0,1,37.78,91.9Z"/><path d="M1.42,178.71a2,2,0,0,0,1.09.13H72.77l154.53,0,10.71,0c3.91,0,7.81,0,11.71,0a4.92,4.92,0,0,0,1-.2v-1.16q0-50.15-.05-100.29,0-37.38,0-74.78c0-.36,0-.73-.07-1.18v177.4Z"/><path d="M250.58,1.2c-.49,0-.92-.11-1.34-.11H2.43a4.42,4.42,0,0,0-.63,0,2.17,2.17,0,0,0-.44.11Z"/><path d="M186.27,71.83a37.61,37.61,0,0,0-4-1.7,8.54,8.54,0,0,0-2.84-.66,3.72,3.72,0,0,1-1.11-.37,7.63,7.63,0,0,0-1.39-.59c-1.07-.19-2.15-.29-3.23-.41a8.48,8.48,0,0,0-1,0,.7.7,0,0,0,0,1,1.17,1.17,0,0,0,1.46.37l1.23.55a9,9,0,0,1,2.29-.16,9.85,9.85,0,0,1,2.07,1l0-.1L183.42,72a3.13,3.13,0,0,1,.58.34c1.12.6,2.26,1.17,3.38,1.79a1.71,1.71,0,0,0,1.62.24c.26,1.16,1.37,1.42,2.1,2s1.77,1.15,2.54,1.9c.55.53,1.14,1,1.7,1.55.79.74,1.54,1.52,2.36,2.23a1.71,1.71,0,0,0,1,.39,3,3,0,0,0,2.91-1.63l-.24-.44c-.27.07-.51.12-.75.2a2.27,2.27,0,0,1-1.83.11A17.09,17.09,0,0,1,196.49,79c-.66-.53-1.21-1.21-1.89-1.71a11.93,11.93,0,0,0-3.28-2,12.21,12.21,0,0,1-1.39-.61l0,.08a5,5,0,0,1-.93-.84A6.16,6.16,0,0,0,186.27,71.83Z"/><path d="M186.72,64.81c-.26.67-.5.85-1.05.75a4.25,4.25,0,0,1-.91-.31c-1-.46-2-.94-2.94-1.4l-.71.37a1.65,1.65,0,0,0,1.34,1.13c1.06.33,2.14.58,3.22.84a2.46,2.46,0,0,0,.73-.07l.54.22,1.55-.68.4-.71c-.57-.49.36-1.11-.2-1.73-.76,1-1.7.57-2.71.28Z"/><path d="M171.48,57.29c-.94-.29-.94-.29-2.12.09-1.33-.26-3.72.14-4.19.8a3,3,0,0,0,.8.17c1.08-.09,2.16-.25,3.25-.34.58,0,1.18,0,1.77,0v.08l.57-.29c.42.11.84.26,1.26.33a1.38,1.38,0,0,0,1.31-.45A2.9,2.9,0,0,0,171.48,57.29Z"/><path d="M178.69,60.05a5.72,5.72,0,0,1,1.7.79,6.92,6.92,0,0,0,1.23.66l0-.06.62.56.32-.64L181.2,60.3l.08-.11-3-1.56-.9.4a3.23,3.23,0,0,0,.52.62A3.06,3.06,0,0,0,178.69,60.05Z"/><path d="M184.23,60.48a10.28,10.28,0,0,0,1.84,0,1.2,1.2,0,0,0,.91-1.08,1.72,1.72,0,0,1-1.85,0,2.88,2.88,0,0,0-.5-.24,1.51,1.51,0,0,0-1.83.47A1.72,1.72,0,0,0,184.23,60.48Z"/><path d="M183.11,62.06l-.05-.12-.27.11,0,.11Z"/><path d="M179.3,62.82l-.24,0V63l.24,0Z"/><path d="M188.16,108.89c-.74.2-1.45.52-2.2.65a29.34,29.34,0,0,0-5.5,1.75c-.68.26-1.29.71-2,.93a11.12,11.12,0,0,1-2.15.37c-.56.06-1.13,0-1.79,0v1.09a1.72,1.72,0,0,0,1.48.14q1.08-.37,2.19-.69c.84-.24,1.7-.44,2.55-.67.35-.09.7-.21,1.06-.32a11.17,11.17,0,0,0,1.51-.51,8.43,8.43,0,0,1,2.81-1.11.43.43,0,0,0,.2-.07c.62-.61,1.45-.51,2.2-.68a18.75,18.75,0,0,0,2.18-.79c.11-.26.18-.45.29-.72l-1,.18C189.37,108.6,188.76,108.73,188.16,108.89Z"/><path d="M179.63,95.08a12.68,12.68,0,0,0-1.1-1.51,9.88,9.88,0,0,0-1.36-1l-.12.11a7.49,7.49,0,0,0,1.35,2.76A11.2,11.2,0,0,1,180,98.19a.57.57,0,0,0,.83.37.53.53,0,0,0,0-.16c-.34-1.08-1.14-2-1.13-3.2C179.71,95.16,179.66,95.12,179.63,95.08Z"/><path d="M183.15,106c0-.34-.15-.61-.16-.9,0-.56-.33-.81-.92-.94-.06.22-.11.42-.16.62l.39-.22Z"/><path d="M107,47c0,.87.18,1.74.17,2.61a1.85,1.85,0,0,0,.26,1.11,1.58,1.58,0,0,1,.22.57c.12.67.23,1.35.33,2a6.37,6.37,0,0,1,.19,1.42c-.12,1.07-.33,2.13-.51,3.2-.09.5,0,.7.56.94,1.36-.87,1.12-2.36,1.41-3.65a.19.19,0,0,0,0-.07,13.94,13.94,0,0,1-.38-3,15.59,15.59,0,0,0-.33-1.68c-.43-1.43-.9-2.85-1.41-4.44a1.4,1.4,0,0,1-.43-1.35c.16-.65-.19-1-.47-1.43a.51.51,0,0,0-.3.75A7.65,7.65,0,0,1,107,47Z"/><path d="M104.75,51.75l.73,0a1.57,1.57,0,0,0,.33-.54c.19-.55,0-1.13-.65-2,0-.45-.09-.9-.13-1.35a8.62,8.62,0,0,1-.45-1.26c-.12-.39-.25-.77-.4-1.2-.82.42-.51,1.19-.8,1.69l.43.59A28,28,0,0,0,104.75,51.75Z"/><path d="M114.23,40.06l1-.89c.16-.15.35-.28.5-.45.34-.38.67-.76,1-1.16s.85-.78.61-1.5c-.78-.62-1.25-.51-1.7.37a6.27,6.27,0,0,1-.61,1c-.31.43-.68.82-1,1.27S113.7,39.56,114.23,40.06Z"/><path d="M98.52,42.75A17,17,0,0,0,99,44.83c.09.37.17.74.25,1.11l.19,0c1.07-1.64.18-5.36-1-5.85-.35.47.28.6.28.93A6.15,6.15,0,0,0,98.52,42.75Z"/><path d="M111.09,45.16c.26-.72,1-1.16,1-2a4.17,4.17,0,0,0,1.2-1.86l-.64-.8c-.22.87-.41,1.58-.61,2.34l-.38-.24c-.78.36-.89,1.25-1.2,2.38Z"/><path d="M110.39,33.8l.33-.81-.94-.71-.58.34C109.16,33.39,109.16,33.39,110.39,33.8Z"/><path d="M109.42,46.38l.55.39c.24-.45.8-.66.59-1.28C110.08,45.65,109.61,45.77,109.42,46.38Z"/><path d="M113.78,34.4l.66.27a.61.61,0,0,0-.75-.47,1.87,1.87,0,0,0-.46.19l.19.28Z"/><path d="M113.45,40.34l0,.33h.22l0-.34Z"/><path d="M112.42,30.17l-.24-.06,0,.17h.26Z"/><path d="M110,29.61v-.16l-.12,0,0,.16Z"/><path d="M98.92,134.42c.2-.79,1.32-.91,1.24-1.81a34,34,0,0,0,4.9-3.81l-.14-.78a3.6,3.6,0,0,0-.75.21,14.83,14.83,0,0,0-2,1.15,8,8,0,0,0-2,1.62,28.88,28.88,0,0,1-2,2.3l-.87,1,.49.42Z"/><path d="M95,140.06c0-.33,0-.54,0-.91.58-.62,1.19-1.28,1.82-1.92a1.12,1.12,0,0,0,.38-1l-.53-.41-.71.51a5.59,5.59,0,0,0-1.88,2.26,5.31,5.31,0,0,1-.59.92c-.22.31-.47.6-.8,1l1.14.47Z"/><path d="M107.46,127c.41-.39.33-.61-.2-1l-1.18.49c-.16.25-.29.47-.44.66s-.37.4-.61.65l.76.5C106.36,127.87,107,127.47,107.46,127Z"/><path d="M109.31,124.24l-.54-.83-.36.57C108.71,124.27,109,124.59,109.31,124.24Z"/><path d="M97.42,135.62c0-.15-.11-.3-.17-.45l-.14,0,.07.47Z"/><path d="M97.8,135c0,.07-.12.16-.1.21s.13.12.29.25l0-.43Z"/><path d="M108.51,125.56a.48.48,0,0,0-.16-.13s-.08.08-.12.12l.17.14Z"/></g></svg>