<svg xmlns="http://www.w3.org/2000/svg" viewBox="0 0 252 180"><g id="Layer_3" data-name="Layer 3"><path d="M250.78,1.12H1.22V178.88H250.78ZM126,160.68l-1,0h0a69.71,69.71,0,1,1,1,0Z"/><path d="M125,160.67h0Z"/><path d="M126,19.32,90.2,90,125,160.66h0L159.9,90ZM144.84,106c-.36-.14-.23-.74-1-1.9-.31-.49-1.12-1.78-1.77-1.7s-1.13,1.81-1.77,5.78c-.89,5.49-1,7.57-1.5,7.62-.93.09-1.93-7.08-3-7-.56,0-.85,2.1-2.11,10.07-.59,3.72-.9,5.65-1.29,5.64-.76,0-.84-7.13-1.91-7.21-.9-.06-2,5-2.44,7.35-1.74,8.41-1.7,13.72-2.25,13.74-1,0-2.32-19.06-4.08-19-1,0-1.54,6.49-2.52,6.46-1.39,0-1.16-13.33-3.6-13.67-1.29-.19-2.3,5.13-3.47,5s-1.12-5.75-2.45-11.43c-.09-.37-.82-3.47-.82-3.47a1.7,1.7,0,0,0-.88-.27c-.49,0-.78.27-1.36.55a5.47,5.47,0,0,1-1.43.47c-1.21.15-2.2-1.65-3.67-3.4-.08-.09-1.32-1.22-3.81-3.47-3.66-3.3-5.11-4.56-4.78-5.26.11-.21.33-.26.63-.38C94.7,90,95.26,89.27,97,87,99,84.34,100,83,100.29,82.56a9.51,9.51,0,0,1,2.24-2.45,1.61,1.61,0,0,1,.88-.41c.32,0,.64.06,1.71.81l1.76,1.3c.73.53,1,.71,1.23.61s.26-.58.27-1a28.84,28.84,0,0,1,.34-3.06c0-.08.26-1,.75-2.86.2-.75.33-1.23.47-1.22s.18.41.34,1.08a13,13,0,0,0,.89,2.38c.56,1.27.8,1.44,1,1.5a1.43,1.43,0,0,0,1.09-.27,4.37,4.37,0,0,0,1.56-2.93c.76-3.89,1-6.12,1-6.12a27.81,27.81,0,0,1,1.09-5.37c.11-.32.29-.84.41-.82s.14,1,.14,1.5c-.06,3.56.19,3,.06,5.1-.16,2.82-.62,4,.07,4.49a1.42,1.42,0,0,0,1.16.14c1.21-.37,1.62-2.23,2.11-4.63,1.28-6.29,1.92-9.43,2-9.93A35.71,35.71,0,0,1,124,56c.11-.4.31-1.1.54-1.09s.42,1,.48,1.36c1,6.29,1.82,6.33,2.31,12.18,0,.22.33,1.66,1,4.55.17.78.42,1.89,1.29,2.32a1.42,1.42,0,0,0,1,.13c.2,0,1-.31,1.49-2.58a16.9,16.9,0,0,0,.14-4.56c0-2.87.86-5.6,1.29-5.58s.62,2.42,1.23,7.21a17.66,17.66,0,0,0,1.56,5.72c.94,2,1.47,2,1.63,2,1.45,0,2.28-4.8,3.13-4.7s.39,6.61,2.25,7.15c1.08.31,2-1.68,3.53-1.43.95.15,1.31,1,2.66,3,.94,1.4,2.15,2.89,4.55,5.85.69.85,1.72,2.08,3.06,3.54a62,62,0,0,0-6.8,8.3C148.2,102.3,145.83,106.34,144.84,106Z"/></g></svg>