<svg xmlns="http://www.w3.org/2000/svg" viewBox="0 0 252 180"><g id="Layer_3" data-name="Layer 3"><path d="M156.49,93.82l-3.12,1.29,3.13-1.3Z"/><path d="M156.5,93.81h.1l0,0Z"/><path d="M194.93,96.28c-.56-.28-1.14-.52-1.7-.79a.52.52,0,0,0-.63.11,5.13,5.13,0,0,1-.89.66,1,1,0,0,1-1.62-.54,4.34,4.34,0,0,1-.37-1.36,2,2,0,0,0-1.16-2c-.15-.06-.23-.27-.33-.4.43-.53.43-.53,1.17-.39a1.44,1.44,0,0,0,.38-1.07c0-.29-.09-.59-.12-.88A9.83,9.83,0,0,0,189,87a.88.88,0,0,0-1-.62l-1.11.12a10.56,10.56,0,0,1-1.66.19,3.82,3.82,0,0,0-1.26.07,1.52,1.52,0,0,1-.81-.08c-.12,0-.18-.29-.32-.53a3.87,3.87,0,0,1,.79-.31,15.39,15.39,0,0,1,1.8-.11,8,8,0,0,0,2.07-.2c.49-.12.67-.46.39-.88A3.18,3.18,0,0,0,185.47,83a9.48,9.48,0,0,0-3.3.72c-.69.19-1.37.43-2.07.61s-1.32.26-2,.38a.67.67,0,0,0-.61.63l.49.33c.42.24.87.45,1.27.73.84.57,1.68,1.16,2.5,1.78s1.36,1.11,2,1.7a3.48,3.48,0,0,1,.56.8A25.62,25.62,0,0,1,186.24,94c.2.53.53,1,.74,1.55a3.63,3.63,0,0,1,.29,1.2,7.34,7.34,0,0,0,.5,2.14,1.87,1.87,0,0,1-.45,2,5.92,5.92,0,0,1-2.64,1.22,2.58,2.58,0,0,1-2.28-.5,11.66,11.66,0,0,1-1.49-1.81,4.94,4.94,0,0,0-1.47-1.62,1.37,1.37,0,0,1-.74-1.26,3,3,0,0,0-.27-1.2,8.09,8.09,0,0,0-2.84-3.52c-.48-.32-.94-.65-1.41-1s-1-.77-1.54-1.18a1.58,1.58,0,0,0-1.25-.29c-1.09.14-2.17.33-3.25.5a1.49,1.49,0,0,0-.38.19,1.71,1.71,0,0,0,1.26.92,4.15,4.15,0,0,1,.61.14l3.28,1a3.15,3.15,0,0,1,1.53,1.2c-.34.12-.58.29-.81.27-.76-.07-1.51-.21-2.27-.31a3.38,3.38,0,0,0-.45,0,4.06,4.06,0,0,0,0,.42.42.42,0,0,0,0,.2,5.68,5.68,0,0,0,2.31,2.47,1.52,1.52,0,0,1,.5.37,26.27,26.27,0,0,1,3.44,4.55,3.79,3.79,0,0,1,.36,1.88,3.15,3.15,0,0,1-.5,1.27,1,1,0,0,1-.41.36,3.27,3.27,0,0,1-1.78.44c-1.07,0-1.47-.29-1.45-1.34a.88.88,0,0,1,0-.28,4.87,4.87,0,0,0-.19-2.37,15.66,15.66,0,0,0-1-2.8,7.73,7.73,0,0,0-.87-1.42,16.6,16.6,0,0,1-1.18-1.61,14.64,14.64,0,0,0-1.62-2.35,3,3,0,0,0-1.3-1c-.57-.2-1.16-.36-1.75-.51a4,4,0,0,1-1.71-.88,2.75,2.75,0,0,0-1.36-.68,12.71,12.71,0,0,1-1.67-.5,3.36,3.36,0,0,1,1.28-.6,2.79,2.79,0,0,0,1.63-.68c.11-.13.44-.13.63-.08a6.79,6.79,0,0,0,2.94-.27c.12,0,.23-.14.35-.21a.66.66,0,0,0-.72-.57,5.23,5.23,0,0,1-.56,0c-.33,0-.44-.21-.44-.54a5.93,5.93,0,0,1,.54-2.07c.2-.51.19-.55.72-.5s1.28.2,1.92.25c.95.09,1.9.16,2.86.18a11.76,11.76,0,0,0,2.22-.1c1.06-.17,2.11-.46,3.17-.69a6.34,6.34,0,0,1,1.22-.2,11.86,11.86,0,0,0,2.51-.49c1.16-.32,2.32-.67,3.47-1,.37-.12.71-.3,1.18-.5a6,6,0,0,0-.63-.75c-.31-.28-.67-.5-1-.76A20.4,20.4,0,0,0,180,77.71a1.14,1.14,0,0,0-.73,0c-.57.19-1.11.46-1.68.67a22.33,22.33,0,0,1-3.82,1.3,9.78,9.78,0,0,0-2.22.57,34.59,34.59,0,0,0-3.88,2,24.21,24.21,0,0,1-3.34,1.67c-.84.34-1.72.58-2.58.85a1.44,1.44,0,0,0-1,.68c0,.09-.21.14-.33.17a7.51,7.51,0,0,0-2.12.84c-.42.29-.79.64-1.21.91-.63.4-1.29.73-1.91,1.13-.47.3-.88.68-1.34,1s-.44.29-.19.76c0,.07.08.16.15.32-.39-.07-.7-.14-1-.18a1.29,1.29,0,0,0-.62,0,5.16,5.16,0,0,0-1,.66c-.89.75-1.73,1.54-2.62,2.27s-1.63,1.22-2.45,1.83a1.06,1.06,0,0,0-.54.75.63.63,0,0,0,.75.25c.65-.13,1.29-.22,1.93-.34a1.87,1.87,0,0,0,.54-.15c1.84-1,3.66-2,5.51-2.94a2.35,2.35,0,0,0,1.45-1.62,2.18,2.18,0,0,0,2.33-.22c0,.1.09.16.09.23A1,1,0,0,0,159,92.2l1.35.28a8.32,8.32,0,0,1,2.87,1.39,10.14,10.14,0,0,1,2.09,1.68,4.88,4.88,0,0,1,1,1.28,1.5,1.5,0,0,1-.12,1.73,1,1,0,0,1-.66.3.88.88,0,0,1-.56-.32,30.79,30.79,0,0,0-3.53-3.23c-.75-.59-1.5-1.18-2.28-1.73a1.14,1.14,0,0,0-1.3-.16,2.36,2.36,0,0,1-.79.15l1.05-.95a1.39,1.39,0,0,0-1.83-.35c-.61.22-1.21.48-1.8.74a2,2,0,0,0-.63.43.63.63,0,0,0-.16.54.63.63,0,0,0,.51.24c.44,0,.86-.17,1.3-.25s.65-.11,1-.15l.09,0a.34.34,0,0,1,0-.1l0,.12h-.1l-3.13,1.3c-.28.12-.73.08-.7.53s.41.46.71.57A16,16,0,0,1,158,98.65a3.51,3.51,0,0,0,1.36.69,3.89,3.89,0,0,1,1.85,1.14,4.5,4.5,0,0,1,1.13,1.64,3,3,0,0,0,.42.71,2.12,2.12,0,0,1-.8,3,2,2,0,0,1-.26.08l-1.72.41-2.22-1.36a1,1,0,0,1-.59-.76c.39-.12.79.42,1.11-.1a5.43,5.43,0,0,0-1.44-2.62,1.39,1.39,0,0,0-.57-.39c-1.32-.44-2.64-.89-4-1.26-1.1-.31-2.22-.53-3.33-.75a3.59,3.59,0,0,0-1,0,.62.62,0,0,0-.61.47c.42.57.66.76,1.08.79a8.43,8.43,0,0,1,2.9.89c1.18.57,2.33,1.17,3.5,1.76l.31.14a1.33,1.33,0,0,0-.14.19c-.77-.25-1.53-.51-2.3-.75l-1.46-.45c-.51-.17-1-.34-1.51-.53s-1.2-.52-1.82-.69c-1-.26-2-.37-2.92-.66a3.35,3.35,0,0,0-3.8,1.45c-.25.39-.54.75-.82,1.12-.54.73-1.08,1.45-1.63,2.17a12.6,12.6,0,0,1-1.28,1.54c-.65.59-1.39,1.08-2.09,1.6a6,6,0,0,0-.86.6,2.14,2.14,0,0,1-.88.52,16.16,16.16,0,0,1-3.32,1c-.72.13-1.47.16-2.19.29a2.66,2.66,0,0,1-1.16-.16,6.7,6.7,0,0,1-3.56-1.82c-.7-.79-1.53-1.47-2.26-2.25a15.38,15.38,0,0,1-1.62-2c-.46-.69-.75-1.49-1.19-2.2a10.12,10.12,0,0,0-1.85-2.57,5,5,0,0,1-.79-1.11,1.85,1.85,0,0,0-1.23-1l-1.08-.2-.51-.13V97a6,6,0,0,1,.82-.26,2.28,2.28,0,0,0,1.63-.83c.06-.09.35-.15.4-.09.35.34.64.14,1,0s.62-.32.91-.51c.13-.09.33-.27.32-.38a1.1,1.1,0,0,0-.34-.46c-.15-.16-.34-.28-.49-.44a8.17,8.17,0,0,0-2.46-2.11c-.53-.23-1.09-.42-1.61-.67-.71-.35-1.4-.74-2.1-1.1a1.72,1.72,0,0,0-.51-.09c.53.58.94,1.08,1.39,1.53a4.55,4.55,0,0,1,1.2,1.64,2.51,2.51,0,0,1-.52-.26c-.76-.6-1.48-1.25-2.27-1.81a2.22,2.22,0,0,0-2-.54,1.08,1.08,0,0,1-.73,1,7.84,7.84,0,0,1-1.42.31c-.83.07-1.66.08-2.5.1a8.94,8.94,0,0,0-2.89.66c-1,.4-2,.91-3.07,1.32a8.12,8.12,0,0,1-1.55.36c-.35.07-.51-.16-.52-.49a.8.8,0,0,1,0-.41.75.75,0,0,0-.07-.73A5.83,5.83,0,0,0,94.17,91c-.25-.24-1.21-.26-1.35,0-.24.45-.87.58-.91,1.17,0,.08-.09.15-.16.22-.61.66-1.22,1.32-1.85,2-.27.28-.55.56-.84.83s-.63.51-.94.77a.89.89,0,0,0,1.08.44,16,16,0,0,0,1.66-.52A16.84,16.84,0,0,1,94.75,95a2.14,2.14,0,0,1-1.2,1c-.76.31-1.51.61-2.26.93s-1.31.59-2,.91-1.5.74-2.2,1.19a18.42,18.42,0,0,0-2,1.54,15.82,15.82,0,0,0-2,1.9c-.94,1.18-1.65,2.54-2.71,3.64-.36.37-.66.79-1,1.15a10.59,10.59,0,0,0-1.56,1.78,10.06,10.06,0,0,1-1.06,1.46,14.39,14.39,0,0,0-1.87,2.6,23.33,23.33,0,0,1-2.61,3.49c-.46.55-.67.53-1.38.06a6.27,6.27,0,0,1,.51-1c.85-1.19,1.73-2.35,2.59-3.53a20.19,20.19,0,0,0,1.69-2.29,23,23,0,0,1,1.43-2.11c.39-.55.81-1.07,1.21-1.61.27-.38.6-.8.47-1.26s.12-.83.48-1.1a37.45,37.45,0,0,0,3.56-3c.23-.22.52-.38.76-.6a4.17,4.17,0,0,0,.58-.68c.28-.43.13-.76-.36-.89-.31-.09-.63-.18-.94-.24a.59.59,0,0,0-.4,0c-.22.16-.43.09-.66.09a3.62,3.62,0,0,1-1.76-.76,1,1,0,0,1-.54-.84,2.22,2.22,0,0,0-.31-.68l-.24,0-.12.07a2.93,2.93,0,0,0-2.16,1.79.69.69,0,0,1-.15.24c-.77,1-1.52,1.92-2.31,2.86a5.82,5.82,0,0,0-1.13,1.8,6.07,6.07,0,0,1-.31.69,21.94,21.94,0,0,0-1.27,3.14A6.14,6.14,0,0,1,70.48,109a3.68,3.68,0,0,1-2.09,1.16,2.13,2.13,0,0,1-2-.73,2.32,2.32,0,0,1-.54-2c.17-.85.45-1.69.55-2.55a2.45,2.45,0,0,1,1.1-1.56c.22-.2.42-.43.63-.65a11.25,11.25,0,0,1,.93-1c.62-.53,1.27-1,1.91-1.49,1.07-.81,2.13-1.63,3.22-2.42.82-.6,1.67-1.16,2.5-1.75a7,7,0,0,1,.78-.56c.69-.33,1.39-.62,2.1-.91a2,2,0,0,0,1.36-1.25A2,2,0,0,1,82.2,92c1.28-.48,2.54-1,3.81-1.5,1-.41,2.07-.81,3.1-1.25a2.11,2.11,0,0,0,.67-.48c.25-.26.22-.48-.09-.7s-.91-.62-1.39-.9a11,11,0,0,0-2-.69,5.17,5.17,0,0,0-2.41,0,27.64,27.64,0,0,0-3.25.7,2.57,2.57,0,0,0-1,.55c-.92.81-1.79,1.68-2.71,2.49a13.14,13.14,0,0,0-1.25,1.56c-.8,1-1.67,1.87-2.53,2.78a1.35,1.35,0,0,1-.56.36,2.79,2.79,0,0,1-2.92-.51,1.33,1.33,0,0,1,.06-2.16c1.07-.72,2.13-1.47,3.26-2.1a23,23,0,0,0,4-3,4,4,0,0,1,1.3-.79,11.21,11.21,0,0,0,3.25-1.56c.13-.09.3-.28.28-.4s-.27-.26-.5-.22c-.52.1-1,.18-1.55.3a4.73,4.73,0,0,0-2.66,1.26,1.57,1.57,0,0,1-.45.31,5,5,0,0,0-1.33,1.08,2.54,2.54,0,0,1-2.37.68c-.4,0-.55-.29-.49-.7a1.2,1.2,0,0,1,.56-.92c.76-.44,1.51-.91,2.3-1.28a10.51,10.51,0,0,1,3.06-1.16,3,3,0,0,0,.79-.29A4.36,4.36,0,0,1,80.86,83c.58,0,1.16.06,1.71.09.23.29.43.57.67.82a2.53,2.53,0,0,0,2.07.61,7.92,7.92,0,0,1,3.86.75,2.36,2.36,0,0,0,.61.15.72.72,0,0,0,.15-1,1.21,1.21,0,0,0-.53-.6,5.84,5.84,0,0,0-2.7-.55,2.35,2.35,0,0,1-.7,0,5.44,5.44,0,0,1-.8-.29c.27-.16.41-.31.54-.31a14.7,14.7,0,0,1,2.3,0c.77.09.95,0,1.06-.74a2.35,2.35,0,0,1,1-1.82,5.24,5.24,0,0,0,.77-.43,5,5,0,0,1,3.41-1.34c.76,0,1.51-.2,2.27-.21,1,0,2,.05,2.93.08a8,8,0,0,0,1,0c.65-.06,1.29-.24,1.94-.24,1.35,0,2.7.11,4,.17l.13,0c.75.16.76.15,1.2-.54-.13-.23-.29-.48-.42-.74a5.64,5.64,0,0,0-1.42-1.58,7.52,7.52,0,0,0-3.23-1.55,1.07,1.07,0,0,1-.85-.68c-.18-.46-.56-.55-1.06-.28l.55.63-.69.39a1.15,1.15,0,0,1-.37.18,3.52,3.52,0,0,1-1.76-.31.67.67,0,0,1-.35-1,1.82,1.82,0,0,1,.7.06A1.11,1.11,0,0,0,100,72.7a2.35,2.35,0,0,0-1.16-.8c-.85-.36-1.75-.65-2.56-1.09-1.26-.7-2.53-1.37-3.85-2A7,7,0,0,0,90,68a6.35,6.35,0,0,1-1.14-.21,1.6,1.6,0,0,0-1.59.49,10.66,10.66,0,0,0-.88.9c-.37.48-1,.76-1.17,1.39.35.66.94.63,1.53.58s1.33-.17,2-.21a1.47,1.47,0,0,1,1.18.46c-.41.91-1.42.75-2,1.25-.08.07-.31-.06-.47-.09A3.4,3.4,0,0,0,87,72.5c-.64,0-1.1.52-1.73.54-.15,0-.27.28-.42.31-.62.13-1.24.22-1.86.3s-1.09.12-1.63.16a23.56,23.56,0,0,0-2.46.45,9.59,9.59,0,0,0-2.78.88,20.45,20.45,0,0,1-3.47,1.58,5.86,5.86,0,0,0-1.18.4,47.79,47.79,0,0,0-4.84,2.46c-1.4,1-2.84,1.9-4.27,2.85L59,84.67a4.41,4.41,0,0,0-.49.39c-.24.22-.46.45-.71.65A1.9,1.9,0,0,0,57,87a19,19,0,0,0-.24,2.26c0,1.3.08,2.6.12,3.9a2,2,0,0,0,0,.35c.1.35.52.58.74.39.52-.45,1-.92,1.52-1.39a26.3,26.3,0,0,1,2.38-2.23c1.26-.93,2.65-1.69,3.95-2.59a11,11,0,0,0,2-1.7,12.76,12.76,0,0,1,1.85-1.68,4.06,4.06,0,0,1,1.59-.69.82.82,0,0,1,.92.33,16.91,16.91,0,0,0-1.71,1.49A27.76,27.76,0,0,1,65.75,89a28,28,0,0,0-3.2,2.55c-1.6,1.63-3.23,3.23-5,4.7a1.38,1.38,0,0,0-.44.83,2.6,2.6,0,0,0,.07,1.24,23.25,23.25,0,0,1,.49,2.87c.23,1,.35,2.08.57,3.12.14.65.4,1.27.55,1.92.2.85.29,1.74.53,2.57.44,1.5,1,3,1.45,4.47.32,1,.67,1.9,1,2.85a4.21,4.21,0,0,0,.3.55,3.65,3.65,0,0,1,.33.61,23.22,23.22,0,0,0,1.3,3c.32.72.58,1.46.94,2.15.57,1.1,1.21,2.17,1.82,3.25A27.72,27.72,0,0,0,69,129.49,11.47,11.47,0,0,1,70.1,131a23.28,23.28,0,0,0,2.12,3c.79,1,1.69,1.89,2.48,2.88a15.65,15.65,0,0,0,1.84,2.06.92.92,0,0,1,.23.25,12.66,12.66,0,0,0,2.6,2.67c.84.74,1.74,1.4,2.51,2.2a18.06,18.06,0,0,0,3.1,2.55c1.28.84,2.52,1.75,3.78,2.61s2.34,1.6,3.55,2.32c1.06.64,2.18,1.16,3.26,1.75.8.43,1.55.94,2.38,1.31,2,.85,3.9,1.77,5.92,2.42,1.39.45,2.73,1,4.16,1.34,1.17.26,2.35.52,3.53.74s2.59.45,3.89.66c.6.1,1.2.19,1.79.26.79.1,1.57.17,2.36.25l2,.19c1.43.14,2.88-.1,4.31.18.15,0,.32-.07.48-.07l1.45,0c.11,0,.22.05.33.05l3.11-.2.56,0,3.87-.53c.66-.09,1.32-.16,2-.28s1.13-.31,1.7-.38a24.31,24.31,0,0,0,4.48-1,18.29,18.29,0,0,1,2-.67,32.45,32.45,0,0,0,4.8-1.67c1.23-.45,2.4-1.06,3.59-1.62.8-.38,1.55-.87,2.38-1.17a23,23,0,0,0,4-2.08c1.11-.66,2.17-1.4,3.22-2.17a27.68,27.68,0,0,1,2.52-1.62,31.76,31.76,0,0,0,3.65-2.76c1.12-.88,2.2-1.83,3.29-2.76a6.4,6.4,0,0,0,.72-.65c.89-1,1.76-2.09,2.66-3.12,1.2-1.39,2.41-2.77,3.64-4.12a28.63,28.63,0,0,0,2.48-3.42l1.44-2.12c.54-.78,1.11-1.53,1.59-2.34.66-1.1,1.26-2.24,1.86-3.38.43-.84.83-1.7,1.23-2.57.31-.68.61-1.38.91-2.07s.65-1.33.92-2c.43-1.11.83-2.23,1.23-3.36s.77-2.2,1.12-3.31c.19-.56.3-1.15.45-1.72.23-.87.49-1.73.7-2.6.14-.56.21-1.13.32-1.7.18-.94.42-1.87.56-2.81s.18-2.07.32-3.1A.89.89,0,0,0,194.93,96.28ZM83.58,112.13c-.28-.33-.12-.6.09-.86.43-.51.87-1,1.3-1.54.17-.2.33-.4.55-.68A6.65,6.65,0,0,1,83.58,112.13ZM103.46,97.6c-.44.5-.84,1-1.26,1.53a6,6,0,0,1-1.86,1.63,6.13,6.13,0,0,0-2.24,2,9.15,9.15,0,0,0-1.55,2.43c-.09.27-.45.5-.74.67a5,5,0,0,1-1.15.46,1.31,1.31,0,0,1-.68,0,.65.65,0,0,1-.53-.64c0-.5-.08-1-.08-1.48a2.5,2.5,0,0,1,.76-1.87l1.49-1.43a16,16,0,0,1,4.17-3c1-.46,1.92-.94,2.88-1.41a2.23,2.23,0,0,1,1.39-.31A1.57,1.57,0,0,1,103.46,97.6Zm7.4,1a10.63,10.63,0,0,0-1.13,1.3,7,7,0,0,1-1.8,1.7c-.72.36-1.6.9-2.54.08a1.55,1.55,0,0,1,.64-1.45,3.23,3.23,0,0,0,.51-.47,2.42,2.42,0,0,1,1.25-.81,5.58,5.58,0,0,0,1.08-.62,5.05,5.05,0,0,1,2.92-.73A7.39,7.39,0,0,1,110.86,98.62Z"/><path d="M156.58,93.78l0,0,0,0-.09,0h0Z"/><path d="M61.71,66.33,62,66.2A35.14,35.14,0,0,1,66,63.92c1.75-.94,3.67-1.53,5.44-2.45.24-.12.51-.21.76-.32,1-.4,2-.64,3-.95a22.74,22.74,0,0,1,4.38-.78c1.32-.14,2.65-.13,4-.16s2.69,0,4,0c.16,0,.32,0,.48,0a11.84,11.84,0,0,0,1.88,0,16,16,0,0,1,3.66.14,18.32,18.32,0,0,1,1.91.36.93.93,0,0,0,.4-.06c1.25-.45,2.5-.9,3.74-1.37a1.07,1.07,0,0,0,.5-.42c.27-.48.34-.51.84-.25a1.5,1.5,0,0,0,.71.21,12.71,12.71,0,0,0,1.51-.06c.35,0,.69-.12,1-.13a9,9,0,0,0,3.49-.57c.6-.25,1.29-.42,1.52-1.25a2.77,2.77,0,0,1,.71.34c.41.38.75.82,1.14,1.21.77.76,1.11,1.89,2.11,2.45.65.36,1.27.77,1.92,1.13s1.07.51,1.71.82a1.38,1.38,0,0,0,1.21,1c.11-.85.09-.91-.45-1.46A1.8,1.8,0,0,1,117,60a.58.58,0,0,0,0-.22,7.84,7.84,0,0,0,.6-.74.69.69,0,0,1,.62-.36c.6,0,.94.25,1.18,1,.17.51.33,1,.46,1.52a40.86,40.86,0,0,0,1.44,4.56A2.69,2.69,0,0,0,122.48,67c.09-.23.24-.41.21-.58-.13-1-.29-2.09-.46-3.13-.09-.55-.22-1.09-.31-1.63-.13-.82-.24-1.64-.37-2.46-.15-1-.32-2-.47-3.07-.07-.55-.07-1.11-.16-1.65a1.85,1.85,0,0,1,1-2.31,5.3,5.3,0,0,0,.91-.73,1.58,1.58,0,0,1,2.17-.26c.36.19.74.32,1.11.48a3.7,3.7,0,0,0,0-3,42.3,42.3,0,0,1-1.3-4.52c-.35-1.27-.58-2.57-.84-3.86-.08-.4-.09-.82-.16-1.23-.13-.81-.26-1.63-.42-2.44a4,4,0,0,0-.33-.89c-.54-1.13-1.09-2.24-1.63-3.37a14.15,14.15,0,0,1-.81-1.83c-.23-.69-.26-1.45-.52-2.13a9.42,9.42,0,0,1-.47-2.82,19.31,19.31,0,0,1,.09-3.31,4.57,4.57,0,0,1,1.57-2.82,1.55,1.55,0,0,0-1.22-.25l-1.16.13c-.6.06-1.2.1-1.8.18s-1.46.26-2.2.29a7,7,0,0,0-1.59.43.43.43,0,0,0-.25.72,3.24,3.24,0,0,1,.61,1.43,11.91,11.91,0,0,1,.44,2.82,7.08,7.08,0,0,0,.68,3.14c.37.63.58,1.35.89,2s.71,1.34,1,2c.19.42.29.87.46,1.3.43,1,.94,2,1.32,3,.61,1.65,1.15,3.32,1.7,5a1.83,1.83,0,0,1,.06,1,6.48,6.48,0,0,0-.21,1.86,8.56,8.56,0,0,1,0,1.24.54.54,0,0,1-.46.53.46.46,0,0,1-.61-.32c-.18-.51-.35-1-.5-1.57-.45-1.46-.89-2.91-1.31-4.37-.29-1-.56-2-.84-3a1.65,1.65,0,0,0-.14-.46c-.38-.69-.78-1.36-1.17-2a.76.76,0,0,1-.13-.31,3.82,3.82,0,0,0-.91-2.13,8,8,0,0,1-.83-.92,22.82,22.82,0,0,1-1.58-2.46A8.79,8.79,0,0,0,110,26.75a15.26,15.26,0,0,0-2-1.47,5.41,5.41,0,0,1-1.18-.83,13.89,13.89,0,0,1-1.06-1.93c-.17-.36-.34-.49-.69-.36a36.61,36.61,0,0,0-3.93,1.51c-1,.5-2,.84-3,1.28-1.29.56-2.59,1.13-3.86,1.74-.81.39-1.59.83-2.35,1.29-.4.24-.39.61,0,.91a3,3,0,0,0,.3.18,1.17,1.17,0,0,0,1.9-.44,2.91,2.91,0,0,1,1.24-1.09,9.2,9.2,0,0,1,2.38-.46A4.2,4.2,0,0,1,99.08,27c1.44.2,2.89.47,4.33.72a10.52,10.52,0,0,0,1.36.26,5.29,5.29,0,0,1,3.46,1.72c1.15,1.07,1.91,2.54,3.36,3.3l0,0A12.74,12.74,0,0,1,114,36a.72.72,0,0,1-.06.95.88.88,0,0,1-1.38.22c-.52-.36-1-.79-1.48-1.18a4.1,4.1,0,0,0-.79-.54c-1.31-.61-2.68-1.1-3.91-1.83a8.35,8.35,0,0,0-3.05-1.13,2.76,2.76,0,0,0-1.91.44,2.43,2.43,0,0,0-.43.54.7.7,0,0,0-.83-.12,7.36,7.36,0,0,1-2.87.75c-.68,0-1.44.15-2-.42a3.64,3.64,0,0,1-1.21-2.12,1.51,1.51,0,0,0-1-1.34c-.82-.36-1.62-.74-2.41-1.14a.51.51,0,0,0-.58,0c-.45.28-.92.53-1.37.82-1,.68-2.1,1.37-3.13,2.08a6.65,6.65,0,0,0-.71.7,2.09,2.09,0,0,0,.44.34,5.88,5.88,0,0,0,3.22.21,1.74,1.74,0,0,1,.75,0c.6.16,1.18.42,1.79.55A26.77,26.77,0,0,1,95,35c1.14.45,2.25,1,3.38,1.47a5.69,5.69,0,0,1,.56.26,29.07,29.07,0,0,0,3.94,1.89c.55.21,1.06.49,1.58.75.31.16.36.38.11.68a1.24,1.24,0,0,0-.19.56.49.49,0,0,1-.77.35c-.16-.1-.29-.24-.45-.32-1-.52-2-1.06-3-1.53a8.06,8.06,0,0,0-3.06-.86,18.41,18.41,0,0,1-3.77-.6c-.65-.18-1.33-.23-2-.39a10.06,10.06,0,0,0-2.67-.37c-.63,0-1.27,0-1.89,0a1.56,1.56,0,0,0-.67.18,14.06,14.06,0,0,0-1.31.86c-.51.36-1,.74-1.49,1.14s-1.16,1.07-1.78,1.55a7.87,7.87,0,0,0-2.37,3.05,2.22,2.22,0,0,0-.18.67c0,.6.32.83.88.59a10.38,10.38,0,0,1,1.88-.75,18.62,18.62,0,0,1,4.56-.9,5.9,5.9,0,0,1,3.28.13c1,.18,2,.53,3,.81.3.09.57.09.73-.21a.73.73,0,0,1,.7-.36,6.07,6.07,0,0,1,4,1.24,1.25,1.25,0,0,0,1,.24c.79-.31,1.51-.79,2.29-1.14,1-.46,2-.85,3.08-1.26a.49.49,0,0,1,.27,0c1.16.1,2.32.17,3.46.34a5.15,5.15,0,0,1,2.73,1.14c.27.24.46.58.74.81a11.23,11.23,0,0,1,2,2.79c.73,1.11,1.35,2.3,2,3.46a7.47,7.47,0,0,0,.58,1,3.91,3.91,0,0,1,.75,1.63,7.36,7.36,0,0,1,.14,1.16c-.47.34-.48.35-.84,0a22.24,22.24,0,0,1-1.71-1.8c-.59-.73-1.09-1.54-1.62-2.32a8.24,8.24,0,0,0-2.45-2.64,6.11,6.11,0,0,0-3.59-.93,2.9,2.9,0,0,0-.73.29,5.61,5.61,0,0,0,.66.94,18.78,18.78,0,0,1,2.64,3,1.62,1.62,0,0,1,.24,1.2,4.52,4.52,0,0,1-1.49-1.6A16.46,16.46,0,0,0,105,48a1.18,1.18,0,0,0-1.52-.17,2.77,2.77,0,0,1-.26.1c-.57.2-.67.45-.28.9a6.73,6.73,0,0,0,1.32,1.24,12,12,0,0,1,2.55,2.22,1.19,1.19,0,0,0,.2.19,6.33,6.33,0,0,1,1.5,1.76.94.94,0,0,1,.1,1.11,16.78,16.78,0,0,1-1.47-1.06c-.82-.75-1.59-1.54-2.38-2.32a9.22,9.22,0,0,1-1-1.14,5.57,5.57,0,0,0-1.64-1.46c-.57-.37-.86-.22-1.25.35a20.09,20.09,0,0,0-1.09,2.53c-.35.69-.61,1.41-.91,2.11s-.46,1.11,0,1.67c.07.09.06.25.1.51-.58-.27-.93.07-1.22.37a6.34,6.34,0,0,1-2.34,1.48,3.38,3.38,0,0,1-2,0,14.13,14.13,0,0,1-2.06-.84,1.14,1.14,0,0,1-.51-.53A2.33,2.33,0,0,1,91.06,55a.9.9,0,0,0-.63-1.32,4.67,4.67,0,0,0-.74-.17,4.91,4.91,0,0,0-2.25.1,28.72,28.72,0,0,1-3.25,1.07,4.18,4.18,0,0,0-1.64.83,2.86,2.86,0,0,1-1.53.6c-.41,0-.57-.11-.61-.55s0-.63-.09-.94A1.45,1.45,0,0,1,81,53.13a6.12,6.12,0,0,1,3.4-1.1q2,0,3.9,0a8.39,8.39,0,0,1,2.33.41,1.34,1.34,0,0,0,1.48-.29,37.72,37.72,0,0,0,2.72-2.79,3,3,0,0,1,1.15-1,2.86,2.86,0,0,0,1.68-2.07c-.41-.88-1.25-1-2.06-1.23s-1.59.08-2.22-.41l-.15,0a2.84,2.84,0,0,1-2.47.62.83.83,0,0,0-.35,0c-.67.16-1.41,0-2,.55a.7.7,0,0,1-.33.09l-3.4.74a12.4,12.4,0,0,0-4.07,1.12,2.55,2.55,0,0,0-.91.71,2,2,0,0,1-.94.69A5.19,5.19,0,0,0,76.61,51a26.27,26.27,0,0,1-1.89,2.21A18.39,18.39,0,0,0,73,55.05a17.61,17.61,0,0,1-1.34,1.75,4,4,0,0,1-2.52,1.3,1.49,1.49,0,0,1-1.59-1.16c-.06-.81,0-1.63,0-2.44,0-.49.08-1,.08-1.46a1.52,1.52,0,0,0-.19-.5,1.27,1.27,0,0,0-.24,0,.86.86,0,0,0-.2.18,38.41,38.41,0,0,0-2.77,5c-.54,1.27-1.21,2.49-1.78,3.75-.25.54-.39,1.13-.59,1.7-.26.78-.53,1.56-.79,2.35a.77.77,0,0,0-.07.27C61,66.31,61.28,66.52,61.71,66.33ZM119,24.8c-.53-.54-.35-1.19-.42-1.83-.8-.45-.75-1.27-.89-2.08.4-.11.68,0,.78.36s.1.73.17,1.09c.11.54.26,1.07.35,1.61A4.82,4.82,0,0,1,119,24.8Z"/><path d="M162.46,49.73h0v0Z"/><path d="M162.46,49.76h0v0h0Z"/><path d="M154.66,36.71c-.87.54-1.76,1-2.62,1.59a11.38,11.38,0,0,0-1.67,1.13c-1,1-2,2-3,3-.33.35-.51.87-.88,1.16a6.19,6.19,0,0,0-1.46,1.8c-.21.36-.58.65-.71,1a7.74,7.74,0,0,1-1.46,2.17,27.25,27.25,0,0,0-2.7,4c-.7,1.24-1.4,2.49-2.11,3.73a7.8,7.8,0,0,0-.9,1.86,10.54,10.54,0,0,1-.57,1.4c-.29.66-.6,1.3-.88,2a1,1,0,0,0,.18.92c.16.27.39.13.62.12a1.23,1.23,0,0,1,1,.33,4.56,4.56,0,0,0,.69.46,3.09,3.09,0,0,1-.24.83,13.66,13.66,0,0,1-1.1,1.52,1.83,1.83,0,0,0-.51,1,5,5,0,0,0,0,1.45,2.57,2.57,0,0,1-.06,1.27c-.49,1.73-.76,3.52-1.4,5.21a2.23,2.23,0,0,0-.07,1c0,.36.25.42.61.32s.75-.15,1.26-.25a1.18,1.18,0,0,0,.07-.48,1,1,0,0,1,.16-.79,5.46,5.46,0,0,0,.5-.92c.39-1,.76-2,1.15-3a48.47,48.47,0,0,1,2-4.87c.66-1.26,1.29-2.54,2.06-3.74.4-.61.88-1.14,1.31-1.71a23.72,23.72,0,0,1,2.53-3c.54-.5,1-1.06,1.6-1.55s1-.69,1.45-1.06c1.43-1.15,2.89-2.25,4.22-3.49a3.33,3.33,0,0,1,1.82-.89,1.78,1.78,0,0,1,2.13,1.08,1.59,1.59,0,0,0,.22.35,2.44,2.44,0,0,1-.11,3.31c-.8.83-1.62,1.65-2.41,2.5a8.72,8.72,0,0,1-3.62,2.25c-.29.1-.57.29-.87.37-.83.22-1.67.41-2.5.61-.26.07-.52.17-.78.25a2.38,2.38,0,0,1-.79,1.7,3.22,3.22,0,0,0-.6.68c-.37.6-.67,1.25-1.05,1.84-.54.81-1.12,1.59-1.69,2.38a5.69,5.69,0,0,1-1.79,1.61,1.24,1.24,0,0,1,0-.34c.34-.66.67-1.32,1-2,.17-.32.41-.62.6-.94a14.31,14.31,0,0,1,.79-1.37,1.07,1.07,0,0,0,.15-1,1.92,1.92,0,0,0-1.06.91c-.5.72-1,1.45-1.46,2.2a7.44,7.44,0,0,0-1,2.22.73.73,0,0,0,.18.75l.56-.2a1.65,1.65,0,0,1-.39,1.19,22.21,22.21,0,0,0-1.65,3.08,18.68,18.68,0,0,0-1.12,2.68c-.41,1-.8,2.06-1.17,3.11-.15.43-.18.9-.31,1.34-.19.66-.45,1.3-.61,2a1.2,1.2,0,0,0,.42,1.45,4.41,4.41,0,0,0,.5-.58c.52-.8,1-1.6,1.51-2.41a24.81,24.81,0,0,1,3.16-3.85L143.19,76c.48-.56,1-1.1,1.43-1.69.25-.34.61-.65.59-1.15s-.15-.6-.59-.57a2.82,2.82,0,0,0-.55.11l-.91.18c.14-.25.18-.39.28-.47a10.84,10.84,0,0,1,2.87-1.8,5.2,5.2,0,0,0,2.78-2.09,8.34,8.34,0,0,1,1.57-1.74c.61-.58,1.15-.48,1.69.2-.23.34-.49.67-.69,1a.6.6,0,0,0,.3.91,1.8,1.8,0,0,0,1,.07,9.55,9.55,0,0,1,2-.39,6,6,0,0,1,2.43-.06,1.76,1.76,0,0,0,1.55-.41,11.1,11.1,0,0,1,1.13-.81c.57-.39,1.17-.75,1.72-1.16a2,2,0,0,0,.42-.57.94.94,0,0,0-.91-.41,7.22,7.22,0,0,1-2.22-.1,1.55,1.55,0,0,0-1.45.27,3.25,3.25,0,0,1-2.41.88.52.52,0,0,1-.22-.06V65.6l-.63-.35c-.74-.39-.69-.28-.67-1.26a.69.69,0,0,1,.71-.71,1.15,1.15,0,0,1,.71.24,1.53,1.53,0,0,0,1.16.36c.31,0,.61,0,.91,0l4.07-.28c.39,0,.78-.08,1.17-.1,1.14,0,2.28,0,3.41-.13a2.75,2.75,0,0,0,1.27-.36A15.32,15.32,0,0,1,170,61.93a.88.88,0,0,1,.86,0c-.18.3-.34.6-.51.9.62.53,1.4.47,2.05.75a1.69,1.69,0,0,0,1.47-.11,5.26,5.26,0,0,1,.6-.18c1-.38,2.12-.71,3.14-1.15a17.55,17.55,0,0,1,3.51-1.49c1.42-.27,2.73-1,4.23-.94l.07,0a13.19,13.19,0,0,1,3.55,0c.48.05.72-.18.56-.64a10.56,10.56,0,0,0-.49-1.21c-.58-1.16-1.18-2.32-1.8-3.46a5.19,5.19,0,0,0-.67-.89.62.62,0,0,0-.85-.2,4.83,4.83,0,0,1-1.08.23c-.42.08-.86.1-1.27.21-1.1.29-2.21.58-3.28,1a.94.94,0,0,1-1.22-.33c.32-.29.64-.59,1-.86.64-.5,1.29-1,1.94-1.47A5.45,5.45,0,0,1,183.88,51c.74-.16,1-.54.56-1.19s-.9-1.23-1.37-1.84c-.31-.4-.67-.77-1-1.18-.46-.63-.86-1.32-1.34-1.94a2.13,2.13,0,0,0-1.19-1c-.43-.09-.85-.23-1.27-.32a3.2,3.2,0,0,0-1.08-.19c-.85.1-1.69.28-2.54.45A5.07,5.07,0,0,0,174,44l-1,.44c-.37.18-.76.34-1.12.55a36.4,36.4,0,0,1-4.47,2.53c-.32.13-.65.24-1,.35a9.59,9.59,0,0,0-1.18.39c-.94.48-1.87,1-2.8,1.5v0h0a1.45,1.45,0,0,1-.91.82c0-.52.21-.72.91-.82l0,0h0a.56.56,0,0,1,0-.23,10.78,10.78,0,0,1,1.9-2.2c.21-.18.44-.34.65-.52.51-.44,1-.91,1.53-1.31a2,2,0,0,0,.77-2.19.47.47,0,0,0-.75-.32,9.05,9.05,0,0,0-1,.57c-.41.26-.8.56-1.21.81A4.22,4.22,0,0,1,162,45c-.62,0-1.24-.09-1.85-.12a16.15,16.15,0,0,0-2.62.25,5,5,0,0,0-1,.14c-.71.21-1.42.45-2.11.72a2.19,2.19,0,0,0-.75.5,9.21,9.21,0,0,1-2.26,1.61,8.44,8.44,0,0,0-2.55,2.2,3.09,3.09,0,0,1-1.14,1,3.57,3.57,0,0,0-1.32,1.21c-.23.32-.51.6-.76.9a10.59,10.59,0,0,0-1.44,1.78,10.23,10.23,0,0,1-1.06,1.59c-.75,1-1.46,2-2.21,3-.5.64-1,1.26-1.55,1.88-.14.18-.33.46-.67.4.21-1.12.21-1.12-.5-1.37a1.5,1.5,0,0,1,.09-.32c.62-1.14,1.23-2.27,1.88-3.39.31-.54.69-1,1.05-1.56a.7.7,0,0,1,.63-.36,1.1,1.1,0,0,0,.84-.41,23.6,23.6,0,0,0,3.53-4.79.52.52,0,0,0,.1-.26c0-.69.53-1,1-1.4a13.81,13.81,0,0,0,1.85-1.65c.67-.71,1.4-1.36,2.13-2,.93-.84,2.16-1.23,3.11-2.08a21.19,21.19,0,0,1,2.31-1.62,9.64,9.64,0,0,1,1.55-1A28,28,0,0,1,163,38.05c.35-.08.68-.29,1-.39a3.07,3.07,0,0,1,1.35-.3A4.22,4.22,0,0,1,168,38.58c.45.53.87,1.08,1.27,1.64a1.14,1.14,0,0,1,.09.57,3.59,3.59,0,0,1-.33,1.54,4.21,4.21,0,0,0-.14.84c.6.31.65.3,1.06,0a7.4,7.4,0,0,1,.69-.45c.26-.16.55-.27.79-.45A13.32,13.32,0,0,1,175,40.18c.77-.27.82-.81.19-1.35-.22-.2-.44-.41-.64-.63s-.32-.39-.5-.56c-.85-.78-1.69-1.56-2.55-2.33-.56-.49-1.14-1-1.71-1.43-.19-.16-.37-.34-.57-.5l-.64-.52c-.26-.19-.54-.36-.79-.56a2.94,2.94,0,0,0-2.38-.71c-.32,0-.64.31-.94.51-1.18.77-2.36,1.54-3.52,2.34A11.09,11.09,0,0,1,157.27,36,8.46,8.46,0,0,0,154.66,36.71Zm23.8,8.68c-.19.16-.34.36-.53.4a2.78,2.78,0,0,0-1.63,1c-.14.19-.33.36-.58.13C176.05,45.82,177.59,44.93,178.46,45.39Zm-16.7,9.82a17.39,17.39,0,0,1,1.88-1.41c.31-.24.62-.48,1-.7.72-.46,1.44-.93,2.19-1.35a10.85,10.85,0,0,0,1.55-1.14,8,8,0,0,1,2.34-1.45,7.78,7.78,0,0,1,1.08-.14,3.16,3.16,0,0,0,.79-.25c.59-.29.83-.24,1.24.26a2.47,2.47,0,0,0,.53.54,1.17,1.17,0,0,1,.5,1,1.72,1.72,0,0,1-.42,1.4c-.47.49-.77,1.16-1.25,1.65a2,2,0,0,1-1.85.6,4.63,4.63,0,0,0-2.16-.16,1.38,1.38,0,0,1-.48-.06,12,12,0,0,0-1.46-.11,5,5,0,0,0-3.05,1.15c-1.31,1.05-2.45,2.27-3.66,3.4-.49.46-1,.85-1.56,1.29s-.92.91-1.39,1.35a3.83,3.83,0,0,1-.59.49c-.73.43-.88.55-1.65-.12a4.38,4.38,0,0,1,1.18-1.68c.57-.59,1.21-1.13,1.82-1.68a4.63,4.63,0,0,1,.48-.4A20.36,20.36,0,0,0,161.76,55.21Z"/><path d="M126.64,20.76a4,4,0,0,1,1.72,2.34c.3.91.37,1.89.6,2.83.16.67,0,1.39.5,2a.61.61,0,0,1,0,.48,7.53,7.53,0,0,1-.61,2.25,2.26,2.26,0,0,0-.14.92,5.41,5.41,0,0,1-.13,1.08,13,13,0,0,0-.5,3.49,4.07,4.07,0,0,0,.11,1.1,26.69,26.69,0,0,1,.44,3.78,7.76,7.76,0,0,1-.13,1.17c-.1,1-.18,2.07-.3,3.1a2.66,2.66,0,0,0,0,.8,2.27,2.27,0,0,1-.05,1.13,6.66,6.66,0,0,0-.28,2.25,20.46,20.46,0,0,0,.08,3.91c.15,1,.09,2,.17,3s.21,1.88.31,2.82a18.73,18.73,0,0,1,.22,2.47,7.47,7.47,0,0,0,.25,1.66l.16,0a1.66,1.66,0,0,0,.17-.32,4.43,4.43,0,0,1,.32-1.19,4.09,4.09,0,0,0,.52-1.89c.08-1.19.22-2.39.26-3.59,0-.76-.14-1.52-.11-2.28a68.53,68.53,0,0,0-.26-7,6.63,6.63,0,0,1,.27-2.31,3.24,3.24,0,0,1,1-1.66,1,1,0,0,1,1.44-.18,4.35,4.35,0,0,1,1.19,1.15,6.7,6.7,0,0,1,1,3.76c0,.68,0,1.36-.09,2a10.67,10.67,0,0,1-.21,1.79,17.23,17.23,0,0,1-.69,1.94,22.43,22.43,0,0,0-1.17,3.18c-.11.47-.4.89-.5,1.36-.18.9-.31,1.82-.42,2.73-.17,1.35-.26,2.72-.45,4.06a2.76,2.76,0,0,1-.88,1.8c-.13-.34-.24-.62-.36-1-.11.07-.22.1-.24.16a7.48,7.48,0,0,0-.47,2.29,1.28,1.28,0,0,1-.45,1.13,1,1,0,0,0-.31,1.18c.11.3.36.63.31.9a5.63,5.63,0,0,0,0,1.3c0,.92.06,1.85.15,2.77a1.6,1.6,0,0,0,.44,1.22,6.45,6.45,0,0,0,.36-.79c.09-.31.09-.64.16-1s.11-.5.27-.62a3.21,3.21,0,0,0,1-1.49c.4-1,.91-2,1.25-3,.45-1.38.78-2.79,1.17-4.19a1.73,1.73,0,0,1,.54-1.09.48.48,0,0,0,.15-.31,5.73,5.73,0,0,0,.1-1.92c-.33-1.1.27-2,.42-3a10.94,10.94,0,0,1,.92-2.23c.33-.79.64-1.58,1-2.36a5.43,5.43,0,0,1,.71-1.35,12.09,12.09,0,0,0,1.64-2.8,6.49,6.49,0,0,1,1.21-2.08,2.34,2.34,0,0,0,.45-.63,30.31,30.31,0,0,1,2.44-3.7c.8-1.08,1.69-2.09,2.44-3.2a44.33,44.33,0,0,1,3.52-4.21,23.43,23.43,0,0,0,2.1-2.58A9.17,9.17,0,0,1,153.46,32a16.48,16.48,0,0,0,2.5-2.51,6.33,6.33,0,0,1,1.95-1.62c.36-.18.7-.41,1.14-.67a4.91,4.91,0,0,0-.66-.53c-.89-.45-1.79-.88-2.68-1.31s-1.78-.89-2.69-1.3c-.57-.26-1.16-.47-1.74-.71-.39-.16-.76-.36-1.16-.49-.7-.23-1.43-.39-2.13-.63a28.18,28.18,0,0,0-4.5-1.2c-.33-.06-.53,0-.66.3a2.68,2.68,0,0,1-.41.64c-.55.69-1.12,1.35-1.68,2-.23.28-.43.6-.66.89a14.84,14.84,0,0,0-1.44,1.85,27.71,27.71,0,0,0-1.38,3.16c-.43,1.12-.78,2.27-1.16,3.41-.21.63-.4,1.27-.62,1.9a20.82,20.82,0,0,0-.74,2.14c-.11.52-.42.76-.87,1.13a4,4,0,0,1-.11-1.17,2.12,2.12,0,0,0-.14-1.34,1.78,1.78,0,0,1-.17-.8c.1-.8.27-1.59.39-2.38.1-.61.12-1.24.26-1.84.22-1,.51-1.91.75-2.87a3.85,3.85,0,0,0,.11-.82,6.3,6.3,0,0,1,.13-2.37c0-.06,0-.14,0-.21.14-.77.27-1.54.4-2.31,0-.23.17-.48.1-.66a1,1,0,0,1,.2-.91c.17-.27.36-.52.56-.83a2.45,2.45,0,0,0-1.07-.43,15.39,15.39,0,0,0-4-.5s-.05,0-.07,0c-1.39-.06-2.79-.14-4.18-.18a6.17,6.17,0,0,0-1.06.17A1.58,1.58,0,0,0,126.64,20.76ZM136.4,45.5c.32-1,.54-2,.82-3.06a7.17,7.17,0,0,1,.3-.71c.78-1.92,1.57-3.84,2.32-5.78.34-.88.58-1.8.86-2.7a15,15,0,0,1,.91-2.33,10,10,0,0,0,.64-2,1.57,1.57,0,0,1,.72-1,6.25,6.25,0,0,0,1.26-1.15,3.52,3.52,0,0,1,2-1.2c.76-.11,1.53-.11,2.3-.17a1,1,0,0,1,.76.29A1.81,1.81,0,0,1,150,27.8c-.15.46-.16,1-.32,1.47A5,5,0,0,1,147,32.14a9.43,9.43,0,0,0-2.53,1.79,4.06,4.06,0,0,0-.68,1c-.71,1.45-1.38,2.93-2.12,4.37-.45.87-1,1.69-1.51,2.56s-.87,1.8-1.42,2.62a11.27,11.27,0,0,0-1.35,2.6c-.14.37-.44.35-.71.51A2.09,2.09,0,0,1,136.4,45.5Z"/><path d="M156.72,83.25v0Z"/><path d="M156.72,83.25h0Z"/><polygon points="156.72 83.25 156.74 83.25 156.72 83.25 156.72 83.25 156.72 83.25 156.72 83.25"/><path d="M163.63,81.29c1.05-.29,2.11-.56,3.16-.86.58-.17,1.14-.42,1.72-.55,2.16-.46,4.32-.89,6.47-1.35a1.47,1.47,0,0,0,1.23-.81c-.16-.2-.32-.44-.51-.65a5,5,0,0,1-1.26-1.65,3.85,3.85,0,0,0-.5-.74,1.89,1.89,0,0,1-.3-.58,7.14,7.14,0,0,0-1.43-3,9.1,9.1,0,0,0-1-1,1.78,1.78,0,0,1-.5-1.1,2,2,0,0,0-1.17-1.74c-.92-.38-1.8-.85-2.71-1.26a2.28,2.28,0,0,0-2-.14,35.74,35.74,0,0,0-3.28,1.63,3,3,0,0,0-1.28,1.41c.06.1.08.21.15.26.29.27.61.5.88.78.46.47.92,1,1.35,1.47a3.38,3.38,0,0,1,1.13,2.35c0,.77.56,1.11,1.28.83,1.21-.47,2.41-1,3.61-1.48a1.12,1.12,0,0,1,.9-.09A6.93,6.93,0,0,1,167,74.55a19,19,0,0,0-1.82.87,17.34,17.34,0,0,1-2.75,1.32,10.9,10.9,0,0,1-1.61.43,3,3,0,0,0-.66.22c-.49.26-1,.58-1.44.84s-.82.37-1.33.59c0-.21,0-.33.06-.37a3.59,3.59,0,0,1,1.26-1,1.89,1.89,0,0,0,.57-.28c.31-.2.35-.38.15-.7a1.36,1.36,0,0,0-.33-.35,6.87,6.87,0,0,0-1.91-1.11,3.09,3.09,0,0,1-2-1.76.88.88,0,0,0-.43-.44,2.75,2.75,0,0,1-1.28-1.41,1.29,1.29,0,0,0-1.14-.68,5.82,5.82,0,0,0-2.34.34.91.91,0,0,0-.39.28c-.25.33-.47.68-.69,1s-.55.9-.8,1.36a6,6,0,0,0-.69,1.51,10.38,10.38,0,0,1-1.06,2.83,8,8,0,0,0-.56,1.19.88.88,0,0,0,0,.7.7.7,0,0,1,0,1c-.16.19-.27.43-.42.63l-2.12,2.79a4.15,4.15,0,0,0-.55.79c-.36.83-.68,1.67-1,2.51a1.83,1.83,0,0,0,0,.47.92.92,0,0,0,1.07-.11c.71-.48,1.41-1,2.13-1.42.4-.26.48-.22.9.3-.3.34-.6.71-.92,1s-.85.91-1.31,1.32a9.2,9.2,0,0,0-2,1.85,1.15,1.15,0,0,1-.38.3,3.12,3.12,0,0,0-1.18,1.58c.25.38.5.27.75.09.6-.43,1.2-.88,1.81-1.3.82-.56,1.64-1.12,2.47-1.66.68-.44,1.39-.83,2.08-1.26a6.81,6.81,0,0,1,.8-.56,27.49,27.49,0,0,0,3.6-2.1c.65-.39,1.27-.84,1.89-1.29A24.26,24.26,0,0,1,156,83.42a2.31,2.31,0,0,1,.71-.17h0v.59a1.24,1.24,0,0,0,1.2.28,6,6,0,0,1,1.47,0,.29.29,0,0,1,.23.1c.23.46.65.34,1,.3a3,3,0,0,0,1.83-.91C162,82.09,162.52,81.6,163.63,81.29Zm-9.69-.57c-.52.43-1,.86-1.57,1.27-1.09.85-2.2,1.67-3.3,2.51a1.31,1.31,0,0,1-1.07.21c-.4-.07-.57-.36-.4-.71a1.84,1.84,0,0,1,.51-.63c1.06-.79,2.14-1.55,3.22-2.31a6.19,6.19,0,0,1,.67-.36c.4-.23.81-.45,1.2-.7a3.19,3.19,0,0,1,2.22-.48Z"/><path d="M58.71,80.48c1-.61,2-1.25,3.09-1.85a13,13,0,0,0,1.49-.77c1.29-1,2.89-1.35,4.25-2.2,1-.62,2.08-1,3.11-1.54a13.27,13.27,0,0,1,5-1.5,2.59,2.59,0,0,1,.67.1c-.63.64-1.56.76-2,1.54.57.44.94.67,1.14.56.65-.38,1.58-.12,2.06-.9a.42.42,0,0,1,.24-.12l.92-.27a1.26,1.26,0,0,0,.92-.67c.14-.41-.35-.43-.56-.59a.6.6,0,0,1-.19-.75.77.77,0,0,1,.46-.44,1.77,1.77,0,0,1,.76,0c.5.06,1,.2,1.5.23a3.37,3.37,0,0,0,1-.17.51.51,0,0,0,.27-.34,3.24,3.24,0,0,1,.47-1.58c.18-.35.3-.74.48-1.08s0-.9.06-1.4a1.82,1.82,0,0,1,.38-.14,3.27,3.27,0,0,0,2.17-1.12l.1-.1c.7-.56,1.42-1.1,2.11-1.67.36-.3.3-.68-.14-.88a2.36,2.36,0,0,0-.74-.18c-.67,0-1.35-.07-2-.06a45.13,45.13,0,0,0-6.65.85,20.73,20.73,0,0,0-3.4.89c-.52.18-1.07.32-1.59.52a13.07,13.07,0,0,1-2.13.8,20.31,20.31,0,0,0-2.58.8,3.83,3.83,0,0,0-1.7,1.29,13.93,13.93,0,0,0-2,3.7,12,12,0,0,1-1.17,2,13.11,13.11,0,0,1-2.86,3.35,3.88,3.88,0,0,1-2.49,1.08,3.82,3.82,0,0,1-1-.28s-.09,0-.11.08a5.31,5.31,0,0,0-.57,2.54c0,.19.16.41.28.69C58.19,80.76,58.45,80.63,58.71,80.48Zm8.85-9.59c.2-.42.58-.75.56-1.3,0-.18.3-.43.52-.52a33.9,33.9,0,0,1,4.89-2.18,29,29,0,0,1,4.72-1c.6-.06,1.18-.19,1.77-.27a1.8,1.8,0,0,1,.43,0,1.91,1.91,0,0,1-1.53.79,22.49,22.49,0,0,0-2.83.7c-.56.15-1.13.28-1.68.45a2.71,2.71,0,0,0-1.25.82,12,12,0,0,1-1.29,1c-.51.43-1,.9-1.49,1.34s-1.16,1-1.75,1.47a1,1,0,0,1-.44.2c-.61.14-.83,0-.81-.66A2.15,2.15,0,0,1,67.56,70.89Z"/><path d="M107.37,69.58c-1-.65-1.86-1.37-2.81-2a23.41,23.41,0,0,0-2.28-1.42,17.35,17.35,0,0,0-2-.85c-1-.39-2.07-.79-3.12-1.14-.75-.25-1.51-.44-2.27-.63a1.14,1.14,0,0,0-.54.07,3.52,3.52,0,0,0-.51.19A11.8,11.8,0,0,0,91,65c-.14.11-.25.24-.37.35.18.39.36.6.81.58a11.83,11.83,0,0,1,1.66.17,9.69,9.69,0,0,1,4,1.54c.9.52,1.71,1.2,2.59,1.75.71.44,1.47.78,2.2,1.18a7.82,7.82,0,0,0,.93.61,12.09,12.09,0,0,1,2.8,1.64c.06,0,.16,0,.27,0l.07-.64c.78-.23.85-.23,1.42.25a5.31,5.31,0,0,1,.77.8c.25.3.44.65.68,1,.56.7,1.1,1.42,1.7,2.09a22.51,22.51,0,0,0,1.74,1.78c.34.31.62.24.88-.14a1.06,1.06,0,0,0,.2-.56,5.47,5.47,0,0,0-.2-2.57.14.14,0,0,1,0-.07c-.11-.51-.09-.56.54-.77.33.47.67,1,1,1.44a6,6,0,0,0,1.14,1.38c.5.34.69.92,1.21,1.26a1.53,1.53,0,0,0,0-.67c-.15-.7-.29-1.4-.5-2.08a1.59,1.59,0,0,0-.54-.76c-.62-.46-.93-1.19-1.52-1.67,0,0,0-.09,0-.13-.51-1.11-1-2.23-1.54-3.33a9.17,9.17,0,0,1-.73-2.16,44.41,44.41,0,0,0-1.58-4.5A2.34,2.34,0,0,0,109,61.15a22.37,22.37,0,0,0-3.53-.74,11,11,0,0,0-3.72.47,1.16,1.16,0,0,0-.88.73c.38.29.75.6,1.15.86s.85.46,1.23.76c.89.7,1.76,1.43,2.61,2.18.36.32.59.84,1,1.06.93.53,1.27,1.52,2,2.23a.39.39,0,0,1,.09.26c0,.4,0,.79,0,1.26A3.85,3.85,0,0,1,107.37,69.58Z"/><path d="M112.24,89.11a6.29,6.29,0,0,0,2.15,1,7.14,7.14,0,0,1,1.38.43c.76.36,1,.3,1.53-.44a3.79,3.79,0,0,0-.29-.45c-.36-.47-.76-.92-1.1-1.4-.5-.69-1-1.41-1.44-2.11a9.61,9.61,0,0,0-2.32-2.52c-.54-.39-1.09-.78-1.65-1.15a3.11,3.11,0,0,0-.93-.46,24.87,24.87,0,0,0-2.45-.76,4.64,4.64,0,0,0-1.82,0,1.85,1.85,0,0,1-1,0,7.39,7.39,0,0,0-2.68-.31c-.78,0-1,.17-1.33,1a5.68,5.68,0,0,0,.92.54c.72.24,1.47.41,2.19.63.93.29,1.85.59,2.78.9.59.2,1.19.4,1.77.63.09,0,.13.19.26.39a3.92,3.92,0,0,1-.92,0c-.85-.24-1.69-.52-2.52-.8a13.8,13.8,0,0,0-2.18-.7A12.64,12.64,0,0,1,99.85,83a2,2,0,0,0-1.34.12,4.49,4.49,0,0,0-1.26,1,16.77,16.77,0,0,0-1.44,1.6,3,3,0,0,1-2.92,1.15.68.68,0,0,0-.68.31c0,.39.3.53.58.66a1.3,1.3,0,0,0,1.09,0,7.3,7.3,0,0,1,2.69-.59,1.94,1.94,0,0,0,1.56-.65,1,1,0,0,1,1.25-.23,8.94,8.94,0,0,0,2.16.51,5.13,5.13,0,0,0,1.69-.18,9.87,9.87,0,0,1,2.71-.12,8.56,8.56,0,0,1,1.79.34,14,14,0,0,1,3,1.44A14.08,14.08,0,0,1,112.24,89.11Z"/><path d="M188.89,67.3a.92.92,0,0,1-.44-.48c-.26-.47-.44-1.07-.83-1.34a2.93,2.93,0,0,1-1-1.35.75.75,0,0,0-.68-.52c-.94-.06-1.89-.17-2.84-.17a8.69,8.69,0,0,1-2.84-.26,4.37,4.37,0,0,0-3.39.59c-.49.24-.46.68,0,.95a2.71,2.71,0,0,0,.39.17l4.17,1.77c.45.19.92.33,1.35.56a23.58,23.58,0,0,1,3.91,2.65,10.18,10.18,0,0,1,2,2,9.86,9.86,0,0,0,1.1,1.24c.56.58,1.13,1.15,1.72,1.7a18.17,18.17,0,0,1,1.75,2.57,26.37,26.37,0,0,1,1.47,2.39,4,4,0,0,0,.23.34h.19a3.35,3.35,0,0,0,.13-.69,40.61,40.61,0,0,0-.49-4.12,2.75,2.75,0,0,0-1.32-2,6,6,0,0,1-1.77-1.83c-.58-.93-1.07-1.91-1.65-2.82C189.71,68.17,189.47,67.55,188.89,67.3Z"/><path d="M123.94,88.5a3.69,3.69,0,0,0,.15.72,11.79,11.79,0,0,0,.67,2.16,5.9,5.9,0,0,1,.7,1.93c0,.11.16.21.35.43a4.67,4.67,0,0,0,.06-1.56,15.16,15.16,0,0,1-.17-1.51,15.2,15.2,0,0,0-.27-1.5c-.13-.53-.35-1-.48-1.58s-.14-1-.23-1.5a5.06,5.06,0,0,1-.21-1.9c0-.25-.21-.57-.37-.84s-.29-.29-.4-.46a2.87,2.87,0,0,1-.41-1.64,6.43,6.43,0,0,0-.28-2c-.12-.37-.3-.72-.41-1.09-.18-.62-.35-1.24-.49-1.86-.08-.38-.22-.66-.64-.62,0-.29,0-.63-.11-.77a1.84,1.84,0,0,1-.42-1.11,9.77,9.77,0,0,0-.29-1.06,3.46,3.46,0,0,1-.29-1,5.41,5.41,0,0,0-.49-2.15,4.37,4.37,0,0,0-1.3-2.19c-.44-.33-.84-.71-1.26-1a1.64,1.64,0,0,0-.3-.14l-.18.1a5.71,5.71,0,0,0,.21.58,4.07,4.07,0,0,1,.35.6,41.87,41.87,0,0,0,1.69,5.11c.42,1,.63,2.16,1.08,3.19s.84,2.32,1.26,3.49a21.66,21.66,0,0,1,.93,3.38,2.69,2.69,0,0,0,1.27,2c.15.08.33.36.29.48-.19.6.08,1.22-.08,1.77A4,4,0,0,0,123.94,88.5Z"/><path d="M196,86.52a2.51,2.51,0,0,0-.66-1.71h-1l-1.12-.08a.64.64,0,0,0-.72.52,1.4,1.4,0,0,1-1.05,1.16.85.85,0,0,0-.55,1.09,10.92,10.92,0,0,0,.39,1.52c.2.52.3,1.15.87,1.44a1,1,0,0,1,.6.94,5.55,5.55,0,0,0,.05,1.08,3.3,3.3,0,0,0,2.71,2.43,2.52,2.52,0,0,0,.16-.71c0-.87.21-1.71.19-2.59,0-1,.17-2.08.11-3.14C195.94,87.82,196,87.17,196,86.52Z"/><path d="M103.82,88.17c-.63,0-1.25.1-1.87.13a12.18,12.18,0,0,1-2.09,0,3.21,3.21,0,0,0-1.51.15,4.37,4.37,0,0,1-.86.23,3.84,3.84,0,0,0-2.3,1A9.48,9.48,0,0,0,96.42,92a1.15,1.15,0,0,0,1.39.32c.67-.26,1.33-.54,2-.79s1.3-.45,2-.62c.33-.08.71,0,1-.08a6,6,0,0,1,1.88-.15c.51,0,1,0,1.54,0a1,1,0,0,0,1-.5c-.19-.15-.36-.3-.55-.43l-1.36-1A2.71,2.71,0,0,0,103.82,88.17Z"/><path d="M182.08,75.84c.9-.22,1.81-.39,2.72-.58.71-.16.85-.39.43-1.09a6.51,6.51,0,0,0-2-2,6.65,6.65,0,0,0-1-.67c-.93-.42-1.89-.78-2.85-1.13a1.63,1.63,0,0,0-.63.06,10.06,10.06,0,0,0,.45,1.45A10.49,10.49,0,0,0,180,73a1,1,0,0,1,.11.39,1.55,1.55,0,0,1-.72,1.68,4,4,0,0,1,.16.5c.14.76.51,1,1.21.74C181.22,76.18,181.64,76,182.08,75.84Z"/><path d="M182.77,78.18c.81.51,1.65,1,2.45,1.52.6.41,1.16.89,1.75,1.33.39.3.6.23.7-.23a1.27,1.27,0,0,0,0-.55,24.09,24.09,0,0,0-.74-2.51c-.35-.9-.72-1.61-1.87-1.51a7.14,7.14,0,0,0-2.47.48c-.71.25-.82.62-.27,1.16A2.18,2.18,0,0,0,182.77,78.18Z"/><path d="M157.29,85.23a18.8,18.8,0,0,0-3,1.3c-.22.13-.39.33-.6.46l-3.24,2a6.9,6.9,0,0,0-1.88,1.89c-.13.18-.22.37-.06.57s.38.1.56,0l2.46-1.57a32.06,32.06,0,0,1,3.07-1.9,11,11,0,0,0,2.92-2c.11-.11.21-.23.27-.3C157.82,85.28,157.58,85.12,157.29,85.23Z"/><path d="M117.64,84.94a2.55,2.55,0,0,0,.24.5c.49.79.85.81,1.55,0-.25-.51-.52-1-.72-1.5-.36-.89-.64-1.81-1-2.7a2.44,2.44,0,0,0-1.36-1.49.52.52,0,0,0-.72.33c-.08.24-.18.47-.27.7s-.13.28-.1.39A5,5,0,0,0,116.93,84,1.89,1.89,0,0,1,117.64,84.94Z"/><path d="M122.62,72.24c.29.87.57,1.74.88,2.61.24.67.52,1.32.79,2a2.63,2.63,0,0,0,.33.37,11.44,11.44,0,0,0,.23-1.87,10.81,10.81,0,0,0-.8-3.49,2.6,2.6,0,0,0-1.34-1.5,1.56,1.56,0,0,0-.18.17A2,2,0,0,0,122.62,72.24Z"/><path d="M163.06,89.8a1.09,1.09,0,0,0,1.92,0C164.44,89.22,163.87,89.24,163.06,89.8Z"/><path d="M107.24,88.53a3.28,3.28,0,0,0,1.51.76c.09,0,.26-.13.39-.21C108.5,88.33,107.85,88.14,107.24,88.53Z"/><path d="M116.91,79.07c-.12.46.17.71.71,1-.09-.49-.16-.84-.22-1.16C117.15,78.84,117,78.82,116.91,79.07Z"/><path d="M122.2,67.61c.19.37.15.88.83.89C122.77,67.7,122.75,67.68,122.2,67.61Z"/><path d="M166.54,89.56c.19,0,.34-.09.35-.38l-.6-.07-.08.13C166.32,89.35,166.42,89.53,166.54,89.56Z"/><path d="M114.73,78.25v-.6C114.31,77.87,114.31,77.87,114.73,78.25Z"/><path d="M73.87,164.13l.29.17.07-.12-.32-.14Z"/><path d="M172,93.5H172a.25.25,0,0,0,0,.07l.05,0Z"/><polygon points="180.6 77.4 180.56 77.41 180.6 77.43 180.6 77.4"/><polygon points="73.45 163.67 73.45 163.63 73.41 163.65 73.45 163.67"/><path d="M102.67,96.47c-1,.47-1.91,1-2.88,1.41a16,16,0,0,0-4.17,3l-1.49,1.43a2.5,2.5,0,0,0-.76,1.87c0,.47.08,1,.08,1.48a.65.65,0,0,0,.53.64,1.31,1.31,0,0,0,.68,0,5,5,0,0,0,1.15-.46c.29-.17.65-.4.74-.67a9.15,9.15,0,0,1,1.55-2.43,6.13,6.13,0,0,1,2.24-2,6,6,0,0,0,1.86-1.63c.42-.51.82-1,1.26-1.53a1.57,1.57,0,0,0,.6-1.44A2.23,2.23,0,0,0,102.67,96.47Z"/><path d="M107.79,99a2.42,2.42,0,0,0-1.25.81,3.23,3.23,0,0,1-.51.47,1.55,1.55,0,0,0-.64,1.45c.94.82,1.82.28,2.54-.08a7,7,0,0,0,1.8-1.7,10.63,10.63,0,0,1,1.13-1.3,7.39,7.39,0,0,0,.93-1,5.05,5.05,0,0,0-2.92.73A5.58,5.58,0,0,1,107.79,99Z"/><path d="M83.67,111.27c-.21.26-.37.53-.09.86a6.65,6.65,0,0,0,1.94-3.08c-.22.28-.38.48-.55.68C84.54,110.25,84.1,110.76,83.67,111.27Z"/><path d="M156.57,93.68a.34.34,0,0,0,0,.1l0,0Z"/><path d="M118.6,22.34c-.07-.36-.09-.73-.17-1.09s-.38-.47-.78-.36c.14.81.09,1.63.89,2.08.07.64-.11,1.29.42,1.83a4.82,4.82,0,0,0,0-.85C118.86,23.41,118.71,22.88,118.6,22.34Z"/><path d="M156.47,59.78a4.38,4.38,0,0,0-1.18,1.68c.77.67.92.55,1.65.12a3.83,3.83,0,0,0,.59-.49c.47-.44.91-.92,1.39-1.35s1.07-.83,1.56-1.29c1.21-1.13,2.35-2.35,3.66-3.4a5,5,0,0,1,3.05-1.15,12,12,0,0,1,1.46.11,1.38,1.38,0,0,0,.48.06,4.63,4.63,0,0,1,2.16.16,2,2,0,0,0,1.85-.6c.48-.49.78-1.16,1.25-1.65a1.72,1.72,0,0,0,.42-1.4,1.17,1.17,0,0,0-.5-1,2.47,2.47,0,0,1-.53-.54c-.41-.5-.65-.55-1.24-.26a3.16,3.16,0,0,1-.79.25,7.78,7.78,0,0,0-1.08.14,8,8,0,0,0-2.34,1.45,10.85,10.85,0,0,1-1.55,1.14c-.75.42-1.47.89-2.19,1.35-.33.22-.64.46-1,.7a17.39,17.39,0,0,0-1.88,1.41,20.36,20.36,0,0,1-3,2.49,4.63,4.63,0,0,0-.48.4C157.68,58.65,157,59.19,156.47,59.78Z"/><path d="M176.3,46.76a2.78,2.78,0,0,1,1.63-1c.19,0,.34-.24.53-.4-.87-.46-2.41.43-2.74,1.5C176,47.12,176.16,47,176.3,46.76Z"/><path d="M161.52,50.58a1.45,1.45,0,0,0,.91-.82C161.73,49.86,161.49,50.06,161.52,50.58Z"/><path d="M162.43,49.76h0v0Z"/><polygon points="162.45 49.74 162.46 49.76 162.46 49.76 162.45 49.74"/><path d="M137.4,47.12a11.27,11.27,0,0,1,1.35-2.6c.55-.82.94-1.76,1.42-2.62s1.06-1.69,1.51-2.56c.74-1.44,1.41-2.92,2.12-4.37a4.06,4.06,0,0,1,.68-1A9.43,9.43,0,0,1,147,32.14a5,5,0,0,0,2.69-2.87c.16-.49.17-1,.32-1.47a1.81,1.81,0,0,0-.74-2.12,1,1,0,0,0-.76-.29c-.77.06-1.54.06-2.3.17a3.52,3.52,0,0,0-2,1.2A6.25,6.25,0,0,1,143,27.91a1.57,1.57,0,0,0-.72,1,10,10,0,0,1-.64,2,15,15,0,0,0-.91,2.33c-.28.9-.52,1.82-.86,2.7-.75,1.94-1.54,3.86-2.32,5.78a7.17,7.17,0,0,0-.3.71c-.28,1-.5,2.06-.82,3.06a2.09,2.09,0,0,0,.29,2.13C137,47.47,137.26,47.49,137.4,47.12Z"/><path d="M153.2,80c-.39.25-.8.47-1.2.7a6.19,6.19,0,0,0-.67.36c-1.08.76-2.16,1.52-3.22,2.31a1.84,1.84,0,0,0-.51.63c-.17.35,0,.64.4.71a1.31,1.31,0,0,0,1.07-.21c1.1-.84,2.21-1.66,3.3-2.51.54-.41,1-.84,1.57-1.27l1.48-1.2A3.19,3.19,0,0,0,153.2,80Z"/><polygon points="156.68 83.25 156.72 83.25 156.74 83.25 156.68 83.25"/><path d="M68.19,72.42a1,1,0,0,0,.44-.2c.59-.48,1.17-1,1.75-1.47s1-.91,1.49-1.34a12,12,0,0,0,1.29-1,2.71,2.71,0,0,1,1.25-.82c.55-.17,1.12-.3,1.68-.45a22.49,22.49,0,0,1,2.83-.7,1.91,1.91,0,0,0,1.53-.79,1.8,1.8,0,0,0-.43,0c-.59.08-1.17.21-1.77.27a29,29,0,0,0-4.72,1,33.9,33.9,0,0,0-4.89,2.18c-.22.09-.52.34-.52.52,0,.55-.36.88-.56,1.3a2.15,2.15,0,0,0-.18.87C67.36,72.39,67.58,72.56,68.19,72.42Z"/><path d="M250.78,1.12H1.22V178.88H250.78Zm-.13,177.63H1.35V1.24h249.3Z"/></g></svg>