<svg xmlns="http://www.w3.org/2000/svg" viewBox="0 0 252 180"><g id="Layer_3" data-name="Layer 3"><path d="M1.1,179H250.9V1H1.1ZM1.22,1.12H250.78V178.88H1.22Z"/><path d="M250.78,1.12H1.22V178.88H250.78Zm-.13,177.63H1.35V1.25h249.3Z"/><path d="M126,157.83a67.82,67.82,0,0,0,9.15-135,77.53,77.53,0,0,1,11.13,31.51c.82,7.07,3,25.85-6.95,40.6-.64,1-1.37,1.94-2.14,3a70.11,70.11,0,0,0-8.8,14.78,72.19,72.19,0,0,0-4.54,14.54l-.21,1.06-.67-.85a80.52,80.52,0,0,1-12-20.72c-3.23-8.19-8.62-21.89-5.06-36.9.63-2.64,4.4-11.11,11.92-28l.18-.4a67.54,67.54,0,0,0,4.38-11.89,56.73,56.73,0,0,0,1.36-7.3A67.82,67.82,0,0,0,126,157.83Z"/><path d="M125.65,14.1c1.52-.53,5.09,2.79,8.84,8.62l.66.08c-2.77-4.37-5.49-7.41-7.42-8.63a2.71,2.71,0,0,0-2.25-.55c-1.1.38-1.18,1.76-1.33,4.27-.07,1.17-.17,2.62-.37,4.34h.5C124.88,17.1,124.47,14.5,125.65,14.1Z"/><path d="M118,41.42l-.18.4c-7.52,16.88-11.29,25.35-11.92,28-3.56,15,1.83,28.71,5.06,36.9a80.52,80.52,0,0,0,12,20.72l.67.85.21-1.06a72.19,72.19,0,0,1,4.54-14.54,70.11,70.11,0,0,1,8.8-14.78c.77-1.05,1.5-2,2.14-3,10-14.75,7.77-33.53,6.95-40.6A77.53,77.53,0,0,0,135.15,22.8l-.66-.08a77.18,77.18,0,0,1,11.29,31.64c.84,7.2,3,25.68-6.86,40.27-2.73,4-7,8.77-11,17.85a72.6,72.6,0,0,0-4.57,14.64,80.3,80.3,0,0,1-11.9-20.59c-3.25-8.26-8.56-21.75-5-36.61.61-2.59,4.37-11,11.9-27.91a70.48,70.48,0,0,0,4.57-12.36,56.18,56.18,0,0,0,1.38-7.43h-.5a56.73,56.73,0,0,1-1.36,7.3A67.54,67.54,0,0,1,118,41.42Z"/><path d="M125.65,14.1c-1.18.4-.77,3-1.37,8.12l.51,0c.19-1.68.28-3.1.35-4.25.12-1.87.2-3.22.67-3.38h0a.66.66,0,0,1,.18,0,2.48,2.48,0,0,1,1.21.48c1.7,1.07,4.11,3.75,6.62,7.61l.67.09C130.74,16.89,127.17,13.57,125.65,14.1Z"/><path d="M145.28,54.42c.82,7,3,25.49-6.78,39.93-.62.93-1.35,1.91-2.11,3a70.91,70.91,0,0,0-8.91,15A72.74,72.74,0,0,0,123.09,126a79.62,79.62,0,0,1-11.16-19.61c-3.18-8.08-8.51-21.6-5-36.31.61-2.55,4.37-11,11.87-27.83l.18-.39a68.87,68.87,0,0,0,4.43-12,57.53,57.53,0,0,0,1.4-7.58l-.51,0a56.18,56.18,0,0,1-1.38,7.43A70.48,70.48,0,0,1,118.33,42C110.8,58.89,107,67.33,106.43,69.92c-3.53,14.86,1.78,28.35,5,36.61a80.3,80.3,0,0,0,11.9,20.59,72.6,72.6,0,0,1,4.57-14.64c3.95-9.08,8.26-13.81,11-17.85,9.85-14.59,7.7-33.07,6.86-40.27a77.18,77.18,0,0,0-11.29-31.64l-.67-.09A77.08,77.08,0,0,1,145.28,54.42Z"/></g></svg>