<svg xmlns="http://www.w3.org/2000/svg" viewBox="0 0 252 180"><g id="Layer_3" data-name="Layer 3"><path d="M1.22,178.88H250.78V1.12H1.22ZM56,45.55a79.16,79.16,0,0,1,14.62,1.57,70,70,0,0,1,112.65,2.53,97.91,97.91,0,0,1,16.21-5.19l2-.45-1.61,1.33q-6.69,5.53-12.46,11A70.06,70.06,0,1,1,65.52,54.64c-3.21-2.83-6.51-5.58-9.84-8.19l-1.16-.91Z"/><path d="M57.46,46.58c2.9,2.31,5.77,4.71,8.57,7.18A68.33,68.33,0,0,1,69.92,48,79.22,79.22,0,0,0,57.46,46.58Z"/><path d="M183.85,50.48c1.1,1.6,2.12,3.26,3.08,5q5-4.73,10.7-9.5A96.24,96.24,0,0,0,183.85,50.48Z"/><path d="M156.53,67.79a95.61,95.61,0,0,0-25.85,38.78l-.6,1.67-.37-1.74a76.59,76.59,0,0,0-21.44-38.94A75.49,75.49,0,0,0,69.92,48,68.33,68.33,0,0,0,66,53.76c1.11,1,2.2,2,3.29,2.94,12,11,19.22,17.56,25.42,28.08,8.4,14.27,11,22,11.05,22.12l.23.68a23.5,23.5,0,0,0,4.09,8.19c2.19,2.72,6.86,7.31,13.5,7.53,4.27.11,7.51-1.69,9.87-3,6.76-3.82,10.36-9.18,14.16-14.85l.43-.63c1.91-2.84,4-5.64,6-8.34,2.78-3.76,5.65-7.65,8.12-11.69,5.8-9.44,14.11-19.27,24.78-29.34-1-1.69-2-3.35-3.08-5A95,95,0,0,0,156.53,67.79Z"/></g></svg>